<?xml version="1.0" encoding="utf-8" standalone="no"?>
<!DOCTYPE svg PUBLIC "-//W3C//DTD SVG 1.1//EN"
  "http://www.w3.org/Graphics/SVG/1.1/DTD/svg11.dtd">
<svg xmlns:xlink="http://www.w3.org/1999/xlink" width="983.693118pt" height="1677.6pt" viewBox="0 0 983.693118 1677.6" xmlns="http://www.w3.org/2000/svg" version="1.1">
 <metadata>
  <rdf:RDF xmlns:dc="http://purl.org/dc/elements/1.1/" xmlns:cc="http://creativecommons.org/ns#" xmlns:rdf="http://www.w3.org/1999/02/22-rdf-syntax-ns#">
   <cc:Work>
    <dc:type rdf:resource="http://purl.org/dc/dcmitype/StillImage"/>
    <dc:date>2023-12-08T14:21:23.155696</dc:date>
    <dc:format>image/svg+xml</dc:format>
    <dc:creator>
     <cc:Agent>
      <dc:title>Matplotlib v3.8.2, https://matplotlib.org/</dc:title>
     </cc:Agent>
    </dc:creator>
   </cc:Work>
  </rdf:RDF>
 </metadata>
 <defs>
  <style type="text/css">*{stroke-linejoin: round; stroke-linecap: butt}</style>
 </defs>
 <g id="figure_1">
  <g id="patch_1">
   <path d="M 0 1677.6 
L 983.693118 1677.6 
L 983.693118 0 
L 0 0 
z
" style="fill: #ffffff"/>
  </g>
  <g id="axes_1">
   <g id="LineCollection_1">
    <path d="M 429.707876 115.966554 
L 433.965772 116.917447 
L 436.589012 116.330047 
L 442.405151 115.023572 
L 450.254885 114.579654 
L 454.759389 117.664054 
L 461.305168 128.052924 
L 468.644047 129.884785 
L 475.974269 124.188983 
L 481.781191 124.730138 
L 493.725907 134.60525 
L 502.24836 153.030551 
L 515.564509 165.938834 
L 527.361159 173.041929 
L 542.371712 187.101809 
L 556.815725 204.539005 
L 563.778485 221.928982 
L 543.226031 229.923927 
L 546.820742 247.688353 
L 551.43061 249.887614 
L 554.655187 251.427114 
L 566.936734 249.031425 
L 573.233954 251.235766 
L 581.443582 257.816236 
L 587.287394 260.728622 
" clip-path="url(#pf0417e9c26)" style="fill: none; stroke: #28c23f"/>
    <path d="M 638.651102 328.84457 
L 648.964326 351.201839 
L 649.351712 352.979239 
" clip-path="url(#pf0417e9c26)" style="fill: none; stroke: #28c23f"/>
    <path d="M 654.402061 376.150956 
L 658.981489 397.161568 
L 662.165102 457.772594 
L 666.624753 492.419317 
L 659.481244 556.004069 
L 657.292448 577.151229 
L 675.608643 620.908951 
L 685.176256 644.537731 
L 684.647771 674.638908 
L 691.545572 702.58923 
L 698.148722 708.369614 
" clip-path="url(#pf0417e9c26)" style="fill: none; stroke: #28c23f"/>
    <path d="M 724.025032 857.765622 
L 724.507007 862.623494 
L 725.821767 865.177414 
" clip-path="url(#pf0417e9c26)" style="fill: none; stroke: #28c23f"/>
    <path d="M 932.301264 1314.765034 
L 932.297366 1315.154382 
L 928.408589 1331.375098 
L 919.101057 1350.674625 
L 903.78724 1368.636257 
L 897.701914 1377.405985 
L 896.499661 1379.136913 
L 896.448955 1385.343219 
L 896.148196 1390.26456 
L 898.307831 1391.117732 
L 901.396417 1392.376236 
L 906.664294 1400.712501 
L 909.81483 1407.776093 
L 909.949093 1420.361429 
L 908.482597 1434.575282 
L 911.017575 1444.555936 
L 911.933681 1454.710052 
L 910.120918 1459.054307 
" clip-path="url(#pf0417e9c26)" style="fill: none; stroke: #28c23f"/>
    <path d="M 549.46338 1284.960609 
L 545.64707 1278.298135 
L 529.263019 1268.248914 
L 522.102133 1258.518179 
L 521.11969 1247.789349 
L 507.747563 1241.609376 
L 500.222287 1233.768107 
L 494.728306 1225.463646 
L 488.827049 1219.929166 
L 484.679273 1212.700124 
L 483.798513 1204.968329 
L 484.429859 1194.070217 
L 484.471957 1182.702074 
L 483.509015 1169.84348 
L 480.022865 1151.868379 
L 462.068782 1128.874944 
L 450.769945 1118.467189 
L 423.176741 1090.233071 
L 408.178275 1069.158823 
L 406.669202 1064.404494 
" clip-path="url(#pf0417e9c26)" style="fill: none; stroke: #28c23f"/>
    <path d="M 725.821767 865.177414 
L 727.622028 868.674409 
L 740.078642 869.479714 
L 746.005936 874.803673 
L 759.155789 896.672222 
L 776.274201 916.391914 
L 782.524781 930.139096 
L 783.113933 941.371059 
L 787.616874 945.068087 
L 798.266244 952.680858 
L 803.530058 961.756496 
L 806.543615 980.223735 
L 812.212835 983.207363 
L 818.374285 988.524817 
L 825.279375 997.350575 
L 826.056473 1000.492806 
" clip-path="url(#pf0417e9c26)" style="fill: none; stroke: #28c23f"/>
    <path d="M 826.056473 1000.492806 
L 831.17019 1021.170105 
L 842.733823 1054.136992 
L 846.510384 1063.239766 
L 854.447988 1080.717384 
L 868.444973 1096.797102 
L 879.645686 1109.01315 
L 883.598421 1116.346341 
L 884.265107 1123.832643 
L 888.261654 1135.028253 
L 893.750075 1143.167919 
L 895.003652 1150.64796 
L 892.98479 1159.564809 
L 891.052834 1165.673082 
L 891.227222 1170.825558 
L 894.662676 1173.714675 
L 902.298221 1173.751346 
L 904.782476 1175.599152 
L 909.244237 1186.321181 
L 913.792823 1194.46701 
L 915.874665 1202.406774 
L 917.538446 1221.575558 
" clip-path="url(#pf0417e9c26)" style="fill: none; stroke: #28c23f"/>
    <path d="M 406.669202 1064.404494 
L 405.208658 1059.803036 
L 404.475429 1045.761044 
L 402.293282 1027.989358 
L 401.102341 1015.125474 
L 403.320277 1002.694642 
L 400.361598 989.14441 
L 387.124077 946.070517 
L 387.761186 943.41624 
L 388.5216 942.075364 
" clip-path="url(#pf0417e9c26)" style="fill: none; stroke: #28c23f"/>
   </g>
   <g id="LineCollection_2">
    <path d="M 587.287394 260.728622 
L 602.898892 268.508815 
L 613.059626 287.556419 
L 623.362055 297.611878 
L 623.816981 310.734888 
L 636.517995 324.2203 
L 638.651102 328.84457 
" clip-path="url(#pf0417e9c26)" style="fill: none; stroke: #dbffe4"/>
    <path d="M 704.553868 721.952151 
L 708.071231 729.816798 
L 717.209555 750.089919 
L 723.327109 773.434994 
L 728.544632 800.538187 
L 728.822084 826.756494 
L 726.372681 839.190167 
L 722.92877 846.71621 
L 724.025032 857.765622 
" clip-path="url(#pf0417e9c26)" style="fill: none; stroke: #dbffe4"/>
    <path d="M 910.120918 1459.054307 
L 909.565697 1460.384882 
L 902.529131 1464.981874 
L 895.560975 1467.47143 
L 887.470208 1467.71767 
L 875.35215 1469.785837 
L 871.600445 1467.242916 
L 869.397162 1457.906308 
L 869.242548 1443.385939 
L 865.615013 1437.13118 
L 859.318424 1433.407701 
L 856.017652 1432.715205 
L 854.917978 1435.793597 
L 857.418318 1442.544184 
L 855.684823 1447.080761 
L 851.964104 1450.61752 
L 846.070578 1456.219305 
L 832.422001 1466.528319 
L 825.198146 1472.094659 
L 817.755727 1472.493733 
L 816.143869 1472.614948 
" clip-path="url(#pf0417e9c26)" style="fill: none; stroke: #dbffe4"/>
    <path d="M 597.102427 1372.978108 
L 594.131983 1371.86199 
L 586.830288 1370.296826 
L 583.367484 1368.500824 
L 577.998388 1367.700087 
L 571.961165 1367.085402 
L 566.712071 1364.108123 
L 565.908198 1358.539384 
L 565.944091 1352.558014 
L 566.593997 1345.194951 
L 567.963639 1337.614804 
L 569.009545 1328.644906 
" clip-path="url(#pf0417e9c26)" style="fill: none; stroke: #dbffe4"/>
    <path d="M 569.009545 1328.644906 
L 569.490889 1324.516771 
L 568.329077 1317.755592 
L 562.088282 1307.878191 
L 555.065354 1294.740384 
L 549.46338 1284.960609 
" clip-path="url(#pf0417e9c26)" style="fill: none; stroke: #dbffe4"/>
    <path d="M 388.5216 942.075364 
L 389.556284 940.250852 
L 387.377119 938.452579 
L 383.711933 937.33264 
L 378.751003 939.205256 
L 364.767832 936.204077 
L 354.74523 930.513983 
L 345.835082 920.176048 
L 338.697847 904.524371 
L 331.534923 886.389105 
L 324.645992 862.620443 
L 305.37463 829.875409 
L 294.609118 816.577424 
L 287.383659 808.374164 
L 284.807226 800.290321 
L 285.733819 793.492085 
L 287.506668 788.178423 
L 286.019561 772.963224 
L 286.750841 763.355557 
L 285.197093 757.741134 
L 285.304934 752.113297 
L 282.743174 745.187403 
L 278.713484 740.924359 
L 270.890617 739.184433 
L 268.191922 735.075203 
L 264.326601 714.585516 
L 260.93594 707.835797 
L 254.893722 701.772572 
L 245.93288 686.139436 
L 233.817066 670.702697 
L 221.61059 662.554511 
L 213.997241 648.89209 
L 203.433625 638.905854 
L 180.316363 619.281368 
L 174.911097 610.232261 
L 176.568811 593.994058 
L 174.348414 587.89118 
L 167.845922 585.474384 
L 159.365197 584.072247 
L 150.186648 579.698186 
L 141.787699 570.348391 
L 136.033439 559.649425 
L 133.795276 552.057147 
L 126.347408 538.232694 
L 117.043436 521.634893 
L 112.638644 512.880097 
L 114.129853 496.316028 
L 119.059297 491.465288 
L 118.694673 488.32234 
L 104.493628 479.694917 
L 101.624384 475.091975 
L 102.910885 470.93776 
L 106.680013 466.102783 
L 104.630304 460.660937 
L 99.957414 458.388934 
L 92.305321 456.978008 
L 86.033283 460.520552 
L 79.07457 461.913914 
L 69.556001 456.716308 
L 55.785891 441.463106 
L 51.51144 429.426808 
L 51.258778 420.987407 
L 57.231483 404.209805 
L 60.290001 378.688648 
L 65.054878 374.007342 
L 71.988688 369.962824 
L 73.61335 366.635639 
L 70.581569 362.361943 
L 66.076822 360.259569 
L 65.368176 355.96203 
L 66.502188 353.138938 
L 70.2779 348.9592 
L 70.908457 345.646028 
L 67.996989 336.902473 
L 70.043575 326.12326 
L 75.407425 314.814756 
L 81.82649 309.453564 
L 89.950868 308.375836 
L 96.619275 311.118794 
L 119.107964 318.502936 
L 126.632593 323.720826 
L 129.95238 323.686666 
L 133.24492 321.005132 
L 133.522661 315.706975 
L 130.821379 311.266154 
L 128.602225 305.494638 
L 127.979581 293.420907 
L 125.273205 288.481077 
L 118.206233 279.288906 
L 114.116531 269.067989 
L 114.404536 264.764025 
L 118.169797 259.593813 
L 119.122518 252.281072 
L 114.378319 246.059314 
L 107.343845 240.009664 
L 104.050845 226.473829 
L 102.009321 205.641231 
L 104.041994 193.540194 
L 106.965574 187.05292 
L 103.311547 170.709329 
L 102.604603 166.579402 
L 105.220592 162.746752 
L 104.832231 157.28782 
L 103.621882 152.667823 
L 106.065805 148.006453 
L 109.212669 128.404334 
L 111.551134 114.753452 
L 115.241704 107.900175 
L 126.448945 92.706594 
L 139.507258 83.116819 
L 145.486807 82.8 
L 150.540936 84.111766 
L 163.245854 89.859012 
L 165.672113 93.072137 
L 168.125557 98.921204 
L 170.171014 106.736406 
L 172.631558 113.271117 
L 176.610099 117.999669 
L 180.368657 126.311482 
L 183.639152 128.574911 
L 192.434758 127.973656 
L 206.824319 122.884053 
L 221.490163 119.921044 
L 228.133052 117.978057 
L 237.04792 112.350546 
L 242.837726 110.244905 
L 259.049027 110.907585 
L 267.387746 111.061222 
L 272.663168 106.911272 
L 279.161623 104.314367 
L 289.552 104.328549 
L 297.282335 103.886459 
L 304.030852 102.128796 
L 310.437285 102.424214 
L 316.034014 105.981397 
L 320.561965 111.595407 
L 320.761484 119.060104 
L 320.116222 126.659289 
L 323.211009 133.732005 
L 327.595909 137.06174 
L 337.394306 138.041843 
L 348.901119 140.813681 
L 359.284255 139.863762 
L 370.602765 136.012584 
L 378.863905 128.45599 
L 381.962874 124.446516 
L 386.776619 122.590633 
L 393.799163 123.9651 
L 400.966253 127.501876 
L 407.977502 127.790682 
L 417.471738 122.754438 
L 427.789347 115.538096 
L 429.707876 115.966554 
L 429.707876 115.966554 
" clip-path="url(#pf0417e9c26)" style="fill: none; stroke: #dbffe4"/>
    <path d="M 816.143869 1472.614948 
L 812.741613 1472.870802 
L 810.682516 1477.086984 
L 811.907398 1485.790229 
L 815.730139 1495.269696 
L 818.020611 1512.834061 
L 819.229243 1519.758413 
L 823.812688 1524.551655 
L 828.230835 1529.186643 
L 831.596368 1541.090003 
L 830.398154 1550.302801 
L 830.376033 1563.3736 
L 828.517331 1571.298168 
L 823.396828 1576.84214 
L 817.907056 1578.191897 
L 816.475712 1580.626164 
L 813.637041 1587.757311 
L 807.861131 1592.496768 
L 798.65291 1594.209761 
L 788.622337 1594.8 
L 784.391701 1592.909623 
L 775.851771 1581.217246 
L 766.156497 1567.605636 
L 764.947188 1560.357452 
L 763.919723 1539.872969 
L 762.897088 1535.041868 
L 764.762829 1527.761099 
L 766.505156 1524.032136 
L 763.386496 1520.190871 
L 759.647687 1518.615234 
L 746.198243 1517.146233 
L 737.028674 1522.729043 
L 728.301263 1523.95282 
L 723.281851 1523.842101 
L 719.045481 1521.144026 
L 716.579622 1517.619599 
L 717.118857 1507.450023 
L 714.957159 1501.983319 
L 710.223268 1498.162859 
L 702.884707 1492.914663 
L 692.99944 1476.72184 
L 688.290357 1459.990507 
L 688.421885 1458.468516 
" clip-path="url(#pf0417e9c26)" style="fill: none; stroke: #dbffe4"/>
   </g>
   <g id="LineCollection_3">
    <path d="M 916.457738 1235.139905 
L 912.298879 1241.62244 
L 909.141273 1253.835289 
L 908.596745 1258.05447 
L 910.449298 1259.105192 
L 911.434349 1259.662306 
L 913.910094 1260.458753 
L 922.728968 1272.539977 
L 922.447784 1274.42109 
L 922.290172 1275.470401 
L 932.43434 1301.472798 
L 932.301264 1314.765034 
" clip-path="url(#pf0417e9c26)" style="fill: none; stroke: #e9a23d"/>
    <path d="M 917.538446 1221.575558 
L 917.749073 1224.00221 
L 916.457738 1235.139905 
" clip-path="url(#pf0417e9c26)" style="fill: none; stroke: #e9a23d"/>
   </g>
   <g id="LineCollection_4">
    <path d="M 649.351712 352.979239 
L 654.402061 376.150956 
" clip-path="url(#pf0417e9c26)" style="fill: none; stroke: #ec4243"/>
    <path d="M 698.148722 708.369614 
L 698.692027 708.84522 
L 704.553868 721.952151 
" clip-path="url(#pf0417e9c26)" style="fill: none; stroke: #ec4243"/>
    <path d="M 688.421885 1458.468516 
L 689.155992 1449.97368 
L 692.171278 1444.296086 
L 697.482689 1441.333298 
L 700.019095 1436.304564 
L 701.378875 1427.093943 
L 700.163068 1419.201972 
L 698.040739 1417.449144 
L 694.969263 1417.801591 
L 690.979363 1423.169482 
L 685.333109 1425.164354 
L 674.800687 1425.869816 
L 670.378062 1419.032626 
L 669.480951 1410.809654 
L 672.659632 1405.602747 
L 676.83069 1400.172027 
L 679.320769 1391.246635 
L 675.05089 1387.31072 
L 663.775 1387.197301 
L 641.997037 1383.50305 
L 607.141012 1376.749975 
L 597.102427 1372.978108 
" clip-path="url(#pf0417e9c26)" style="fill: none; stroke: #ec4243"/>
   </g>
   <g id="legend_1">
    <g id="patch_2">
     <path d="M 924.796243 73.9125 
L 969.493118 73.9125 
Q 971.493118 73.9125 971.493118 71.9125 
L 971.493118 14.2 
Q 971.493118 12.2 969.493118 12.2 
L 924.796243 12.2 
Q 922.796243 12.2 922.796243 14.2 
L 922.796243 71.9125 
Q 922.796243 73.9125 924.796243 73.9125 
z
" style="fill: #ffffff; opacity: 0.8; stroke: #cccccc; stroke-linejoin: miter"/>
    </g>
    <g id="line2d_1">
     <path d="M 926.796243 20.298438 
L 946.796243 20.298438 
" style="fill: none; stroke: #28c23f"/>
    </g>
    <g id="text_1">
     <!-- fa -->
     <g transform="translate(954.796243 23.798438) scale(0.1 -0.1)">
      <defs>
       <path id="DejaVuSans-66" d="M 2375 4863 
L 2375 4384 
L 1825 4384 
Q 1516 4384 1395 4259 
Q 1275 4134 1275 3809 
L 1275 3500 
L 2222 3500 
L 2222 3053 
L 1275 3053 
L 1275 0 
L 697 0 
L 697 3053 
L 147 3053 
L 147 3500 
L 697 3500 
L 697 3744 
Q 697 4328 969 4595 
Q 1241 4863 1831 4863 
L 2375 4863 
z
" transform="scale(0.015625)"/>
       <path id="DejaVuSans-61" d="M 2194 1759 
Q 1497 1759 1228 1600 
Q 959 1441 959 1056 
Q 959 750 1161 570 
Q 1363 391 1709 391 
Q 2188 391 2477 730 
Q 2766 1069 2766 1631 
L 2766 1759 
L 2194 1759 
z
M 3341 1997 
L 3341 0 
L 2766 0 
L 2766 531 
Q 2569 213 2275 61 
Q 1981 -91 1556 -91 
Q 1019 -91 701 211 
Q 384 513 384 1019 
Q 384 1609 779 1909 
Q 1175 2209 1959 2209 
L 2766 2209 
L 2766 2266 
Q 2766 2663 2505 2880 
Q 2244 3097 1772 3097 
Q 1472 3097 1187 3025 
Q 903 2953 641 2809 
L 641 3341 
Q 956 3463 1253 3523 
Q 1550 3584 1831 3584 
Q 2591 3584 2966 3190 
Q 3341 2797 3341 1997 
z
" transform="scale(0.015625)"/>
      </defs>
      <use xlink:href="#DejaVuSans-66"/>
      <use xlink:href="#DejaVuSans-61" x="35.205078"/>
     </g>
    </g>
    <g id="line2d_2">
     <path d="M 926.796243 34.976562 
L 946.796243 34.976562 
" style="fill: none; stroke: #dbffe4"/>
    </g>
    <g id="text_2">
     <!-- ff -->
     <g transform="translate(954.796243 38.476562) scale(0.1 -0.1)">
      <use xlink:href="#DejaVuSans-66"/>
      <use xlink:href="#DejaVuSans-66" x="35.205078"/>
     </g>
    </g>
    <g id="line2d_3">
     <path d="M 926.796243 49.654688 
L 946.796243 49.654688 
" style="fill: none; stroke: #e9a23d"/>
    </g>
    <g id="text_3">
     <!-- pa -->
     <g transform="translate(954.796243 53.154688) scale(0.1 -0.1)">
      <defs>
       <path id="DejaVuSans-70" d="M 1159 525 
L 1159 -1331 
L 581 -1331 
L 581 3500 
L 1159 3500 
L 1159 2969 
Q 1341 3281 1617 3432 
Q 1894 3584 2278 3584 
Q 2916 3584 3314 3078 
Q 3713 2572 3713 1747 
Q 3713 922 3314 415 
Q 2916 -91 2278 -91 
Q 1894 -91 1617 61 
Q 1341 213 1159 525 
z
M 3116 1747 
Q 3116 2381 2855 2742 
Q 2594 3103 2138 3103 
Q 1681 3103 1420 2742 
Q 1159 2381 1159 1747 
Q 1159 1113 1420 752 
Q 1681 391 2138 391 
Q 2594 391 2855 752 
Q 3116 1113 3116 1747 
z
" transform="scale(0.015625)"/>
      </defs>
      <use xlink:href="#DejaVuSans-70"/>
      <use xlink:href="#DejaVuSans-61" x="63.476562"/>
     </g>
    </g>
    <g id="line2d_4">
     <path d="M 926.796243 64.332813 
L 946.796243 64.332813 
" style="fill: none; stroke: #ec4243"/>
    </g>
    <g id="text_4">
     <!-- pp -->
     <g transform="translate(954.796243 67.832813) scale(0.1 -0.1)">
      <use xlink:href="#DejaVuSans-70"/>
      <use xlink:href="#DejaVuSans-70" x="63.476562"/>
     </g>
    </g>
   </g>
  </g>
 </g>
 <defs>
  <clipPath id="pf0417e9c26">
   <rect x="7.2" y="7.2" width="969.293118" height="1663.2"/>
  </clipPath>
 </defs>
</svg>
