<?xml version="1.0" encoding="utf-8" standalone="no"?>
<!DOCTYPE svg PUBLIC "-//W3C//DTD SVG 1.1//EN"
  "http://www.w3.org/Graphics/SVG/1.1/DTD/svg11.dtd">
<svg xmlns:xlink="http://www.w3.org/1999/xlink" width="1688.4pt" height="1154.120691pt" viewBox="0 0 1688.4 1154.120691" xmlns="http://www.w3.org/2000/svg" version="1.1">
 <metadata>
  <rdf:RDF xmlns:dc="http://purl.org/dc/elements/1.1/" xmlns:cc="http://creativecommons.org/ns#" xmlns:rdf="http://www.w3.org/1999/02/22-rdf-syntax-ns#">
   <cc:Work>
    <dc:type rdf:resource="http://purl.org/dc/dcmitype/StillImage"/>
    <dc:date>2023-12-08T14:21:24.405353</dc:date>
    <dc:format>image/svg+xml</dc:format>
    <dc:creator>
     <cc:Agent>
      <dc:title>Matplotlib v3.8.2, https://matplotlib.org/</dc:title>
     </cc:Agent>
    </dc:creator>
   </cc:Work>
  </rdf:RDF>
 </metadata>
 <defs>
  <style type="text/css">*{stroke-linejoin: round; stroke-linecap: butt}</style>
 </defs>
 <g id="figure_1">
  <g id="patch_1">
   <path d="M 0 1154.120691 
L 1688.4 1154.120691 
L 1688.4 0 
L 0 0 
z
" style="fill: #ffffff"/>
  </g>
  <g id="axes_1">
   <g id="LineCollection_1">
    <path d="M 643.876585 1050.172305 
L 643.822549 1050.198286 
L 643.332801 1050.433549 
L 638.3877 1050.549353 
L 637.665212 1050.382757 
L 637.578135 1050.362592 
" clip-path="url(#pcc549e2eeb)" style="fill: none; stroke: #28c23f"/>
    <path d="M 743.652272 948.773354 
L 742.799057 950.568337 
" clip-path="url(#pcc549e2eeb)" style="fill: none; stroke: #28c23f"/>
    <path d="M 746.547203 939.838326 
L 746.298998 940.816303 
L 745.755381 942.041534 
L 744.520841 945.117546 
" clip-path="url(#pcc549e2eeb)" style="fill: none; stroke: #28c23f"/>
    <path d="M 856.159924 828.426805 
L 856.32763 828.827745 
L 856.515694 830.537631 
L 856.105542 832.864464 
L 855.506927 833.876476 
" clip-path="url(#pcc549e2eeb)" style="fill: none; stroke: #28c23f"/>
    <path d="M 854.894907 825.01856 
L 854.838603 825.267858 
L 855.604791 827.099625 
" clip-path="url(#pcc549e2eeb)" style="fill: none; stroke: #28c23f"/>
    <path d="M 863.537471 803.810506 
L 863.128699 804.380639 
L 861.201497 809.238554 
L 860.66954 809.898493 
" clip-path="url(#pcc549e2eeb)" style="fill: none; stroke: #28c23f"/>
    <path d="M 876.68088 803.09873 
L 871.92022 802.759467 
L 870.685559 802.659304 
L 868.119919 802.450185 
L 866.06401 802.485436 
" clip-path="url(#pcc549e2eeb)" style="fill: none; stroke: #28c23f"/>
    <path d="M 892.948711 800.35395 
L 893.122242 800.483288 
" clip-path="url(#pcc549e2eeb)" style="fill: none; stroke: #28c23f"/>
    <path d="M 882.803178 803.534981 
L 880.906918 803.399866 
" clip-path="url(#pcc549e2eeb)" style="fill: none; stroke: #28c23f"/>
    <path d="M 893.122242 800.483288 
L 893.258418 800.584784 
L 893.763196 801.13323 
L 893.694015 802.386959 
L 893.431031 802.763325 
L 889.858779 804.42821 
L 889.351387 804.572617 
L 888.829921 803.263798 
L 887.256774 803.053357 
L 884.757998 803.674262 
L 882.803178 803.534981 
" clip-path="url(#pcc549e2eeb)" style="fill: none; stroke: #28c23f"/>
    <path d="M 912.511828 784.984262 
L 912.24874 785.240788 
L 907.353205 789.441445 
" clip-path="url(#pcc549e2eeb)" style="fill: none; stroke: #28c23f"/>
    <path d="M 981.609955 736.769277 
L 979.656955 737.411181 
L 975.643714 740.403219 
L 974.813124 741.725077 
" clip-path="url(#pcc549e2eeb)" style="fill: none; stroke: #28c23f"/>
    <path d="M 999.932141 715.536957 
L 999.915459 715.623559 
L 999.605151 716.151652 
" clip-path="url(#pcc549e2eeb)" style="fill: none; stroke: #28c23f"/>
    <path d="M 999.605151 716.151652 
L 998.768168 717.576054 
" clip-path="url(#pcc549e2eeb)" style="fill: none; stroke: #28c23f"/>
    <path d="M 1000.728468 705.188561 
L 1000.777078 705.986227 
L 1001.18795 709.017824 
L 999.932141 715.536957 
" clip-path="url(#pcc549e2eeb)" style="fill: none; stroke: #28c23f"/>
    <path d="M 1014.090805 696.239187 
L 1010.023236 697.244651 
L 1007.700074 697.712905 
L 1005.644594 699.179847 
L 1002.788936 702.054112 
L 1002.553963 702.18964 
" clip-path="url(#pcc549e2eeb)" style="fill: none; stroke: #28c23f"/>
    <path d="M 1051.816089 671.410731 
L 1051.774692 671.48384 
L 1052.184554 671.736347 
L 1051.939738 672.523449 
L 1051.676852 673.26259 
L 1051.166904 674.034736 
L 1050.602611 674.655174 
L 1050.151729 674.964416 
L 1049.722605 675.064521 
L 1048.913871 674.461459 
L 1047.016523 676.562481 
L 1040.34937 678.750387 
L 1040.349299 678.818474 
" clip-path="url(#pcc549e2eeb)" style="fill: none; stroke: #28c23f"/>
    <path d="M 1075.401705 641.315167 
L 1072.772303 643.264533 
L 1068.877069 645.27259 
L 1070.514743 647.53515 
L 1070.323975 647.882926 
L 1070.126038 647.907927 
" clip-path="url(#pcc549e2eeb)" style="fill: none; stroke: #28c23f"/>
    <path d="M 1109.414611 626.515141 
L 1106.82687 627.30659 
L 1105.343628 627.355612 
" clip-path="url(#pcc549e2eeb)" style="fill: none; stroke: #28c23f"/>
    <path d="M 1124.261369 622.102055 
L 1124.16852 622.135153 
L 1121.757519 622.985716 
" clip-path="url(#pcc549e2eeb)" style="fill: none; stroke: #28c23f"/>
    <path d="M 1151.528348 606.442359 
L 1151.301405 606.536296 
L 1148.460337 606.436214 
" clip-path="url(#pcc549e2eeb)" style="fill: none; stroke: #28c23f"/>
    <path d="M 1319.534455 567.871746 
L 1314.907652 568.432463 
L 1314.86423 568.461511 
" clip-path="url(#pcc549e2eeb)" style="fill: none; stroke: #28c23f"/>
    <path d="M 1357.711491 539.326403 
L 1357.478669 540.014637 
" clip-path="url(#pcc549e2eeb)" style="fill: none; stroke: #28c23f"/>
    <path d="M 1358.207127 537.818578 
L 1357.87243 538.850655 
L 1357.711491 539.326403 
" clip-path="url(#pcc549e2eeb)" style="fill: none; stroke: #28c23f"/>
    <path d="M 1400.305013 515.184387 
L 1400.251188 515.180647 
L 1400.071583 515.431763 
L 1392.529495 515.870751 
L 1392.265304 514.587697 
L 1389.140877 515.389904 
L 1385.13452 515.813835 
L 1384.11454 515.880349 
L 1381.760968 516.987097 
L 1377.278406 520.096829 
L 1366.486478 529.862496 
L 1362.242554 532.682131 
L 1359.550019 535.302313 
" clip-path="url(#pcc549e2eeb)" style="fill: none; stroke: #28c23f"/>
    <path d="M 1432.494953 512.196168 
L 1432.05946 512.323172 
" clip-path="url(#pcc549e2eeb)" style="fill: none; stroke: #28c23f"/>
    <path d="M 1503.262617 479.489369 
L 1503.030178 479.856165 
" clip-path="url(#pcc549e2eeb)" style="fill: none; stroke: #28c23f"/>
    <path d="M 1505.978774 474.014415 
L 1505.015415 475.227456 
L 1504.737668 475.934067 
" clip-path="url(#pcc549e2eeb)" style="fill: none; stroke: #28c23f"/>
    <path d="M 1508.327165 471.057348 
L 1508.111544 471.328856 
" clip-path="url(#pcc549e2eeb)" style="fill: none; stroke: #28c23f"/>
    <path d="M 1513.668986 452.803358 
L 1513.622344 452.886127 
L 1513.522207 453.366778 
L 1513.544241 453.933944 
L 1513.507292 454.549147 
L 1513.299433 456.345624 
L 1510.912176 462.997283 
L 1510.962798 464.243706 
L 1511.155747 465.286628 
L 1511.181631 466.21775 
L 1511.000448 467.332666 
L 1510.669977 468.51682 
L 1510.10214 469.362113 
L 1508.385738 470.983592 
L 1508.327165 471.057348 
" clip-path="url(#pcc549e2eeb)" style="fill: none; stroke: #28c23f"/>
    <path d="M 1589.241847 423.406132 
L 1596.42802 424.285871 
L 1601.659367 422.544146 
L 1602.246073 423.342419 
L 1603.161364 433.480635 
L 1603.375619 437.233111 
L 1603.641768 441.894053 
L 1603.935978 443.361764 
L 1605.109091 444.242004 
L 1605.108831 446.670148 
L 1604.593029 447.327992 
L 1598.068075 448.055982 
L 1594.101717 447.761456 
L 1578.775879 450.778539 
L 1574.598664 452.456598 
L 1568.144444 453.488339 
L 1563.744158 455.319121 
L 1561.792094 456.488344 
L 1560.40865 457.259742 
L 1554.77906 458.812662 
L 1550.514492 459.578837 
L 1549.161111 459.958244 
L 1547.438548 460.232127 
L 1540.567365 461.479927 
L 1533.749903 461.187087 
L 1531.472873 460.236671 
L 1526.709286 456.927871 
L 1522.291263 454.673553 
L 1519.565168 453.560295 
L 1518.649222 453.105834 
L 1517.888682 452.619859 
L 1517.478372 452.345448 
L 1517.08922 452.087616 
L 1516.636212 451.909222 
L 1516.195755 451.823239 
L 1515.780094 451.804654 
L 1515.406722 451.817923 
L 1515.00772 451.868188 
L 1514.997976 451.870785 
" clip-path="url(#pcc549e2eeb)" style="fill: none; stroke: #28c23f"/>
    <path d="M 1573.116988 373.787886 
L 1573.115391 373.829376 
L 1536.835765 377.153811 
L 1530.466632 380.38984 
" clip-path="url(#pcc549e2eeb)" style="fill: none; stroke: #28c23f"/>
    <path d="M 1567.554734 359.052238 
L 1564.50768 359.673772 
L 1558.768878 360.260595 
L 1542.177161 362.222147 
L 1537.934034 358.280341 
L 1535.875514 359.666706 
L 1536.414608 361.448367 
L 1535.164428 361.457945 
L 1534.779166 360.410681 
L 1533.55751 359.591226 
L 1531.482358 358.755895 
L 1523.689125 357.597315 
L 1523.087158 358.605025 
L 1524.524765 359.534107 
L 1526.464926 361.077766 
L 1532.899896 364.087539 
L 1534.322686 366.651717 
L 1535.585989 367.917946 
L 1539.063914 366.902532 
L 1548.523464 366.689482 
L 1552.897792 366.357106 
L 1558.950988 366.954562 
L 1561.155047 366.895028 
L 1565.619641 366.340435 
L 1569.655132 366.323327 
L 1573.148883 366.592829 
" clip-path="url(#pcc549e2eeb)" style="fill: none; stroke: #28c23f"/>
    <path d="M 1524.066656 282.177169 
L 1529.035242 280.118742 
L 1532.506689 277.617387 
" clip-path="url(#pcc549e2eeb)" style="fill: none; stroke: #28c23f"/>
    <path d="M 1533.480728 252.533817 
L 1532.633675 254.924227 
L 1525.123694 265.756391 
L 1521.559054 269.224774 
" clip-path="url(#pcc549e2eeb)" style="fill: none; stroke: #28c23f"/>
    <path d="M 1541.15097 188.411261 
L 1539.871805 190.140432 
L 1537.765498 198.973861 
L 1534.885817 208.104411 
L 1532.033388 211.781923 
L 1529.939501 215.602433 
" clip-path="url(#pcc549e2eeb)" style="fill: none; stroke: #28c23f"/>
    <path d="M 1519.020457 222.119892 
L 1520.284859 214.787885 
L 1521.004415 210.614042 
L 1523.499062 204.894596 
L 1525.959718 201.808731 
L 1529.722688 191.440996 
L 1530.637524 190.248867 
L 1531.266039 189.36462 
L 1532.856824 185.301559 
L 1535.814024 172.74596 
L 1536.811835 167.026158 
L 1538.002802 159.309206 
L 1538.97442 156.9509 
L 1539.798814 155.923489 
L 1540.030188 156.07802 
" clip-path="url(#pcc549e2eeb)" style="fill: none; stroke: #28c23f"/>
    <path d="M 1456.207064 209.704928 
L 1456.248468 209.762156 
L 1459.643436 214.451646 
L 1459.30316 215.894291 
L 1463.097787 221.380297 
L 1466.711916 226.605974 
L 1467.224782 227.348273 
L 1475.426858 241.171753 
L 1475.536946 241.344606 
L 1478.136937 245.419448 
L 1479.99871 248.219802 
L 1480.617445 249.150677 
L 1481.894638 249.142009 
L 1483.512175 248.048181 
L 1485.597023 246.978543 
L 1485.98985 247.597737 
L 1495.444666 242.63879 
L 1499.815887 239.564209 
L 1500.151706 238.531314 
L 1498.145027 232.276052 
L 1498.948347 230.022612 
L 1504.122284 226.726061 
L 1506.052752 225.496055 
L 1507.170118 225.173175 
L 1508.081013 225.565108 
L 1510.095409 227.626752 
L 1510.81909 228.341296 
" clip-path="url(#pcc549e2eeb)" style="fill: none; stroke: #28c23f"/>
    <path d="M 1444.592629 188.899866 
L 1445.186876 189.267837 
L 1446.567769 191.504135 
L 1448.417371 194.499192 
L 1451.339813 198.829277 
L 1454.503575 207.351064 
L 1455.858025 209.222492 
L 1456.207064 209.704928 
" clip-path="url(#pcc549e2eeb)" style="fill: none; stroke: #28c23f"/>
    <path d="M 1410.428174 147.399226 
L 1412.076001 153.690852 
L 1417.415722 161.568376 
L 1418.661866 163.728857 
L 1422.420956 169.136116 
L 1422.8104 169.319621 
L 1423.58699 168.800751 
L 1423.823577 169.07936 
" clip-path="url(#pcc549e2eeb)" style="fill: none; stroke: #28c23f"/>
    <path d="M 1397.940064 135.963446 
L 1398.192677 136.313875 
L 1399.815409 139.110881 
L 1400.5032 139.25252 
L 1401.576894 139.229373 
L 1405.942231 145.451755 
L 1406.51248 145.963432 
L 1407.197145 146.132521 
L 1408.259476 145.575928 
L 1408.86387 145.36286 
L 1409.179972 145.349366 
L 1409.5116 145.595236 
L 1410.189307 146.488579 
L 1410.377075 147.204125 
L 1410.428174 147.399226 
" clip-path="url(#pcc549e2eeb)" style="fill: none; stroke: #28c23f"/>
    <path d="M 1378.198016 95.061675 
L 1378.299533 95.052569 
L 1378.497735 104.36226 
L 1379.586817 113.970463 
L 1380.280429 115.655525 
L 1382.715197 118.80859 
L 1384.978785 120.853071 
L 1387.61048 124.371838 
L 1389.888336 124.173199 
L 1392.580357 127.414264 
L 1395.314869 131.103389 
L 1395.759508 134.978337 
L 1397.285477 135.05539 
L 1397.940064 135.963446 
" clip-path="url(#pcc549e2eeb)" style="fill: none; stroke: #28c23f"/>
    <path d="M 1374.557029 81.851088 
L 1374.56857 81.850072 
L 1375.465348 95.306785 
L 1378.198016 95.061675 
" clip-path="url(#pcc549e2eeb)" style="fill: none; stroke: #28c23f"/>
    <path d="M 1364.975316 70.115585 
L 1366.442191 72.156262 
L 1369.697687 74.993309 
L 1371.121724 76.626183 
L 1372.315404 77.997005 
L 1373.385599 79.294057 
" clip-path="url(#pcc549e2eeb)" style="fill: none; stroke: #28c23f"/>
    <path d="M 1234.025308 123.361351 
L 1240.233429 125.373338 
L 1242.404065 125.824218 
L 1244.529296 124.220935 
L 1245.609739 122.531756 
L 1247.949863 117.86114 
L 1255.812111 109.635192 
L 1259.214093 103.61751 
L 1264.740343 98.663365 
L 1269.659658 89.182062 
L 1272.8763 85.042504 
L 1281.053234 74.055081 
L 1291.11931 65.3995 
L 1294.946946 62.097065 
L 1298.95455 60.406676 
L 1303.980331 59.91157 
L 1307.462594 59.005486 
L 1313.440652 59.107908 
L 1317.228425 60.906281 
L 1321.357586 62.279736 
L 1325.614168 62.969825 
L 1327.862455 65.243083 
L 1332.44738 67.217669 
L 1335.725347 68.375269 
L 1340.880232 68.764823 
L 1341.231488 68.860648 
" clip-path="url(#pcc549e2eeb)" style="fill: none; stroke: #28c23f"/>
    <path d="M 1122.972878 165.366144 
L 1125.941535 165.130254 
L 1129.2571 164.963846 
L 1136.918638 162.345286 
L 1139.873034 162.414797 
L 1144.608054 161.576265 
L 1147.246024 162.054462 
L 1150.007866 160.140202 
L 1159.034701 156.199217 
L 1164.969701 153.758123 
L 1166.969626 154.086981 
L 1167.917517 153.403594 
L 1168.063466 152.734309 
L 1173.148991 152.245613 
L 1174.485447 152.937095 
L 1174.823985 153.837929 
L 1174.996122 154.296776 
L 1181.36001 150.065731 
L 1186.73045 145.683813 
L 1192.125901 144.731561 
L 1195.929382 142.785719 
L 1197.240306 141.874089 
L 1198.346514 141.073054 
L 1201.910646 136.555852 
L 1208.61944 130.725395 
L 1210.220479 130.025208 
L 1210.954083 129.545461 
" clip-path="url(#pcc549e2eeb)" style="fill: none; stroke: #28c23f"/>
    <path d="M 1047.559228 277.277284 
L 1046.979798 274.768386 
L 1049.70199 274.180825 
L 1049.70249 273.688933 
L 1047.766448 273.712209 
L 1045.959503 270.684078 
L 1045.506652 266.126711 
L 1041.589121 265.695191 
L 1039.603002 266.329931 
L 1038.455357 266.854832 
L 1037.629564 265.192622 
L 1047.292224 260.014273 
L 1038.32738 244.234343 
L 1026.768195 222.702499 
L 1026.310156 222.375146 
L 1026.240936 221.939265 
L 1025.817877 221.538239 
L 1025.56225 221.486579 
L 1019.97963 211.554145 
L 1020.145808 211.46645 
L 1019.999882 211.206735 
L 1020.212458 211.076482 
L 1019.667949 210.049988 
L 1019.450683 210.171189 
L 1019.316992 209.937356 
L 1019.168916 210.023431 
L 1017.917056 207.623602 
L 1016.241118 203.718957 
L 1016.648845 203.290447 
L 1016.334412 202.984079 
L 1015.980854 203.08677 
L 1014.976524 200.219458 
L 1015.433027 199.885347 
L 1015.684884 199.459545 
L 1015.755885 199.006875 
L 1015.645577 198.553441 
L 1014.932417 197.836484 
L 1014.187607 197.593693 
L 1013.296592 194.256013 
L 1013.327338 193.155593 
L 1013.701869 193.164745 
L 1014.068314 193.021385 
L 1014.287025 192.722718 
L 1017.875031 194.090377 
L 1019.001967 191.440464 
L 1016.039428 190.176763 
L 1016.13741 189.607504 
L 1016.002341 189.294105 
L 1015.401942 188.962695 
L 1016.784741 186.013473 
L 1018.407549 186.705491 
L 1020.954153 181.926381 
L 1025.194712 180.422696 
L 1025.682046 176.700965 
L 1026.323089 176.13792 
L 1028.700202 175.27461 
L 1028.593583 174.929406 
L 1029.437411 174.768603 
L 1030.973398 174.638818 
L 1036.041112 175.25 
L 1036.145169 176.906501 
L 1036.683361 177.309431 
L 1037.118404 176.889567 
L 1037.90013 176.545868 
L 1038.049763 176.549788 
L 1038.768208 176.68472 
L 1039.103356 177.296025 
L 1041.196804 177.11346 
L 1041.49715 175.725218 
L 1043.952177 176.006054 
L 1048.913679 176.450683 
L 1053.875292 176.329023 
L 1056.469007 175.673213 
L 1056.48854 175.753765 
L 1056.50515 175.822627 
L 1057.692498 175.556644 
L 1057.668411 175.474866 
L 1057.646205 175.396969 
L 1060.249258 174.913206 
L 1061.337526 174.839435 
L 1062.490283 174.981123 
L 1063.988379 175.381648 
L 1065.430836 176.074095 
L 1064.992152 177.635679 
L 1066.201912 178.70664 
L 1067.281068 180.032995 
L 1070.429268 181.855583 
L 1072.835554 182.146303 
L 1073.344484 182.065662 
L 1073.838224 181.841765 
L 1074.015833 181.526835 
L 1074.360878 180.625768 
L 1075.436886 180.420411 
L 1075.5172 179.932345 
L 1075.625712 178.307366 
L 1076.951794 177.265224 
L 1078.863204 176.313325 
L 1080.227906 176.029856 
L 1080.670848 176.790608 
L 1097.63921 173.238808 
L 1097.702312 172.790794 
L 1097.702312 172.790794 
" clip-path="url(#pcc549e2eeb)" style="fill: none; stroke: #28c23f"/>
    <path d="M 1039.077683 379.846009 
L 1039.728271 378.104017 
L 1039.337066 377.663301 
L 1037.971918 377.11036 
L 1038.169213 376.568074 
L 1038.938599 376.805197 
L 1040.432016 372.536229 
L 1041.018999 371.826679 
L 1040.971886 368.493911 
L 1040.511304 353.38401 
L 1042.207736 349.114114 
L 1044.212035 345.812184 
L 1047.004549 345.342144 
L 1048.155837 346.164955 
L 1049.462572 346.386187 
L 1050.692381 346.14688 
L 1051.183522 345.350269 
L 1051.387262 344.450371 
L 1051.056412 341.956268 
L 1050.478087 341.859352 
L 1049.931943 341.892348 
L 1049.318806 342.191371 
L 1049.565771 343.773623 
L 1045.282152 344.680622 
L 1044.05949 341.059096 
L 1042.393049 339.548517 
L 1041.277506 339.267843 
L 1039.598814 339.345329 
L 1035.984893 341.223081 
L 1034.470907 342.325817 
L 1034.083754 344.097851 
L 1032.089895 345.395504 
L 1029.541481 345.4085 
L 1027.606751 344.318761 
L 1028.908755 340.0962 
L 1033.37056 337.914089 
L 1036.957715 335.280072 
L 1037.1108 335.167812 
L 1042.876953 333.386985 
L 1047.160568 332.900124 
L 1047.614803 332.431645 
L 1048.386937 332.204225 
L 1048.702883 333.478665 
L 1049.408698 339.439432 
L 1049.227597 339.869233 
L 1048.622418 340.260752 
L 1048.574353 340.728683 
L 1048.733258 341.106897 
L 1049.736699 341.145528 
L 1050.736381 340.707995 
L 1050.906815 338.832738 
L 1050.441854 338.112796 
L 1049.62048 334.627811 
L 1049.969811 331.675645 
L 1050.335764 328.584888 
L 1049.350375 323.021714 
L 1049.311327 317.175418 
" clip-path="url(#pcc549e2eeb)" style="fill: none; stroke: #28c23f"/>
    <path d="M 1020.789001 398.578132 
L 1019.240323 397.733666 
L 1020.290235 395.849664 
L 1019.879612 395.334905 
L 1017.091706 396.552365 
L 1014.979071 394.20531 
L 1015.632837 390.864286 
L 1015.688295 390.193996 
L 1016.203051 389.500074 
L 1016.799859 389.145261 
L 1017.513915 389.067624 
L 1018.219017 389.3098 
L 1018.652252 389.71718 
L 1018.959536 390.390302 
L 1021.2514 393.502719 
L 1024.538662 395.141752 
L 1028.985907 396.326133 
L 1032.878035 396.403289 
L 1036.769392 396.383887 
L 1038.414981 395.594603 
L 1039.757823 395.332475 
L 1041.05067 394.959007 
L 1041.610922 394.744416 
L 1041.82919 394.521423 
L 1041.781481 394.280878 
L 1041.429161 394.147402 
L 1040.214609 394.434701 
L 1039.871207 393.875727 
L 1039.647685 392.441803 
L 1039.932802 391.214309 
L 1040.443501 390.496954 
L 1040.895637 390.42646 
L 1041.282787 390.633699 
L 1042.172251 390.944404 
L 1043.200465 391.04785 
L 1044.010592 390.60319 
L 1044.120984 390.173316 
L 1043.901262 389.47911 
L 1043.190461 389.170517 
L 1041.987664 388.934416 
L 1041.424507 387.991763 
L 1041.769306 385.869489 
L 1041.27111 382.875972 
L 1041.952322 382.057794 
L 1042.46721 380.748017 
L 1039.053384 379.911069 
L 1039.077683 379.846009 
" clip-path="url(#pcc549e2eeb)" style="fill: none; stroke: #28c23f"/>
    <path d="M 1046.976024 400.965215 
L 1046.434132 400.804449 
L 1043.623579 399.521239 
L 1031.079173 400.424433 
L 1029.846859 404.802353 
L 1029.178321 405.412846 
L 1026.678414 405.411938 
L 1023.95599 404.450692 
L 1023.862213 403.124105 
L 1024.507975 401.515894 
L 1028.438877 400.953083 
L 1028.591247 400.225005 
L 1026.385731 400.049363 
L 1026.302961 398.312901 
L 1025.716639 398.019088 
L 1024.390516 400.131007 
L 1022.454312 399.486189 
L 1020.789001 398.578132 
" clip-path="url(#pcc549e2eeb)" style="fill: none; stroke: #28c23f"/>
    <path d="M 987.972424 463.450716 
L 994.877173 462.537013 
L 999.536353 462.901149 
L 1009.592874 458.665069 
L 1011.559854 458.115285 
" clip-path="url(#pcc549e2eeb)" style="fill: none; stroke: #28c23f"/>
    <path d="M 963.439646 480.177378 
L 964.226476 478.93054 
L 965.986492 471.632765 
L 967.74658 471.996354 
L 967.9231 471.244387 
L 966.831588 470.423019 
L 967.336572 468.581141 
L 968.979419 467.724223 
L 969.884414 467.869583 
" clip-path="url(#pcc549e2eeb)" style="fill: none; stroke: #28c23f"/>
    <path d="M 811.831991 484.514011 
L 812.161342 484.58483 
L 813.77232 484.929165 
L 816.34628 486.808365 
L 821.024041 492.556649 
L 822.334092 494.765341 
L 822.907276 495.246121 
L 825.491839 496.468831 
L 828.381926 497.951167 
L 831.186887 499.386673 
L 833.535663 501.667605 
L 839.399622 503.958834 
L 846.218364 507.19264 
L 849.267246 506.822073 
L 851.735806 507.408665 
L 857.359346 512.015841 
L 856.783276 514.173293 
L 857.818265 515.087129 
L 859.763435 514.500583 
L 860.856063 512.798755 
L 862.299144 511.437974 
L 864.772194 512.231896 
L 866.240723 514.787458 
L 868.385545 515.00248 
L 871.052905 516.813343 
L 875.725133 516.918431 
L 878.227834 515.898228 
L 878.675851 515.054207 
L 879.471477 514.120714 
L 882.282757 514.065914 
L 884.781888 517.220875 
L 892.194938 517.444469 
L 893.996209 516.243167 
L 898.027341 517.301142 
L 900.460216 516.599109 
L 902.483291 516.852655 
L 908.570829 515.357069 
L 914.400562 514.638268 
L 919.990241 516.620427 
L 922.982899 515.933463 
L 923.835743 512.797857 
L 926.922146 510.816275 
L 929.990423 509.835719 
L 933.875973 509.339461 
L 935.247226 509.711142 
L 936.580619 512.14625 
L 937.998438 512.115267 
L 939.918126 505.378449 
L 940.059384 505.103324 
L 940.609499 504.031782 
L 939.960017 501.39439 
L 937.833159 492.758558 
L 940.198649 483.691632 
L 959.713418 488.65181 
L 960.781884 487.404287 
L 958.964791 483.324493 
L 955.055394 480.174586 
L 955.37862 476.103466 
L 956.211293 476.115173 
L 960.471152 481.231766 
L 961.832318 481.441784 
L 963.041073 480.808969 
L 963.439646 480.177378 
" clip-path="url(#pcc549e2eeb)" style="fill: none; stroke: #28c23f"/>
    <path d="M 698.057311 404.372671 
L 698.410578 404.371642 
L 699.296236 403.823027 
L 702.429386 401.22189 
L 703.247627 400.708334 
L 704.33444 400.366368 
L 705.946469 400.03769 
L 705.106107 399.297787 
L 705.579942 398.311226 
L 705.988056 397.941605 
L 706.581591 397.812827 
L 707.14523 397.899834 
L 712.258244 400.952408 
L 710.49804 402.864931 
L 710.989537 403.296299 
L 711.683192 402.600877 
L 714.651318 404.659029 
L 717.957152 407.061112 
L 718.868846 405.962744 
L 721.712443 407.840317 
L 724.51113 409.688631 
L 724.933836 409.965893 
L 725.423578 410.292903 
L 734.376992 416.241911 
L 735.216119 416.79914 
L 735.450901 416.955637 
L 736.146958 417.417438 
L 736.443184 417.614643 
L 736.819448 417.933133 
L 741.9884 422.341459 
L 741.59084 422.851832 
L 739.996203 423.459505 
L 737.929653 423.936885 
L 739.532262 426.416052 
L 740.78774 427.301521 
L 741.284785 427.203056 
L 742.445018 428.887324 
L 742.696935 429.625433 
L 742.233524 430.74362 
L 742.567946 432.655883 
L 747.157352 443.935548 
L 748.976374 444.310417 
L 750.057324 443.672616 
" clip-path="url(#pcc549e2eeb)" style="fill: none; stroke: #28c23f"/>
    <path d="M 687.850643 414.36409 
L 691.649134 411.558888 
L 691.8091 411.420493 
L 692.372798 410.930201 
" clip-path="url(#pcc549e2eeb)" style="fill: none; stroke: #28c23f"/>
    <path d="M 654.151649 406.509173 
L 657.632237 406.408137 
L 660.656657 407.144332 
" clip-path="url(#pcc549e2eeb)" style="fill: none; stroke: #28c23f"/>
    <path d="M 640.684865 411.311592 
L 641.395269 411.351305 
L 642.769394 410.784099 
L 645.498397 408.453576 
L 645.266991 407.742487 
L 646.590059 406.728615 
L 649.11339 406.655395 
" clip-path="url(#pcc549e2eeb)" style="fill: none; stroke: #28c23f"/>
    <path d="M 621.397772 418.904599 
L 621.739654 419.098006 
L 626.274297 419.045249 
L 627.879966 418.064497 
L 630.057079 418.712855 
L 631.788938 417.418144 
L 632.601877 416.53161 
L 633.052896 416.328005 
" clip-path="url(#pcc549e2eeb)" style="fill: none; stroke: #28c23f"/>
    <path d="M 484.461154 469.595391 
L 488.422007 466.036493 
L 490.019953 465.684187 
" clip-path="url(#pcc549e2eeb)" style="fill: none; stroke: #28c23f"/>
    <path d="M 479.057782 472.978851 
L 482.161897 471.956932 
L 484.226325 469.806387 
L 484.461154 469.595391 
" clip-path="url(#pcc549e2eeb)" style="fill: none; stroke: #28c23f"/>
    <path d="M 476.680583 473.761447 
L 479.057782 472.978851 
" clip-path="url(#pcc549e2eeb)" style="fill: none; stroke: #28c23f"/>
    <path d="M 466.246433 478.892418 
L 466.35592 478.875978 
L 469.075959 477.485688 
L 470.459998 476.560613 
" clip-path="url(#pcc549e2eeb)" style="fill: none; stroke: #28c23f"/>
    <path d="M 455.60798 478.872164 
L 457.422541 478.416129 
L 458.231484 479.212695 
" clip-path="url(#pcc549e2eeb)" style="fill: none; stroke: #28c23f"/>
    <path d="M 439.411602 483.447272 
L 439.696859 483.332349 
L 444.465819 482.68244 
" clip-path="url(#pcc549e2eeb)" style="fill: none; stroke: #28c23f"/>
    <path d="M 347.379263 590.465333 
L 347.408528 590.145381 
L 347.599889 589.857689 
" clip-path="url(#pcc549e2eeb)" style="fill: none; stroke: #28c23f"/>
    <path d="M 324.314247 616.549896 
L 334.325859 604.582727 
L 334.896671 605.100468 
L 336.854166 603.235599 
" clip-path="url(#pcc549e2eeb)" style="fill: none; stroke: #28c23f"/>
    <path d="M 312.651088 631.213493 
L 313.965983 628.885191 
L 317.522402 625.622588 
L 320.150295 621.656282 
L 322.297792 619.814077 
L 322.864702 618.886433 
" clip-path="url(#pcc549e2eeb)" style="fill: none; stroke: #28c23f"/>
    <path d="M 291.327365 658.251401 
L 292.925848 655.82716 
L 295.52666 652.004797 
" clip-path="url(#pcc549e2eeb)" style="fill: none; stroke: #28c23f"/>
    <path d="M 282.262272 688.764705 
L 283.32683 688.497322 
L 284.848325 685.351612 
L 284.775165 684.426463 
L 284.961842 682.582469 
L 285.016759 682.334983 
L 285.967312 679.55478 
L 286.546737 676.655385 
L 286.946762 671.556618 
" clip-path="url(#pcc549e2eeb)" style="fill: none; stroke: #28c23f"/>
    <path d="M 272.725946 698.416709 
L 272.683094 698.107991 
L 277.236961 691.289649 
L 279.806698 690.844554 
L 280.687433 689.745146 
" clip-path="url(#pcc549e2eeb)" style="fill: none; stroke: #28c23f"/>
    <path d="M 264.859581 717.370787 
L 264.98521 715.780555 
L 266.522509 712.260177 
L 268.453003 709.494063 
" clip-path="url(#pcc549e2eeb)" style="fill: none; stroke: #28c23f"/>
    <path d="M 261.173652 729.588558 
L 261.535788 727.433032 
L 263.358321 723.709823 
" clip-path="url(#pcc549e2eeb)" style="fill: none; stroke: #28c23f"/>
    <path d="M 258.826489 741.117745 
L 259.564395 739.167092 
L 260.983961 730.717639 
" clip-path="url(#pcc549e2eeb)" style="fill: none; stroke: #28c23f"/>
    <path d="M 249.618193 792.814798 
L 250.903697 786.903939 
L 251.936481 780.743248 
L 252.229824 778.25561 
L 252.062652 777.149909 
" clip-path="url(#pcc549e2eeb)" style="fill: none; stroke: #28c23f"/>
    <path d="M 236.581099 852.212835 
L 235.884945 850.567582 
L 236.45155 850.093894 
L 236.376906 847.734888 
L 235.69013 845.225355 
L 231.760378 839.620269 
L 230.820955 836.97132 
L 230.626959 835.64106 
L 229.441066 827.482413 
L 230.223767 824.731111 
L 229.565794 824.270803 
L 231.299463 822.200761 
L 232.281102 821.028835 
L 236.212478 817.532238 
L 236.951179 816.875702 
L 236.984653 816.899446 
" clip-path="url(#pcc549e2eeb)" style="fill: none; stroke: #28c23f"/>
    <path d="M 180.272582 937.597579 
L 180.212009 936.840143 
L 178.929617 936.095023 
L 176.989048 929.77509 
L 177.424179 928.964352 
L 178.449181 928.326733 
L 178.446563 927.267352 
L 178.444917 926.604587 
L 179.442676 925.068463 
L 180.753035 924.010022 
L 184.068429 917.161457 
L 184.482044 913.900821 
L 184.895771 911.712653 
L 185.940069 909.746517 
L 186.727505 909.625481 
L 188.337978 904.969 
L 191.101423 900.578274 
L 190.39569 900.196984 
L 190.761429 899.529575 
L 191.664908 899.907662 
L 194.473505 898.306962 
L 196.120638 892.557828 
L 197.566708 891.03268 
L 199.23998 888.01909 
L 199.904692 886.98934 
L 201.551943 886.010206 
L 201.475544 885.606985 
L 201.413978 885.279196 
L 204.134152 883.769915 
L 206.853539 883.331801 
L 207.523613 883.696691 
L 220.931528 875.342968 
L 223.098236 873.949585 
L 224.129008 873.395306 
L 224.976468 872.559576 
L 224.49689 871.745398 
L 224.256341 871.012144 
L 225.784567 868.183503 
L 227.365739 866.101597 
L 229.334185 865.85434 
L 235.313698 856.281058 
L 236.055878 855.678998 
" clip-path="url(#pcc549e2eeb)" style="fill: none; stroke: #28c23f"/>
    <path d="M 173.641955 964.256618 
L 173.748051 963.851678 
L 174.699156 962.069979 
" clip-path="url(#pcc549e2eeb)" style="fill: none; stroke: #28c23f"/>
    <path d="M 97.44656 1055.698056 
L 97.549624 1054.047448 
L 99.923481 1051.104511 
" clip-path="url(#pcc549e2eeb)" style="fill: none; stroke: #28c23f"/>
    <path d="M 90.840881 1068.022799 
L 92.268724 1063.434788 
L 93.008139 1062.402639 
L 93.900989 1061.873164 
" clip-path="url(#pcc549e2eeb)" style="fill: none; stroke: #28c23f"/>
    <path d="M 86.902098 1088.533287 
L 88.231614 1086.377605 
L 88.607008 1084.546298 
L 87.755522 1076.950833 
" clip-path="url(#pcc549e2eeb)" style="fill: none; stroke: #28c23f"/>
   </g>
   <g id="LineCollection_2">
    <path d="M 974.813124 741.725077 
L 974.058974 742.925279 
L 971.242527 744.77974 
L 961.620295 749.356069 
L 957.407057 750.347079 
" clip-path="url(#pcc549e2eeb)" style="fill: none; stroke: #dbffe4"/>
    <path d="M 1174.069039 597.112233 
L 1160.284385 602.81796 
L 1158.097668 603.723125 
" clip-path="url(#pcc549e2eeb)" style="fill: none; stroke: #dbffe4"/>
    <path d="M 1268.054019 576.928152 
L 1266.278206 577.397932 
L 1263.061861 578.821469 
" clip-path="url(#pcc549e2eeb)" style="fill: none; stroke: #dbffe4"/>
    <path d="M 1530.466632 380.38984 
L 1530.229298 380.510424 
L 1524.561069 381.24965 
L 1515.818371 385.768135 
L 1513.530582 387.821387 
L 1511.453123 388.819208 
L 1507.815704 389.546405 
L 1506.290438 390.895653 
L 1505.997029 393.477824 
L 1509.296949 395.299681 
L 1510.069096 396.482189 
L 1510.822194 399.622159 
L 1509.889764 401.062477 
L 1510.653046 402.757909 
L 1511.077039 406.402236 
L 1516.088933 414.34241 
L 1518.53584 416.573673 
L 1519.081038 419.446005 
L 1518.196267 421.065528 
L 1519.213373 422.252733 
L 1520.665128 428.623667 
L 1520.654548 430.898032 
L 1521.756811 432.531222 
L 1530.740794 435.305758 
L 1538.538239 435.89794 
L 1540.233411 438.271906 
L 1541.37749 438.30469 
L 1542.351019 439.535709 
L 1548.770315 439.184606 
L 1556.550468 436.367599 
L 1564.647081 430.85307 
L 1570.854774 423.342536 
L 1576.429077 413.965912 
L 1576.87483 412.346455 
L 1577.602355 403.921534 
L 1577.4615 398.710317 
L 1579.362859 403.697772 
L 1579.949643 403.403987 
L 1581.416239 400.178111 
L 1582.0732 397.607568 
L 1582.226305 393.20648 
L 1583.105693 391.60002 
L 1583.246496 388.219469 
L 1586.180115 382.645787 
L 1584.643289 379.206989 
L 1584.93619 377.810806 
L 1587.283325 376.192028 
L 1588.163755 376.191688 
L 1585.593727 378.468197 
L 1586.989987 382.504512 
L 1588.316644 383.60771 
L 1591.907178 383.748609 
L 1592.200273 384.558749 
L 1590.804096 385.567906 
L 1587.506642 385.438638 
L 1586.18049 386.45956 
L 1585.746668 387.785238 
L 1585.300145 394.451481 
L 1584.11784 400.247775 
L 1581.345505 404.871271 
L 1580.324121 411.742358 
L 1580.578797 413.183395 
L 1583.884287 412.250486 
L 1586.028118 412.312008 
L 1585.759614 413.255 
L 1584.647398 413.776228 
L 1580.732886 414.378356 
L 1581.341452 417.081182 
L 1581.425834 421.827629 
L 1580.239555 425.811693 
L 1580.239671 428.015411 
L 1581.850465 429.880655 
L 1585.748868 430.982817 
L 1587.213131 430.172062 
L 1588.631087 427.761218 
L 1587.444574 425.641683 
L 1587.359739 424.116668 
L 1588.122366 423.269078 
L 1589.241847 423.406132 
" clip-path="url(#pcc549e2eeb)" style="fill: none; stroke: #dbffe4"/>
    <path d="M 1532.506689 277.617387 
L 1535.731144 275.293972 
L 1540.684126 259.384258 
L 1541.974823 256.215143 
L 1543.969631 254.431962 
L 1548.992258 251.791502 
L 1553.82692 246.885458 
L 1554.272385 246.804318 
L 1554.273071 247.742418 
L 1553.099247 249.502921 
L 1543.206891 258.069057 
L 1539.439866 273.982108 
L 1539.804025 274.41652 
L 1552.125474 266.354412 
L 1561.736066 261.296509 
L 1565.901868 257.951248 
L 1566.453393 258.069107 
L 1566.430074 260.381542 
L 1567.568296 260.356976 
L 1571.55727 258.609291 
L 1588.115865 257.306508 
L 1589.278046 260.146699 
L 1576.149518 262.626747 
L 1563.537564 267.500525 
L 1561.946334 269.091168 
L 1558.816555 268.879147 
L 1557.217654 271.247548 
L 1553.693144 273.316833 
L 1547.075721 280.564573 
L 1543.01076 283.983569 
L 1542.797023 285.147359 
L 1543.35187 285.597887 
L 1550.710503 280.625279 
L 1551.108457 281.123005 
L 1537.833464 291.215576 
L 1534.303499 294.695292 
L 1532.613465 295.44218 
L 1529.033537 299.269836 
L 1525.205412 301.507563 
L 1522.22299 304.688966 
L 1520.979934 304.986741 
L 1518.223251 307.617358 
L 1516.046623 308.181203 
L 1513.928861 310.798952 
L 1507.755413 311.947739 
L 1505.717053 313.241017 
L 1503.379724 313.140999 
L 1500.347272 311.649614 
L 1498.462394 312.003294 
L 1496.170762 314.284892 
L 1498.01016 315.228956 
L 1503.756727 320.162856 
L 1507.195344 317.885312 
L 1515.826884 314.033044 
L 1525.276818 308.01304 
L 1541.294924 305.935687 
L 1546.927012 302.884959 
L 1549.743059 300.384933 
L 1557.629279 300.502952 
L 1559.623869 301.652803 
L 1565.080907 307.050734 
L 1568.894833 309.631482 
L 1573.529723 311.685847 
L 1577.602094 309.77222 
L 1581.638346 308.716445 
L 1581.00472 311.56839 
L 1578.01252 313.151893 
L 1572.94352 314.055471 
L 1564.810753 308.951432 
L 1564.083802 313.409893 
L 1564.142266 317.083001 
L 1565.022049 318.550541 
L 1571.06581 323.795568 
L 1572.532295 325.966149 
L 1573.846715 331.447022 
L 1577.719336 340.247698 
L 1578.012886 343.181966 
L 1577.062606 345.575166 
L 1576.487339 345.35206 
L 1572.732225 332.385793 
L 1571.922749 332.99545 
L 1570.209257 342.595566 
L 1569.716292 343.510006 
L 1568.777553 343.39265 
L 1568.566614 337.313744 
L 1570.854773 330.801979 
L 1570.385133 328.054875 
L 1568.917853 325.790363 
L 1564.200811 321.660298 
L 1562.49947 319.336087 
L 1561.678301 317.200755 
L 1561.466919 314.443743 
L 1561.736838 309.279877 
L 1561.208477 306.991799 
L 1559.624667 304.996856 
L 1557.628963 303.436029 
L 1555.458241 302.672961 
L 1551.761664 303.060925 
L 1544.720811 307.871215 
L 1543.934526 309.010147 
L 1543.934436 309.655998 
L 1549.391111 311.884825 
L 1554.343367 314.994324 
L 1556.338811 316.989646 
L 1555.869475 318.257234 
L 1550.41278 313.879538 
L 1542.702271 310.805613 
L 1542.080773 310.981265 
L 1546.575576 326.178447 
L 1546.187662 335.847125 
L 1547.63143 346.326796 
L 1546.693131 349.98795 
L 1547.103009 350.691613 
L 1549.392822 351.714807 
L 1548.539971 352.835378 
L 1546.929606 352.581419 
L 1542.097655 349.868937 
L 1541.67428 343.512048 
L 1541.843888 341.562295 
L 1543.878184 336.138158 
L 1544.4708 328.509009 
L 1544.047019 325.034314 
L 1542.012786 319.69429 
L 1539.046834 315.371868 
L 1535.910676 312.914389 
L 1533.791636 312.151624 
L 1526.841153 311.643257 
L 1523.959169 312.659582 
L 1515.907752 318.508166 
L 1509.55045 321.729616 
L 1505.821538 322.492385 
L 1500.651135 322.406974 
L 1499.633816 323.509578 
L 1500.057261 326.47545 
L 1505.736105 329.611315 
L 1509.211296 333.171838 
L 1511.33019 334.527034 
L 1513.957938 335.291115 
L 1514.890859 336.392426 
L 1514.890835 341.308709 
L 1513.788716 345.546866 
L 1512.517508 348.004487 
L 1510.059247 348.343764 
L 1503.78703 344.190503 
L 1499.464343 344.614284 
L 1498.108044 343.765885 
L 1497.769051 344.274329 
L 1498.701982 345.376966 
L 1498.447139 346.478855 
L 1500.990337 348.936765 
L 1503.78668 349.44472 
L 1503.956402 350.207542 
L 1503.024719 350.631442 
L 1499.040647 350.377163 
L 1498.616767 351.055451 
L 1500.057775 352.326363 
L 1505.397677 353.853076 
L 1509.465746 353.93749 
L 1527.435041 351.649086 
L 1527.94353 352.241377 
L 1525.230737 353.597793 
L 1525.485385 354.192067 
L 1529.469114 355.377793 
L 1546.505712 357.411442 
L 1550.827848 356.903882 
L 1552.77786 355.886073 
L 1554.388312 356.394443 
L 1556.506507 355.801533 
L 1558.965111 354.5305 
L 1558.965211 352.835631 
L 1560.575502 352.835139 
L 1561.931285 354.699829 
L 1566.378965 354.324691 
L 1566.378965 354.324691 
" clip-path="url(#pcc549e2eeb)" style="fill: none; stroke: #dbffe4"/>
    <path d="M 1521.559054 269.224774 
L 1520.758206 270.003989 
L 1515.959121 273.689222 
L 1509.375305 277.397526 
L 1507.658116 277.543358 
L 1506.099663 276.890425 
L 1505.119972 275.654255 
L 1502.534918 267.550183 
L 1497.960716 265.213749 
L 1494.977162 265.164511 
L 1489.051129 266.941479 
L 1487.470835 268.594383 
L 1487.818599 270.434326 
L 1492.442072 271.129872 
L 1493.08824 272.373381 
L 1491.199333 274.759908 
L 1493.386394 277.593505 
L 1498.10947 279.284044 
L 1499.005044 280.079433 
L 1499.054643 281.421121 
L 1498.109759 282.465008 
L 1501.092955 289.923889 
L 1502.535027 291.762338 
L 1505.069934 291.762239 
L 1508.99771 290.07212 
L 1513.224069 286.442951 
L 1515.957056 285.013146 
L 1519.592397 278.032289 
L 1519.99851 278.180212 
L 1517.648744 283.957043 
L 1517.871483 284.743693 
L 1524.066656 282.177169 
" clip-path="url(#pcc549e2eeb)" style="fill: none; stroke: #dbffe4"/>
    <path d="M 1529.939501 215.602433 
L 1529.323512 216.726361 
L 1529.219065 221.024778 
L 1527.74402 225.127488 
L 1526.39843 228.870353 
L 1526.696545 229.915282 
L 1529.85264 231.842706 
L 1530.087107 232.526065 
L 1530.029056 235.280129 
L 1529.054625 239.094569 
L 1525.288215 240.866694 
L 1523.421745 245.53621 
L 1521.990399 247.297403 
L 1519.701999 248.387791 
L 1512.485207 247.003406 
L 1510.806894 247.038946 
L 1508.69523 248.529272 
L 1513.541272 252.166774 
L 1521.837821 250.641615 
L 1524.513768 254.337848 
L 1526.332453 256.097677 
L 1527.798885 256.426044 
L 1528.468118 254.982631 
L 1530.287191 255.159787 
L 1531.108138 253.634037 
L 1532.860533 248.974394 
L 1533.314066 243.928562 
L 1534.217984 242.931035 
L 1534.898949 244.69186 
L 1534.159478 250.618353 
L 1533.480728 252.533817 
" clip-path="url(#pcc549e2eeb)" style="fill: none; stroke: #dbffe4"/>
    <path d="M 1543.190536 173.160332 
L 1543.315896 175.945052 
L 1543.203858 178.917987 
L 1542.681362 182.751661 
L 1541.26099 188.262537 
L 1541.15097 188.411261 
" clip-path="url(#pcc549e2eeb)" style="fill: none; stroke: #dbffe4"/>
    <path d="M 1540.030188 156.07802 
L 1540.346589 156.289337 
L 1540.123892 157.106226 
L 1540.242713 159.463055 
L 1539.550416 165.983663 
L 1539.470102 168.156214 
L 1540.796087 172.801888 
L 1542.094916 172.794024 
L 1543.170291 172.710614 
L 1543.190536 173.160332 
" clip-path="url(#pcc549e2eeb)" style="fill: none; stroke: #dbffe4"/>
    <path d="M 1423.823577 169.07936 
L 1424.094454 169.39835 
L 1424.331201 171.023724 
L 1426.84581 174.159556 
L 1428.419048 174.491425 
L 1430.97545 174.04628 
L 1432.678674 174.095286 
L 1435.352938 173.601038 
L 1439.413715 171.420933 
L 1441.593301 172.807853 
L 1441.890589 173.512291 
L 1440.879559 175.209662 
L 1436.303319 179.023439 
L 1433.604438 179.258489 
L 1432.900698 181.159089 
L 1433.486981 182.157127 
L 1435.516862 182.626911 
L 1437.512406 184.515563 
L 1444.592629 188.899866 
" clip-path="url(#pcc549e2eeb)" style="fill: none; stroke: #dbffe4"/>
    <path d="M 1341.231488 68.860648 
L 1348.161765 70.75124 
L 1352.321894 70.704409 
L 1354.696237 70.389879 
" clip-path="url(#pcc549e2eeb)" style="fill: none; stroke: #dbffe4"/>
    <path d="M 969.884414 467.869583 
L 972.85142 468.346135 
L 974.259656 467.661574 
L 976.876775 465.882296 
L 982.285771 460.530594 
L 984.516037 461.340045 
L 984.938594 463.852159 
L 987.972424 463.450716 
" clip-path="url(#pcc549e2eeb)" style="fill: none; stroke: #dbffe4"/>
    <path d="M 663.760505 414.132007 
L 663.347262 415.057289 
L 663.969184 416.018813 
L 663.80553 417.121453 
L 666.891432 422.403083 
L 670.75074 423.478484 
" clip-path="url(#pcc549e2eeb)" style="fill: none; stroke: #dbffe4"/>
    <path d="M 253.535882 755.917394 
L 253.696658 754.128527 
L 253.923143 753.787416 
" clip-path="url(#pcc549e2eeb)" style="fill: none; stroke: #dbffe4"/>
    <path d="M 252.062652 777.149909 
L 252.046823 777.04521 
L 251.420594 772.905126 
L 251.854091 769.888103 
L 251.545157 768.889294 
" clip-path="url(#pcc549e2eeb)" style="fill: none; stroke: #dbffe4"/>
   </g>
   <g id="LineCollection_3">
    <path d="M 1357.478669 540.014637 
L 1357.470113 540.03993 
L 1357.907202 542.171908 
L 1358.525454 546.324308 
L 1356.800252 549.66783 
L 1356.055217 550.086753 
" clip-path="url(#pcc549e2eeb)" style="fill: none; stroke: #e9a23d"/>
    <path d="M 1049.311327 317.175418 
L 1049.259555 309.424087 
L 1049.421634 302.019527 
L 1047.720739 296.599285 
L 1048.470188 286.949494 
L 1048.621169 281.875377 
L 1047.559228 277.277284 
" clip-path="url(#pcc549e2eeb)" style="fill: none; stroke: #e9a23d"/>
    <path d="M 156.539595 970.320179 
L 156.870922 970.20036 
L 163.775131 967.703862 
L 165.116739 967.449952 
L 166.310143 968.020399 
L 168.73338 966.979228 
L 171.038334 966.424006 
L 172.432742 966.302349 
" clip-path="url(#pcc549e2eeb)" style="fill: none; stroke: #e9a23d"/>
    <path d="M 152.778639 971.680259 
L 156.539595 970.320179 
" clip-path="url(#pcc549e2eeb)" style="fill: none; stroke: #e9a23d"/>
   </g>
   <g id="LineCollection_4">
    <path d="M 637.578135 1050.362592 
L 633.615391 1049.444912 
L 628.217943 1049.375152 
L 624.648188 1049.082855 
L 621.51692 1050.095727 
L 621.468263 1050.109835 
" clip-path="url(#pcc549e2eeb)" style="fill: none; stroke: #ec4243"/>
    <path d="M 742.799057 950.568337 
L 742.738957 950.694776 
L 740.130993 955.935743 
L 736.594197 960.506167 
L 730.633379 965.493425 
L 728.08624 966.139378 
L 726.408192 967.253344 
L 725.152551 968.661541 
L 720.869981 976.840341 
L 716.70411 981.358689 
L 707.57452 984.761961 
L 705.614012 987.636814 
L 701.23769 990.827811 
L 699.27731 993.820069 
L 694.841749 997.751805 
L 693.644777 1001.564865 
L 692.974129 1002.96051 
L 690.007459 1009.1337 
L 686.878756 1012.48619 
L 682.61438 1017.054271 
L 679.504293 1022.804496 
L 677.04031 1025.327661 
L 673.695673 1028.261005 
L 668.317705 1031.706148 
L 665.011882 1033.823343 
L 662.022092 1036.223541 
L 653.138535 1043.353461 
L 646.645776 1048.840835 
L 643.876585 1050.172305 
" clip-path="url(#pcc549e2eeb)" style="fill: none; stroke: #ec4243"/>
    <path d="M 744.520841 945.117546 
L 744.51216 945.139175 
L 743.655713 944.881021 
L 742.829061 947.501889 
L 744.876683 948.171694 
L 744.653815 949.048338 
L 743.653656 948.770442 
L 743.652272 948.773354 
" clip-path="url(#pcc549e2eeb)" style="fill: none; stroke: #ec4243"/>
    <path d="M 855.506927 833.876476 
L 854.435509 835.687796 
L 846.490752 842.757148 
L 839.262216 849.803719 
L 833.89916 855.587963 
L 831.317935 857.290401 
L 826.506441 862.864231 
L 819.254376 868.344018 
L 815.944804 871.606242 
L 807.437568 875.853491 
L 801.041528 882.330951 
L 794.786881 885.558478 
L 788.332867 890.721645 
L 779.625573 896.565033 
L 776.598365 899.322554 
L 764.605272 915.093214 
L 763.005538 919.736526 
L 762.704601 920.609283 
L 761.495522 922.345546 
L 758.540873 924.844723 
L 748.915583 932.989201 
L 747.859712 934.666736 
L 746.547203 939.838326 
" clip-path="url(#pcc549e2eeb)" style="fill: none; stroke: #ec4243"/>
    <path d="M 855.604791 827.099625 
L 856.159924 828.426805 
" clip-path="url(#pcc549e2eeb)" style="fill: none; stroke: #ec4243"/>
    <path d="M 860.66954 809.898493 
L 855.945 815.759621 
L 854.885846 818.756457 
L 854.539152 821.662805 
L 855.256886 823.415809 
L 854.894907 825.01856 
" clip-path="url(#pcc549e2eeb)" style="fill: none; stroke: #ec4243"/>
    <path d="M 880.906918 803.399866 
L 876.68088 803.09873 
" clip-path="url(#pcc549e2eeb)" style="fill: none; stroke: #ec4243"/>
    <path d="M 907.353205 789.441445 
L 904.003108 792.315977 
L 900.708016 793.950056 
L 894.825788 796.869382 
L 892.948711 800.35395 
" clip-path="url(#pcc549e2eeb)" style="fill: none; stroke: #ec4243"/>
    <path d="M 957.407057 750.347079 
L 954.286516 751.081055 
L 948.184179 754.249921 
L 941.378336 755.18804 
L 938.010284 757.205841 
L 935.487555 759.530013 
L 929.525842 762.076546 
L 927.472466 764.422609 
L 923.517431 771.815502 
L 918.82346 776.920859 
L 916.593971 781.003907 
L 912.511828 784.984262 
" clip-path="url(#pcc549e2eeb)" style="fill: none; stroke: #ec4243"/>
    <path d="M 998.768168 717.576054 
L 997.584822 719.589894 
L 997.384321 723.461899 
L 995.65142 725.593852 
L 995.733453 726.767994 
L 993.421751 728.375031 
L 990.72286 728.997172 
L 982.942157 736.331411 
L 981.609955 736.769277 
" clip-path="url(#pcc549e2eeb)" style="fill: none; stroke: #ec4243"/>
    <path d="M 1040.349299 678.818474 
L 1040.348608 679.488879 
L 1036.535076 680.369349 
L 1036.746644 681.425113 
L 1027.417138 686.905357 
L 1022.723404 691.270327 
L 1018.639972 693.851539 
L 1015.072762 696.961317 
L 1014.825761 696.05751 
L 1014.090805 696.239187 
" clip-path="url(#pcc549e2eeb)" style="fill: none; stroke: #ec4243"/>
    <path d="M 1070.126038 647.907927 
L 1068.98177 648.052457 
L 1063.794743 654.99924 
L 1062.054019 659.003789 
L 1059.213233 662.345122 
L 1056.50734 665.308331 
L 1054.002191 668.288909 
L 1053.682582 668.114421 
L 1051.816089 671.410731 
" clip-path="url(#pcc549e2eeb)" style="fill: none; stroke: #ec4243"/>
    <path d="M 1105.343628 627.355612 
L 1103.306002 627.422951 
L 1090.245372 632.598712 
L 1081.0807 637.069544 
L 1076.611172 640.418494 
L 1075.401705 641.315167 
" clip-path="url(#pcc549e2eeb)" style="fill: none; stroke: #ec4243"/>
    <path d="M 1121.757519 622.985716 
L 1121.553396 623.057726 
L 1121.353975 622.494963 
L 1118.326678 623.551299 
L 1117.861845 622.179025 
L 1110.799826 624.412352 
L 1111.292774 625.940706 
L 1109.414611 626.515141 
" clip-path="url(#pcc549e2eeb)" style="fill: none; stroke: #ec4243"/>
    <path d="M 1142.65158 606.921664 
L 1140.469646 607.967118 
L 1138.451759 608.237352 
L 1137.160753 609.563415 
L 1135.870237 608.58922 
L 1133.698775 610.913175 
L 1134.344323 611.675569 
L 1133.523243 612.697215 
L 1134.051244 613.376862 
L 1130.365411 618.724323 
L 1128.007313 619.561523 
L 1124.135358 621.121955 
L 1124.310941 622.084384 
L 1124.261369 622.102055 
" clip-path="url(#pcc549e2eeb)" style="fill: none; stroke: #ec4243"/>
    <path d="M 1158.097668 603.723125 
L 1151.528348 606.442359 
" clip-path="url(#pcc549e2eeb)" style="fill: none; stroke: #ec4243"/>
    <path d="M 1148.460337 606.436214 
L 1143.597532 606.264885 
" clip-path="url(#pcc549e2eeb)" style="fill: none; stroke: #ec4243"/>
    <path d="M 1263.061861 578.821469 
L 1261.690411 579.42846 
L 1256.308951 581.029298 
" clip-path="url(#pcc549e2eeb)" style="fill: none; stroke: #ec4243"/>
    <path d="M 1271.019875 576.143543 
L 1268.369675 576.844647 
" clip-path="url(#pcc549e2eeb)" style="fill: none; stroke: #ec4243"/>
    <path d="M 1293.999217 570.602329 
L 1292.819675 571.203417 
L 1291.99062 571.625793 
" clip-path="url(#pcc549e2eeb)" style="fill: none; stroke: #ec4243"/>
    <path d="M 1314.86423 568.461511 
L 1313.699435 569.240705 
L 1311.774186 569.254057 
L 1294.618244 570.286876 
L 1294.552757 570.320248 
" clip-path="url(#pcc549e2eeb)" style="fill: none; stroke: #ec4243"/>
    <path d="M 1326.802372 566.477616 
L 1324.295346 567.294747 
L 1319.534455 567.871746 
" clip-path="url(#pcc549e2eeb)" style="fill: none; stroke: #ec4243"/>
    <path d="M 1333.687018 563.428002 
L 1329.986168 565.439886 
L 1326.802372 566.477616 
" clip-path="url(#pcc549e2eeb)" style="fill: none; stroke: #ec4243"/>
    <path d="M 1356.055217 550.086753 
L 1352.060041 552.333163 
L 1352.319262 553.341019 
L 1348.503986 555.287881 
L 1343.803484 556.979112 
L 1341.023086 559.439822 
L 1333.687018 563.428002 
" clip-path="url(#pcc549e2eeb)" style="fill: none; stroke: #ec4243"/>
    <path d="M 1421.78186 516.476439 
L 1421.602344 516.495552 
L 1421.507221 516.298937 
L 1419.262059 517.227726 
L 1418.221857 517.532114 
L 1417.615133 517.633019 
L 1415.958441 517.797105 
L 1413.354382 517.727656 
L 1411.190526 517.475473 
L 1410.851434 517.531129 
L 1410.731561 517.623305 
L 1410.57704 517.857013 
L 1407.449662 517.076699 
L 1407.536015 516.480189 
L 1404.333906 515.932141 
L 1404.341863 515.4649 
L 1400.305013 515.184387 
" clip-path="url(#pcc549e2eeb)" style="fill: none; stroke: #ec4243"/>
    <path d="M 1432.05946 512.323172 
L 1431.844604 512.38583 
L 1429.132703 513.886677 
L 1427.264006 514.769594 
L 1426.53066 515.243325 
L 1425.711226 515.670324 
L 1424.500428 516.019534 
L 1422.841731 516.351059 
" clip-path="url(#pcc549e2eeb)" style="fill: none; stroke: #ec4243"/>
    <path d="M 1496.257552 484.974554 
L 1495.69959 485.147229 
L 1463.740174 497.917138 
L 1463.153751 496.826484 
L 1457.34034 499.179129 
L 1454.308213 500.971571 
L 1452.893127 502.112569 
L 1453.613308 503.12776 
L 1452.228908 504.008561 
L 1451.642123 503.351079 
L 1448.206078 505.882717 
L 1443.012281 509.16222 
L 1439.668345 511.321613 
L 1438.310039 511.839198 
L 1436.993792 512.072896 
L 1435.301492 511.970194 
L 1433.270041 511.970128 
L 1432.494953 512.196168 
" clip-path="url(#pcc549e2eeb)" style="fill: none; stroke: #ec4243"/>
    <path d="M 1503.030178 479.856165 
L 1502.019931 481.450362 
L 1501.872888 481.583068 
" clip-path="url(#pcc549e2eeb)" style="fill: none; stroke: #ec4243"/>
    <path d="M 1504.737668 475.934067 
L 1503.466879 479.167037 
L 1503.262617 479.489369 
" clip-path="url(#pcc549e2eeb)" style="fill: none; stroke: #ec4243"/>
    <path d="M 1508.111544 471.328856 
L 1505.978774 474.014415 
" clip-path="url(#pcc549e2eeb)" style="fill: none; stroke: #ec4243"/>
    <path d="M 1510.81909 228.341296 
L 1511.012874 228.532633 
L 1512.417984 230.036408 
L 1513.018625 230.616605 
L 1516.01685 227.723299 
L 1517.613406 225.775163 
L 1518.950707 222.524354 
L 1519.020457 222.119892 
" clip-path="url(#pcc549e2eeb)" style="fill: none; stroke: #ec4243"/>
    <path d="M 1373.385599 79.294057 
L 1373.499359 79.431932 
L 1373.021649 79.630963 
L 1372.605096 80.006346 
L 1372.464096 80.687331 
L 1372.637541 81.31442 
L 1373.177906 81.780991 
L 1374.029236 81.897551 
L 1374.557029 81.851088 
" clip-path="url(#pcc549e2eeb)" style="fill: none; stroke: #ec4243"/>
    <path d="M 1354.696237 70.389879 
L 1359.606971 69.739326 
L 1362.030516 70.197065 
L 1362.865049 69.221872 
L 1364.946736 70.075824 
L 1364.975316 70.115585 
" clip-path="url(#pcc549e2eeb)" style="fill: none; stroke: #ec4243"/>
    <path d="M 1210.954083 129.545461 
L 1211.237506 129.360113 
L 1212.345069 129.151382 
L 1213.961515 127.527162 
L 1218.840398 124.227469 
L 1221.062583 122.773895 
L 1226.612229 122.455364 
L 1227.97891 123.472395 
L 1231.750827 122.624199 
L 1234.025308 123.361351 
" clip-path="url(#pcc549e2eeb)" style="fill: none; stroke: #ec4243"/>
    <path d="M 1098.539843 172.461977 
L 1099.252893 173.146659 
L 1108.984235 168.674713 
L 1117.665609 166.003285 
L 1119.407004 165.492643 
L 1122.844911 165.376312 
L 1122.972878 165.366144 
" clip-path="url(#pcc549e2eeb)" style="fill: none; stroke: #ec4243"/>
    <path d="M 750.057324 443.672616 
L 750.208129 443.583636 
L 752.378853 446.458892 
L 757.331455 450.177981 
L 758.305684 452.384666 
L 758.857233 452.877607 
L 759.655091 452.44392 
L 762.471264 456.104053 
L 761.47335 456.98475 
L 760.30045 455.787389 
L 759.209263 456.515711 
L 760.0656 456.374593 
L 760.296204 456.604217 
L 764.371782 460.681314 
L 764.255141 461.714029 
L 766.074052 463.731503 
L 766.988722 463.181005 
L 771.424298 467.253243 
L 774.522456 469.306331 
L 774.053468 470.362007 
L 775.520084 471.125092 
L 776.693383 469.893028 
L 780.964564 472.240553 
L 782.490874 471.982314 
L 788.42815 473.917822 
L 794.824108 479.351253 
L 797.188207 482.754103 
L 799.254438 483.419497 
L 801.191724 481.895148 
L 802.923059 481.587702 
L 804.496681 482.134928 
L 805.355433 482.612153 
L 806.495043 483.817839 
L 808.798986 484.861432 
L 811.267548 484.392641 
L 811.831991 484.514011 
" clip-path="url(#pcc549e2eeb)" style="fill: none; stroke: #ec4243"/>
    <path d="M 692.372798 410.930201 
L 693.598966 409.863704 
L 694.879129 408.0859 
L 695.96342 406.360986 
L 697.845721 404.212889 
L 698.037931 404.372727 
L 698.057311 404.372671 
" clip-path="url(#pcc549e2eeb)" style="fill: none; stroke: #ec4243"/>
    <path d="M 670.75074 423.478484 
L 671.937653 423.809213 
L 675.418965 424.041392 
L 677.573755 423.471374 
L 679.72953 421.510501 
L 682.686349 418.177875 
L 687.850643 414.36409 
" clip-path="url(#pcc549e2eeb)" style="fill: none; stroke: #ec4243"/>
    <path d="M 663.179979 409.506138 
L 664.098619 410.737735 
L 664.380018 412.744866 
L 663.760505 414.132007 
" clip-path="url(#pcc549e2eeb)" style="fill: none; stroke: #ec4243"/>
    <path d="M 660.656657 407.144332 
L 661.587303 407.370864 
L 663.179979 409.506138 
" clip-path="url(#pcc549e2eeb)" style="fill: none; stroke: #ec4243"/>
    <path d="M 649.861025 406.6337 
L 654.151649 406.509173 
" clip-path="url(#pcc549e2eeb)" style="fill: none; stroke: #ec4243"/>
    <path d="M 633.052896 416.328005 
L 633.361396 416.188737 
L 634.211926 416.135283 
L 634.814184 415.76896 
L 635.899008 415.682858 
L 637.076007 414.66233 
L 638.132739 413.176734 
L 638.598787 411.775449 
L 639.350473 411.236994 
L 640.684865 411.311592 
" clip-path="url(#pcc549e2eeb)" style="fill: none; stroke: #ec4243"/>
    <path d="M 585.958918 440.702566 
L 589.089422 438.77195 
L 592.340121 434.171814 
L 595.829991 431.886134 
L 595.665184 431.1426 
L 597.362025 429.971205 
L 598.51325 429.625713 
L 602.305575 429.479882 
L 607.973445 424.766039 
L 612.394675 422.87171 
L 614.566009 424.309567 
L 614.360695 422.883045 
L 614.45592 421.858546 
L 616.959474 419.53975 
L 619.348767 418.947703 
L 620.501054 418.397316 
L 621.397772 418.904599 
" clip-path="url(#pcc549e2eeb)" style="fill: none; stroke: #ec4243"/>
    <path d="M 554.430606 449.749117 
L 558.074596 450.119029 
L 561.301089 449.532752 
L 568.283769 446.364206 
L 572.484939 446.423058 
L 582.716072 441.749377 
" clip-path="url(#pcc549e2eeb)" style="fill: none; stroke: #ec4243"/>
    <path d="M 490.019953 465.684187 
L 492.383791 465.163014 
L 497.756792 463.977698 
L 504.364114 461.114811 
L 514.091625 459.448506 
L 523.807981 452.220251 
L 529.64059 451.633722 
L 532.316014 450.952391 
L 533.946937 449.462594 
L 538.441063 448.818736 
L 538.892535 450.007624 
L 540.794355 449.482693 
L 541.193446 449.652166 
L 541.877487 449.94344 
L 542.51148 448.540722 
L 544.334787 449.396177 
L 546.600699 449.55143 
L 547.166945 450.173454 
L 548.180568 450.272641 
L 548.749505 449.752992 
L 551.58441 450.26013 
L 551.761342 450.227422 
" clip-path="url(#pcc549e2eeb)" style="fill: none; stroke: #ec4243"/>
    <path d="M 470.459998 476.560613 
L 472.675062 475.080081 
L 476.680583 473.761447 
" clip-path="url(#pcc549e2eeb)" style="fill: none; stroke: #ec4243"/>
    <path d="M 458.231484 479.212695 
L 458.484525 479.461865 
L 459.394577 479.164958 
L 462.946633 479.387874 
L 466.246433 478.892418 
" clip-path="url(#pcc549e2eeb)" style="fill: none; stroke: #ec4243"/>
    <path d="M 444.465819 482.68244 
L 446.039335 482.467996 
L 446.133191 482.878731 
L 447.767153 482.980835 
L 449.8881 482.208538 
L 451.418519 481.315548 
L 451.344602 480.794888 
L 453.641047 480.107088 
L 455.015912 479.020961 
L 455.60798 478.872164 
" clip-path="url(#pcc549e2eeb)" style="fill: none; stroke: #ec4243"/>
    <path d="M 397.470559 516.584357 
L 397.632398 516.4899 
L 401.559335 511.062758 
L 404.867424 508.253927 
L 405.254579 505.557221 
L 406.527507 503.562183 
L 408.509127 503.572529 
L 412.33418 499.233833 
L 415.72547 494.989697 
L 417.666035 492.57132 
L 419.477043 491.478058 
L 439.411602 483.447272 
" clip-path="url(#pcc549e2eeb)" style="fill: none; stroke: #ec4243"/>
    <path d="M 369.983709 560.791362 
L 376.530545 546.005732 
L 376.67534 543.89363 
L 377.735913 542.982443 
L 380.274705 542.51139 
L 381.110408 540.99721 
L 383.171077 539.854266 
L 382.814432 538.903786 
L 381.347415 537.436663 
L 381.382462 536.756331 
L 382.976996 534.568162 
L 384.891103 533.282803 
L 386.241333 531.569652 
L 388.45638 525.433626 
L 388.87763 522.710274 
L 390.16278 520.186657 
L 392.852993 518.069126 
L 395.111112 517.961441 
L 395.863537 517.522292 
" clip-path="url(#pcc549e2eeb)" style="fill: none; stroke: #ec4243"/>
    <path d="M 361.915794 576.99511 
L 364.414926 574.658218 
L 365.7861 570.846787 
L 368.826138 563.405593 
L 369.983709 560.791362 
" clip-path="url(#pcc549e2eeb)" style="fill: none; stroke: #ec4243"/>
    <path d="M 347.599889 589.857689 
L 348.319294 588.776136 
L 349.744257 587.625464 
L 351.611253 586.82763 
L 353.323947 585.029002 
L 361.915794 576.99511 
" clip-path="url(#pcc549e2eeb)" style="fill: none; stroke: #ec4243"/>
    <path d="M 336.854166 603.235599 
L 338.181162 601.971385 
L 339.022591 601.404382 
L 339.198863 600.484278 
L 340.336273 599.273109 
L 340.788038 599.389643 
L 342.286721 598.363029 
L 342.486692 598.224057 
L 342.535055 598.186732 
L 343.576796 597.612521 
L 343.719679 597.531893 
L 343.925497 597.417615 
L 344.434157 597.298364 
L 345.21946 596.627898 
L 344.994096 596.324991 
L 344.373673 595.492333 
L 345.502388 592.979196 
L 346.316027 593.151107 
L 346.518087 593.194759 
L 346.583606 593.208035 
L 347.320082 593.265092 
L 347.818008 592.492356 
L 347.298573 591.347521 
L 347.379263 590.465333 
" clip-path="url(#pcc549e2eeb)" style="fill: none; stroke: #ec4243"/>
    <path d="M 322.864702 618.886433 
L 324.233989 616.645828 
L 324.314247 616.549896 
" clip-path="url(#pcc549e2eeb)" style="fill: none; stroke: #ec4243"/>
    <path d="M 310.279127 635.281275 
L 310.496587 635.028456 
L 312.651088 631.213493 
" clip-path="url(#pcc549e2eeb)" style="fill: none; stroke: #ec4243"/>
    <path d="M 300.580479 646.294778 
L 305.287859 641.084041 
L 310.279127 635.281275 
" clip-path="url(#pcc549e2eeb)" style="fill: none; stroke: #ec4243"/>
    <path d="M 295.52666 652.004797 
L 295.846174 651.535209 
L 300.580479 646.294778 
" clip-path="url(#pcc549e2eeb)" style="fill: none; stroke: #ec4243"/>
    <path d="M 286.946762 671.556618 
L 287.539982 663.995221 
L 291.327365 658.251401 
" clip-path="url(#pcc549e2eeb)" style="fill: none; stroke: #ec4243"/>
    <path d="M 268.453003 709.494063 
L 269.749854 707.635851 
L 271.205347 704.719573 
L 272.421046 702.284727 
L 273.059299 700.818259 
L 272.725946 698.416709 
" clip-path="url(#pcc549e2eeb)" style="fill: none; stroke: #ec4243"/>
    <path d="M 263.358321 723.709823 
L 264.551332 721.272625 
L 264.817404 717.904671 
" clip-path="url(#pcc549e2eeb)" style="fill: none; stroke: #ec4243"/>
    <path d="M 254.357672 753.132967 
L 254.576782 752.802961 
L 254.494247 749.294637 
L 257.064915 745.774413 
L 258.826489 741.117745 
" clip-path="url(#pcc549e2eeb)" style="fill: none; stroke: #ec4243"/>
    <path d="M 251.545157 768.889294 
L 251.197192 767.764294 
L 251.267376 764.83147 
L 253.321103 758.307102 
L 253.535882 755.917394 
" clip-path="url(#pcc549e2eeb)" style="fill: none; stroke: #ec4243"/>
    <path d="M 249.031166 794.804847 
L 249.543974 793.15606 
L 249.618193 792.814798 
" clip-path="url(#pcc549e2eeb)" style="fill: none; stroke: #ec4243"/>
    <path d="M 244.794428 809.389523 
L 244.966236 809.047551 
L 246.41221 801.0666 
L 248.618951 796.130198 
L 249.031166 794.804847 
" clip-path="url(#pcc549e2eeb)" style="fill: none; stroke: #ec4243"/>
    <path d="M 236.984653 816.899446 
L 238.535338 817.999391 
L 242.572464 813.812153 
L 244.794428 809.389523 
" clip-path="url(#pcc549e2eeb)" style="fill: none; stroke: #ec4243"/>
    <path d="M 174.699156 962.069979 
L 179.175121 953.685044 
L 176.483216 952.529554 
L 178.025761 949.160639 
L 179.614648 949.779465 
L 181.021902 946.967234 
L 180.272582 937.597579 
" clip-path="url(#pcc549e2eeb)" style="fill: none; stroke: #ec4243"/>
    <path d="M 120.59679 1019.449128 
L 127.909506 1004.68885 
L 129.669599 1002.635601 
L 133.777052 995.160007 
L 138.553656 990.020773 
L 140.971382 983.78966 
L 146.322946 976.160854 
L 147.854455 973.952071 
L 151.610416 972.102721 
L 152.778639 971.680259 
" clip-path="url(#pcc549e2eeb)" style="fill: none; stroke: #ec4243"/>
    <path d="M 99.923481 1051.104511 
L 101.222764 1049.49374 
L 102.291163 1049.000359 
L 103.851812 1049.716359 
L 105.694005 1048.976997 
L 110.82247 1038.931823 
L 112.313356 1038.075449 
L 111.726217 1036.609266 
L 112.24765 1036.146731 
" clip-path="url(#pcc549e2eeb)" style="fill: none; stroke: #ec4243"/>
    <path d="M 93.900989 1061.873164 
L 95.719469 1060.79477 
L 97.256538 1058.741271 
L 97.44656 1055.698056 
" clip-path="url(#pcc549e2eeb)" style="fill: none; stroke: #ec4243"/>
    <path d="M 87.755522 1076.950833 
L 87.645301 1075.967625 
L 87.86834 1073.691247 
L 88.232054 1072.376791 
L 89.405015 1071.496864 
L 90.285457 1069.807492 
L 90.840881 1068.022799 
" clip-path="url(#pcc549e2eeb)" style="fill: none; stroke: #ec4243"/>
    <path d="M 83.388264 1095.115205 
L 83.290909 1094.873521 
L 83.847407 1094.882862 
L 85.565396 1092.559023 
L 85.200174 1092.139547 
L 85.883917 1091.311833 
L 85.53988 1090.741976 
L 86.902098 1088.533287 
" clip-path="url(#pcc549e2eeb)" style="fill: none; stroke: #ec4243"/>
   </g>
   <g id="LineCollection_5">
    <path d="M 1256.308951 581.029298 
L 1253.053396 581.997713 
L 1241.506589 582.866042 
L 1232.106967 582.010534 
L 1223.411898 582.068831 
L 1191.961948 590.588721 
L 1183.337529 593.27563 
L 1174.069039 597.112233 
" clip-path="url(#pcc549e2eeb)" style="fill: none; stroke: #ecffc5"/>
    <path d="M 1291.99062 571.625793 
L 1291.601748 571.82391 
L 1280.583322 572.915742 
L 1276.300423 574.746553 
L 1271.019875 576.143543 
" clip-path="url(#pcc549e2eeb)" style="fill: none; stroke: #ecffc5"/>
    <path d="M 1501.872888 481.583068 
L 1498.293552 484.813391 
L 1497.454553 484.604111 
L 1496.257552 484.974554 
" clip-path="url(#pcc549e2eeb)" style="fill: none; stroke: #ecffc5"/>
    <path d="M 582.716072 441.749377 
L 583.069428 441.587956 
L 585.568565 440.9433 
L 585.958918 440.702566 
" clip-path="url(#pcc549e2eeb)" style="fill: none; stroke: #ecffc5"/>
    <path d="M 551.761342 450.227422 
L 554.377729 449.743749 
L 554.430606 449.749117 
" clip-path="url(#pcc549e2eeb)" style="fill: none; stroke: #ecffc5"/>
    <path d="M 112.24765 1036.146731 
L 114.636822 1034.027416 
L 118.157771 1021.775683 
L 120.281333 1020.085843 
L 120.457969 1019.729322 
" clip-path="url(#pcc549e2eeb)" style="fill: none; stroke: #ecffc5"/>
   </g>
   <g id="legend_1">
    <g id="patch_2">
     <path d="M 1629.503125 88.590625 
L 1674.2 88.590625 
Q 1676.2 88.590625 1676.2 86.590625 
L 1676.2 14.2 
Q 1676.2 12.2 1674.2 12.2 
L 1629.503125 12.2 
Q 1627.503125 12.2 1627.503125 14.2 
L 1627.503125 86.590625 
Q 1627.503125 88.590625 1629.503125 88.590625 
z
" style="fill: #ffffff; opacity: 0.8; stroke: #cccccc; stroke-linejoin: miter"/>
    </g>
    <g id="line2d_1">
     <path d="M 1631.503125 20.298437 
L 1651.503125 20.298437 
" style="fill: none; stroke: #28c23f"/>
    </g>
    <g id="text_1">
     <!-- fa -->
     <g transform="translate(1659.503125 23.798437) scale(0.1 -0.1)">
      <defs>
       <path id="DejaVuSans-66" d="M 2375 4863 
L 2375 4384 
L 1825 4384 
Q 1516 4384 1395 4259 
Q 1275 4134 1275 3809 
L 1275 3500 
L 2222 3500 
L 2222 3053 
L 1275 3053 
L 1275 0 
L 697 0 
L 697 3053 
L 147 3053 
L 147 3500 
L 697 3500 
L 697 3744 
Q 697 4328 969 4595 
Q 1241 4863 1831 4863 
L 2375 4863 
z
" transform="scale(0.015625)"/>
       <path id="DejaVuSans-61" d="M 2194 1759 
Q 1497 1759 1228 1600 
Q 959 1441 959 1056 
Q 959 750 1161 570 
Q 1363 391 1709 391 
Q 2188 391 2477 730 
Q 2766 1069 2766 1631 
L 2766 1759 
L 2194 1759 
z
M 3341 1997 
L 3341 0 
L 2766 0 
L 2766 531 
Q 2569 213 2275 61 
Q 1981 -91 1556 -91 
Q 1019 -91 701 211 
Q 384 513 384 1019 
Q 384 1609 779 1909 
Q 1175 2209 1959 2209 
L 2766 2209 
L 2766 2266 
Q 2766 2663 2505 2880 
Q 2244 3097 1772 3097 
Q 1472 3097 1187 3025 
Q 903 2953 641 2809 
L 641 3341 
Q 956 3463 1253 3523 
Q 1550 3584 1831 3584 
Q 2591 3584 2966 3190 
Q 3341 2797 3341 1997 
z
" transform="scale(0.015625)"/>
      </defs>
      <use xlink:href="#DejaVuSans-66"/>
      <use xlink:href="#DejaVuSans-61" x="35.205078"/>
     </g>
    </g>
    <g id="line2d_2">
     <path d="M 1631.503125 34.976562 
L 1651.503125 34.976562 
" style="fill: none; stroke: #dbffe4"/>
    </g>
    <g id="text_2">
     <!-- ff -->
     <g transform="translate(1659.503125 38.476562) scale(0.1 -0.1)">
      <use xlink:href="#DejaVuSans-66"/>
      <use xlink:href="#DejaVuSans-66" x="35.205078"/>
     </g>
    </g>
    <g id="line2d_3">
     <path d="M 1631.503125 49.654687 
L 1651.503125 49.654687 
" style="fill: none; stroke: #e9a23d"/>
    </g>
    <g id="text_3">
     <!-- pa -->
     <g transform="translate(1659.503125 53.154687) scale(0.1 -0.1)">
      <defs>
       <path id="DejaVuSans-70" d="M 1159 525 
L 1159 -1331 
L 581 -1331 
L 581 3500 
L 1159 3500 
L 1159 2969 
Q 1341 3281 1617 3432 
Q 1894 3584 2278 3584 
Q 2916 3584 3314 3078 
Q 3713 2572 3713 1747 
Q 3713 922 3314 415 
Q 2916 -91 2278 -91 
Q 1894 -91 1617 61 
Q 1341 213 1159 525 
z
M 3116 1747 
Q 3116 2381 2855 2742 
Q 2594 3103 2138 3103 
Q 1681 3103 1420 2742 
Q 1159 2381 1159 1747 
Q 1159 1113 1420 752 
Q 1681 391 2138 391 
Q 2594 391 2855 752 
Q 3116 1113 3116 1747 
z
" transform="scale(0.015625)"/>
      </defs>
      <use xlink:href="#DejaVuSans-70"/>
      <use xlink:href="#DejaVuSans-61" x="63.476562"/>
     </g>
    </g>
    <g id="line2d_4">
     <path d="M 1631.503125 64.332812 
L 1651.503125 64.332812 
" style="fill: none; stroke: #ec4243"/>
    </g>
    <g id="text_4">
     <!-- pp -->
     <g transform="translate(1659.503125 67.832812) scale(0.1 -0.1)">
      <use xlink:href="#DejaVuSans-70"/>
      <use xlink:href="#DejaVuSans-70" x="63.476562"/>
     </g>
    </g>
    <g id="line2d_5">
     <path d="M 1631.503125 79.010937 
L 1651.503125 79.010937 
" style="fill: none; stroke: #ecffc5"/>
    </g>
    <g id="text_5">
     <!-- ps -->
     <g transform="translate(1659.503125 82.510937) scale(0.1 -0.1)">
      <defs>
       <path id="DejaVuSans-73" d="M 2834 3397 
L 2834 2853 
Q 2591 2978 2328 3040 
Q 2066 3103 1784 3103 
Q 1356 3103 1142 2972 
Q 928 2841 928 2578 
Q 928 2378 1081 2264 
Q 1234 2150 1697 2047 
L 1894 2003 
Q 2506 1872 2764 1633 
Q 3022 1394 3022 966 
Q 3022 478 2636 193 
Q 2250 -91 1575 -91 
Q 1294 -91 989 -36 
Q 684 19 347 128 
L 347 722 
Q 666 556 975 473 
Q 1284 391 1588 391 
Q 1994 391 2212 530 
Q 2431 669 2431 922 
Q 2431 1156 2273 1281 
Q 2116 1406 1581 1522 
L 1381 1569 
Q 847 1681 609 1914 
Q 372 2147 372 2553 
Q 372 3047 722 3315 
Q 1072 3584 1716 3584 
Q 2034 3584 2315 3537 
Q 2597 3491 2834 3397 
z
" transform="scale(0.015625)"/>
      </defs>
      <use xlink:href="#DejaVuSans-70"/>
      <use xlink:href="#DejaVuSans-73" x="63.476562"/>
     </g>
    </g>
   </g>
  </g>
 </g>
 <defs>
  <clipPath id="pcc549e2eeb">
   <rect x="7.2" y="7.2" width="1674" height="1139.720691"/>
  </clipPath>
 </defs>
</svg>
