<?xml version="1.0" encoding="utf-8" standalone="no"?>
<!DOCTYPE svg PUBLIC "-//W3C//DTD SVG 1.1//EN"
  "http://www.w3.org/Graphics/SVG/1.1/DTD/svg11.dtd">
<svg xmlns:xlink="http://www.w3.org/1999/xlink" width="1688.4pt" height="1458.441589pt" viewBox="0 0 1688.4 1458.441589" xmlns="http://www.w3.org/2000/svg" version="1.1">
 <metadata>
  <rdf:RDF xmlns:dc="http://purl.org/dc/elements/1.1/" xmlns:cc="http://creativecommons.org/ns#" xmlns:rdf="http://www.w3.org/1999/02/22-rdf-syntax-ns#">
   <cc:Work>
    <dc:type rdf:resource="http://purl.org/dc/dcmitype/StillImage"/>
    <dc:date>2023-12-08T14:21:23.291161</dc:date>
    <dc:format>image/svg+xml</dc:format>
    <dc:creator>
     <cc:Agent>
      <dc:title>Matplotlib v3.8.2, https://matplotlib.org/</dc:title>
     </cc:Agent>
    </dc:creator>
   </cc:Work>
  </rdf:RDF>
 </metadata>
 <defs>
  <style type="text/css">*{stroke-linejoin: round; stroke-linecap: butt}</style>
 </defs>
 <g id="figure_1">
  <g id="patch_1">
   <path d="M 0 1458.441589 
L 1688.4 1458.441589 
L 1688.4 0 
L 0 0 
z
" style="fill: #ffffff"/>
  </g>
  <g id="axes_1">
   <g id="LineCollection_1">
    <path d="M 450.625614 958.694682 
L 445.355812 951.891644 
L 458.54581 935.102017 
L 466.041947 916.459353 
L 468.285092 905.536882 
" clip-path="url(#p39baf8afe8)" style="fill: none; stroke: #28c23f"/>
    <path d="M 1594.397454 165.179814 
L 1592.847889 168.405702 
L 1577.61247 160.775254 
L 1574.67725 159.305828 
L 1574.392095 159.355247 
L 1574.163043 159.536339 
L 1574.116756 159.894186 
L 1574.260582 160.097955 
L 1577.625514 161.797667 
L 1576.588937 163.602408 
L 1577.247862 163.94177 
L 1576.492578 165.405554 
L 1575.483195 164.962218 
L 1573.464064 167.024708 
L 1573.687595 167.183942 
L 1574.925299 165.968212 
L 1576.229707 166.832667 
L 1574.366014 168.906416 
L 1572.91738 167.637508 
L 1564.465207 176.511499 
L 1563.323145 178.244845 
" clip-path="url(#p39baf8afe8)" style="fill: none; stroke: #28c23f"/>
    <path d="M 1540.299038 205.914593 
L 1539.211786 205.983337 
L 1537.961067 208.207789 
L 1537.922697 208.366331 
L 1537.80285 208.553798 
" clip-path="url(#p39baf8afe8)" style="fill: none; stroke: #28c23f"/>
    <path d="M 1530.375688 219.792369 
L 1530.359472 219.815877 
L 1528.7804 220.233318 
L 1528.03345 220.945141 
" clip-path="url(#p39baf8afe8)" style="fill: none; stroke: #28c23f"/>
    <path d="M 1483.70323 290.064039 
L 1482.801814 290.215298 
L 1481.634248 291.372758 
L 1480.728821 292.791279 
L 1480.546362 294.175187 
L 1480.203707 295.189021 
" clip-path="url(#p39baf8afe8)" style="fill: none; stroke: #28c23f"/>
    <path d="M 1480.203707 295.189021 
L 1480.082558 295.54747 
L 1479.983155 296.34991 
L 1480.050336 297.15959 
L 1479.280502 298.408992 
L 1478.18602 299.238511 
L 1477.629911 298.843751 
L 1477.078888 299.286974 
L 1475.16434 302.119649 
L 1473.218591 301.177304 
L 1471.709793 303.212448 
L 1470.524072 304.227466 
L 1469.687227 304.934297 
L 1466.697771 302.864963 
L 1466.701227 302.620904 
L 1469.684355 298.303757 
L 1471.570245 295.462881 
L 1472.792863 294.153726 
L 1472.733795 294.092545 
L 1472.686697 294.054448 
L 1471.512438 295.281025 
L 1468.930107 298.933529 
L 1466.435169 302.437113 
L 1466.224104 302.780934 
L 1465.822539 303.063207 
L 1467.014769 305.033988 
L 1467.125035 306.654639 
L 1467.066593 307.699904 
L 1466.788165 308.634726 
L 1466.399902 309.458056 
L 1465.778279 310.320058 
L 1464.934357 311.237034 
L 1464.662064 311.629497 
L 1464.369324 312.051734 
L 1464.172325 312.661357 
L 1463.904753 313.35214 
L 1464.259036 315.426354 
L 1461.56555 319.401233 
L 1459.867417 321.925317 
L 1459.602437 322.088501 
" clip-path="url(#p39baf8afe8)" style="fill: none; stroke: #28c23f"/>
    <path d="M 1427.597342 422.741782 
L 1426.976156 425.90896 
L 1426.662429 427.505361 
L 1426.332723 431.470533 
L 1426.418463 436.165021 
L 1428.491606 437.99463 
L 1428.387035 440.920439 
L 1429.008495 441.151353 
L 1429.102016 441.471618 
L 1428.911014 441.902264 
L 1427.965673 441.622974 
L 1427.757073 441.729502 
L 1427.739818 441.938267 
L 1428.3408 442.208445 
L 1428.348206 442.535246 
L 1428.439028 445.11449 
L 1427.696512 447.744253 
L 1427.136082 447.536562 
L 1426.961254 447.812677 
L 1427.33144 448.182541 
L 1426.957385 449.176736 
L 1426.322575 450.06036 
L 1425.183581 451.140519 
L 1424.459535 451.497786 
L 1423.854761 450.930644 
L 1423.680003 451.180996 
L 1424.04569 451.831527 
L 1422.623978 452.708845 
L 1420.437763 453.192121 
L 1419.445536 453.118789 
L 1418.697658 453.065135 
L 1417.08494 452.09376 
L 1416.997697 452.040674 
" clip-path="url(#p39baf8afe8)" style="fill: none; stroke: #28c23f"/>
    <path d="M 1381.143299 502.396113 
L 1381.121542 502.756543 
L 1379.665721 504.169272 
L 1378.077501 504.942968 
L 1376.943332 504.626454 
L 1376.751168 505.122168 
L 1377.74812 505.504724 
L 1378.350741 505.860372 
L 1378.637934 506.436121 
L 1378.596297 507.065153 
L 1378.25341 507.495344 
L 1377.310154 507.112945 
L 1376.681404 506.509084 
L 1376.692762 505.786405 
L 1376.220272 505.573507 
L 1375.193656 507.433575 
L 1374.915542 509.149378 
L 1375.738596 511.707703 
L 1376.179438 514.529324 
L 1375.9335 516.00522 
L 1374.674566 519.108002 
L 1372.521714 522.045469 
L 1370.463709 523.883545 
L 1367.502465 526.528471 
L 1365.111077 528.697762 
L 1363.476439 533.846099 
" clip-path="url(#p39baf8afe8)" style="fill: none; stroke: #28c23f"/>
    <path d="M 1319.996365 599.122428 
L 1319.379188 599.779006 
L 1319.093082 600.083237 
L 1316.58778 601.199824 
L 1315.429073 602.545513 
L 1314.152433 604.930847 
L 1314.093676 605.040624 
" clip-path="url(#p39baf8afe8)" style="fill: none; stroke: #28c23f"/>
    <path d="M 1295.391114 682.393228 
L 1295.445617 682.390482 
L 1296.381238 690.282101 
L 1300.440247 689.364158 
L 1300.961382 691.601654 
L 1296.850848 692.711985 
L 1297.874481 695.068963 
L 1298.865194 696.059063 
L 1302.960423 695.424605 
L 1303.273654 696.278426 
L 1302.949852 697.709314 
L 1302.647512 697.85349 
L 1300.868703 698.705087 
L 1297.558616 700.316813 
L 1295.700452 700.76138 
L 1293.688993 699.83328 
L 1291.496995 696.438193 
L 1290.178127 691.574557 
L 1289.793717 685.477137 
L 1289.998662 682.627593 
L 1290.06858 682.168144 
L 1290.337239 680.910654 
L 1290.553856 680.631987 
L 1290.870045 680.500062 
L 1291.050947 680.394846 
L 1291.058257 680.12097 
L 1290.893356 679.834371 
L 1290.32089 679.885522 
L 1289.837584 680.157958 
L 1289.592324 680.414843 
L 1289.446772 680.773724 
L 1289.474848 680.982622 
L 1289.528801 681.209226 
L 1289.351929 682.125299 
L 1289.118201 683.468318 
L 1288.905839 685.401231 
L 1289.198986 689.520075 
L 1289.591626 693.507695 
L 1290.123167 696.888277 
L 1291.157242 700.688004 
L 1290.696196 704.621517 
L 1289.308414 707.536636 
L 1288.842604 710.285051 
L 1294.425305 713.702924 
" clip-path="url(#p39baf8afe8)" style="fill: none; stroke: #28c23f"/>
    <path d="M 1220.353734 852.415136 
L 1219.89997 854.067323 
L 1216.844335 857.560142 
L 1209.106323 866.408661 
" clip-path="url(#p39baf8afe8)" style="fill: none; stroke: #28c23f"/>
    <path d="M 1202.279583 877.398004 
L 1202.168254 878.423887 
L 1199.660493 885.846472 
L 1198.043333 883.423765 
L 1193.201785 887.118314 
L 1193.286516 891.677203 
L 1197.061039 890.895889 
L 1187.941903 900.343663 
L 1189.150817 904.731193 
L 1184.981049 909.484075 
L 1188.649279 912.467872 
L 1189.064409 916.240012 
L 1188.547379 917.740742 
L 1187.463774 920.881705 
L 1182.742083 926.122316 
L 1177.196581 928.796226 
L 1175.237852 930.651683 
L 1173.765707 932.432752 
L 1171.571606 933.140339 
L 1170.694204 933.464321 
L 1169.835651 933.978192 
L 1169.932355 934.156126 
L 1170.193134 934.302041 
L 1171.167641 933.739726 
L 1172.29808 933.374516 
L 1173.470002 933.073164 
L 1174.669696 933.068846 
L 1180.224311 934.834282 
L 1180.913644 938.600516 
L 1179.795646 941.466105 
L 1175.731703 946.066049 
L 1174.907936 946.999017 
L 1173.62009 947.914236 
L 1171.088608 948.368545 
L 1170.032997 948.502129 
L 1167.340466 947.747783 
L 1166.920965 947.406107 
L 1166.266768 946.872496 
L 1166.516918 942.513998 
L 1167.360783 939.349251 
L 1168.096876 937.441102 
L 1169.012282 935.659625 
L 1168.5968 935.51186 
L 1166.826878 939.152294 
L 1165.923915 942.546002 
L 1165.709009 946.891054 
L 1164.425595 950.184563 
L 1163.550262 950.143799 
L 1162.969571 950.959565 
L 1163.191545 951.94332 
L 1164.159853 952.460311 
L 1164.179247 952.535652 
" clip-path="url(#p39baf8afe8)" style="fill: none; stroke: #28c23f"/>
    <path d="M 1059.402281 1077.534692 
L 1061.256392 1079.212192 
L 1059.480963 1080.906592 
L 1058.466824 1081.875401 
L 1051.673342 1088.165849 
L 1047.639249 1083.660154 
L 1046.274997 1083.477949 
L 1040.058099 1076.722183 
L 1038.618195 1076.172254 
L 1037.966942 1077.508356 
L 1035.463067 1075.661286 
L 1033.588391 1074.925944 
" clip-path="url(#p39baf8afe8)" style="fill: none; stroke: #28c23f"/>
    <path d="M 985.771128 1161.640646 
L 985.771141 1161.724583 
L 985.630798 1161.844778 
L 977.965671 1168.432549 
L 975.927115 1169.9916 
L 974.949645 1170.739403 
L 973.231818 1171.464307 
L 971.867394 1173.432454 
L 954.182803 1190.019058 
L 947.503134 1192.6276 
L 941.376677 1200.264416 
L 929.302187 1210.021279 
L 924.546069 1216.606509 
L 921.009059 1219.899769 
L 911.49593 1225.631507 
L 900.76348 1227.583903 
L 896.738825 1230.876666 
L 890.152727 1233.071459 
L 889.664536 1234.047333 
L 890.27458 1235.023063 
L 888.518255 1236.340167 
L 886.859497 1237.584395 
L 885.551719 1238.126153 
L 885.293615 1238.254042 
L 884.686422 1238.554239 
L 879.878052 1240.936993 
L 878.813131 1241.464694 
L 877.737995 1241.997781 
L 875.090078 1243.308941 
L 873.785612 1243.955095 
L 872.600913 1244.542018 
L 871.433851 1245.120866 
L 870.882366 1245.390066 
L 868.088911 1246.188138 
L 867.500715 1246.356866 
L 866.503381 1246.642083 
L 865.760254 1246.85364 
L 862.431358 1247.322983 
L 860.69087 1247.5689 
L 856.247386 1248.195542 
L 854.048804 1250.046551 
L 853.929812 1250.146458 
L 846.384855 1252.661447 
L 846.205036 1253.432312 
L 840.318449 1254.31802 
L 838.818983 1254.543066 
L 837.375226 1253.722899 
L 833.112905 1252.690414 
L 827.051333 1251.750306 
L 822.324834 1249.925558 
L 813.574484 1245.753812 
L 809.293721 1243.710959 
L 808.861357 1243.840891 
L 808.633114 1243.909202 
L 807.770233 1244.170427 
L 801.482982 1244.639432 
L 800.632061 1244.171208 
L 800.876391 1245.267694 
L 805.075228 1245.14489 
L 805.923576 1245.306661 
L 807.082022 1246.074315 
L 807.798389 1247.344741 
L 807.772713 1248.77921 
L 807.106577 1250.224879 
L 805.510599 1251.488136 
L 804.623828 1251.94181 
L 805.107333 1252.773417 
L 803.050882 1253.491247 
L 802.908981 1253.016151 
L 802.390682 1252.572207 
L 801.241846 1252.463559 
L 799.819586 1251.857631 
L 798.601103 1250.783306 
L 797.583328 1248.31719 
L 799.290492 1243.804219 
L 799.056788 1243.845389 
L 798.782275 1243.894543 
L 795.834997 1244.415161 
L 793.229594 1245.214998 
L 791.362964 1246.732135 
L 790.840034 1249.539663 
L 789.045499 1251.854343 
L 787.216158 1253.805502 
L 783.723195 1256.252164 
L 782.850032 1255.923353 
" clip-path="url(#p39baf8afe8)" style="fill: none; stroke: #28c23f"/>
    <path d="M 448.311002 1382.546298 
L 444.275368 1383.467147 
L 436.257175 1384.095241 
L 433.411677 1383.57754 
L 431.368063 1382.607608 
L 430.763306 1383.136587 
L 425.795181 1378.40251 
L 424.747034 1378.562163 
L 420.803028 1379.162487 
L 415.303187 1373.92576 
L 409.218545 1368.024827 
L 396.50805 1362.152659 
L 395.485496 1360.607268 
" clip-path="url(#p39baf8afe8)" style="fill: none; stroke: #28c23f"/>
    <path d="M 374.937545 1329.80617 
L 367.606026 1319.74618 
L 358.648089 1301.748499 
L 357.264716 1297.983928 
L 357.109446 1296.373779 
L 359.861237 1295.097493 
L 361.543183 1292.151525 
L 361.440746 1290.970076 
L 360.905247 1290.270829 
L 358.476483 1291.655627 
L 357.257898 1290.093783 
L 356.782348 1289.895127 
L 354.737576 1290.569706 
L 351.889173 1291.898438 
L 352.287145 1294.874645 
" clip-path="url(#p39baf8afe8)" style="fill: none; stroke: #28c23f"/>
    <path d="M 633.58919 1089.899297 
L 635.050865 1092.273763 
L 636.515912 1091.305956 
L 635.403102 1088.934146 
L 635.862111 1088.710271 
" clip-path="url(#p39baf8afe8)" style="fill: none; stroke: #28c23f"/>
    <path d="M 732.213599 977.284581 
L 733.233524 977.344435 
L 734.866313 978.223837 
L 737.110996 977.030982 
L 749.565166 966.74041 
L 756.900175 961.460902 
L 757.676899 960.621789 
L 756.686411 959.423497 
L 757.15823 958.613069 
L 758.431076 959.618523 
L 758.687867 959.326607 
L 758.878704 959.0819 
L 760.18044 957.326792 
L 760.814549 955.23562 
L 762.575977 950.709361 
L 764.108012 952.263571 
L 765.593872 951.306428 
L 766.504701 951.511871 
L 766.992955 950.761159 
L 763.566872 947.100885 
L 764.909014 945.988977 
" clip-path="url(#p39baf8afe8)" style="fill: none; stroke: #28c23f"/>
    <path d="M 785.933763 901.957346 
L 783.808322 892.504099 
L 780.915795 888.900124 
L 779.393335 885.299888 
L 773.307939 878.679242 
L 765.586125 874.95275 
L 760.997112 869.274548 
L 758.11491 865.195944 
L 752.833812 866.479141 
L 747.667914 867.422396 
L 731.76558 856.017219 
L 719.582136 856.943125 
L 717.687028 857.645057 
L 713.061012 859.360291 
L 710.942333 860.145419 
L 704.986387 878.483278 
L 703.655891 879.767672 
L 702.530837 882.796575 
L 706.323562 887.556848 
L 710.255635 895.620675 
L 710.632666 900.953627 
L 709.976234 914.921248 
L 697.598573 937.94496 
L 696.101341 944.500546 
L 693.796157 947.945237 
L 693.458186 951.756807 
L 689.501811 959.120546 
L 686.916335 966.764799 
L 681.970105 972.035198 
L 681.287594 973.642049 
L 682.208062 976.39271 
L 679.200275 984.440726 
L 675.833097 987.420241 
L 669.977457 999.226674 
L 667.211538 1009.828786 
L 661.463598 1019.112187 
L 657.740187 1018.33974 
L 637.080507 1025.769504 
L 628.71333 1030.194934 
L 616.850011 1038.671539 
L 608.262554 1042.756605 
" clip-path="url(#p39baf8afe8)" style="fill: none; stroke: #28c23f"/>
    <path d="M 608.262554 1042.756605 
L 597.429265 1047.909806 
L 587.571187 1052.229852 
L 578.499101 1058.536629 
L 569.789883 1073.663692 
L 560.301253 1084.824141 
L 552.909944 1093.515657 
L 538.391077 1103.68173 
" clip-path="url(#p39baf8afe8)" style="fill: none; stroke: #28c23f"/>
    <path d="M 349.758422 1263.92054 
L 349.577559 1263.982209 
L 348.565822 1263.470727 
L 348.431443 1263.683027 
L 347.9959 1263.453351 
L 348.125698 1263.228829 
L 343.067233 1260.411057 
L 338.733379 1258.066894 
L 339.497448 1256.482416 
L 338.128284 1255.90022 
L 336.725227 1255.654143 
L 334.622349 1255.374747 
" clip-path="url(#p39baf8afe8)" style="fill: none; stroke: #28c23f"/>
    <path d="M 327.349297 1263.976282 
L 324.643294 1264.600958 
L 324.147511 1263.093726 
L 324.094098 1261.097574 
L 323.389545 1261.136542 
L 322.58651 1257.823237 
L 318.497556 1240.560785 
L 318.625263 1240.391851 
L 320.254479 1239.986749 
L 319.872745 1238.47323 
L 320.182403 1237.384416 
L 321.226251 1236.042529 
L 321.776447 1235.263912 
L 322.262298 1234.575862 
L 322.810331 1234.293503 
L 322.066909 1233.686881 
L 321.998499 1232.795741 
L 321.87887 1232.174206 
L 321.495124 1230.48441 
L 319.418253 1223.454386 
L 319.246013 1223.209569 
L 318.833296 1222.853874 
L 318.80145 1222.718143 
L 318.729595 1222.618848 
L 318.60381 1222.559995 
L 318.443606 1222.530822 
L 318.35168 1222.571099 
L 318.315123 1222.665854 
L 318.333096 1222.794746 
L 318.586176 1222.991102 
L 318.903077 1223.429091 
L 320.871177 1229.897289 
L 320.267924 1230.091271 
L 320.366798 1230.371022 
L 320.951468 1230.187807 
L 321.585368 1232.320724 
L 321.677578 1232.854004 
L 321.727422 1233.964723 
L 321.627172 1234.213777 
L 317.380174 1236.020347 
L 315.642955 1229.954501 
L 316.295109 1229.810906 
L 316.159045 1229.133706 
L 315.463216 1229.304229 
L 314.290672 1224.882866 
L 314.158483 1224.805002 
L 314.011069 1224.817918 
L 313.773565 1224.875186 
L 313.643517 1224.94377 
L 313.610572 1225.060236 
L 314.215571 1227.438457 
L 313.732143 1227.570583 
L 313.843143 1228.044285 
L 314.335815 1227.917623 
L 317.213478 1239.817565 
L 316.819256 1239.89449 
L 316.912344 1240.225741 
L 317.273221 1240.144603 
L 319.816169 1252.098666 
L 316.316394 1255.531526 
L 313.100518 1256.97918 
L 310.96067 1256.304077 
L 306.131623 1258.076853 
L 302.072907 1258.330269 
L 296.336114 1258.916637 
L 293.747581 1263.12084 
L 289.584449 1263.295084 
L 289.122684 1265.870665 
L 288.057492 1266.984616 
L 285.32693 1267.223443 
L 283.982263 1266.765998 
L 282.120275 1266.132711 
L 279.568993 1264.179777 
L 278.968584 1263.720181 
L 276.565959 1263.455306 
" clip-path="url(#p39baf8afe8)" style="fill: none; stroke: #28c23f"/>
    <path d="M 251.403521 1263.642275 
L 250.542339 1263.630806 
L 249.609219 1262.931062 
" clip-path="url(#p39baf8afe8)" style="fill: none; stroke: #28c23f"/>
    <path d="M 237.796214 1265.074487 
L 234.885699 1265.314295 
" clip-path="url(#p39baf8afe8)" style="fill: none; stroke: #28c23f"/>
    <path d="M 114.262674 1201.818938 
L 115.286947 1200.888935 
L 115.714514 1200.816342 
L 119.315461 1197.299487 
L 110.184157 1193.334431 
L 110.505914 1192.697284 
L 110.263725 1192.564634 
L 109.574915 1193.814311 
L 109.069021 1193.5923 
L 109.757832 1192.342624 
L 109.450048 1192.16628 
L 109.004956 1193.019801 
L 103.77859 1189.144664 
L 99.273691 1182.395573 
L 109.297231 1173.398181 
L 109.787651 1172.958427 
L 106.911216 1170.151847 
L 106.073838 1174.058448 
L 101.227023 1177.862316 
L 98.386546 1176.688407 
L 95.536373 1174.615461 
L 88.996928 1162.839877 
L 87.788223 1159.13661 
L 85.856472 1159.248252 
L 84.940548 1156.551093 
L 85.249882 1155.005427 
L 84.063132 1154.141569 
L 83.334791 1153.738161 
L 83.290909 1152.818636 
L 84.15547 1148.669476 
L 85.391915 1145.446798 
L 85.618297 1144.7943 
L 86.643368 1142.777407 
L 88.676018 1140.499462 
L 99.496067 1131.695754 
L 102.038223 1129.634383 
L 102.436131 1128.360307 
L 99.010173 1125.10236 
" clip-path="url(#p39baf8afe8)" style="fill: none; stroke: #28c23f"/>
    <path d="M 237.021501 1075.274892 
L 238.850494 1074.473028 
L 239.684686 1075.035398 
L 242.356784 1078.395118 
L 242.54377 1078.851545 
L 241.659392 1079.151325 
L 243.041325 1081.971045 
L 243.973219 1082.444354 
L 248.94725 1080.763484 
L 252.211702 1079.706837 
L 251.00173 1074.052654 
L 266.405255 1067.567867 
L 267.689769 1070.433211 
L 267.866597 1071.094331 
L 267.83429 1072.11249 
L 267.957663 1072.290663 
L 268.192143 1072.278142 
L 268.289598 1072.031795 
L 268.321292 1071.151938 
L 268.173053 1070.311962 
L 266.85464 1067.35969 
L 277.362896 1062.748555 
L 278.990374 1061.393032 
L 280.375375 1060.601858 
L 282.252925 1060.107089 
L 282.299342 1059.876786 
L 278.874458 1058.26575 
L 278.397138 1057.248052 
L 285.103267 1053.745432 
L 285.347106 1054.762097 
L 284.933683 1058.377892 
L 285.119805 1058.404475 
L 287.616607 1055.31175 
L 287.201424 1054.909923 
L 287.404347 1054.697936 
L 287.822488 1055.059097 
L 288.775939 1054.21177 
L 290.167751 1053.130439 
L 296.271686 1048.536256 
L 303.661805 1043.892064 
L 306.602547 1042.858161 
L 308.479539 1042.932783 
" clip-path="url(#p39baf8afe8)" style="fill: none; stroke: #28c23f"/>
    <path d="M 411.938746 1000.134403 
L 413.67434 998.23825 
L 417.518955 1000.063305 
L 418.836723 999.771921 
L 425.599806 993.896728 
L 427.250907 991.228433 
L 426.629157 990.588529 
L 427.97734 989.009124 
L 427.012126 988.088453 
L 434.31078 977.96324 
L 434.559577 978.063268 
L 434.911667 977.834239 
L 435.354362 978.091012 
L 437.078419 975.903001 
L 437.458105 976.16222 
L 439.226148 974.08693 
L 440.018326 974.072625 
L 440.57375 972.853261 
L 440.477952 971.837269 
L 442.501259 968.534569 
L 444.141869 968.343474 
L 444.177567 965.791765 
L 445.131867 964.22695 
L 444.905586 964.06058 
L 444.147919 965.349608 
L 443.481896 964.885804 
L 442.242078 965.164 
L 437.906633 962.000068 
L 441.323274 959.14118 
L 444.110282 958.186077 
L 445.53465 956.31001 
L 450.470761 959.171322 
L 450.625614 958.694682 
" clip-path="url(#p39baf8afe8)" style="fill: none; stroke: #28c23f"/>
    <path d="M 470.4727 896.655658 
L 470.838295 895.834341 
" clip-path="url(#p39baf8afe8)" style="fill: none; stroke: #28c23f"/>
    <path d="M 610.476245 793.052703 
L 610.410699 792.907032 
L 612.027809 791.286314 
L 613.626543 790.563147 
L 613.630369 790.56869 
" clip-path="url(#p39baf8afe8)" style="fill: none; stroke: #28c23f"/>
    <path d="M 627.077571 782.972886 
L 627.493926 782.547349 
L 631.201185 780.043965 
L 637.128549 777.061137 
L 650.140857 772.284941 
L 652.151783 771.532112 
L 654.866367 770.841681 
L 655.899053 771.304678 
" clip-path="url(#p39baf8afe8)" style="fill: none; stroke: #28c23f"/>
    <path d="M 668.514133 765.370035 
L 668.520224 765.36664 
L 670.518612 764.254389 
L 670.914306 763.96033 
L 670.364445 762.690403 
L 670.425611 762.648142 
" clip-path="url(#p39baf8afe8)" style="fill: none; stroke: #28c23f"/>
    <path d="M 666.990268 766.219278 
L 668.514133 765.370035 
" clip-path="url(#p39baf8afe8)" style="fill: none; stroke: #28c23f"/>
    <path d="M 680.795709 753.387437 
L 681.19516 753.82926 
L 681.600287 754.207773 
L 682.044345 754.338301 
L 682.558608 754.276557 
L 686.02012 752.487877 
L 683.551179 750.269542 
L 683.689013 749.592107 
L 683.567158 749.008587 
L 686.776808 746.958591 
L 688.262688 746.154825 
L 689.10092 746.380426 
L 690.068114 746.788218 
L 690.809188 748.675815 
L 692.349266 747.506148 
L 694.266937 746.167081 
L 694.07263 745.87752 
L 695.115807 745.312038 
L 695.325801 745.616574 
L 695.634269 745.383813 
" clip-path="url(#p39baf8afe8)" style="fill: none; stroke: #28c23f"/>
    <path d="M 765.32656 701.033163 
L 765.344779 701.000883 
L 766.597677 700.537779 
L 767.198063 698.485789 
L 768.277937 698.22678 
L 769.513848 694.875471 
L 771.155093 692.838218 
L 774.869567 688.641923 
L 777.575478 685.692018 
L 778.817875 684.807158 
L 779.125985 684.55684 
" clip-path="url(#p39baf8afe8)" style="fill: none; stroke: #28c23f"/>
    <path d="M 787.358969 675.067503 
L 787.923172 674.319004 
L 787.982715 673.248039 
L 790.036375 671.347868 
L 792.504467 669.564482 
L 796.792132 666.563421 
L 800.485755 664.356864 
" clip-path="url(#p39baf8afe8)" style="fill: none; stroke: #28c23f"/>
    <path d="M 802.235581 663.302391 
L 806.042692 660.996258 
L 811.519384 658.221869 
L 813.645773 658.926646 
L 816.223452 658.793754 
L 817.902829 657.662298 
L 819.049244 657.16617 
L 820.419543 656.98137 
L 823.902294 658.020586 
L 825.940976 658.402294 
L 827.582817 657.654407 
L 830.36127 657.568301 
L 830.115819 657.0752 
L 828.417751 657.246615 
L 826.958893 656.073817 
L 826.428707 654.184417 
L 827.238102 652.910092 
L 827.829077 653.371916 
L 828.083712 653.126068 
L 829.412109 653.507878 
L 829.863479 653.358366 
" clip-path="url(#p39baf8afe8)" style="fill: none; stroke: #28c23f"/>
    <path d="M 846.631357 646.660174 
L 846.630795 646.659471 
L 846.7895 645.542759 
L 846.979132 645.738957 
" clip-path="url(#p39baf8afe8)" style="fill: none; stroke: #28c23f"/>
    <path d="M 856.384788 638.130579 
L 856.508631 638.003773 
L 857.416356 638.453161 
L 860.35259 635.941747 
L 859.816199 635.236078 
L 859.939662 635.122901 
" clip-path="url(#p39baf8afe8)" style="fill: none; stroke: #28c23f"/>
    <path d="M 863.296849 632.045388 
L 863.362546 631.985163 
L 866.541468 631.237314 
L 873.914525 626.561495 
L 877.220171 626.100157 
L 880.383802 623.666767 
L 879.723571 623.664398 
L 878.135578 621.315644 
L 878.959897 620.233857 
L 879.632564 619.96793 
" clip-path="url(#p39baf8afe8)" style="fill: none; stroke: #28c23f"/>
    <path d="M 897.420876 615.545786 
L 897.402434 615.455082 
L 899.793416 614.521132 
" clip-path="url(#p39baf8afe8)" style="fill: none; stroke: #28c23f"/>
    <path d="M 884.689277 618.100389 
L 884.647196 617.957301 
L 887.130879 617.135007 
L 887.281004 617.361985 
L 887.511083 617.398352 
" clip-path="url(#p39baf8afe8)" style="fill: none; stroke: #28c23f"/>
    <path d="M 1042.552202 531.618468 
L 1042.053791 530.57724 
L 1043.701418 529.607867 
L 1044.81797 528.799417 
L 1047.808087 530.595229 
L 1050.319236 529.996198 
L 1050.498106 529.392051 
L 1049.679623 528.289643 
L 1049.500275 528.484296 
L 1050.075998 529.640127 
L 1049.703965 529.86532 
L 1047.893537 529.963651 
L 1046.559246 529.441202 
L 1044.821912 527.076038 
L 1043.971734 526.867077 
L 1043.985932 526.224412 
L 1044.882689 526.072851 
L 1045.68686 524.268094 
L 1047.215804 522.79255 
L 1049.958959 522.301418 
L 1052.135538 523.725669 
L 1052.775539 525.316969 
L 1052.509832 526.968962 
L 1051.178129 526.50348 
L 1051.015842 526.856835 
L 1052.687519 527.54583 
L 1054.303251 520.888181 
L 1056.403866 517.068766 
L 1057.99042 511.090334 
L 1058.57514 511.493645 
L 1060.119958 508.85338 
L 1063.699604 501.143265 
" clip-path="url(#p39baf8afe8)" style="fill: none; stroke: #28c23f"/>
    <path d="M 1077.819676 474.588857 
L 1077.818357 474.586802 
L 1078.41722 474.069465 
L 1078.521255 474.182309 
" clip-path="url(#p39baf8afe8)" style="fill: none; stroke: #28c23f"/>
    <path d="M 1160.395039 400.430988 
L 1165.265514 397.61443 
L 1165.853768 398.349872 
L 1174.738221 392.410734 
L 1174.841753 391.875469 
L 1182.210092 388.199155 
" clip-path="url(#p39baf8afe8)" style="fill: none; stroke: #28c23f"/>
    <path d="M 1189.818862 383.109087 
L 1195.694013 378.717102 
L 1198.868027 377.176092 
" clip-path="url(#p39baf8afe8)" style="fill: none; stroke: #28c23f"/>
    <path d="M 1202.824769 375.260682 
L 1206.330533 374.469887 
L 1207.862267 373.080792 
L 1208.335027 372.869394 
L 1209.068064 372.901524 
L 1209.492145 372.863532 
L 1210.002472 373.365472 
L 1210.292127 373.096549 
L 1209.898192 372.672262 
L 1211.212726 371.763836 
L 1211.194374 371.416659 
L 1211.040713 371.416178 
L 1211.058441 371.667081 
L 1209.840295 372.537842 
L 1209.639435 372.238907 
L 1207.825935 371.974234 
L 1207.327021 371.376056 
L 1210.01465 369.480752 
L 1210.3603 369.952345 
L 1210.688649 369.741848 
L 1210.515347 369.510796 
L 1210.670145 369.443484 
L 1211.708707 370.639963 
L 1211.853443 370.534653 
L 1212.091794 369.799126 
L 1215.683787 365.832049 
L 1220.112844 362.658079 
L 1228.422425 354.959194 
L 1231.191394 353.660677 
L 1234.343406 350.028413 
L 1241.895774 343.144654 
L 1244.151087 341.799753 
L 1252.438079 332.557466 
L 1255.621566 329.870869 
" clip-path="url(#p39baf8afe8)" style="fill: none; stroke: #28c23f"/>
    <path d="M 1260.631953 323.930949 
L 1261.469814 322.765499 
L 1266.980928 317.011495 
L 1280.159964 306.273312 
L 1282.080517 304.157103 
L 1286.520424 301.458693 
L 1295.228382 294.088384 
L 1305.934838 287.210756 
L 1305.934068 287.159228 
L 1306.616631 286.403309 
L 1307.250196 285.936056 
L 1308.188388 286.664298 
L 1308.853872 286.355784 
L 1309.276812 286.370612 
L 1309.241345 286.160335 
L 1308.718307 286.191309 
L 1307.888429 285.455257 
L 1307.750918 285.631117 
L 1306.288236 284.485687 
" clip-path="url(#p39baf8afe8)" style="fill: none; stroke: #28c23f"/>
    <path d="M 1307.659742 283.547048 
L 1309.412082 285.39881 
L 1310.235331 285.258905 
L 1310.93153 284.892176 
L 1311.288095 284.20036 
L 1311.375712 283.377568 
L 1311.469956 283.313377 
" clip-path="url(#p39baf8afe8)" style="fill: none; stroke: #28c23f"/>
    <path d="M 1339.81608 250.712571 
L 1342.748197 246.539179 
L 1344.530792 244.445465 
" clip-path="url(#p39baf8afe8)" style="fill: none; stroke: #28c23f"/>
    <path d="M 1363.365192 223.387338 
L 1368.626511 217.632643 
" clip-path="url(#p39baf8afe8)" style="fill: none; stroke: #28c23f"/>
    <path d="M 1458.425232 132.058681 
L 1458.452295 132.024868 
L 1459.126201 132.603025 
L 1459.994454 131.848834 
L 1459.932499 130.17543 
L 1461.222764 128.740378 
L 1464.430628 128.876779 
L 1468.73982 132.29218 
L 1470.585478 132.789514 
L 1473.6684 132.605525 
L 1473.679684 132.20691 
L 1470.562447 132.419279 
L 1468.871434 131.883052 
L 1463.451355 127.301159 
L 1463.501148 126.36841 
L 1465.925322 124.140571 
L 1466.567224 124.580326 
L 1467.187201 123.920352 
L 1472.371722 128.020205 
L 1472.238286 128.419837 
L 1472.445322 128.508548 
L 1473.125851 127.702295 
L 1472.999431 127.574486 
L 1472.611992 127.803921 
L 1467.359334 123.581846 
L 1468.141186 123.018239 
" clip-path="url(#p39baf8afe8)" style="fill: none; stroke: #28c23f"/>
    <path d="M 1469.586617 122.10246 
L 1470.990969 121.610691 
" clip-path="url(#p39baf8afe8)" style="fill: none; stroke: #28c23f"/>
    <path d="M 1473.41746 120.760985 
L 1474.505506 120.379971 
L 1474.591549 120.355745 
" clip-path="url(#p39baf8afe8)" style="fill: none; stroke: #28c23f"/>
    <path d="M 1479.537719 118.88216 
L 1480.559925 117.906818 
" clip-path="url(#p39baf8afe8)" style="fill: none; stroke: #28c23f"/>
    <path d="M 1512.873227 95.469907 
L 1512.870077 95.435631 
L 1521.23716 90.877961 
L 1526.654366 88.674286 
L 1526.909108 88.570566 
L 1527.7556 88.290815 
L 1530.938734 87.240407 
L 1534.215676 86.055999 
L 1539.623424 84.245425 
L 1547.474486 85.006783 
L 1548.061778 84.418517 
L 1547.522197 83.080117 
L 1548.104268 81.674204 
L 1547.695085 81.401923 
L 1547.955749 80.464308 
L 1549.037468 80.449569 
L 1549.518348 84.715288 
L 1549.965796 85.212756 
L 1550.99302 85.511091 
L 1551.375203 86.194149 
L 1552.721958 86.033668 
L 1556.79731 88.016052 
L 1558.082376 86.37512 
" clip-path="url(#p39baf8afe8)" style="fill: none; stroke: #28c23f"/>
    <path d="M 1563.151211 80.923318 
L 1563.819462 80.000732 
L 1563.868812 79.960812 
" clip-path="url(#p39baf8afe8)" style="fill: none; stroke: #28c23f"/>
    <path d="M 1567.316475 75.323792 
L 1569.309696 72.838254 
L 1570.721817 73.844023 
L 1565.699936 80.952157 
L 1564.734191 80.849262 
L 1563.77373 82.244694 
L 1564.715372 82.714987 
L 1561.99778 89.68275 
L 1561.986086 90.603403 
L 1562.336371 91.107386 
L 1564.527488 91.469803 
L 1571.331262 97.466129 
L 1574.631669 101.417905 
L 1574.778356 101.585072 
L 1576.008134 102.986285 
L 1577.322969 104.41755 
L 1578.067554 105.59104 
L 1579.068165 107.228935 
L 1581.645388 107.87435 
L 1585.425287 105.79611 
L 1585.805716 106.458805 
L 1586.172333 107.095701 
L 1579.991702 110.733756 
L 1579.16129 112.286838 
L 1579.428229 112.471948 
L 1579.690822 112.549926 
L 1586.057805 109.134736 
L 1590.794445 119.833288 
L 1591.220414 120.779491 
L 1591.464389 121.256063 
L 1598.467549 118.383445 
L 1599.34087 120.24471 
L 1600.199456 122.080172 
L 1601.627675 125.136104 
L 1602.563708 127.085663 
L 1601.99493 127.675377 
L 1601.605993 128.497423 
L 1601.680126 129.526774 
L 1602.194408 130.325402 
L 1602.795502 130.834084 
L 1605.109091 131.482799 
L 1604.841232 132.718722 
L 1604.423521 134.645786 
L 1597.361489 133.082217 
" clip-path="url(#p39baf8afe8)" style="fill: none; stroke: #28c23f"/>
    <path d="M 1528.03345 220.945141 
L 1527.563037 221.39343 
L 1526.705432 223.332819 
L 1527.367672 224.512917 
L 1528.908142 225.029617 
L 1529.652548 225.256709 
L 1531.988414 225.969445 
L 1535.113343 227.514128 
L 1535.529185 229.470509 
L 1533.511308 232.678657 
L 1530.558384 236.674794 
L 1529.901295 237.698112 
L 1530.173691 240.679198 
L 1527.646124 242.395781 
L 1525.375737 242.778806 
L 1525.064906 244.097294 
L 1524.282705 245.177219 
L 1522.129154 246.843267 
L 1520.782189 247.310133 
L 1519.387923 247.471781 
L 1517.286537 247.30066 
L 1515.493379 246.777827 
L 1515.712827 244.354005 
L 1515.311286 244.305457 
L 1514.925623 247.271202 
L 1514.496563 248.494449 
L 1514.254135 249.836169 
L 1514.50427 250.768378 
L 1515.488609 250.92156 
L 1515.864138 252.03038 
L 1515.532168 253.286433 
L 1514.519555 254.341315 
L 1513.298679 255.062069 
L 1511.967637 255.111333 
L 1510.683005 254.431225 
L 1510.18072 253.650194 
L 1510.157067 252.81894 
L 1509.780997 251.912149 
L 1509.374592 252.968674 
L 1509.117336 254.653404 
L 1509.501762 257.930397 
L 1508.547013 260.162382 
L 1506.265956 263.754823 
L 1502.926895 266.362668 
L 1499.2833 269.648989 
L 1494.396232 276.464099 
L 1489.419048 283.368419 
L 1489.175434 283.661832 
" clip-path="url(#p39baf8afe8)" style="fill: none; stroke: #28c23f"/>
    <path d="M 1257.135821 773.738124 
L 1250.667303 782.260562 
L 1252.947386 787.154337 
L 1251.223381 791.17614 
L 1245.033888 788.348946 
L 1244.169308 789.38763 
L 1245.172465 792.967662 
L 1245.781555 795.787158 
L 1241.053028 804.237613 
L 1237.884697 803.841375 
L 1235.195899 804.125929 
L 1232.648435 801.247534 
L 1230.325512 804.512177 
L 1231.500667 809.958516 
L 1235.275317 808.985818 
L 1236.548981 813.144323 
L 1230.681974 819.174922 
L 1231.711016 820.673703 
L 1227.692639 827.833677 
" clip-path="url(#p39baf8afe8)" style="fill: none; stroke: #28c23f"/>
    <path d="M 1033.588391 1074.925944 
L 1033.433769 1074.865293 
L 1033.441536 1075.034809 
L 1033.457997 1075.373846 
L 1033.155876 1076.48875 
L 1031.594945 1079.127529 
L 1027.56824 1082.896941 
L 1027.096035 1083.340086 
L 1022.602998 1086.351287 
L 1021.383473 1088.302392 
L 1021.017401 1092.692983 
L 1022.847392 1095.985944 
L 1022.272489 1097.345043 
" clip-path="url(#p39baf8afe8)" style="fill: none; stroke: #28c23f"/>
    <path d="M 395.485496 1360.607268 
L 389.510144 1351.576527 
L 387.621126 1347.20919 
L 376.161652 1331.485802 
" clip-path="url(#p39baf8afe8)" style="fill: none; stroke: #28c23f"/>
    <path d="M 234.885699 1265.314295 
L 228.534257 1265.837573 
L 183.802255 1264.110298 
L 182.122224 1265.062658 
L 182.065892 1266.648834 
L 183.258469 1266.704424 
L 184.703967 1265.966588 
L 188.829895 1266.035486 
L 191.412098 1266.840412 
L 196.435577 1266.417066 
L 196.869991 1269.343762 
L 193.616238 1270.901903 
L 188.088504 1272.760221 
L 183.231445 1272.651387 
L 176.874005 1271.284172 
L 175.1674 1269.519122 
L 172.884232 1268.788721 
L 168.289641 1267.429465 
L 168.197714 1265.842613 
L 171.1331 1265.409907 
L 178.526759 1265.332405 
L 178.879821 1263.919782 
L 158.76662 1263.141886 
L 142.545881 1249.521753 
L 126.202458 1217.464157 
L 124.460168 1212.848662 
L 128.535081 1206.642441 
L 130.484012 1203.638573 
L 130.064472 1202.976299 
L 129.701977 1202.40378 
L 127.300946 1205.173693 
L 121.522966 1210.710334 
L 121.293334 1210.465531 
" clip-path="url(#p39baf8afe8)" style="fill: none; stroke: #28c23f"/>
    <path d="M 655.899053 771.304678 
L 655.925007 771.316315 
L 656.082523 770.111505 
L 657.06619 769.860422 
L 657.685972 771.008598 
L 657.757085 770.968514 
" clip-path="url(#p39baf8afe8)" style="fill: none; stroke: #28c23f"/>
    <path d="M 1268.033095 765.365336 
L 1265.919795 767.47349 
L 1262.215139 773.197732 
L 1259.950125 770.030127 
L 1257.135821 773.738124 
" clip-path="url(#p39baf8afe8)" style="fill: none; stroke: #28c23f"/>
   </g>
   <g id="LineCollection_2">
    <path d="M 1389.943601 478.511623 
L 1388.525527 479.99558 
L 1385.460036 481.636889 
L 1383.352082 484.788757 
L 1381.36372 485.962658 
L 1380.043787 488.097138 
L 1378.544448 490.796519 
L 1379.344467 494.271385 
L 1380.406507 497.745654 
L 1381.056167 500.07703 
L 1381.20518 501.371022 
L 1381.143299 502.396113 
" clip-path="url(#p39baf8afe8)" style="fill: none; stroke: #dbffe4"/>
    <path d="M 1330.205364 589.607412 
L 1330.06957 590.082015 
L 1324.82538 593.985069 
L 1319.996365 599.122428 
" clip-path="url(#p39baf8afe8)" style="fill: none; stroke: #dbffe4"/>
    <path d="M 1164.179247 952.535652 
L 1164.826018 955.048187 
L 1166.012458 956.885186 
L 1166.422722 960.702067 
L 1165.262747 965.949857 
L 1163.631915 970.972412 
L 1159.189209 977.176466 
L 1153.906704 981.470012 
L 1151.043015 983.491989 
L 1148.272303 987.422038 
L 1144.132753 991.768003 
L 1141.31242 995.55007 
L 1138.618692 998.56237 
L 1137.964855 1001.063292 
L 1136.437376 1004.699009 
L 1134.835871 1008.014485 
L 1133.210268 1011.328524 
L 1132.483929 1013.034635 
L 1129.71734 1015.627685 
L 1123.819589 1018.085808 
L 1115.540113 1019.296803 
L 1114.16989 1020.408257 
L 1115.356394 1022.219574 
L 1112.733212 1026.547254 
L 1109.020447 1029.731029 
L 1103.658839 1035.336483 
L 1101.033234 1040.084447 
L 1098.5734 1040.051963 
L 1095.466614 1040.090562 
L 1093.790642 1043.430108 
L 1091.561963 1048.601037 
L 1090.665772 1052.042128 
L 1088.845977 1053.744589 
L 1085.053005 1058.415424 
L 1083.018155 1059.296827 
L 1081.525599 1057.858679 
L 1081.68043 1056.149373 
L 1081.627771 1054.142433 
L 1083.870582 1052.290881 
L 1084.920681 1050.511313 
L 1086.789749 1048.758855 
L 1088.845529 1043.488387 
L 1088.881472 1039.89531 
L 1082.697851 1038.760316 
L 1078.329659 1036.962817 
L 1077.73824 1035.374427 
L 1077.779101 1030.593577 
L 1077.886856 1027.993273 
L 1076.461913 1023.23197 
L 1074.431425 1020.871351 
L 1072.145757 1020.863761 
L 1069.382447 1022.118297 
L 1068.495827 1022.660429 
L 1067.555502 1022.880353 
" clip-path="url(#p39baf8afe8)" style="fill: none; stroke: #dbffe4"/>
    <path d="M 1067.555502 1022.880353 
L 1067.489782 1022.895724 
L 1067.417755 1025.885295 
L 1071.45065 1047.141956 
L 1072.121677 1060.745447 
L 1072.051991 1061.671246 
" clip-path="url(#p39baf8afe8)" style="fill: none; stroke: #dbffe4"/>
    <path d="M 1066.986171 1065.609098 
L 1066.97041 1062.575084 
L 1066.696032 1059.680938 
" clip-path="url(#p39baf8afe8)" style="fill: none; stroke: #dbffe4"/>
    <path d="M 1022.272489 1097.345043 
L 1021.506036 1099.156966 
L 1021.751048 1100.135417 
L 1022.481495 1103.059906 
L 1019.554842 1108.914341 
L 1019.920432 1115.866038 
L 1019.194791 1117.257462 
L 1018.457029 1118.67054 
L 1017.507799 1119.867307 
L 1009.707269 1129.694252 
L 1008.577905 1130.989376 
L 1006.128659 1132.924058 
L 1004.760511 1135.758687 
L 1001.882188 1137.424773 
L 999.851119 1137.648335 
L 996.704214 1139.535852 
L 995.30727 1139.402254 
L 994.106711 1140.099149 
L 990.82179 1144.121745 
L 990.813601 1145.967126 
L 990.570139 1148.862538 
L 987.536981 1152.68395 
L 986.624984 1157.577046 
L 985.770947 1159.895445 
L 985.77102 1160.951708 
L 985.771128 1161.640646 
" clip-path="url(#p39baf8afe8)" style="fill: none; stroke: #dbffe4"/>
    <path d="M 727.463384 1287.887794 
L 726.96688 1287.83256 
L 721.607088 1290.464376 
L 720.909399 1290.806923 
" clip-path="url(#p39baf8afe8)" style="fill: none; stroke: #dbffe4"/>
    <path d="M 566.35152 1360.37226 
L 564.561949 1358.672602 
L 563.006892 1359.507021 
L 554.598016 1364.015492 
L 543.506022 1370.713557 
" clip-path="url(#p39baf8afe8)" style="fill: none; stroke: #dbffe4"/>
    <path d="M 350.084364 1291.696294 
L 350.132266 1291.801369 
L 350.378271 1291.711583 
L 352.924831 1290.740877 
L 354.221266 1290.151214 
L 355.327651 1288.710566 
L 355.262103 1287.789612 
L 356.989191 1286.845191 
L 357.113035 1286.28166 
L 356.631248 1285.594845 
L 356.06738 1285.243945 
L 355.066732 1285.162347 
L 355.313135 1280.245475 
L 358.870387 1276.793693 
L 358.718579 1273.948313 
L 360.130884 1273.562526 
L 361.223528 1271.213342 
L 359.494953 1268.850669 
L 357.498183 1267.861745 
L 356.057414 1268.833162 
L 354.871347 1267.908738 
L 355.843138 1266.722423 
L 354.509527 1265.62516 
L 353.174328 1266.617366 
L 351.249103 1265.375174 
L 353.057508 1263.616203 
L 354.00308 1262.921978 
L 354.378304 1262.739189 
L 354.566669 1262.472884 
L 361.017014 1266.215876 
L 360.960414 1267.524099 
L 361.143211 1268.121491 
L 362.415289 1269.522204 
L 362.641832 1268.567252 
L 363.680199 1264.178522 
L 392.801771 1250.498385 
L 394.625109 1248.682426 
L 403.922132 1244.689394 
L 416.176353 1236.769781 
L 421.056757 1235.906317 
L 426.611574 1230.925006 
L 430.137195 1228.686294 
L 431.679368 1226.036522 
L 433.833615 1224.391345 
L 440.481665 1220.115532 
L 452.643336 1213.302707 
L 458.07924 1209.85421 
L 460.236379 1208.156086 
L 465.504319 1205.858013 
L 466.512035 1204.214753 
L 467.180205 1198.640614 
L 466.700083 1196.427107 
L 468.422901 1194.191564 
L 469.824147 1193.069252 
L 472.888046 1191.475191 
L 473.724649 1189.743077 
L 476.713811 1188.512078 
L 478.608488 1187.732129 
L 480.7176 1186.863571 
L 490.860862 1186.574599 
L 494.007696 1188.90348 
L 506.777986 1179.410237 
L 526.813072 1166.328783 
L 530.857529 1161.001543 
L 534.073824 1157.86887 
L 542.268995 1153.175361 
L 547.029101 1152.550563 
L 552.269656 1147.455835 
L 563.513011 1142.149304 
L 564.277619 1141.659845 
" clip-path="url(#p39baf8afe8)" style="fill: none; stroke: #dbffe4"/>
    <path d="M 621.376231 1102.718618 
L 624.373407 1097.976847 
L 633.547312 1089.831266 
L 633.58919 1089.899297 
" clip-path="url(#p39baf8afe8)" style="fill: none; stroke: #dbffe4"/>
    <path d="M 635.862111 1088.710271 
L 637.281201 1088.018126 
L 639.006471 1088.031667 
L 640.679853 1088.045001 
L 641.741462 1086.930519 
L 644.170777 1084.380038 
L 650.878778 1081.66456 
L 653.701724 1076.76712 
L 657.364941 1067.609911 
L 670.64205 1051.036474 
L 678.531383 1041.265013 
L 685.025984 1031.279278 
L 694.227746 1021.998124 
L 696.389431 1015.689167 
L 700.901155 1010.704464 
L 706.82875 1005.653285 
L 711.315591 1000.59927 
L 714.867686 999.153849 
L 729.774251 980.49063 
L 731.903753 977.670242 
L 732.196126 977.283555 
L 732.213599 977.284581 
" clip-path="url(#p39baf8afe8)" style="fill: none; stroke: #dbffe4"/>
    <path d="M 764.909014 945.988977 
L 764.933871 945.968384 
L 766.181163 947.362879 
L 767.828781 948.975819 
L 768.567975 949.247058 
L 772.963992 942.505546 
L 774.136045 941.722129 
L 778.259255 942.28259 
L 780.134353 941.772968 
L 781.311444 938.140755 
L 778.895956 933.760249 
L 780.623498 929.582292 
L 786.574771 920.324462 
L 789.445592 909.10262 
L 785.993578 902.22338 
L 785.933763 901.957346 
" clip-path="url(#p39baf8afe8)" style="fill: none; stroke: #dbffe4"/>
    <path d="M 538.391077 1103.68173 
L 530.731515 1109.044703 
L 524.534398 1112.418779 
L 517.120089 1117.947819 
L 500.5616 1131.359233 
L 484.092723 1148.278417 
L 478.79501 1152.287678 
L 471.993682 1160.209289 
L 455.069678 1172.172733 
L 416.45439 1199.466775 
L 363.539282 1233.554378 
L 355.406526 1238.768174 
L 354.694037 1244.526426 
L 345.936368 1249.539458 
L 345.335236 1249.883978 
L 342.520175 1251.465018 
L 337.355633 1251.335545 
L 337.044731 1251.218944 
L 336.80203 1250.976538 
L 335.337558 1248.651561 
L 333.994998 1246.213212 
L 333.394114 1244.576718 
L 332.325873 1240.222278 
L 332.088459 1238.97651 
L 331.856612 1238.156525 
L 331.366047 1237.156436 
L 329.95446 1235.041845 
L 329.333794 1234.336781 
L 325.838841 1232.001606 
L 325.708267 1231.977988 
L 325.566065 1232.070928 
L 325.543103 1232.236251 
L 325.61744 1232.404709 
L 329.073712 1234.684124 
L 329.619072 1235.230218 
L 331.041261 1237.464177 
L 331.414844 1238.298336 
L 331.669595 1239.179437 
L 331.876519 1240.403378 
L 333.071436 1245.039044 
L 333.675131 1246.454535 
L 335.046439 1248.888942 
L 336.594352 1251.207501 
L 338.828435 1253.665977 
L 339.922952 1254.961555 
L 342.040944 1256.623591 
L 342.494271 1256.811314 
L 342.856878 1256.760001 
L 343.442061 1256.033044 
L 352.316558 1261.273611 
" clip-path="url(#p39baf8afe8)" style="fill: none; stroke: #dbffe4"/>
    <path d="M 276.565959 1263.455306 
L 275.868012 1263.37836 
L 273.198897 1262.508266 
L 268.22934 1262.074081 
L 262.653636 1262.269034 
L 258.466795 1262.772485 
L 258.179443 1262.989512 
L 256.413314 1262.691499 
L 255.405669 1262.108041 
L 255.090049 1262.220536 
L 254.772387 1262.583867 
L 254.455091 1263.073301 
L 254.365265 1263.681712 
L 251.403521 1263.642275 
" clip-path="url(#p39baf8afe8)" style="fill: none; stroke: #dbffe4"/>
    <path d="M 249.609219 1262.931062 
L 249.600123 1262.924242 
L 244.690169 1264.50642 
L 237.796214 1265.074487 
" clip-path="url(#p39baf8afe8)" style="fill: none; stroke: #dbffe4"/>
    <path d="M 517.796773 858.314459 
L 528.635486 851.851873 
L 531.28221 849.957561 
L 536.550786 847.493551 
L 537.97332 846.638688 
" clip-path="url(#p39baf8afe8)" style="fill: none; stroke: #dbffe4"/>
    <path d="M 613.630369 790.56869 
L 614.168057 791.347661 
L 624.343766 784.225792 
L 625.868374 784.208746 
L 627.077571 782.972886 
" clip-path="url(#p39baf8afe8)" style="fill: none; stroke: #dbffe4"/>
    <path d="M 712.182013 731.2141 
L 715.732369 729.434803 
" clip-path="url(#p39baf8afe8)" style="fill: none; stroke: #dbffe4"/>
    <path d="M 716.977923 728.810575 
L 720.252311 727.169551 
L 721.064434 727.925185 
L 722.069598 727.358164 
L 723.62895 726.93969 
L 724.143296 727.09351 
L 725.205182 726.465683 
L 724.625935 725.599752 
L 724.590338 724.73182 
L 725.991849 723.929012 
L 726.349836 723.553423 
L 726.090598 723.045319 
L 728.126546 721.743223 
L 731.458449 720.533447 
" clip-path="url(#p39baf8afe8)" style="fill: none; stroke: #dbffe4"/>
    <path d="M 749.63582 714.249083 
L 750.466863 713.810083 
L 751.431968 713.209266 
" clip-path="url(#p39baf8afe8)" style="fill: none; stroke: #dbffe4"/>
    <path d="M 838.979139 651.248376 
L 839.97213 652.387108 
L 841.098407 654.362737 
L 842.816758 655.739841 
L 843.318206 655.359293 
L 841.654884 652.348491 
L 842.997544 651.611684 
L 843.279625 651.965253 
L 843.857987 652.078543 
L 842.711562 651.312337 
L 843.609224 650.712214 
L 846.525541 648.356716 
L 847.182978 647.350291 
L 846.631357 646.660174 
" clip-path="url(#p39baf8afe8)" style="fill: none; stroke: #dbffe4"/>
    <path d="M 846.979132 645.738957 
L 847.540466 646.319725 
L 850.052124 644.206811 
L 849.326214 643.415023 
L 849.699959 643.006888 
L 851.878652 641.543606 
L 852.440332 642.169372 
L 856.384788 638.130579 
" clip-path="url(#p39baf8afe8)" style="fill: none; stroke: #dbffe4"/>
    <path d="M 859.939662 635.122901 
L 863.296849 632.045388 
" clip-path="url(#p39baf8afe8)" style="fill: none; stroke: #dbffe4"/>
    <path d="M 1015.959126 545.881835 
L 1024.310457 540.777182 
" clip-path="url(#p39baf8afe8)" style="fill: none; stroke: #dbffe4"/>
    <path d="M 1255.621566 329.870869 
L 1257.503277 328.282846 
L 1260.631953 323.930949 
" clip-path="url(#p39baf8afe8)" style="fill: none; stroke: #dbffe4"/>
    <path d="M 1311.469956 283.313377 
L 1318.63394 278.43383 
L 1322.393171 273.905363 
L 1323.565841 272.353596 
L 1327.494131 268.110846 
" clip-path="url(#p39baf8afe8)" style="fill: none; stroke: #dbffe4"/>
    <path d="M 1411.090962 173.39151 
L 1411.186636 173.313914 
L 1411.638551 173.853514 
L 1419.534611 165.607515 
L 1424.676692 160.95469 
" clip-path="url(#p39baf8afe8)" style="fill: none; stroke: #dbffe4"/>
    <path d="M 1049.506828 1038.482162 
L 1044.391143 1042.144451 
L 1044.696922 1049.032212 
L 1040.913129 1053.926575 
L 1041.448226 1056.538528 
L 1045.799858 1062.723959 
L 1046.61521 1063.918081 
" clip-path="url(#p39baf8afe8)" style="fill: none; stroke: #dbffe4"/>
    <path d="M 1066.696032 1059.680938 
L 1066.670543 1059.412074 
L 1064.762172 1039.2906 
L 1061.242166 1027.38606 
L 1059.178561 1021.636834 
L 1058.554269 1021.030007 
L 1057.967264 1020.355508 
L 1057.744559 1019.626633 
L 1057.405206 1018.870249 
L 1057.354625 1018.757538 
L 1056.795893 1017.664152 
L 1056.713268 1017.159472 
L 1056.715235 1016.571008 
L 1056.802076 1015.814693 
L 1056.719356 1015.338487 
L 1056.609495 1014.666937 
L 1056.583854 1014.022788 
L 1056.586288 1013.294665 
L 1056.420664 1012.397846 
L 1056.169797 1011.780061 
L 1055.74918 1011.499334 
L 1054.964096 1011.047897 
L 1054.039122 1010.316671 
L 1053.589682 1010.343641 
L 1053.194792 1010.957908 
L 1052.940359 1011.405867 
L 1052.685177 1012.077551 
L 1052.485669 1013.000267 
L 1052.117068 1014.063432 
L 1051.774666 1015.602615 
L 1051.743129 1016.443182 
L 1051.709424 1018.207126 
L 1051.846876 1019.215037 
L 1052.151929 1020.251985 
L 1052.485982 1021.206318 
L 1052.960304 1022.327899 
L 1053.658841 1023.450231 
L 1054.019008 1024.907698 
L 1054.4371 1025.945023 
L 1054.994533 1027.150948 
L 1055.159877 1028.131834 
L 1055.128521 1029.196129 
L 1055.236319 1030.484617 
L 1055.203838 1031.885177 
L 1055.113226 1032.937071 
L 1055.468445 1034.214183 
L 1049.506828 1038.482162 
" clip-path="url(#p39baf8afe8)" style="fill: none; stroke: #dbffe4"/>
    <path d="M 1072.051991 1061.671246 
L 1071.984031 1062.574129 
L 1071.852457 1065.084861 
L 1071.835642 1065.404803 
L 1071.763658 1065.520362 
" clip-path="url(#p39baf8afe8)" style="fill: none; stroke: #dbffe4"/>
    <path d="M 1046.61521 1063.918081 
L 1050.272647 1069.274512 
L 1059.402281 1077.534692 
" clip-path="url(#p39baf8afe8)" style="fill: none; stroke: #dbffe4"/>
    <path d="M 1294.425305 713.702924 
L 1294.694067 713.867465 
L 1290.229269 713.562456 
L 1285.65234 715.727583 
L 1282.674807 714.529407 
L 1280.066843 717.587246 
L 1283.697468 723.922315 
L 1283.423814 726.512665 
L 1287.484229 726.732423 
L 1291.177032 726.932065 
L 1287.990463 729.299372 
L 1288.563677 732.075336 
L 1286.970939 737.815584 
L 1290.149554 740.237396 
L 1288.655825 743.862699 
L 1284.453473 741.55032 
L 1282.246616 741.803966 
L 1279.0775 753.942104 
L 1275.170642 757.690211 
L 1273.226911 754.855827 
L 1270.863021 759.51437 
L 1269.68693 763.715515 
L 1268.033095 765.365336 
" clip-path="url(#p39baf8afe8)" style="fill: none; stroke: #dbffe4"/>
    <path d="M 550.419588 839.158981 
L 556.597992 835.445871 
L 557.742865 834.757606 
L 556.411233 832.373934 
L 558.006004 831.291552 
L 558.693177 831.679451 
" clip-path="url(#p39baf8afe8)" style="fill: none; stroke: #dbffe4"/>
   </g>
   <g id="LineCollection_3">
    <path d="M 1597.361489 133.082217 
L 1596.745502 132.945831 
L 1586.177897 130.77586 
L 1586.025288 131.453431 
L 1588.01927 133.294591 
L 1588.066714 138.860849 
L 1586.810768 142.830468 
L 1585.565539 145.175696 
L 1584.275689 146.888938 
L 1582.40815 148.340322 
L 1579.929707 149.49179 
L 1577.239608 149.486076 
L 1577.349545 150.611795 
L 1577.427039 151.40658 
L 1577.520755 152.366831 
L 1575.624144 156.063557 
L 1579.15745 157.775909 
L 1585.642771 160.918359 
L 1585.87164 160.452515 
L 1586.281053 160.659689 
L 1586.047691 161.073996 
L 1594.417581 165.137913 
L 1594.397454 165.179814 
" clip-path="url(#p39baf8afe8)" style="fill: none; stroke: #e9a23d"/>
    <path d="M 1562.534768 179.622473 
L 1561.622292 181.400264 
L 1555.105479 189.717914 
L 1548.813242 197.748646 
L 1547.244507 198.129544 
L 1545.846596 200.384803 
L 1546.145045 201.600522 
L 1543.305807 205.724474 
L 1540.299038 205.914593 
" clip-path="url(#p39baf8afe8)" style="fill: none; stroke: #e9a23d"/>
    <path d="M 168.646705 1091.221459 
L 178.616919 1086.087428 
L 180.315657 1085.386449 
" clip-path="url(#p39baf8afe8)" style="fill: none; stroke: #e9a23d"/>
    <path d="M 180.315657 1085.386449 
L 187.070369 1082.599086 
L 190.780572 1081.551517 
L 191.078216 1082.323035 
L 192.042459 1081.516766 
" clip-path="url(#p39baf8afe8)" style="fill: none; stroke: #e9a23d"/>
    <path d="M 921.726146 605.084328 
L 922.400157 605.846123 
L 923.767809 605.589255 
L 924.35461 606.190647 
L 925.390762 606.458709 
L 927.797729 605.309225 
L 928.874367 604.335389 
L 929.083739 602.955219 
" clip-path="url(#p39baf8afe8)" style="fill: none; stroke: #e9a23d"/>
    <path d="M 224.229793 1083.331782 
L 224.327825 1083.626941 
L 225.500319 1083.135933 
L 225.98116 1082.117077 
L 229.110435 1081.666026 
L 230.434087 1081.145857 
L 231.259213 1080.009218 
L 234.965229 1079.258353 
L 237.84388 1079.524786 
L 236.558978 1077.597691 
L 237.958936 1076.794461 
L 237.019682 1075.275689 
L 237.021501 1075.274892 
" clip-path="url(#p39baf8afe8)" style="fill: none; stroke: #e9a23d"/>
   </g>
   <g id="LineCollection_4">
    <path d="M 1489.175434 283.661832 
L 1486.642403 286.712653 
L 1483.875048 290.035208 
L 1483.70323 290.064039 
" clip-path="url(#p39baf8afe8)" style="fill: none; stroke: #ec4243"/>
    <path d="M 1459.602437 322.088501 
L 1457.217456 323.557244 
L 1454.985499 328.53286 
" clip-path="url(#p39baf8afe8)" style="fill: none; stroke: #ec4243"/>
    <path d="M 1416.997697 452.040674 
L 1416.925981 451.997036 
L 1416.715826 452.323217 
L 1417.727607 453.006779 
L 1417.187442 453.809309 
L 1416.341107 453.219777 
L 1416.559487 452.931586 
L 1416.42459 452.837642 
L 1412.664961 457.389633 
L 1409.93524 460.80421 
L 1407.81079 463.632034 
L 1407.334037 464.267958 
L 1408.360445 465.019371 
L 1407.82291 465.866647 
L 1407.119834 466.975144 
L 1406.406483 468.114798 
L 1405.045179 467.601066 
L 1401.249038 472.887809 
L 1399.134461 475.155635 
L 1398.529819 475.830508 
L 1397.900258 476.47819 
L 1392.757348 476.169144 
L 1390.317763 478.120075 
L 1389.943601 478.511623 
" clip-path="url(#p39baf8afe8)" style="fill: none; stroke: #ec4243"/>
    <path d="M 1363.476439 533.846099 
L 1363.221557 534.648852 
L 1364.049532 535.519068 
L 1362.886041 538.883803 
L 1359.927114 550.194467 
L 1358.004512 552.550869 
L 1357.051177 556.853158 
L 1354.949971 557.274114 
L 1353.172167 561.389571 
L 1351.140497 565.238515 
L 1349.497554 567.247242 
L 1346.52306 570.846619 
L 1343.635199 570.806918 
L 1342.398692 571.879879 
L 1341.642641 573.300019 
L 1341.915396 575.315739 
L 1341.683305 575.521155 
L 1337.935472 578.842959 
L 1336.74924 577.62589 
L 1335.928319 576.869562 
L 1335.080597 577.972136 
L 1333.885599 579.715035 
L 1335.314873 581.094184 
L 1334.094996 581.544807 
L 1331.899074 584.837278 
L 1331.899044 587.032531 
L 1330.313778 589.228503 
L 1330.205364 589.607412 
" clip-path="url(#p39baf8afe8)" style="fill: none; stroke: #ec4243"/>
    <path d="M 1314.093676 605.040624 
L 1313.482915 606.181724 
L 1310.068286 610.693531 
L 1308.246766 614.128068 
L 1305.21981 618.72237 
L 1305.704791 620.961112 
L 1306.539777 621.356838 
L 1307.331106 622.415482 
L 1305.828163 626.442154 
L 1304.831828 626.119162 
L 1304.011466 624.55331 
L 1303.483851 623.560539 
L 1303.022612 622.666951 
L 1302.261416 622.367714 
L 1301.399056 622.761052 
L 1301.724202 624.875926 
L 1302.450772 625.604889 
L 1303.51004 625.93892 
L 1302.01824 631.793412 
L 1302.462057 632.939152 
L 1300.676976 637.158862 
L 1300.433515 640.208972 
L 1298.616777 644.476039 
L 1291.433585 676.868565 
" clip-path="url(#p39baf8afe8)" style="fill: none; stroke: #ec4243"/>
    <path d="M 1227.692639 827.833677 
L 1224.670438 833.218549 
L 1221.920643 841.447238 
L 1223.082687 842.478651 
L 1220.353734 852.415136 
" clip-path="url(#p39baf8afe8)" style="fill: none; stroke: #ec4243"/>
    <path d="M 1209.106323 866.408661 
L 1204.151077 872.074893 
L 1202.362861 876.630609 
L 1202.279583 877.398004 
" clip-path="url(#p39baf8afe8)" style="fill: none; stroke: #ec4243"/>
    <path d="M 1071.763658 1065.520362 
L 1071.313052 1066.243738 
L 1067.646815 1066.189513 
L 1067.605408 1065.824632 
L 1067.380947 1065.894393 
L 1066.987351 1065.836134 
L 1066.986171 1065.609098 
" clip-path="url(#p39baf8afe8)" style="fill: none; stroke: #ec4243"/>
    <path d="M 782.850032 1255.923353 
L 780.330266 1254.974467 
L 776.60534 1256.488714 
L 775.386181 1257.342466 
L 774.431965 1259.968037 
L 769.653415 1265.147437 
L 768.800265 1265.026283 
L 762.213614 1270.148704 
L 757.579575 1272.344186 
L 755.018639 1269.904759 
L 755.261864 1268.319246 
L 754.652011 1268.319666 
L 743.43164 1277.466488 
L 740.260561 1281.735157 
L 728.917895 1287.100987 
L 729.405893 1288.686552 
L 728.674145 1289.052587 
L 728.064735 1287.954692 
L 727.463384 1287.887794 
" clip-path="url(#p39baf8afe8)" style="fill: none; stroke: #ec4243"/>
    <path d="M 720.909399 1290.806923 
L 720.258777 1291.126359 
L 720.259238 1292.223301 
L 719.039034 1291.613916 
L 713.063088 1294.662302 
L 711.355784 1296.36967 
L 710.745882 1297.833092 
L 709.648358 1303.687831 
L 706.454763 1306.975935 
L 706.403318 1307.028937 
" clip-path="url(#p39baf8afe8)" style="fill: none; stroke: #ec4243"/>
    <path d="M 543.506022 1370.713557 
L 542.743007 1371.174304 
L 538.812458 1373.063446 
L 528.591538 1374.262603 
L 521.500429 1378.542833 
L 505.395612 1377.104787 
L 499.368378 1380.2868 
L 494.56972 1382.022986 
L 491.899865 1383.190289 
L 487.293249 1383.755702 
L 481.206632 1382.881763 
L 476.348215 1385.603335 
L 456.788834 1380.299088 
L 450.431717 1382.062385 
L 448.311002 1382.546298 
" clip-path="url(#p39baf8afe8)" style="fill: none; stroke: #ec4243"/>
    <path d="M 352.287145 1294.874645 
L 352.297722 1294.953738 
L 349.312102 1296.501527 
L 347.481151 1297.450905 
L 346.354296 1295.040631 
L 344.863032 1295.670115 
L 343.804871 1293.666911 
L 347.323593 1291.867889 
L 346.592757 1290.474912 
L 349.007511 1289.334159 
L 350.084364 1291.696294 
" clip-path="url(#p39baf8afe8)" style="fill: none; stroke: #ec4243"/>
    <path d="M 564.277619 1141.659845 
L 580.539606 1131.249505 
L 582.156972 1127.913616 
L 589.811072 1123.034358 
L 591.418779 1120.479422 
L 599.842461 1115.211262 
L 600.140597 1113.638217 
L 599.968552 1112.394151 
L 600.97304 1111.221197 
L 602.980779 1110.586457 
L 604.410207 1112.779233 
L 611.775549 1109.13927 
L 614.21584 1109.952982 
L 615.469341 1109.54031 
L 618.139752 1108.396961 
L 619.395169 1105.852776 
L 621.376231 1102.718618 
" clip-path="url(#p39baf8afe8)" style="fill: none; stroke: #ec4243"/>
    <path d="M 334.622349 1255.374747 
L 334.39378 1255.344378 
L 335.760191 1262.120429 
L 333.961406 1262.507204 
L 331.720115 1262.988325 
L 330.375746 1256.693715 
L 329.266242 1256.931607 
L 329.431431 1257.522151 
L 328.885755 1257.685204 
L 328.254866 1257.835683 
L 328.613801 1259.483334 
L 329.278086 1259.32622 
L 329.717964 1258.98237 
L 330.650507 1263.214189 
L 327.349297 1263.976282 
" clip-path="url(#p39baf8afe8)" style="fill: none; stroke: #ec4243"/>
    <path d="M 99.010173 1125.10236 
L 98.876876 1124.975599 
L 104.85459 1121.811582 
L 105.937113 1122.963734 
L 106.133124 1122.260918 
L 105.781326 1120.397592 
L 106.569421 1118.109738 
L 108.033443 1116.928752 
L 113.922373 1114.503229 
L 115.146415 1115.910938 
L 116.835459 1114.558775 
L 116.198363 1113.467011 
L 114.208852 1111.276092 
L 116.327696 1108.357115 
L 114.855063 1104.409956 
L 130.26395 1099.780274 
L 132.342649 1101.121393 
L 131.905712 1104.240724 
L 132.890259 1106.14628 
L 134.631657 1107.293294 
L 139.745261 1105.579916 
L 140.695832 1104.202601 
L 146.801084 1102.848992 
L 148.068934 1101.386346 
L 149.517606 1100.297409 
L 149.242828 1099.397167 
L 151.923079 1097.677949 
L 152.38657 1096.829908 
L 154.164498 1096.276708 
L 154.598331 1097.248186 
L 157.966199 1095.71108 
L 157.520428 1094.715143 
L 158.215084 1094.578664 
L 163.252932 1093.999686 
L 168.508047 1091.292857 
L 168.646705 1091.221459 
" clip-path="url(#p39baf8afe8)" style="fill: none; stroke: #ec4243"/>
    <path d="M 192.042459 1081.516766 
L 192.315275 1081.288646 
L 194.772376 1080.11063 
L 197.496162 1079.173812 
L 200.605052 1078.724148 
L 203.694863 1078.599807 
L 203.778832 1081.549331 
L 207.010384 1081.022905 
L 207.367513 1078.677405 
L 208.086798 1078.82709 
L 208.526644 1080.533476 
L 216.103783 1084.151333 
L 217.11962 1083.057601 
L 216.976097 1081.387808 
L 218.084195 1080.999573 
L 218.954319 1084.284832 
L 220.928777 1084.105233 
L 221.815161 1085.012264 
L 222.665566 1085.059473 
L 221.607907 1081.438462 
L 223.217271 1080.847725 
L 223.372263 1081.183956 
" clip-path="url(#p39baf8afe8)" style="fill: none; stroke: #ec4243"/>
    <path d="M 308.479539 1042.932783 
L 310.971363 1043.03184 
L 315.387854 1039.924355 
L 327.815336 1033.784597 
L 328.548723 1035.801338 
L 340.303601 1030.890983 
L 339.371343 1027.079499 
L 342.958243 1026.145874 
L 351.96489 1023.582753 
L 362.212152 1020.786211 
L 364.52749 1019.928368 
L 364.016238 1018.160752 
L 365.082317 1018.02296 
L 368.935873 1017.544588 
L 370.024583 1019.474677 
L 374.324342 1019.517511 
L 375.022872 1018.016777 
L 374.707401 1017.04187 
L 376.897316 1016.258026 
L 377.733587 1018.292785 
L 378.65102 1018.032303 
L 378.260788 1016.122842 
L 381.094315 1016.060381 
L 381.362972 1017.151695 
L 389.653431 1014.529453 
L 396.623163 1011.783537 
L 399.618194 1007.940005 
L 408.185572 1004.426528 
L 410.965493 1004.321689 
L 413.013085 1001.901884 
L 411.80625 1000.279156 
L 411.938746 1000.134403 
" clip-path="url(#p39baf8afe8)" style="fill: none; stroke: #ec4243"/>
    <path d="M 468.285092 905.536882 
L 469.797453 898.172611 
L 470.4727 896.655658 
" clip-path="url(#p39baf8afe8)" style="fill: none; stroke: #ec4243"/>
    <path d="M 470.838295 895.834341 
L 474.221247 888.234368 
L 480.579783 884.17664 
L 492.953256 873.069774 
L 493.759374 874.141568 
L 494.77017 873.199291 
L 501.703043 867.949168 
L 503.81983 869.942943 
L 507.766704 865.466937 
L 507.428875 864.496062 
L 517.796773 858.314459 
" clip-path="url(#p39baf8afe8)" style="fill: none; stroke: #ec4243"/>
    <path d="M 558.693177 831.679451 
L 560.038251 832.438722 
L 565.427088 826.962109 
L 572.259729 820.599045 
L 571.815134 819.904381 
L 577.850563 814.13332 
L 585.472864 809.21058 
L 587.068595 807.631866 
L 591.603257 804.429613 
L 591.705913 803.539175 
L 600.254228 797.918953 
L 600.674319 798.490113 
L 600.97089 798.91163 
L 601.195228 798.863707 
L 600.99767 797.532754 
L 601.942363 797.314133 
L 602.860026 798.771334 
L 609.758322 794.39055 
L 611.248047 794.767972 
L 610.476245 793.052703 
" clip-path="url(#p39baf8afe8)" style="fill: none; stroke: #ec4243"/>
    <path d="M 657.757085 770.968514 
L 658.414631 770.597876 
L 658.685191 771.045031 
L 659.06038 770.786152 
L 659.452325 770.505644 
L 664.930018 766.878128 
L 665.920355 766.815533 
L 666.990268 766.219278 
" clip-path="url(#p39baf8afe8)" style="fill: none; stroke: #ec4243"/>
    <path d="M 670.425611 762.648142 
L 670.633759 762.504328 
L 673.226404 759.805221 
L 673.506275 759.284271 
L 673.283533 758.685443 
L 672.932529 758.202728 
L 673.382701 757.472268 
L 674.102358 758.424207 
L 674.385425 758.273438 
L 673.602488 757.159899 
L 677.621597 754.890705 
L 680.509943 753.071359 
L 680.795709 753.387437 
" clip-path="url(#p39baf8afe8)" style="fill: none; stroke: #ec4243"/>
    <path d="M 695.634269 745.383813 
L 696.205423 744.952835 
L 696.342083 744.577766 
L 697.552498 743.873262 
L 697.07166 742.950738 
L 697.550185 742.545796 
L 698.262575 743.223785 
L 699.031258 742.748091 
L 700.233091 741.381854 
L 701.291574 740.686252 
L 701.764595 740.266371 
L 702.270281 738.81475 
L 705.253631 736.096687 
L 708.649717 734.184258 
L 710.374998 733.005769 
L 709.96825 732.323536 
L 712.182013 731.2141 
" clip-path="url(#p39baf8afe8)" style="fill: none; stroke: #ec4243"/>
    <path d="M 715.732369 729.434803 
L 716.977923 728.810575 
" clip-path="url(#p39baf8afe8)" style="fill: none; stroke: #ec4243"/>
    <path d="M 731.458449 720.533447 
L 743.264501 716.246649 
L 743.059868 715.745537 
L 744.548559 715.145056 
L 746.18671 715.922763 
L 746.778334 715.721605 
L 747.127323 716.009022 
L 747.510317 715.62945 
L 748.123649 715.319898 
L 748.54163 715.240117 
L 748.466169 714.866951 
L 749.63582 714.249083 
" clip-path="url(#p39baf8afe8)" style="fill: none; stroke: #ec4243"/>
    <path d="M 751.431968 713.209266 
L 753.00853 712.227787 
L 753.855801 711.768602 
L 758.142396 709.654545 
L 759.406162 709.015223 
L 761.109212 708.293479 
L 762.958816 706.274653 
L 763.631839 705.355143 
L 763.239178 704.858755 
L 763.986348 703.923251 
L 764.052622 703.290279 
L 765.32656 701.033163 
" clip-path="url(#p39baf8afe8)" style="fill: none; stroke: #ec4243"/>
    <path d="M 779.125985 684.55684 
L 782.439618 681.864717 
L 782.955025 682.225957 
L 784.487327 680.081149 
L 785.65087 678.231917 
L 785.941802 676.947574 
L 787.358969 675.067503 
" clip-path="url(#p39baf8afe8)" style="fill: none; stroke: #ec4243"/>
    <path d="M 800.485755 664.356864 
L 801.141243 663.965274 
L 802.235581 663.302391 
" clip-path="url(#p39baf8afe8)" style="fill: none; stroke: #ec4243"/>
    <path d="M 829.863479 653.358366 
L 830.217815 653.240994 
L 832.045059 656.23615 
L 834.386151 655.207413 
L 835.441528 655.292622 
L 839.32035 654.886429 
L 838.135886 652.107873 
L 838.112919 651.695747 
" clip-path="url(#p39baf8afe8)" style="fill: none; stroke: #ec4243"/>
    <path d="M 879.632564 619.96793 
L 879.864028 619.876424 
L 880.116933 620.620383 
L 880.695493 620.415001 
L 880.808232 620.738118 
L 879.448628 621.320358 
L 879.794742 622.152788 
L 881.074649 621.587888 
L 880.902113 620.897099 
L 884.992096 619.130063 
L 884.689277 618.100389 
" clip-path="url(#p39baf8afe8)" style="fill: none; stroke: #ec4243"/>
    <path d="M 899.793416 614.521132 
L 899.855093 614.49704 
L 900.223584 614.511911 
L 901.019363 615.713389 
L 906.861166 612.402632 
L 906.504698 611.349162 
L 907.078782 611.096285 
L 907.47161 612.341071 
L 921.706705 606.078251 
L 921.428978 604.748456 
L 921.726146 605.084328 
" clip-path="url(#p39baf8afe8)" style="fill: none; stroke: #ec4243"/>
    <path d="M 887.511083 617.398352 
L 887.553092 617.404992 
L 889.502503 616.573998 
L 889.345746 615.353098 
L 889.75276 615.21218 
L 889.936317 615.671142 
L 891.958016 615.0804 
L 892.114827 615.250451 
L 893.024521 615.146581 
L 893.472353 617.31903 
L 897.646324 616.654596 
L 897.420876 615.545786 
" clip-path="url(#p39baf8afe8)" style="fill: none; stroke: #ec4243"/>
    <path d="M 929.083739 602.955219 
L 929.113257 602.760635 
L 929.330721 602.537672 
L 944.534869 595.231035 
L 951.399817 592.092992 
L 950.910175 591.242468 
L 952.076244 590.895351 
L 953.110123 590.484043 
L 954.03285 590.348955 
L 955.220888 589.808011 
L 956.314937 588.86945 
L 957.50693 587.989532 
L 958.964327 587.473927 
L 973.740157 577.198405 
L 982.851872 570.890881 
L 982.456185 570.444771 
L 986.340816 567.386964 
L 992.617914 563.546845 
L 998.687218 559.259858 
L 998.571696 558.115054 
L 1002.47366 555.906034 
L 1003.763432 556.455529 
L 1008.101103 552.999153 
L 1007.058289 552.255254 
L 1012.242416 549.006488 
L 1011.547502 548.061746 
L 1013.113782 547.62098 
L 1015.959126 545.881835 
" clip-path="url(#p39baf8afe8)" style="fill: none; stroke: #ec4243"/>
    <path d="M 1024.310457 540.777182 
L 1024.982532 540.366377 
L 1029.539436 536.364174 
L 1032.410411 535.60371 
L 1035.151695 534.312627 
L 1042.917126 532.380826 
L 1042.552202 531.618468 
" clip-path="url(#p39baf8afe8)" style="fill: none; stroke: #ec4243"/>
    <path d="M 1063.699604 501.143265 
L 1063.797021 500.933438 
L 1062.911749 499.318277 
L 1065.577348 493.178003 
L 1066.229249 493.699499 
L 1066.494487 493.286823 
L 1065.925273 492.95679 
L 1066.889983 491.570171 
L 1065.723612 490.683571 
L 1066.475936 489.685398 
L 1067.729951 490.664493 
L 1068.01631 490.859345 
L 1069.974922 487.932978 
L 1070.82766 488.474121 
L 1069.410858 490.785344 
L 1070.521047 491.584972 
L 1070.189293 492.233361 
L 1070.260315 492.313597 
L 1071.941439 488.750368 
L 1071.648091 487.316169 
L 1070.167282 486.048868 
L 1070.631825 485.280242 
L 1073.055854 481.592023 
L 1074.390901 482.423579 
L 1078.817698 476.144018 
L 1077.819676 474.588857 
" clip-path="url(#p39baf8afe8)" style="fill: none; stroke: #ec4243"/>
    <path d="M 1078.521255 474.182309 
L 1079.46425 475.205142 
L 1086.097129 467.530807 
L 1084.925816 466.463881 
L 1089.291088 461.377275 
L 1092.400152 457.369894 
L 1098.439095 450.886711 
L 1098.249316 449.47727 
L 1108.124141 439.155752 
L 1108.358353 438.027025 
L 1114.844782 431.0611 
L 1117.850193 429.51565 
L 1127.531033 421.745106 
L 1136.850182 415.257335 
L 1150.393638 409.512539 
L 1160.616616 401.07482 
L 1160.287073 400.493424 
L 1160.395039 400.430988 
" clip-path="url(#p39baf8afe8)" style="fill: none; stroke: #ec4243"/>
    <path d="M 1182.210092 388.199155 
L 1185.035988 386.78919 
L 1186.09766 387.113911 
L 1187.642278 386.354054 
L 1188.626336 384.000551 
L 1189.818862 383.109087 
" clip-path="url(#p39baf8afe8)" style="fill: none; stroke: #ec4243"/>
    <path d="M 1198.868027 377.176092 
L 1202.803036 375.265584 
L 1202.824769 375.260682 
" clip-path="url(#p39baf8afe8)" style="fill: none; stroke: #ec4243"/>
    <path d="M 1327.494131 268.110846 
L 1327.900228 267.672236 
L 1339.81608 250.712571 
" clip-path="url(#p39baf8afe8)" style="fill: none; stroke: #ec4243"/>
    <path d="M 1344.530792 244.445465 
L 1350.202159 237.784157 
L 1363.365192 223.387338 
" clip-path="url(#p39baf8afe8)" style="fill: none; stroke: #ec4243"/>
    <path d="M 1368.626511 217.632643 
L 1369.997063 216.133547 
L 1371.707499 215.128356 
L 1373.768165 214.937745 
L 1375.57869 211.017566 
L 1381.075134 204.611797 
L 1380.704233 204.220211 
L 1390.238105 194.049779 
L 1391.824207 193.449608 
L 1392.179895 192.056728 
L 1395.725001 188.29879 
L 1398.397483 188.688856 
L 1400.908765 187.851324 
L 1401.899483 186.389755 
L 1401.5496 184.479586 
L 1402.870136 183.856933 
L 1401.253265 184.225175 
L 1400.185117 182.3604 
L 1402.470566 180.556785 
L 1403.113514 180.958632 
L 1404.106049 180.149272 
L 1404.828903 180.762874 
L 1404.312691 180.054949 
L 1404.692823 179.486544 
L 1405.437213 179.689357 
L 1405.127332 178.350156 
L 1406.410327 177.905017 
L 1407.469832 176.328382 
L 1411.090962 173.39151 
" clip-path="url(#p39baf8afe8)" style="fill: none; stroke: #ec4243"/>
    <path d="M 1424.676692 160.95469 
L 1424.752545 160.886053 
L 1426.346488 159.44379 
L 1429.819018 157.666506 
L 1432.487703 158.056437 
L 1433.80394 157.291342 
L 1430.728367 157.126706 
L 1429.845192 155.940468 
L 1430.233754 154.997834 
L 1431.366186 155.742741 
L 1432.509046 154.110711 
L 1431.960538 153.694241 
L 1434.965106 148.525757 
L 1437.459529 146.711774 
L 1439.064535 147.561053 
L 1440.082141 146.362559 
L 1439.236924 144.841522 
L 1442.433147 141.577288 
L 1443.355738 141.582597 
L 1450.341321 136.350666 
L 1451.909634 136.421504 
L 1458.139353 132.41586 
L 1458.425232 132.058681 
" clip-path="url(#p39baf8afe8)" style="fill: none; stroke: #ec4243"/>
    <path d="M 1468.141186 123.018239 
L 1469.24622 122.221659 
L 1469.586617 122.10246 
" clip-path="url(#p39baf8afe8)" style="fill: none; stroke: #ec4243"/>
    <path d="M 1470.990969 121.610691 
L 1473.41746 120.760985 
" clip-path="url(#p39baf8afe8)" style="fill: none; stroke: #ec4243"/>
    <path d="M 1474.591549 120.355745 
L 1479.417415 118.996949 
L 1479.537719 118.88216 
" clip-path="url(#p39baf8afe8)" style="fill: none; stroke: #ec4243"/>
    <path d="M 1480.559925 117.906818 
L 1483.78455 114.83 
L 1482.953043 113.686003 
L 1485.135183 111.94557 
L 1485.306957 111.733161 
L 1485.924421 110.9674 
L 1488.169466 110.908498 
L 1496.370926 105.793368 
L 1496.575773 105.666471 
L 1496.196496 104.95085 
L 1496.731218 104.658076 
L 1497.206673 105.3943 
L 1498.527406 104.616896 
L 1498.312428 104.050879 
L 1498.938666 103.790898 
L 1498.8598 103.530341 
L 1499.371201 103.305299 
L 1499.812476 104.021088 
L 1500.776185 103.523382 
L 1500.708524 103.226246 
L 1501.714752 102.744927 
L 1501.873163 103.017904 
L 1513.060608 97.509383 
L 1512.873227 95.469907 
" clip-path="url(#p39baf8afe8)" style="fill: none; stroke: #ec4243"/>
    <path d="M 1558.082376 86.37512 
L 1561.431242 82.098824 
L 1562.424552 81.926541 
L 1563.151211 80.923318 
" clip-path="url(#p39baf8afe8)" style="fill: none; stroke: #ec4243"/>
    <path d="M 1563.868812 79.960812 
L 1564.00492 79.850714 
L 1566.944247 75.787956 
L 1567.316475 75.323792 
" clip-path="url(#p39baf8afe8)" style="fill: none; stroke: #ec4243"/>
    <path d="M 1454.985499 328.53286 
L 1454.948508 328.615322 
L 1452.399002 335.347188 
L 1448.029951 341.310547 
L 1449.499169 342.217724 
L 1449.027344 343.118098 
L 1447.289044 342.111181 
L 1445.336943 345.378926 
L 1447.811954 346.754019 
L 1447.981672 350.265013 
L 1449.579342 350.594921 
L 1449.578969 351.388143 
L 1447.497914 351.127386 
L 1447.395814 353.204394 
L 1448.945219 353.582981 
L 1450.116036 358.912381 
L 1449.54761 360.917572 
L 1447.253352 366.687418 
L 1444.393992 370.954648 
L 1442.006083 374.453022 
L 1441.421181 379.995795 
L 1439.700518 384.198414 
L 1439.05417 387.886092 
L 1436.479485 387.34459 
L 1433.931374 387.882478 
L 1433.915536 391.848543 
L 1435.694119 395.016965 
L 1438.50029 394.890646 
L 1438.614033 395.91741 
L 1441.858774 398.498761 
L 1445.728969 401.86423 
L 1445.606334 402.021174 
L 1444.052937 404.012743 
L 1439.399089 399.838275 
L 1439.3764 399.348719 
L 1440.460491 398.00533 
L 1438.59093 396.560058 
L 1435.929901 402.32612 
L 1433.220456 409.812716 
L 1433.160743 409.977971 
L 1432.600991 414.122836 
L 1432.594384 416.459092 
L 1432.280084 418.591089 
L 1431.146227 421.147885 
L 1430.645761 421.675283 
L 1427.804637 421.684861 
L 1427.597342 422.741782 
" clip-path="url(#p39baf8afe8)" style="fill: none; stroke: #ec4243"/>
    <path d="M 1291.433585 676.868565 
L 1291.42262 676.91801 
L 1293.603789 678.972051 
L 1294.758551 680.829091 
L 1295.153128 681.726551 
L 1293.675487 681.910566 
L 1293.469648 682.300453 
L 1294.124836 682.457006 
L 1295.391114 682.393228 
" clip-path="url(#p39baf8afe8)" style="fill: none; stroke: #ec4243"/>
    <path d="M 706.403318 1307.028937 
L 703.288117 1310.238366 
L 690.038663 1311.849881 
L 682.793865 1317.453113 
L 671.150829 1320.185044 
L 663.770432 1327.7089 
L 652.531153 1335.707137 
L 643.659959 1339.427045 
L 640.346479 1339.599842 
L 631.734016 1343.260957 
L 627.280128 1344.446156 
L 622.580101 1345.284599 
L 602.938643 1346.899151 
L 581.125975 1355.766806 
L 579.667592 1359.321623 
L 573.7645 1361.714247 
L 566.564848 1360.574869 
L 566.35152 1360.37226 
" clip-path="url(#p39baf8afe8)" style="fill: none; stroke: #ec4243"/>
    <path d="M 537.97332 846.638688 
L 550.419588 839.158981 
" clip-path="url(#p39baf8afe8)" style="fill: none; stroke: #ec4243"/>
    <path d="M 223.372263 1081.183956 
L 223.552302 1081.574524 
" clip-path="url(#p39baf8afe8)" style="fill: none; stroke: #ec4243"/>
   </g>
   <g id="LineCollection_5">
    <path d="M 1306.288236 284.485687 
L 1306.243935 284.450995 
L 1307.622158 283.507331 
L 1307.659742 283.547048 
" clip-path="url(#p39baf8afe8)" style="fill: none; stroke: #ecffc5"/>
   </g>
   <g id="legend_1">
    <g id="patch_2">
     <path d="M 1629.503125 88.590625 
L 1674.2 88.590625 
Q 1676.2 88.590625 1676.2 86.590625 
L 1676.2 14.2 
Q 1676.2 12.2 1674.2 12.2 
L 1629.503125 12.2 
Q 1627.503125 12.2 1627.503125 14.2 
L 1627.503125 86.590625 
Q 1627.503125 88.590625 1629.503125 88.590625 
z
" style="fill: #ffffff; opacity: 0.8; stroke: #cccccc; stroke-linejoin: miter"/>
    </g>
    <g id="line2d_1">
     <path d="M 1631.503125 20.298437 
L 1651.503125 20.298437 
" style="fill: none; stroke: #28c23f"/>
    </g>
    <g id="text_1">
     <!-- fa -->
     <g transform="translate(1659.503125 23.798437) scale(0.1 -0.1)">
      <defs>
       <path id="DejaVuSans-66" d="M 2375 4863 
L 2375 4384 
L 1825 4384 
Q 1516 4384 1395 4259 
Q 1275 4134 1275 3809 
L 1275 3500 
L 2222 3500 
L 2222 3053 
L 1275 3053 
L 1275 0 
L 697 0 
L 697 3053 
L 147 3053 
L 147 3500 
L 697 3500 
L 697 3744 
Q 697 4328 969 4595 
Q 1241 4863 1831 4863 
L 2375 4863 
z
" transform="scale(0.015625)"/>
       <path id="DejaVuSans-61" d="M 2194 1759 
Q 1497 1759 1228 1600 
Q 959 1441 959 1056 
Q 959 750 1161 570 
Q 1363 391 1709 391 
Q 2188 391 2477 730 
Q 2766 1069 2766 1631 
L 2766 1759 
L 2194 1759 
z
M 3341 1997 
L 3341 0 
L 2766 0 
L 2766 531 
Q 2569 213 2275 61 
Q 1981 -91 1556 -91 
Q 1019 -91 701 211 
Q 384 513 384 1019 
Q 384 1609 779 1909 
Q 1175 2209 1959 2209 
L 2766 2209 
L 2766 2266 
Q 2766 2663 2505 2880 
Q 2244 3097 1772 3097 
Q 1472 3097 1187 3025 
Q 903 2953 641 2809 
L 641 3341 
Q 956 3463 1253 3523 
Q 1550 3584 1831 3584 
Q 2591 3584 2966 3190 
Q 3341 2797 3341 1997 
z
" transform="scale(0.015625)"/>
      </defs>
      <use xlink:href="#DejaVuSans-66"/>
      <use xlink:href="#DejaVuSans-61" x="35.205078"/>
     </g>
    </g>
    <g id="line2d_2">
     <path d="M 1631.503125 34.976562 
L 1651.503125 34.976562 
" style="fill: none; stroke: #dbffe4"/>
    </g>
    <g id="text_2">
     <!-- ff -->
     <g transform="translate(1659.503125 38.476562) scale(0.1 -0.1)">
      <use xlink:href="#DejaVuSans-66"/>
      <use xlink:href="#DejaVuSans-66" x="35.205078"/>
     </g>
    </g>
    <g id="line2d_3">
     <path d="M 1631.503125 49.654687 
L 1651.503125 49.654687 
" style="fill: none; stroke: #e9a23d"/>
    </g>
    <g id="text_3">
     <!-- pa -->
     <g transform="translate(1659.503125 53.154687) scale(0.1 -0.1)">
      <defs>
       <path id="DejaVuSans-70" d="M 1159 525 
L 1159 -1331 
L 581 -1331 
L 581 3500 
L 1159 3500 
L 1159 2969 
Q 1341 3281 1617 3432 
Q 1894 3584 2278 3584 
Q 2916 3584 3314 3078 
Q 3713 2572 3713 1747 
Q 3713 922 3314 415 
Q 2916 -91 2278 -91 
Q 1894 -91 1617 61 
Q 1341 213 1159 525 
z
M 3116 1747 
Q 3116 2381 2855 2742 
Q 2594 3103 2138 3103 
Q 1681 3103 1420 2742 
Q 1159 2381 1159 1747 
Q 1159 1113 1420 752 
Q 1681 391 2138 391 
Q 2594 391 2855 752 
Q 3116 1113 3116 1747 
z
" transform="scale(0.015625)"/>
      </defs>
      <use xlink:href="#DejaVuSans-70"/>
      <use xlink:href="#DejaVuSans-61" x="63.476562"/>
     </g>
    </g>
    <g id="line2d_4">
     <path d="M 1631.503125 64.332812 
L 1651.503125 64.332812 
" style="fill: none; stroke: #ec4243"/>
    </g>
    <g id="text_4">
     <!-- pp -->
     <g transform="translate(1659.503125 67.832812) scale(0.1 -0.1)">
      <use xlink:href="#DejaVuSans-70"/>
      <use xlink:href="#DejaVuSans-70" x="63.476562"/>
     </g>
    </g>
    <g id="line2d_5">
     <path d="M 1631.503125 79.010937 
L 1651.503125 79.010937 
" style="fill: none; stroke: #ecffc5"/>
    </g>
    <g id="text_5">
     <!-- ps -->
     <g transform="translate(1659.503125 82.510937) scale(0.1 -0.1)">
      <defs>
       <path id="DejaVuSans-73" d="M 2834 3397 
L 2834 2853 
Q 2591 2978 2328 3040 
Q 2066 3103 1784 3103 
Q 1356 3103 1142 2972 
Q 928 2841 928 2578 
Q 928 2378 1081 2264 
Q 1234 2150 1697 2047 
L 1894 2003 
Q 2506 1872 2764 1633 
Q 3022 1394 3022 966 
Q 3022 478 2636 193 
Q 2250 -91 1575 -91 
Q 1294 -91 989 -36 
Q 684 19 347 128 
L 347 722 
Q 666 556 975 473 
Q 1284 391 1588 391 
Q 1994 391 2212 530 
Q 2431 669 2431 922 
Q 2431 1156 2273 1281 
Q 2116 1406 1581 1522 
L 1381 1569 
Q 847 1681 609 1914 
Q 372 2147 372 2553 
Q 372 3047 722 3315 
Q 1072 3584 1716 3584 
Q 2034 3584 2315 3537 
Q 2597 3491 2834 3397 
z
" transform="scale(0.015625)"/>
      </defs>
      <use xlink:href="#DejaVuSans-70"/>
      <use xlink:href="#DejaVuSans-73" x="63.476562"/>
     </g>
    </g>
   </g>
  </g>
 </g>
 <defs>
  <clipPath id="p39baf8afe8">
   <rect x="7.2" y="7.2" width="1674" height="1444.041589"/>
  </clipPath>
 </defs>
</svg>
