<?xml version="1.0" encoding="utf-8" standalone="no"?>
<!DOCTYPE svg PUBLIC "-//W3C//DTD SVG 1.1//EN"
  "http://www.w3.org/Graphics/SVG/1.1/DTD/svg11.dtd">
<svg xmlns:xlink="http://www.w3.org/1999/xlink" width="1688.4pt" height="1289.675281pt" viewBox="0 0 1688.4 1289.675281" xmlns="http://www.w3.org/2000/svg" version="1.1">
 <metadata>
  <rdf:RDF xmlns:dc="http://purl.org/dc/elements/1.1/" xmlns:cc="http://creativecommons.org/ns#" xmlns:rdf="http://www.w3.org/1999/02/22-rdf-syntax-ns#">
   <cc:Work>
    <dc:type rdf:resource="http://purl.org/dc/dcmitype/StillImage"/>
    <dc:date>2023-12-08T14:21:24.538723</dc:date>
    <dc:format>image/svg+xml</dc:format>
    <dc:creator>
     <cc:Agent>
      <dc:title>Matplotlib v3.8.2, https://matplotlib.org/</dc:title>
     </cc:Agent>
    </dc:creator>
   </cc:Work>
  </rdf:RDF>
 </metadata>
 <defs>
  <style type="text/css">*{stroke-linejoin: round; stroke-linecap: butt}</style>
 </defs>
 <g id="figure_1">
  <g id="patch_1">
   <path d="M 0 1289.675281 
L 1688.4 1289.675281 
L 1688.4 0 
L 0 0 
z
" style="fill: #ffffff"/>
  </g>
  <g id="axes_1">
   <g id="LineCollection_1">
    <path d="M 1202.207106 763.147285 
L 1198.64264 768.743613 
" clip-path="url(#peb9f47d87f)" style="fill: none; stroke: #28c23f"/>
    <path d="M 1320.797774 687.253547 
L 1320.607198 688.073894 
L 1319.658844 688.83219 
" clip-path="url(#peb9f47d87f)" style="fill: none; stroke: #28c23f"/>
    <path d="M 1539.718702 441.81355 
L 1539.933296 442.117555 
L 1539.997741 444.638697 
L 1539.843391 446.407054 
L 1539.29194 448.097778 
L 1538.347799 448.972005 
L 1538.170061 449.50373 
L 1535.025715 453.46385 
L 1532.951587 453.653392 
L 1529.953166 451.585679 
L 1528.939842 451.512119 
L 1528.364234 451.783656 
L 1527.941307 452.588228 
L 1527.801915 455.458444 
L 1528.549359 456.895706 
L 1525.552837 458.474583 
L 1521.789185 457.201369 
L 1519.863816 455.911544 
L 1516.517824 454.789921 
L 1513.82223 455.17689 
L 1509.160684 457.740067 
L 1505.676726 464.719474 
L 1506.588788 467.422196 
L 1507.63747 469.458297 
L 1507.669858 470.668886 
L 1508.394926 471.740979 
L 1507.474876 473.282443 
L 1505.531426 474.659012 
L 1502.662638 471.435616 
L 1499.368294 469.673062 
L 1496.242541 471.540381 
L 1493.893716 476.022957 
L 1494.358142 477.878534 
L 1495.893223 480.366436 
L 1490.326292 483.738691 
L 1487.197764 486.286179 
L 1478.703877 495.368639 
L 1477.966312 494.446427 
L 1477.326205 494.83286 
L 1478.102965 496.002971 
L 1474.319552 500.749228 
L 1474.003361 499.793934 
L 1473.812856 498.676156 
L 1476.365226 495.430976 
L 1475.871778 494.507569 
L 1475.053622 494.752029 
L 1472.446872 498.194747 
L 1472.492648 500.139925 
L 1473.105937 502.356855 
L 1469.08552 507.917086 
L 1459.725431 521.335764 
L 1450.787532 532.254741 
L 1441.300489 542.732449 
L 1429.576162 555.36985 
L 1422.826632 566.480022 
L 1420.286933 569.829448 
L 1416.724713 574.241746 
L 1410.312026 578.238232 
L 1404.055199 580.870562 
L 1402.67358 580.556343 
L 1399.058009 583.425414 
L 1396.772471 584.28971 
L 1396.217234 584.652539 
L 1395.124099 585.141391 
L 1391.24041 588.044114 
L 1386.600531 593.486351 
L 1375.518698 608.542407 
L 1370.87861 612.908858 
L 1361.785454 619.938702 
L 1362.260797 620.912065 
L 1364.835895 621.335545 
L 1367.084291 622.653028 
L 1368.633655 624.54353 
L 1370.309299 627.586332 
L 1370.092913 629.167517 
L 1369.24559 631.7762 
L 1366.841414 636.49082 
L 1364.822413 638.757847 
L 1363.900817 639.510328 
L 1361.755459 641.731194 
L 1359.79221 643.468187 
L 1358.711546 644.16568 
L 1356.456114 644.912671 
L 1354.15697 644.705452 
L 1352.900871 644.261301 
L 1351.984748 643.681637 
L 1350.804458 642.542379 
L 1349.962492 640.945973 
L 1349.52733 639.253449 
L 1349.517592 636.919417 
L 1350.153528 633.59925 
L 1351.137047 630.46306 
L 1352.622486 627.265913 
L 1354.590986 624.248953 
L 1358.911755 620.4528 
L 1358.510011 620.044764 
L 1356.608528 621.249577 
L 1354.720756 622.739129 
L 1353.142648 624.22126 
L 1351.545357 626.022768 
L 1350.192843 628.029559 
L 1349.066694 630.013377 
L 1347.979812 632.221193 
L 1347.066412 635.6793 
L 1346.892439 639.242592 
L 1347.084215 641.112315 
L 1347.458973 642.289548 
L 1348.427583 644.581894 
L 1350.873441 647.119373 
L 1355.329374 651.019007 
L 1348.994088 659.201012 
L 1345.773649 663.271139 
L 1344.330264 662.391571 
L 1341.755265 665.892803 
L 1340.880096 665.847901 
L 1340.10421 666.996482 
L 1338.099884 665.323555 
L 1336.471778 663.032823 
L 1337.812478 662.460295 
L 1337.531849 661.561615 
L 1336.207095 661.877774 
L 1335.818891 660.352773 
L 1335.594782 658.74587 
L 1336.300044 653.431021 
L 1337.518608 653.592522 
L 1337.654851 652.32395 
L 1336.581808 652.25215 
L 1337.49939 647.431487 
L 1337.339947 646.026957 
L 1336.38888 643.817255 
L 1335.149782 643.583952 
L 1334.232036 644.479855 
L 1335.187722 645.93114 
L 1335.316884 647.817991 
L 1334.074861 654.775716 
L 1333.755487 658.210188 
L 1333.824793 660.892175 
L 1334.358219 662.578591 
L 1336.363239 665.522835 
L 1336.265674 666.437339 
L 1331.806281 670.936945 
L 1332.426142 671.521918 
L 1337.662015 666.091052 
L 1339.593872 667.648502 
L 1339.101684 668.231055 
L 1340.719785 669.341707 
L 1338.02596 673.492219 
L 1332.494605 677.648385 
L 1331.5251 677.733477 
L 1329.035931 675.22403 
L 1329.333163 674.627636 
L 1331.503178 672.593825 
L 1330.783747 671.967148 
L 1326.899876 675.88453 
L 1324.077303 679.473798 
L 1321.757658 683.121646 
L 1320.797774 687.253547 
L 1320.797774 687.253547 
" clip-path="url(#peb9f47d87f)" style="fill: none; stroke: #28c23f"/>
    <path d="M 1434.063261 96.843764 
L 1443.616691 105.797622 
L 1463.252132 130.940134 
L 1499.493519 182.922346 
L 1499.561389 183.813622 
L 1499.447578 188.465953 
L 1500.149243 190.135586 
L 1501.527755 191.864422 
L 1503.359853 192.919206 
L 1509.010641 193.541532 
L 1520.637431 209.938825 
L 1527.502585 213.943012 
L 1533.121664 225.598342 
L 1538.479525 230.339717 
L 1547.126275 241.096396 
L 1551.477024 244.645 
L 1559.01797 255.860111 
L 1560.225985 260.489401 
L 1564.781416 265.753401 
L 1567.492216 270.464659 
L 1567.893 272.995819 
L 1569.420095 277.485098 
L 1579.045287 293.539249 
L 1580.126247 296.06438 
L 1582.300724 302.470752 
L 1591.173853 313.425742 
L 1591.436699 315.0936 
L 1592.588976 328.693524 
L 1605.109091 352.89733 
L 1603.088862 354.960487 
L 1602.471499 357.5572 
L 1604.081869 360.60159 
L 1601.489703 360.482814 
L 1599.85818 361.712982 
L 1600.110431 363.813258 
L 1600.967561 366.135388 
L 1602.486775 369.657523 
L 1604.774048 370.490084 
L 1604.882212 372.139949 
L 1602.30437 374.826805 
L 1600.568311 374.617921 
L 1599.654414 375.396696 
L 1600.083926 377.078242 
L 1601.394213 378.078674 
L 1601.393653 378.079954 
" clip-path="url(#peb9f47d87f)" style="fill: none; stroke: #28c23f"/>
    <path d="M 1388.674159 93.203497 
L 1384.899631 125.015426 
L 1385.36529 125.036889 
L 1386.398288 124.958533 
L 1386.412085 124.81014 
" clip-path="url(#peb9f47d87f)" style="fill: none; stroke: #28c23f"/>
    <path d="M 1377.545313 77.133661 
L 1377.324877 87.440459 
L 1376.120722 95.887045 
L 1375.682548 98.964653 
L 1373.397641 117.318704 
L 1372.386641 122.19336 
L 1372.411881 123.65819 
L 1373.562795 123.85415 
L 1373.912497 123.486143 
L 1378.271997 90.156476 
L 1378.339141 90.184491 
" clip-path="url(#peb9f47d87f)" style="fill: none; stroke: #28c23f"/>
    <path d="M 1330.133719 69.555072 
L 1331.560238 70.398984 
L 1332.923442 71.417328 
L 1333.109483 71.796212 
" clip-path="url(#peb9f47d87f)" style="fill: none; stroke: #28c23f"/>
    <path d="M 1292.142624 75.037 
L 1294.167883 74.431435 
L 1294.559349 74.041894 
L 1294.786225 73.514755 
L 1294.827137 72.623919 
L 1295.183353 72.123397 
L 1295.759829 71.96933 
L 1296.622436 72.779177 
L 1298.113247 72.804947 
L 1298.315861 73.101344 
L 1298.576458 73.408849 
L 1298.846372 73.622945 
L 1299.260106 74.674317 
L 1299.897418 75.633173 
L 1300.862109 76.584699 
L 1301.560464 76.820137 
L 1301.718962 76.633903 
L 1300.511503 75.73787 
L 1300.16907 75.430025 
L 1299.715599 74.630577 
L 1299.466611 74.03626 
L 1299.460435 73.375586 
L 1299.695929 72.92237 
L 1300.209781 72.442063 
L 1301.795782 71.761938 
L 1305.714709 69.68981 
L 1305.712072 68.177261 
L 1306.943869 67.513042 
L 1307.371902 67.273598 
L 1308.304647 67.143698 
" clip-path="url(#peb9f47d87f)" style="fill: none; stroke: #28c23f"/>
    <path d="M 1093.10551 184.273542 
L 1094.51345 183.562715 
L 1102.747558 180.692867 
L 1111.482007 169.475743 
L 1116.891572 168.340818 
L 1121.04363 169.293219 
L 1126.509853 169.510216 
L 1151.610128 154.70143 
L 1174.764651 139.255745 
L 1173.785338 137.558649 
L 1181.691567 132.244183 
L 1184.125692 134.053961 
L 1189.1411 131.426215 
L 1198.968605 127.076015 
L 1208.071688 116.689892 
L 1213.660038 116.474536 
L 1216.036256 115.447993 
L 1217.579159 114.780839 
L 1221.389696 110.261527 
L 1223.814116 109.091742 
L 1225.965665 108.055536 
L 1248.658901 97.10928 
L 1251.305436 95.829539 
L 1275.570642 82.827016 
L 1276.440378 82.287358 
L 1276.519044 81.622692 
L 1276.190558 80.471702 
L 1278.568624 79.68409 
L 1279.504497 78.983891 
L 1280.481497 78.055679 
L 1281.808826 77.680919 
L 1282.714119 77.532579 
L 1283.974721 77.458219 
" clip-path="url(#peb9f47d87f)" style="fill: none; stroke: #28c23f"/>
    <path d="M 1030.265999 209.860585 
L 1037.953707 204.039413 
L 1041.79066 201.187637 
L 1043.327978 200.824934 
L 1061.194514 197.347778 
L 1062.28325 198.156613 
L 1063.203241 204.212954 
L 1063.469248 204.296697 
L 1064.234845 201.407528 
L 1066.25296 199.988552 
L 1066.312119 197.685233 
L 1071.739359 193.90148 
L 1071.925936 193.771902 
L 1071.677644 193.038456 
L 1075.173802 191.189096 
L 1077.269686 194.116814 
L 1080.050752 193.476964 
L 1081.024946 192.568465 
L 1086.152894 187.783677 
L 1087.709111 186.998002 
" clip-path="url(#peb9f47d87f)" style="fill: none; stroke: #28c23f"/>
    <path d="M 943.193707 260.959637 
L 944.281292 260.239513 
" clip-path="url(#peb9f47d87f)" style="fill: none; stroke: #28c23f"/>
    <path d="M 856.662455 299.831086 
L 862.790627 300.173126 
L 866.111735 305.564654 
L 867.084671 304.990998 
L 866.540772 302.517619 
L 874.219742 295.363514 
L 882.606889 290.21189 
L 884.933185 285.556573 
L 891.31568 284.342334 
L 912.016012 279.545907 
L 917.169447 275.029437 
" clip-path="url(#peb9f47d87f)" style="fill: none; stroke: #28c23f"/>
    <path d="M 750.380731 350.887402 
L 751.435675 352.327534 
L 752.511428 351.747931 
L 751.911241 350.864348 
" clip-path="url(#peb9f47d87f)" style="fill: none; stroke: #28c23f"/>
    <path d="M 523.23957 476.322405 
L 524.740069 474.075118 
L 525.455036 473.003868 
" clip-path="url(#peb9f47d87f)" style="fill: none; stroke: #28c23f"/>
    <path d="M 468.218883 555.472539 
L 465.885625 551.417946 
L 467.274495 550.798841 
L 469.503245 555.303853 
L 473.76994 551.604696 
" clip-path="url(#peb9f47d87f)" style="fill: none; stroke: #28c23f"/>
    <path d="M 347.483303 616.949963 
L 349.912511 610.78091 
L 350.398804 609.977678 
" clip-path="url(#peb9f47d87f)" style="fill: none; stroke: #28c23f"/>
    <path d="M 285.818755 696.479897 
L 299.185623 685.226297 
L 303.67395 688.830224 
L 305.262308 689.74658 
L 307.208443 689.973654 
L 307.606885 689.784411 
L 307.624408 689.258588 
L 307.269631 689.05253 
L 306.785781 689.054452 
L 305.661096 688.894517 
L 304.786658 688.409859 
L 303.943844 687.853644 
L 301.983586 686.287812 
L 300.218839 684.92289 
L 298.928625 683.929789 
L 285.573957 695.319713 
L 272.709135 683.026412 
L 276.582669 678.919057 
L 285.744867 687.684001 
L 286.033706 687.383382 
L 276.871508 678.618439 
L 277.926289 677.580624 
L 276.444794 676.145378 
L 276.914607 675.678337 
L 278.48505 677.187919 
L 278.728965 676.939231 
L 277.18985 675.416768 
L 277.61927 674.988641 
L 279.083108 676.382506 
L 280.303226 675.03041 
L 289.327431 683.703358 
L 289.628232 683.391931 
L 280.604027 674.718986 
L 283.636988 671.674408 
L 293.179461 680.901924 
L 293.451811 680.622951 
L 283.90935 671.393265 
L 287.527295 667.769207 
L 299.948832 677.615288 
L 301.126097 678.568704 
L 299.728327 680.319796 
L 299.993646 680.551486 
L 301.495265 678.872629 
L 304.475784 681.230272 
L 304.924128 680.589257 
L 307.983407 682.97771 
L 308.209855 682.648521 
L 306.003056 680.966281 
L 306.365759 680.481306 
L 308.563604 682.167847 
L 309.751778 683.323415 
L 310.352201 684.419535 
L 310.444086 685.691308 
L 310.313291 686.540368 
L 310.089068 687.019518 
L 309.989494 687.579701 
L 310.260304 687.904862 
L 310.619147 687.893621 
L 310.92117 687.634351 
L 311.143678 686.903103 
L 311.28169 685.801989 
L 311.207257 684.315158 
L 310.471724 682.848921 
L 305.957779 679.010188 
L 306.089588 678.744914 
" clip-path="url(#peb9f47d87f)" style="fill: none; stroke: #28c23f"/>
    <path d="M 157.088237 792.141662 
L 158.857153 791.588557 
L 161.450357 791.089008 
L 164.092707 790.876567 
L 166.349136 790.722988 
L 170.120021 789.644877 
L 171.371107 789.560019 
L 171.703957 789.107531 
L 171.802192 788.780384 
" clip-path="url(#peb9f47d87f)" style="fill: none; stroke: #28c23f"/>
    <path d="M 83.696729 890.23614 
L 87.755972 886.669439 
L 89.606083 884.227706 
L 94.144067 881.16319 
L 112.216226 861.837347 
L 114.821427 859.673545 
" clip-path="url(#peb9f47d87f)" style="fill: none; stroke: #28c23f"/>
    <path d="M 117.611775 950.321461 
L 118.50229 949.410029 
L 123.107641 950.631264 
L 122.595786 949.116084 
L 119.686225 947.947081 
L 116.682852 941.598892 
L 117.21959 935.712346 
L 125.033498 923.737222 
L 124.753701 920.828058 
L 124.343826 920.000907 
" clip-path="url(#peb9f47d87f)" style="fill: none; stroke: #28c23f"/>
    <path d="M 292.568806 1182.17392 
L 292.308761 1182.067781 
L 288.358652 1180.646235 
L 288.209601 1180.302787 
" clip-path="url(#peb9f47d87f)" style="fill: none; stroke: #28c23f"/>
    <path d="M 279.722567 1170.657754 
L 279.305324 1170.18466 
L 277.873658 1171.446588 
L 269.998206 1165.191621 
L 236.792916 1135.285968 
L 216.044857 1113.135861 
L 207.604837 1104.12635 
L 207.430614 1103.245325 
L 207.985621 1102.172429 
L 208.119724 1101.282109 
L 207.459431 1100.220407 
L 206.521607 1099.554981 
L 205.269755 1099.433422 
L 204.220801 1099.825766 
L 189.877319 1079.791898 
L 183.980288 1072.153443 
L 181.671319 1071.991678 
L 170.892826 1057.360949 
L 158.385398 1041.3304 
L 155.159203 1035.654857 
L 154.530503 1034.54765 
L 116.190119 971.786185 
L 112.320917 964.407764 
L 111.228492 959.697169 
L 111.656051 953.334133 
L 113.010934 953.317013 
" clip-path="url(#peb9f47d87f)" style="fill: none; stroke: #28c23f"/>
    <path d="M 617.670817 1165.659957 
L 615.798594 1168.713732 
L 609.175435 1173.734911 
L 606.589942 1175.296001 
L 599.961597 1182.329461 
L 594.610658 1191.009717 
L 586.343318 1201.584083 
L 578.346745 1208.450078 
L 572.677865 1211.300262 
L 559.62664 1213.078449 
L 543.121432 1212.999211 
L 531.693869 1213.17457 
L 527.761058 1214.881116 
L 516.440754 1216.897521 
L 507.438592 1216.623644 
L 502.825979 1215.682064 
L 492.808621 1210.685196 
L 484.40283 1206.617498 
L 479.709948 1203.204538 
L 479.544296 1200.209098 
L 479.625559 1198.505724 
L 476.325002 1194.541013 
L 470.669377 1190.349681 
L 467.149662 1187.663876 
L 462.757534 1187.961922 
L 453.624453 1194.108722 
L 449.636172 1199.53521 
L 448.329983 1203.799113 
L 444.670151 1207.836359 
L 440.850442 1208.930331 
L 435.876306 1210.355478 
L 432.985444 1210.34131 
L 427.524978 1210.101558 
L 421.622469 1212.528268 
L 414.772506 1211.96 
L 411.230875 1213.437722 
L 405.549625 1214.476781 
L 400.817688 1218.723753 
L 398.107349 1221.059591 
L 394.103158 1224.508222 
L 393.98898 1224.470236 
" clip-path="url(#peb9f47d87f)" style="fill: none; stroke: #28c23f"/>
    <path d="M 670.487104 1142.704738 
L 672.015907 1145.484995 
L 670.903153 1146.168663 
L 669.439587 1143.858221 
L 666.955828 1145.352554 
L 665.85568 1143.671864 
L 658.155341 1148.538304 
L 657.109307 1149.915515 
L 656.724977 1150.798318 
" clip-path="url(#peb9f47d87f)" style="fill: none; stroke: #28c23f"/>
    <path d="M 775.403372 1102.65751 
L 775.01427 1103.122374 
L 772.592849 1104.065233 
L 769.956282 1104.51161 
L 768.308734 1104.925603 
L 765.194053 1105.706605 
L 763.980656 1106.274718 
L 760.594448 1107.480396 
L 760.696877 1107.874213 
L 758.898094 1108.463521 
L 758.476724 1107.477125 
L 756.831018 1103.627343 
L 756.23592 1103.818003 
L 754.408101 1104.648046 
" clip-path="url(#peb9f47d87f)" style="fill: none; stroke: #28c23f"/>
    <path d="M 825.569392 1068.575366 
L 823.997804 1069.490368 
" clip-path="url(#peb9f47d87f)" style="fill: none; stroke: #28c23f"/>
    <path d="M 920.417338 983.841428 
L 915.770533 992.948281 
L 909.297658 1003.806805 
L 909.090584 1003.991619 
" clip-path="url(#peb9f47d87f)" style="fill: none; stroke: #28c23f"/>
    <path d="M 967.804251 850.925659 
L 954.110197 846.108834 
L 949.201228 847.434312 
L 947.479439 847.898208 
L 941.553768 849.499457 
L 934.706937 854.315028 
L 931.414391 870.803882 
" clip-path="url(#peb9f47d87f)" style="fill: none; stroke: #28c23f"/>
    <path d="M 1088.342797 868.634842 
L 1052.642586 877.585496 
L 1043.65334 865.082995 
L 1028.556412 872.292556 
L 967.804251 850.925659 
" clip-path="url(#peb9f47d87f)" style="fill: none; stroke: #28c23f"/>
    <path d="M 1221.797347 742.970068 
L 1218.964569 745.053772 
" clip-path="url(#peb9f47d87f)" style="fill: none; stroke: #28c23f"/>
    <path d="M 1227.33714 738.895125 
L 1221.797347 742.970068 
" clip-path="url(#peb9f47d87f)" style="fill: none; stroke: #28c23f"/>
    <path d="M 1236.341728 732.778254 
L 1234.164608 733.872922 
L 1227.33714 738.895125 
" clip-path="url(#peb9f47d87f)" style="fill: none; stroke: #28c23f"/>
    <path d="M 1293.445419 703.960213 
L 1293.167698 704.334747 
L 1291.839677 705.420146 
L 1289.123391 708.112251 
L 1289.018384 708.191378 
" clip-path="url(#peb9f47d87f)" style="fill: none; stroke: #28c23f"/>
   </g>
   <g id="LineCollection_2">
    <path d="M 1576.071731 424.075496 
L 1575.868318 424.217463 
L 1575.701135 424.340677 
L 1574.208504 423.526394 
L 1573.205725 423.804968 
L 1571.35145 421.846168 
L 1566.799691 422.673637 
L 1562.751306 426.069595 
L 1558.800832 427.27536 
L 1558.512914 428.197827 
L 1558.652978 429.291488 
L 1557.82317 430.620376 
L 1556.512673 430.79993 
L 1554.245551 429.365384 
L 1552.276147 428.299276 
L 1538.554967 436.868221 
L 1537.0453 439.606969 
L 1538.838013 440.565918 
L 1539.718702 441.81355 
" clip-path="url(#peb9f47d87f)" style="fill: none; stroke: #dbffe4"/>
    <path d="M 1386.412085 124.81014 
L 1386.636426 122.397322 
L 1387.519827 113.414812 
L 1394.799278 108.265851 
L 1395.220283 105.372887 
L 1393.991858 103.027351 
L 1393.609091 98.377344 
L 1395.294169 96.749988 
L 1397.43134 96.641358 
L 1399.122364 96.837323 
L 1399.957312 94.600174 
L 1403.559279 93.239231 
L 1406.678114 93.590953 
L 1407.771103 97.044249 
L 1409.415481 98.830781 
L 1413.4824 100.590221 
L 1421.213935 96.922873 
L 1433.200169 96.034829 
L 1434.063261 96.843764 
" clip-path="url(#peb9f47d87f)" style="fill: none; stroke: #dbffe4"/>
    <path d="M 796.738048 331.334659 
L 801.674019 327.873979 
L 807.256288 325.766272 
" clip-path="url(#peb9f47d87f)" style="fill: none; stroke: #dbffe4"/>
    <path d="M 473.76994 551.604696 
L 474.989446 550.547397 
L 481.092182 548.479971 
L 484.353566 545.73371 
L 488.157442 545.606591 
L 492.207685 546.243443 
L 494.359152 545.525868 
L 498.180953 540.780784 
L 501.26892 536.947043 
L 500.826644 536.062586 
L 502.652027 535.052208 
L 505.790147 533.765671 
L 508.715488 529.385653 
L 510.240749 521.795578 
L 510.575497 517.216122 
L 510.852327 514.14675 
L 512.738111 510.487535 
L 516.132684 503.902638 
" clip-path="url(#peb9f47d87f)" style="fill: none; stroke: #dbffe4"/>
    <path d="M 369.0893 608.431438 
L 376.334214 606.304929 
L 385.502497 601.230281 
L 407.216998 593.092401 
L 438.30088 577.88506 
L 451.045854 568.526686 
L 468.245843 555.519389 
L 468.218883 555.472539 
" clip-path="url(#peb9f47d87f)" style="fill: none; stroke: #dbffe4"/>
    <path d="M 317.616648 661.89856 
L 317.314356 661.34257 
L 318.178859 652.799759 
L 323.765752 646.877515 
L 328.982072 646.288564 
L 329.623356 645.163883 
L 334.655989 636.333271 
L 342.142312 631.893834 
L 346.108782 627.276013 
L 346.2699 620.031415 
L 347.483303 616.949963 
" clip-path="url(#peb9f47d87f)" style="fill: none; stroke: #dbffe4"/>
    <path d="M 114.821427 859.673545 
L 119.515209 855.774996 
L 128.246041 850.663156 
L 136.194228 847.164063 
L 132.526998 839.367318 
L 133.400941 833.608545 
L 132.795327 826.034047 
L 133.299477 816.419898 
" clip-path="url(#peb9f47d87f)" style="fill: none; stroke: #dbffe4"/>
    <path d="M 109.34268 899.808908 
L 115.474236 886.548096 
L 124.971476 884.158899 
L 136.466895 873.397965 
L 144.747012 861.851056 
L 134.899269 862.667393 
L 128.940987 861.695651 
L 113.23094 871.47415 
L 102.316506 881.281669 
L 93.931189 885.740982 
L 90.209003 889.981082 
L 86.194847 891.377129 
L 83.290909 890.592716 
L 83.696729 890.23614 
" clip-path="url(#peb9f47d87f)" style="fill: none; stroke: #dbffe4"/>
    <path d="M 124.343826 920.000907 
L 118.388693 907.982945 
" clip-path="url(#peb9f47d87f)" style="fill: none; stroke: #dbffe4"/>
    <path d="M 932.828319 925.441138 
L 933.653789 934.120626 
" clip-path="url(#peb9f47d87f)" style="fill: none; stroke: #dbffe4"/>
    <path d="M 932.588971 922.92446 
L 932.828319 925.441138 
" clip-path="url(#peb9f47d87f)" style="fill: none; stroke: #dbffe4"/>
    <path d="M 931.414391 870.803882 
L 930.54432 875.161062 
L 928.89056 884.028907 
L 929.679754 892.333972 
L 932.509401 922.087798 
" clip-path="url(#peb9f47d87f)" style="fill: none; stroke: #dbffe4"/>
   </g>
   <g id="LineCollection_3">
    <path d="M 1601.393653 378.079954 
L 1600.297948 380.584415 
L 1598.969233 380.109819 
L 1596.847082 379.675584 
L 1594.682616 380.166954 
L 1593.928113 380.907231 
L 1594.292123 381.830082 
L 1594.250538 382.949107 
L 1594.725992 383.537724 
L 1595.817692 383.726713 
L 1596.42033 383.38136 
L 1596.830713 383.48293 
L 1598.337083 384.962232 
L 1599.824767 385.891644 
L 1601.810854 386.108025 
L 1602.465552 386.151871 
L 1603.193169 386.198174 
L 1604.075605 386.999175 
L 1603.166667 388.41254 
L 1601.859972 389.157187 
L 1601.30944 390.261185 
L 1601.671299 391.355707 
L 1601.12362 392.109835 
L 1601.265365 395.450565 
L 1599.19849 398.384977 
L 1598.787087 400.44789 
L 1594.719074 403.95906 
L 1590.791841 408.381329 
L 1589.717359 408.731352 
L 1588.760259 408.751511 
L 1587.874822 408.33514 
L 1585.472305 407.649871 
L 1583.89402 408.186981 
L 1583.083689 409.494231 
L 1585.100731 412.835793 
L 1585.689281 413.811683 
L 1584.883321 414.76255 
L 1583.011015 413.605601 
L 1580.749702 412.208073 
L 1577.618675 413.595316 
L 1574.332437 412.434976 
L 1572.91519 412.894469 
L 1571.825767 414.013722 
L 1571.182894 415.501997 
L 1571.033068 417.268202 
L 1571.648477 418.602779 
L 1572.541395 419.388632 
L 1577.196938 421.693098 
L 1577.392984 421.800353 
L 1578.481642 422.393557 
L 1576.071731 424.075496 
" clip-path="url(#peb9f47d87f)" style="fill: none; stroke: #e9a23d"/>
    <path d="M 393.98898 1224.470236 
L 377.965036 1219.138955 
L 377.568575 1215.583851 
L 376.4964 1214.339834 
L 363.421665 1209.978666 
L 362.423899 1210.55178 
L 361.749384 1212.615122 
L 356.956064 1209.698825 
L 357.460906 1208.212708 
L 357.383502 1207.303936 
L 354.162827 1204.725761 
L 353.250928 1204.803809 
L 351.668194 1206.201986 
L 348.712956 1200.567457 
L 350.552961 1198.349103 
L 350.039137 1198.04665 
L 339.950468 1195.564649 
L 336.465321 1196.457842 
L 334.533672 1196.739417 
L 333.69006 1196.863427 
L 333.817893 1197.511671 
L 332.699752 1197.732104 
L 332.540806 1197.051107 
L 330.655325 1197.332906 
L 325.829308 1196.220054 
L 320.871244 1196.79508 
L 318.300409 1197.123416 
L 317.603579 1197.678437 
L 314.543211 1198.506321 
L 314.107364 1198.099929 
L 306.830728 1193.834493 
L 305.41339 1191.643349 
L 303.906359 1189.519122 
L 302.890039 1188.740376 
L 302.222081 1188.289352 
L 301.90795 1188.263872 
L 301.653978 1188.419067 
L 300.808464 1190.40763 
L 299.214468 1190.182316 
L 298.967467 1190.135441 
L 298.402405 1190.030146 
" clip-path="url(#peb9f47d87f)" style="fill: none; stroke: #e9a23d"/>
    <path d="M 1274.794148 719.538891 
L 1274.798449 719.539825 
L 1271.467437 722.537908 
L 1269.495233 723.149006 
L 1268.79043 724.006632 
L 1268.703707 725.162399 
L 1264.840156 726.626143 
L 1261.244659 728.779897 
L 1255.542795 730.514065 
L 1253.728795 729.608924 
L 1253.204351 729.348113 
L 1247.546516 727.6901 
L 1240.906712 730.482934 
L 1236.341728 732.778254 
" clip-path="url(#peb9f47d87f)" style="fill: none; stroke: #e9a23d"/>
   </g>
   <g id="LineCollection_4">
    <path d="M 1333.109483 71.796212 
L 1334.041883 73.695106 
L 1335.297113 75.638777 
L 1336.524791 75.60908 
L 1337.667592 75.954992 
L 1337.968845 76.868975 
L 1340.258677 76.537242 
L 1341.248691 76.769515 
L 1342.237215 77.723278 
L 1343.956556 76.817635 
L 1345.443375 77.09107 
L 1346.970225 76.677942 
L 1348.494242 76.951527 
L 1349.106646 76.382504 
L 1351.696485 77.268969 
L 1352.411007 78.278098 
L 1372.424029 86.95748 
L 1370.092911 81.03033 
L 1369.758758 79.425148 
L 1369.846578 77.9673 
L 1372.571711 73.805963 
L 1377.547584 77.027464 
L 1377.545313 77.133661 
" clip-path="url(#peb9f47d87f)" style="fill: none; stroke: #ec4243"/>
    <path d="M 1308.304647 67.143698 
L 1310.614501 66.822012 
L 1314.116778 66.541004 
L 1316.716632 65.360889 
L 1318.033709 65.298984 
L 1320.807762 65.167058 
L 1323.111762 66.43923 
L 1325.045796 67.225243 
L 1325.603375 67.321 
L 1326.664284 67.67745 
L 1326.773223 68.318991 
L 1326.986402 68.580656 
L 1327.435953 68.893283 
L 1328.363785 68.688498 
L 1329.396121 69.118716 
L 1330.133719 69.555072 
" clip-path="url(#peb9f47d87f)" style="fill: none; stroke: #ec4243"/>
    <path d="M 1283.974721 77.458219 
L 1284.193505 77.445313 
L 1285.029598 78.189862 
L 1286.585612 77.568309 
L 1286.3112 77.006481 
L 1286.562024 76.446846 
L 1287.334454 76.40226 
L 1288.781232 76.997233 
L 1289.285674 76.990645 
L 1289.896238 76.869321 
L 1290.732495 76.505542 
L 1290.612887 75.929148 
L 1291.034185 75.522346 
L 1291.659056 75.181589 
L 1292.142624 75.037 
" clip-path="url(#peb9f47d87f)" style="fill: none; stroke: #ec4243"/>
    <path d="M 1087.709111 186.998002 
L 1093.10551 184.273542 
" clip-path="url(#peb9f47d87f)" style="fill: none; stroke: #ec4243"/>
    <path d="M 1026.934606 212.383099 
L 1030.265999 209.860585 
" clip-path="url(#peb9f47d87f)" style="fill: none; stroke: #ec4243"/>
    <path d="M 944.281292 260.239513 
L 948.286482 257.587536 
L 948.990597 257.208198 
L 982.071608 239.374457 
L 1023.024321 215.343922 
L 1026.934606 212.383099 
" clip-path="url(#peb9f47d87f)" style="fill: none; stroke: #ec4243"/>
    <path d="M 917.169447 275.029437 
L 927.688904 265.810007 
L 940.49809 262.744481 
L 943.193707 260.959637 
" clip-path="url(#peb9f47d87f)" style="fill: none; stroke: #ec4243"/>
    <path d="M 807.256288 325.766272 
L 827.798083 318.009975 
L 828.599754 309.646869 
L 856.602618 299.827746 
L 856.662455 299.831086 
" clip-path="url(#peb9f47d87f)" style="fill: none; stroke: #ec4243"/>
    <path d="M 751.911241 350.864348 
L 751.671797 350.511844 
L 752.232641 348.958441 
L 750.782431 346.198295 
L 755.115601 344.110374 
L 755.637899 345.095072 
L 756.671245 346.923159 
L 758.126055 347.727451 
L 758.664264 346.882398 
L 757.957308 343.669331 
L 759.260332 344.146941 
L 761.252301 347.550672 
L 762.645429 347.533208 
L 763.774266 346.736521 
L 763.759397 345.445579 
L 763.010787 342.547435 
L 763.723365 341.005593 
L 769.33521 340.468664 
L 769.660844 343.112763 
L 766.022431 343.656639 
L 766.900043 348.915459 
L 769.069026 349.123236 
L 769.078368 347.100043 
L 770.494529 346.606749 
L 771.161939 347.755099 
L 773.188502 348.18605 
L 775.141316 346.536918 
L 785.161904 339.450698 
L 796.738048 331.334659 
" clip-path="url(#peb9f47d87f)" style="fill: none; stroke: #ec4243"/>
    <path d="M 525.455036 473.003868 
L 525.630656 472.740733 
L 530.133234 475.213808 
L 534.75367 473.92782 
L 535.222915 474.466858 
L 537.783628 474.042381 
L 541.595953 474.893063 
L 543.077827 472.859572 
L 543.024742 469.971152 
L 540.743431 468.013 
L 537.007126 466.217345 
L 537.809248 465.012916 
L 541.434368 466.714586 
L 543.81342 466.919446 
L 546.191901 462.599725 
L 551.392897 459.736557 
L 555.454436 455.794342 
L 553.656883 451.354585 
L 555.148805 449.077729 
L 557.616453 451.284491 
L 558.493162 448.798226 
L 556.499829 447.315241 
L 555.982517 445.937131 
L 558.320873 444.99867 
L 560.349773 448.9962 
L 562.308238 447.819032 
L 564.259419 448.160882 
L 565.91528 450.494127 
L 568.492915 449.319915 
L 568.359126 447.419909 
L 570.64507 447.478666 
L 571.397808 449.429444 
L 573.950521 450.973757 
L 578.065954 449.746031 
L 579.853404 444.484599 
L 579.526818 443.057428 
L 576.861774 442.284071 
L 577.933333 437.636403 
L 575.367644 436.009455 
L 576.042161 434.398004 
L 578.709451 434.697619 
L 578.575875 432.749805 
L 581.023742 428.819345 
L 584.68814 429.454035 
L 583.889126 427.218356 
L 585.086617 425.800638 
L 585.270778 427.131507 
L 587.45146 429.27816 
L 591.118351 429.391277 
L 595.516864 425.898207 
L 594.320107 422.793538 
L 591.925322 418.726953 
L 592.739689 418.057149 
L 597.80825 422.93186 
L 601.384887 419.489182 
L 602.439808 415.497714 
L 607.401793 414.308686 
L 605.171517 409.445351 
L 606.033498 408.462825 
L 608.981162 413.955447 
L 611.599613 412.935631 
L 610.443387 407.247252 
L 610.849548 406.655903 
L 611.949295 405.750565 
L 613.500268 411.058336 
L 615.523984 412.100212 
L 617.418658 411.481158 
L 615.868307 406.038657 
L 616.501714 405.233239 
L 619.233414 408.884121 
L 623.218957 412.093267 
L 625.124693 411.337342 
L 627.03278 406.002521 
L 626.752167 398.634089 
L 628.695082 397.565395 
L 631.062368 401.79911 
L 633.640166 399.924989 
L 635.906891 397.106228 
L 636.055719 393.962331 
L 635.048765 390.991166 
L 636.834932 390.332449 
L 638.37387 394.742605 
L 639.30145 395.931379 
L 641.308066 396.182089 
L 642.381431 395.183151 
L 644.791414 394.483906 
L 645.891688 393.774125 
L 646.202409 392.901971 
L 645.787053 391.348354 
L 646.188356 391.150317 
L 647.03896 392.566905 
L 649.474024 392.858742 
L 651.993915 391.575414 
L 652.579813 390.106931 
L 651.757945 386.699844 
L 654.512625 386.754128 
L 655.315071 390.178507 
L 658.543383 391.110809 
L 660.143916 390.362082 
L 662.001921 389.93185 
L 663.326012 388.466837 
L 665.281095 388.912851 
L 670.543591 386.132024 
L 670.732948 383.844548 
L 671.614125 383.511847 
L 672.824287 385.699415 
L 678.264686 384.962184 
L 680.858247 380.973523 
L 680.963624 379.450614 
L 682.136645 379.723421 
L 685.290837 378.369109 
L 684.940175 376.022596 
L 685.726723 375.871988 
L 686.306411 377.939233 
L 691.017897 376.159743 
L 690.08743 373.99089 
L 690.885188 373.670822 
L 692.032315 375.658142 
L 694.389063 374.55216 
L 694.005361 371.629601 
L 696.584465 369.440235 
L 701.079118 367.55103 
L 705.568872 366.707087 
L 707.525364 366.209874 
L 710.723371 372.672649 
L 719.924151 368.538695 
L 720.878198 367.254441 
L 721.021145 365.962061 
L 725.158283 364.449232 
L 725.030861 362.408016 
L 725.573487 362.219302 
L 726.530153 364.846791 
L 729.139527 366.052012 
L 731.864061 363.937133 
L 731.098177 361.247514 
L 731.858516 360.968535 
L 732.844372 363.402741 
L 734.998664 363.573569 
L 737.241845 361.910638 
L 736.182257 358.046136 
L 736.562778 357.830586 
L 737.707084 360.758837 
L 739.385102 360.290701 
L 740.61083 358.505686 
L 739.585606 355.893103 
L 740.535061 355.591092 
L 741.670289 358.232436 
L 743.747741 357.961735 
L 747.387363 356.526927 
L 748.408597 354.867 
L 750.330329 352.548424 
L 749.619123 351.541116 
L 750.338294 350.829471 
L 750.380731 350.887402 
" clip-path="url(#peb9f47d87f)" style="fill: none; stroke: #ec4243"/>
    <path d="M 516.132684 503.902638 
L 516.296266 503.585317 
L 521.951146 503.879939 
L 523.488463 503.018087 
L 527.221109 497.570539 
L 527.862991 496.265377 
L 528.507933 494.942845 
L 528.07626 494.019332 
L 526.822585 492.861495 
L 526.061675 491.380057 
L 525.931485 487.821924 
L 523.327537 484.24533 
L 522.008383 483.704357 
L 523.228324 482.288984 
L 523.729834 479.535805 
L 522.814962 476.958335 
L 523.23957 476.322405 
" clip-path="url(#peb9f47d87f)" style="fill: none; stroke: #ec4243"/>
    <path d="M 350.398804 609.977678 
L 351.285901 608.512418 
L 351.98384 607.361928 
L 354.236412 608.805259 
L 356.294245 608.098338 
L 357.32316 607.744876 
L 359.269617 608.780291 
L 357.971987 611.38384 
L 359.710702 613.185356 
L 366.046169 609.324635 
L 369.0893 608.431438 
" clip-path="url(#peb9f47d87f)" style="fill: none; stroke: #ec4243"/>
    <path d="M 306.089588 678.744914 
L 307.624096 675.656623 
L 312.96951 673.99049 
L 313.369041 670.906569 
L 318.060772 662.715411 
L 317.616648 661.89856 
" clip-path="url(#peb9f47d87f)" style="fill: none; stroke: #ec4243"/>
    <path d="M 171.802192 788.780384 
L 171.881181 788.517333 
L 173.863051 787.319204 
L 177.084258 785.712342 
L 179.567932 784.210355 
L 181.35215 783.228518 
L 182.967048 782.747818 
L 184.219681 782.649916 
L 185.411137 783.160191 
L 186.422225 783.130592 
L 188.705925 780.843043 
L 190.99756 779.04015 
L 192.123681 778.059279 
L 195.685936 775.256685 
L 198.174858 773.009283 
L 200.134864 771.708857 
L 202.559411 769.819692 
L 204.907086 767.821471 
L 205.556264 768.105122 
L 205.745227 767.83661 
L 205.052638 767.307168 
L 205.079593 764.064915 
L 205.735976 761.76686 
L 206.7129 759.965924 
L 208.559894 758.047724 
L 207.263142 756.291701 
L 208.302348 754.830099 
L 210.894997 752.665779 
L 213.380345 751.689638 
L 215.914158 751.428717 
L 218.667901 749.493384 
L 220.223804 748.012668 
L 224.973957 744.627093 
L 234.01744 739.846377 
L 237.212129 737.261283 
L 239.916463 735.07356 
L 246.350613 729.868786 
L 249.562984 726.720893 
L 251.500581 724.820469 
L 252.490074 723.751922 
L 255.593278 720.399181 
L 257.755321 723.278714 
L 260.185332 722.921552 
L 262.619694 718.754815 
L 264.700943 716.702972 
L 265.348716 714.902499 
L 268.215777 709.949068 
L 268.429098 709.274284 
L 269.500185 705.896039 
L 272.001756 703.739817 
L 274.850143 702.776242 
L 277.7289 702.579948 
L 283.519682 698.238829 
L 285.447448 696.792495 
L 285.818755 696.479897 
" clip-path="url(#peb9f47d87f)" style="fill: none; stroke: #ec4243"/>
    <path d="M 133.299477 816.419898 
L 133.538472 811.862203 
L 135.090928 810.220766 
L 137.304211 808.048132 
L 147.292442 803.568512 
L 146.872035 802.516699 
L 147.762387 798.468295 
L 149.468998 797.242711 
L 151.089957 795.879773 
L 151.105762 795.701653 
L 154.698441 793.092754 
L 156.164971 792.515708 
L 156.16639 792.239721 
L 156.46702 791.973965 
L 156.730602 792.253487 
L 157.088237 792.141662 
" clip-path="url(#peb9f47d87f)" style="fill: none; stroke: #ec4243"/>
    <path d="M 113.010934 953.317013 
L 114.705886 953.295593 
L 117.611775 950.321461 
" clip-path="url(#peb9f47d87f)" style="fill: none; stroke: #ec4243"/>
    <path d="M 288.209601 1180.302787 
L 288.052411 1179.940587 
L 289.338737 1178.851771 
L 287.131165 1177.436803 
L 286.391527 1178.211081 
L 284.941924 1176.523927 
L 286.401303 1175.081756 
L 285.835092 1174.539961 
L 285.286694 1174.602399 
L 283.975588 1174.695771 
L 282.949286 1175.31431 
L 282.568997 1175.710088 
L 281.350243 1174.91292 
L 281.294815 1174.089007 
L 282.940771 1171.974095 
L 282.323823 1170.860497 
L 281.572584 1169.500655 
L 280.383421 1171.407066 
L 279.722567 1170.657754 
" clip-path="url(#peb9f47d87f)" style="fill: none; stroke: #ec4243"/>
    <path d="M 298.402405 1190.030146 
L 298.308288 1190.012609 
L 297.99731 1189.952372 
L 297.843403 1188.865012 
L 295.52511 1187.545124 
L 296.960956 1183.96659 
L 292.568806 1182.17392 
" clip-path="url(#peb9f47d87f)" style="fill: none; stroke: #ec4243"/>
    <path d="M 656.724977 1150.798318 
L 655.359777 1153.934164 
L 653.391512 1155.380914 
L 649.463236 1156.205583 
L 645.269187 1156.224909 
L 635.893566 1153.764044 
L 634.661044 1154.258045 
L 632.274406 1155.357246 
L 620.723231 1160.681138 
L 617.670817 1165.659957 
" clip-path="url(#peb9f47d87f)" style="fill: none; stroke: #ec4243"/>
    <path d="M 754.408101 1104.648046 
L 753.109341 1105.237831 
L 724.48029 1117.594202 
L 710.789241 1123.997784 
L 705.26575 1123.617779 
L 701.275313 1126.302567 
L 700.353662 1128.16719 
L 698.699446 1129.676333 
L 697.317871 1132.11904 
L 696.88009 1134.014173 
L 697.09744 1136.262251 
L 696.592064 1136.688003 
L 693.568492 1137.384487 
L 685.384201 1136.86589 
L 680.69402 1136.941694 
L 670.381965 1142.032837 
L 670.174465 1142.136175 
L 670.487104 1142.704738 
" clip-path="url(#peb9f47d87f)" style="fill: none; stroke: #ec4243"/>
    <path d="M 823.997804 1069.490368 
L 822.577796 1070.317115 
L 782.865649 1093.742179 
L 775.403372 1102.65751 
" clip-path="url(#peb9f47d87f)" style="fill: none; stroke: #ec4243"/>
    <path d="M 909.090584 1003.991619 
L 897.043439 1014.743572 
L 878.341661 1030.455963 
L 873.812582 1037.480905 
L 872.281941 1041.376998 
L 825.569392 1068.575366 
" clip-path="url(#peb9f47d87f)" style="fill: none; stroke: #ec4243"/>
    <path d="M 933.653789 934.120626 
L 934.510614 943.129662 
L 933.670686 959.79198 
L 925.461963 973.954745 
L 920.417338 983.841428 
" clip-path="url(#peb9f47d87f)" style="fill: none; stroke: #ec4243"/>
    <path d="M 1198.64264 768.743613 
L 1192.403239 778.539519 
L 1193.85685 780.873172 
L 1190.837035 783.774555 
L 1192.499962 785.552767 
L 1177.865295 799.685612 
L 1174.408775 803.024071 
L 1172.350845 804.838579 
L 1168.061619 808.616791 
L 1164.522607 811.735378 
L 1159.016769 816.58842 
L 1153.531814 821.421968 
L 1128.359899 822.941505 
L 1118.103288 842.847021 
L 1105.812795 847.870438 
L 1088.391504 868.622629 
L 1088.342797 868.634842 
" clip-path="url(#peb9f47d87f)" style="fill: none; stroke: #ec4243"/>
    <path d="M 1203.347251 761.434266 
L 1202.207106 763.147285 
" clip-path="url(#peb9f47d87f)" style="fill: none; stroke: #ec4243"/>
    <path d="M 1216.709731 746.712352 
L 1209.727406 751.848246 
L 1203.347251 761.434266 
" clip-path="url(#peb9f47d87f)" style="fill: none; stroke: #ec4243"/>
    <path d="M 1218.964569 745.053772 
L 1216.709731 746.712352 
" clip-path="url(#peb9f47d87f)" style="fill: none; stroke: #ec4243"/>
    <path d="M 1289.018384 708.191378 
L 1288.870998 708.302438 
L 1285.17999 711.249076 
L 1282.512037 708.4215 
L 1278.066686 709.117901 
L 1275.269322 708.760669 
L 1273.490103 709.865892 
L 1271.22674 712.46423 
L 1270.228755 715.076556 
L 1272.369499 719.012446 
L 1274.794148 719.538891 
" clip-path="url(#peb9f47d87f)" style="fill: none; stroke: #ec4243"/>
    <path d="M 1319.658844 688.83219 
L 1313.869194 693.461507 
L 1311.967085 693.701355 
L 1310.129964 694.782488 
L 1309.595189 696.651372 
L 1306.61634 698.773055 
L 1305.672136 698.138909 
L 1303.513048 695.73292 
L 1301.69736 695.953551 
L 1294.97805 698.965852 
L 1293.903017 700.791188 
L 1294.399861 702.673055 
L 1293.445419 703.960213 
" clip-path="url(#peb9f47d87f)" style="fill: none; stroke: #ec4243"/>
   </g>
   <g id="legend_1">
    <g id="patch_2">
     <path d="M 1629.503125 73.9125 
L 1674.2 73.9125 
Q 1676.2 73.9125 1676.2 71.9125 
L 1676.2 14.2 
Q 1676.2 12.2 1674.2 12.2 
L 1629.503125 12.2 
Q 1627.503125 12.2 1627.503125 14.2 
L 1627.503125 71.9125 
Q 1627.503125 73.9125 1629.503125 73.9125 
z
" style="fill: #ffffff; opacity: 0.8; stroke: #cccccc; stroke-linejoin: miter"/>
    </g>
    <g id="line2d_1">
     <path d="M 1631.503125 20.298438 
L 1651.503125 20.298438 
" style="fill: none; stroke: #28c23f"/>
    </g>
    <g id="text_1">
     <!-- fa -->
     <g transform="translate(1659.503125 23.798438) scale(0.1 -0.1)">
      <defs>
       <path id="DejaVuSans-66" d="M 2375 4863 
L 2375 4384 
L 1825 4384 
Q 1516 4384 1395 4259 
Q 1275 4134 1275 3809 
L 1275 3500 
L 2222 3500 
L 2222 3053 
L 1275 3053 
L 1275 0 
L 697 0 
L 697 3053 
L 147 3053 
L 147 3500 
L 697 3500 
L 697 3744 
Q 697 4328 969 4595 
Q 1241 4863 1831 4863 
L 2375 4863 
z
" transform="scale(0.015625)"/>
       <path id="DejaVuSans-61" d="M 2194 1759 
Q 1497 1759 1228 1600 
Q 959 1441 959 1056 
Q 959 750 1161 570 
Q 1363 391 1709 391 
Q 2188 391 2477 730 
Q 2766 1069 2766 1631 
L 2766 1759 
L 2194 1759 
z
M 3341 1997 
L 3341 0 
L 2766 0 
L 2766 531 
Q 2569 213 2275 61 
Q 1981 -91 1556 -91 
Q 1019 -91 701 211 
Q 384 513 384 1019 
Q 384 1609 779 1909 
Q 1175 2209 1959 2209 
L 2766 2209 
L 2766 2266 
Q 2766 2663 2505 2880 
Q 2244 3097 1772 3097 
Q 1472 3097 1187 3025 
Q 903 2953 641 2809 
L 641 3341 
Q 956 3463 1253 3523 
Q 1550 3584 1831 3584 
Q 2591 3584 2966 3190 
Q 3341 2797 3341 1997 
z
" transform="scale(0.015625)"/>
      </defs>
      <use xlink:href="#DejaVuSans-66"/>
      <use xlink:href="#DejaVuSans-61" x="35.205078"/>
     </g>
    </g>
    <g id="line2d_2">
     <path d="M 1631.503125 34.976562 
L 1651.503125 34.976562 
" style="fill: none; stroke: #dbffe4"/>
    </g>
    <g id="text_2">
     <!-- ff -->
     <g transform="translate(1659.503125 38.476562) scale(0.1 -0.1)">
      <use xlink:href="#DejaVuSans-66"/>
      <use xlink:href="#DejaVuSans-66" x="35.205078"/>
     </g>
    </g>
    <g id="line2d_3">
     <path d="M 1631.503125 49.654688 
L 1651.503125 49.654688 
" style="fill: none; stroke: #e9a23d"/>
    </g>
    <g id="text_3">
     <!-- pa -->
     <g transform="translate(1659.503125 53.154688) scale(0.1 -0.1)">
      <defs>
       <path id="DejaVuSans-70" d="M 1159 525 
L 1159 -1331 
L 581 -1331 
L 581 3500 
L 1159 3500 
L 1159 2969 
Q 1341 3281 1617 3432 
Q 1894 3584 2278 3584 
Q 2916 3584 3314 3078 
Q 3713 2572 3713 1747 
Q 3713 922 3314 415 
Q 2916 -91 2278 -91 
Q 1894 -91 1617 61 
Q 1341 213 1159 525 
z
M 3116 1747 
Q 3116 2381 2855 2742 
Q 2594 3103 2138 3103 
Q 1681 3103 1420 2742 
Q 1159 2381 1159 1747 
Q 1159 1113 1420 752 
Q 1681 391 2138 391 
Q 2594 391 2855 752 
Q 3116 1113 3116 1747 
z
" transform="scale(0.015625)"/>
      </defs>
      <use xlink:href="#DejaVuSans-70"/>
      <use xlink:href="#DejaVuSans-61" x="63.476562"/>
     </g>
    </g>
    <g id="line2d_4">
     <path d="M 1631.503125 64.332813 
L 1651.503125 64.332813 
" style="fill: none; stroke: #ec4243"/>
    </g>
    <g id="text_4">
     <!-- pp -->
     <g transform="translate(1659.503125 67.832813) scale(0.1 -0.1)">
      <use xlink:href="#DejaVuSans-70"/>
      <use xlink:href="#DejaVuSans-70" x="63.476562"/>
     </g>
    </g>
   </g>
  </g>
 </g>
 <defs>
  <clipPath id="peb9f47d87f">
   <rect x="7.2" y="7.2" width="1674" height="1275.275281"/>
  </clipPath>
 </defs>
</svg>
