<?xml version="1.0" encoding="utf-8" standalone="no"?>
<!DOCTYPE svg PUBLIC "-//W3C//DTD SVG 1.1//EN"
  "http://www.w3.org/Graphics/SVG/1.1/DTD/svg11.dtd">
<svg xmlns:xlink="http://www.w3.org/1999/xlink" width="738.752319pt" height="1677.6pt" viewBox="0 0 738.752319 1677.6" xmlns="http://www.w3.org/2000/svg" version="1.1">
 <metadata>
  <rdf:RDF xmlns:dc="http://purl.org/dc/elements/1.1/" xmlns:cc="http://creativecommons.org/ns#" xmlns:rdf="http://www.w3.org/1999/02/22-rdf-syntax-ns#">
   <cc:Work>
    <dc:type rdf:resource="http://purl.org/dc/dcmitype/StillImage"/>
    <dc:date>2023-12-08T14:21:25.222563</dc:date>
    <dc:format>image/svg+xml</dc:format>
    <dc:creator>
     <cc:Agent>
      <dc:title>Matplotlib v3.8.2, https://matplotlib.org/</dc:title>
     </cc:Agent>
    </dc:creator>
   </cc:Work>
  </rdf:RDF>
 </metadata>
 <defs>
  <style type="text/css">*{stroke-linejoin: round; stroke-linecap: butt}</style>
 </defs>
 <g id="figure_1">
  <g id="patch_1">
   <path d="M 0 1677.6 
L 738.752319 1677.6 
L 738.752319 0 
L 0 0 
z
" style="fill: #ffffff"/>
  </g>
  <g id="axes_1">
   <g id="LineCollection_1">
    <path d="M 619.592265 1592.444231 
L 616.947508 1593.351564 
L 614.294094 1593.754188 
L 611.313812 1594.215073 
" clip-path="url(#pf53dad2894)" style="fill: none; stroke: #28c23f"/>
    <path d="M 44.004315 213.699284 
L 46.469192 209.093348 
L 46.7809 208.290842 
L 46.994073 207.742412 
" clip-path="url(#pf53dad2894)" style="fill: none; stroke: #28c23f"/>
    <path d="M 52.637637 265.831483 
L 51.862579 264.626372 
" clip-path="url(#pf53dad2894)" style="fill: none; stroke: #28c23f"/>
    <path d="M 99.868962 492.431477 
L 99.931135 492.337158 
L 101.651544 489.729432 
L 102.754298 489.259961 
" clip-path="url(#pf53dad2894)" style="fill: none; stroke: #28c23f"/>
    <path d="M 87.806153 522.901427 
L 88.201648 522.450397 
" clip-path="url(#pf53dad2894)" style="fill: none; stroke: #28c23f"/>
    <path d="M 92.6046 592.46837 
L 92.027988 591.052733 
L 91.322195 589.226302 
L 89.958799 582.391434 
L 88.209057 577.200108 
" clip-path="url(#pf53dad2894)" style="fill: none; stroke: #28c23f"/>
    <path d="M 109.348123 618.365864 
L 106.237981 616.673817 
L 105.156288 615.449583 
L 105.597473 612.334938 
L 103.223394 609.090738 
L 97.793497 608.720274 
L 93.829465 606.466373 
L 92.141673 604.196617 
L 90.597744 602.302355 
L 90.342001 600.59878 
L 90.739926 598.80924 
L 91.640893 597.874109 
L 92.387411 597.257122 
L 92.948412 595.814088 
L 92.906902 593.210546 
L 92.6046 592.46837 
" clip-path="url(#pf53dad2894)" style="fill: none; stroke: #28c23f"/>
    <path d="M 114.68886 621.271393 
L 109.348123 618.365864 
" clip-path="url(#pf53dad2894)" style="fill: none; stroke: #28c23f"/>
    <path d="M 163.30435 714.992593 
L 165.167383 711.979054 
L 167.522257 708.112051 
L 171.024991 704.709822 
L 173.839696 701.384073 
L 174.931103 695.787979 
L 176.753735 686.446802 
" clip-path="url(#pf53dad2894)" style="fill: none; stroke: #28c23f"/>
    <path d="M 251.330194 1040.763591 
L 255.755861 1039.125724 
L 263.337233 1038.050718 
L 267.900137 1036.267143 
L 279.910553 1028.985447 
L 283.05638 1028.044023 
L 292.198965 1024.346392 
L 302.612869 1017.140471 
L 306.768441 1013.486464 
L 310.294931 1010.066975 
L 313.573476 1008.082759 
L 319.239289 1007.143833 
L 327.147938 1004.735457 
L 331.636392 1002.132726 
L 334.728969 999.453635 
L 336.952355 996.593705 
L 338.878554 992.945518 
L 340.670626 990.306259 
L 342.297938 986.063516 
L 342.023441 983.524337 
L 341.618612 978.445302 
L 342.163356 975.991392 
L 343.310515 975.400018 
L 344.297065 973.578725 
L 344.794465 971.221661 
L 344.179222 968.399638 
L 344.464826 964.557183 
L 345.070353 963.014634 
L 345.826212 961.997388 
L 347.899744 960.511434 
L 348.840461 959.284286 
L 349.212198 957.483701 
L 347.574631 954.506661 
L 346.801952 952.925056 
L 346.278162 948.903487 
L 345.47331 944.978141 
L 343.061879 940.325782 
L 341.695828 936.596614 
L 341.574131 933.936683 
L 338.339589 931.581994 
L 328.047546 927.971964 
L 316.648116 925.876002 
L 311.934749 924.814188 
L 307.022545 922.911538 
L 302.314819 922.847977 
L 299.208848 924.758626 
L 292.659966 929.867652 
L 287.724277 931.590134 
L 277.349484 931.944018 
L 254.15938 935.100237 
L 253.108737 935.379043 
L 249.028448 933.743612 
L 245.195732 933.864258 
L 241.006774 935.494052 
L 239.314795 937.087593 
" clip-path="url(#pf53dad2894)" style="fill: none; stroke: #28c23f"/>
    <path d="M 243.918804 1063.026949 
L 244.2127 1059.97844 
L 243.80714 1052.917581 
L 244.011587 1052.605636 
" clip-path="url(#pf53dad2894)" style="fill: none; stroke: #28c23f"/>
    <path d="M 491.134901 674.546415 
L 483.06425 694.087991 
L 478.918018 700.32602 
" clip-path="url(#pf53dad2894)" style="fill: none; stroke: #28c23f"/>
    <path d="M 499.090882 654.373548 
L 499.64272 657.47403 
L 492.431198 671.594381 
" clip-path="url(#pf53dad2894)" style="fill: none; stroke: #28c23f"/>
    <path d="M 490.108568 635.931293 
L 493.817542 640.686583 
L 498.485913 650.974519 
L 499.090882 654.373548 
" clip-path="url(#pf53dad2894)" style="fill: none; stroke: #28c23f"/>
    <path d="M 490.652321 603.881846 
L 487.224162 615.655416 
" clip-path="url(#pf53dad2894)" style="fill: none; stroke: #28c23f"/>
    <path d="M 484.732253 622.75583 
L 484.157411 624.393527 
L 485.002306 628.083004 
" clip-path="url(#pf53dad2894)" style="fill: none; stroke: #28c23f"/>
    <path d="M 493.778285 580.87806 
L 493.418588 587.825261 
L 491.612379 596.260664 
L 491.062238 598.691056 
L 491.695413 600.299392 
L 490.652321 603.881846 
" clip-path="url(#pf53dad2894)" style="fill: none; stroke: #28c23f"/>
    <path d="M 493.932703 565.692272 
L 493.889916 578.721988 
L 493.778285 580.87806 
" clip-path="url(#pf53dad2894)" style="fill: none; stroke: #28c23f"/>
    <path d="M 492.669306 543.825398 
L 492.174007 546.573893 
L 493.970013 554.328048 
L 493.932703 565.692272 
" clip-path="url(#pf53dad2894)" style="fill: none; stroke: #28c23f"/>
    <path d="M 493.73425 537.915764 
L 492.669306 543.825398 
" clip-path="url(#pf53dad2894)" style="fill: none; stroke: #28c23f"/>
    <path d="M 504.343771 507.788599 
L 504.3586 507.826382 
L 503.095628 513.555365 
L 500.397015 518.531648 
L 499.087777 519.209655 
" clip-path="url(#pf53dad2894)" style="fill: none; stroke: #28c23f"/>
    <path d="M 518.768012 468.534955 
L 517.56864 480.563187 
L 515.880188 486.333934 
" clip-path="url(#pf53dad2894)" style="fill: none; stroke: #28c23f"/>
    <path d="M 526.793367 451.224577 
L 522.731638 456.860853 
L 520.329445 460.666197 
" clip-path="url(#pf53dad2894)" style="fill: none; stroke: #28c23f"/>
    <path d="M 538.097251 435.248436 
L 537.796267 437.699132 
L 537.069807 440.240695 
L 535.85098 442.494086 
L 534.311604 444.120817 
L 532.499007 445.71504 
L 530.85585 447.196471 
" clip-path="url(#pf53dad2894)" style="fill: none; stroke: #28c23f"/>
    <path d="M 528.138879 449.646004 
L 527.545276 450.181174 
L 526.793367 451.224577 
" clip-path="url(#pf53dad2894)" style="fill: none; stroke: #28c23f"/>
    <path d="M 535.194595 421.760713 
L 535.578451 422.297196 
L 537.315207 424.951303 
L 538.311899 429.52362 
L 538.317855 433.452199 
L 538.290195 433.677419 
" clip-path="url(#pf53dad2894)" style="fill: none; stroke: #28c23f"/>
    <path d="M 547.653666 371.608641 
L 546.749621 377.244747 
L 543.685684 387.351984 
L 543.115971 388.308385 
" clip-path="url(#pf53dad2894)" style="fill: none; stroke: #28c23f"/>
    <path d="M 561.949214 279.100255 
L 562.494417 280.289405 
L 562.95874 283.327014 
L 562.73717 284.011071 
L 562.493471 284.76303 
" clip-path="url(#pf53dad2894)" style="fill: none; stroke: #28c23f"/>
    <path d="M 560.214631 292.105652 
L 560.06205 292.464889 
L 560.312713 292.846324 
L 558.961439 296.727283 
L 558.444628 296.638146 
L 557.616814 298.854991 
L 557.161811 299.980845 
L 556.610655 299.810954 
L 555.975235 301.266667 
L 556.154599 301.357929 
L 555.036748 303.306335 
L 554.98939 304.577804 
L 555.435602 304.614179 
L 555.392152 305.231165 
" clip-path="url(#pf53dad2894)" style="fill: none; stroke: #28c23f"/>
    <path d="M 582.601524 1594.110333 
L 582.531515 1594.105392 
L 581.208135 1592.992691 
L 580.073122 1591.481299 
L 578.994455 1589.844178 
L 577.793479 1585.44238 
" clip-path="url(#pf53dad2894)" style="fill: none; stroke: #28c23f"/>
    <path d="M 606.782459 1594.494233 
L 604.763859 1594.606814 
" clip-path="url(#pf53dad2894)" style="fill: none; stroke: #28c23f"/>
    <path d="M 577.793479 1585.44238 
L 577.754717 1585.300312 
L 577.008648 1583.13382 
L 576.746797 1582.691784 
" clip-path="url(#pf53dad2894)" style="fill: none; stroke: #28c23f"/>
    <path d="M 576.746797 1582.691784 
L 575.691426 1580.910175 
L 574.890448 1580.095195 
L 574.125556 1579.483396 
L 573.041127 1577.61018 
L 572.264043 1575.54657 
L 571.535135 1573.695973 
L 570.888631 1572.00169 
L 568.816895 1569.545949 
L 566.890313 1567.723503 
" clip-path="url(#pf53dad2894)" style="fill: none; stroke: #28c23f"/>
    <path d="M 560.527082 1560.606463 
L 560.490656 1560.593678 
" clip-path="url(#pf53dad2894)" style="fill: none; stroke: #28c23f"/>
    <path d="M 560.490656 1560.593678 
L 560.006044 1560.423587 
L 559.348885 1559.69534 
L 558.783801 1558.043404 
" clip-path="url(#pf53dad2894)" style="fill: none; stroke: #28c23f"/>
    <path d="M 552.571246 1546.604782 
L 552.186585 1546.293118 
L 549.655905 1543.793608 
L 547.278448 1542.259147 
L 546.384319 1541.119273 
L 545.314314 1538.103728 
L 544.547926 1535.139951 
" clip-path="url(#pf53dad2894)" style="fill: none; stroke: #28c23f"/>
    <path d="M 512.519498 1505.042286 
L 512.430491 1505.045276 
L 509.876811 1504.159099 
L 508.18434 1502.062882 
L 507.411733 1499.9883 
" clip-path="url(#pf53dad2894)" style="fill: none; stroke: #28c23f"/>
    <path d="M 518.913612 1504.827423 
L 512.519498 1505.042286 
" clip-path="url(#pf53dad2894)" style="fill: none; stroke: #28c23f"/>
    <path d="M 541.403515 1520.571116 
L 539.738342 1514.717056 
L 538.086185 1512.205514 
L 533.396518 1507.201311 
L 532.642428 1506.747648 
" clip-path="url(#pf53dad2894)" style="fill: none; stroke: #28c23f"/>
    <path d="M 254.938056 103.566711 
L 254.873129 103.86643 
L 249.173106 114.32339 
L 251.135528 130.165869 
" clip-path="url(#pf53dad2894)" style="fill: none; stroke: #28c23f"/>
    <path d="M 262.454162 138.628104 
L 262.59707 138.504733 
L 266.861445 139.282891 
L 266.954632 139.756493 
L 270.436335 140.686214 
L 272.502095 141.622217 
L 272.670393 141.842993 
" clip-path="url(#pf53dad2894)" style="fill: none; stroke: #28c23f"/>
    <path d="M 276.879429 143.196652 
L 277.872175 142.639291 
L 280.612794 144.34854 
L 282.084659 146.438141 
" clip-path="url(#pf53dad2894)" style="fill: none; stroke: #28c23f"/>
    <path d="M 314.401528 148.154423 
L 314.878717 148.095963 
L 332.153434 141.533735 
L 332.746632 141.48088 
" clip-path="url(#pf53dad2894)" style="fill: none; stroke: #28c23f"/>
    <path d="M 332.746632 141.48088 
L 332.96188 141.461701 
L 358.080477 144.412107 
" clip-path="url(#pf53dad2894)" style="fill: none; stroke: #28c23f"/>
    <path d="M 358.080477 144.412107 
L 361.201911 144.77868 
L 368.36282 145.964701 
L 368.755505 146.172344 
" clip-path="url(#pf53dad2894)" style="fill: none; stroke: #28c23f"/>
    <path d="M 377.469889 156.216192 
L 384.748289 154.80033 
L 388.028081 155.965825 
L 391.446561 157.179422 
L 396.096815 154.763896 
L 400.126763 155.575602 
L 402.336108 156.488343 
" clip-path="url(#pf53dad2894)" style="fill: none; stroke: #28c23f"/>
    <path d="M 402.336108 156.488343 
L 404.526422 157.393211 
L 406.921931 158.754214 
L 408.071691 160.045778 
L 408.977134 161.985415 
L 409.359797 163.825883 
L 408.746839 164.748835 
L 407.422101 164.889147 
L 405.38443 165.172767 
L 404.614094 166.367744 
L 404.947012 167.805271 
L 405.824487 169.186728 
L 407.179518 170.155636 
L 408.75041 170.134465 
L 411.380185 169.465481 
L 412.827886 166.816851 
L 414.818649 162.873524 
" clip-path="url(#pf53dad2894)" style="fill: none; stroke: #28c23f"/>
    <path d="M 446.919188 176.235759 
L 448.372498 176.561925 
L 449.029181 175.158506 
L 450.999775 175.709131 
L 453.10377 176.546595 
L 454.595251 177.392351 
L 454.262985 178.212826 
L 454.430404 178.557941 
L 457.800776 180.479114 
L 458.622492 181.257712 
L 459.002108 181.793634 
L 459.536845 183.275884 
L 461.889187 186.222602 
" clip-path="url(#pf53dad2894)" style="fill: none; stroke: #28c23f"/>
    <path d="M 468.800108 196.288821 
L 472.085735 199.349351 
" clip-path="url(#pf53dad2894)" style="fill: none; stroke: #28c23f"/>
    <path d="M 484.582341 207.008309 
L 484.700798 207.088704 
L 485.488394 205.728455 
L 485.881418 205.931793 
L 486.304464 206.149717 
L 485.625456 207.537231 
L 485.815263 207.647113 
L 485.417324 208.336041 
L 485.80815 208.56565 
L 487.688973 209.58598 
L 493.465417 212.721339 
L 495.047686 213.841927 
L 495.918113 214.687294 
L 497.288513 216.330585 
L 497.806424 216.004894 
L 498.346717 216.835608 
" clip-path="url(#pf53dad2894)" style="fill: none; stroke: #28c23f"/>
    <path d="M 475.016238 201.957614 
L 477.679028 204.190806 
" clip-path="url(#pf53dad2894)" style="fill: none; stroke: #28c23f"/>
    <path d="M 504.577471 218.865786 
L 505.020927 219.672894 
L 505.568528 220.838789 
L 506.420023 224.358498 
L 512.141697 222.64733 
L 512.043163 222.232563 
L 511.498342 221.271566 
L 511.464811 220.727815 
" clip-path="url(#pf53dad2894)" style="fill: none; stroke: #28c23f"/>
    <path d="M 511.123165 218.548392 
L 511.092948 217.036022 
L 516.950793 216.87993 
L 518.888289 217.239622 
L 522.163571 218.845627 
L 529.52206 222.873778 
L 534.400409 223.686216 
" clip-path="url(#pf53dad2894)" style="fill: none; stroke: #28c23f"/>
    <path d="M 534.400409 223.686216 
L 534.521748 223.706423 
L 534.592607 224.090325 
L 534.727735 224.313403 
L 535.15437 224.542494 
L 535.596283 224.517711 
L 535.97978 224.33378 
L 549.462786 233.912334 
L 549.464856 234.437129 
L 549.783085 234.776407 
L 550.342347 234.919951 
L 550.772914 234.812842 
L 552.214413 236.62588 
" clip-path="url(#pf53dad2894)" style="fill: none; stroke: #28c23f"/>
    <path d="M 552.214413 236.62588 
L 552.466296 236.942684 
L 554.140729 237.625768 
L 554.872757 237.130907 
L 555.147273 237.575746 
L 555.333357 237.474481 
L 555.523923 237.389399 
L 555.383232 236.885246 
L 556.417093 236.030119 
L 557.241823 236.268738 
L 557.303102 236.370342 
" clip-path="url(#pf53dad2894)" style="fill: none; stroke: #28c23f"/>
    <path d="M 557.303102 236.370342 
L 559.2473 239.593884 
L 561.01188 243.309694 
L 562.34904 247.361248 
L 561.557463 250.102427 
L 559.011243 251.285681 
L 560.548266 254.731768 
" clip-path="url(#pf53dad2894)" style="fill: none; stroke: #28c23f"/>
    <path d="M 560.548266 254.731768 
L 563.64011 261.663727 
L 563.931485 263.212959 
L 563.967981 264.631981 
L 563.791593 269.086228 
" clip-path="url(#pf53dad2894)" style="fill: none; stroke: #28c23f"/>
    <path d="M 563.791593 269.086228 
L 563.75781 269.939323 
L 562.585561 272.203383 
L 562.474318 272.418586 
L 562.116513 273.110758 
L 559.215917 271.822203 
L 559.151049 271.628157 
L 559.026916 271.462414 
L 558.858276 271.344765 
L 558.661455 271.284983 
L 558.454431 271.289069 
L 558.05814 271.038334 
L 557.645062 271.61505 
L 557.92442 271.852392 
L 557.932339 272.057214 
L 558.004858 272.249905 
L 558.148707 272.424125 
L 558.343726 272.538914 
L 558.566703 272.579595 
L 558.665332 272.563249 
L 560.072442 275.124349 
L 561.727529 278.616733 
L 561.949214 279.100255 
" clip-path="url(#pf53dad2894)" style="fill: none; stroke: #28c23f"/>
    <path d="M 555.392152 305.231165 
L 555.364254 305.627314 
L 554.638751 305.608508 
L 554.638953 305.872166 
L 554.220503 305.871648 
L 554.216409 306.132866 
L 554.457596 306.133312 
L 554.431841 311.534339 
L 554.335042 312.642022 
" clip-path="url(#pf53dad2894)" style="fill: none; stroke: #28c23f"/>
    <path d="M 410.439738 840.146051 
L 413.43156 844.697501 
L 415.710062 850.865876 
L 418.024105 859.731566 
L 419.751243 868.46021 
L 420.898447 877.634014 
L 422.057035 880.50463 
" clip-path="url(#pf53dad2894)" style="fill: none; stroke: #28c23f"/>
    <path d="M 422.057035 880.50463 
L 423.093943 883.073738 
L 425.695528 887.062237 
L 426.441134 888.651616 
L 426.890224 891.275883 
L 427.286059 893.745922 
L 427.810518 894.306147 
L 428.745958 894.602167 
L 432.268543 894.966983 
L 436.639432 896.817298 
L 440.929966 900.420554 
L 444.170039 902.852149 
L 446.249086 905.210706 
L 447.032761 907.970387 
L 447.938957 913.734853 
L 448.219775 919.169504 
" clip-path="url(#pf53dad2894)" style="fill: none; stroke: #28c23f"/>
    <path d="M 432.483363 787.573811 
L 432.517597 788.318528 
L 431.63533 792.266561 
L 429.091581 796.015846 
L 424.882528 800.48609 
L 417.914152 806.201831 
L 417.722894 806.406453 
" clip-path="url(#pf53dad2894)" style="fill: none; stroke: #28c23f"/>
    <path d="M 478.918018 700.32602 
L 475.934386 704.814823 
L 474.53742 707.382725 
" clip-path="url(#pf53dad2894)" style="fill: none; stroke: #28c23f"/>
    <path d="M 474.53742 707.382725 
L 465.801375 723.440796 
L 463.008499 725.321747 
L 462.616473 725.357027 
" clip-path="url(#pf53dad2894)" style="fill: none; stroke: #28c23f"/>
    <path d="M 448.219775 919.169504 
L 448.322435 921.156255 
" clip-path="url(#pf53dad2894)" style="fill: none; stroke: #28c23f"/>
    <path d="M 452.732028 934.152552 
L 452.810888 934.324192 
L 454.536402 939.104156 
L 460.70334 954.618241 
" clip-path="url(#pf53dad2894)" style="fill: none; stroke: #28c23f"/>
    <path d="M 463.763629 962.316686 
L 466.01032 967.968334 
" clip-path="url(#pf53dad2894)" style="fill: none; stroke: #28c23f"/>
    <path d="M 467.471266 969.918558 
L 468.439036 970.889641 
L 470.544479 973.537664 
L 472.116977 975.886764 
L 473.631956 980.473351 
L 473.82274 985.987569 
L 473.802934 986.011901 
" clip-path="url(#pf53dad2894)" style="fill: none; stroke: #28c23f"/>
    <path d="M 473.802934 986.011901 
L 473.125435 986.844224 
L 473.726823 990.742193 
L 474.076437 991.702011 
" clip-path="url(#pf53dad2894)" style="fill: none; stroke: #28c23f"/>
    <path d="M 474.915862 994.006533 
L 475.555704 995.763115 
L 480.407869 1005.864961 
L 480.381907 1005.916705 
" clip-path="url(#pf53dad2894)" style="fill: none; stroke: #28c23f"/>
    <path d="M 493.062212 1017.927055 
L 495.809063 1018.661235 
L 498.20718 1020.164347 
L 499.855256 1021.84509 
L 501.403544 1024.402535 
" clip-path="url(#pf53dad2894)" style="fill: none; stroke: #28c23f"/>
    <path d="M 694.512163 1485.700042 
L 693.25065 1489.501582 
L 691.92463 1492.997489 
L 690.210271 1496.560654 
" clip-path="url(#pf53dad2894)" style="fill: none; stroke: #28c23f"/>
    <path d="M 690.086092 1424.285661 
L 694.91872 1436.408608 
L 695.364609 1437.658222 
L 696.041469 1438.793901 
" clip-path="url(#pf53dad2894)" style="fill: none; stroke: #28c23f"/>
    <path d="M 686.95417 1417.426625 
L 687.643032 1420.047916 
L 689.811896 1423.597808 
L 690.086092 1424.285661 
" clip-path="url(#pf53dad2894)" style="fill: none; stroke: #28c23f"/>
    <path d="M 677.637332 1404.127021 
L 679.446622 1406.828791 
L 679.662831 1407.001796 
" clip-path="url(#pf53dad2894)" style="fill: none; stroke: #28c23f"/>
    <path d="M 686.289257 1414.384904 
L 687.184179 1416.138174 
L 686.831943 1416.961518 
L 686.95417 1417.426625 
" clip-path="url(#pf53dad2894)" style="fill: none; stroke: #28c23f"/>
    <path d="M 628.975903 1203.283075 
L 630.101464 1204.436637 
L 631.8364 1208.151393 
L 632.110303 1210.375322 
" clip-path="url(#pf53dad2894)" style="fill: none; stroke: #28c23f"/>
    <path d="M 615.878215 1180.032661 
L 616.702981 1180.723433 
L 619.176836 1188.603617 
" clip-path="url(#pf53dad2894)" style="fill: none; stroke: #28c23f"/>
    <path d="M 603.071137 1170.704965 
L 605.595116 1168.755558 
L 607.657171 1168.909634 
L 608.864286 1170.125094 
L 609.14977 1172.56499 
" clip-path="url(#pf53dad2894)" style="fill: none; stroke: #28c23f"/>
    <path d="M 595.007916 1166.812484 
L 596.012756 1168.224661 
" clip-path="url(#pf53dad2894)" style="fill: none; stroke: #28c23f"/>
    <path d="M 590.06318 1161.375776 
L 590.516849 1161.695682 
" clip-path="url(#pf53dad2894)" style="fill: none; stroke: #28c23f"/>
    <path d="M 590.516849 1161.695682 
L 590.689839 1161.817666 
" clip-path="url(#pf53dad2894)" style="fill: none; stroke: #28c23f"/>
    <path d="M 590.689839 1161.817666 
L 592.22325 1162.898947 
L 594.260726 1165.762398 
" clip-path="url(#pf53dad2894)" style="fill: none; stroke: #28c23f"/>
    <path d="M 574.708507 1130.363956 
L 576.731721 1131.876286 
L 576.88663 1132.279663 
" clip-path="url(#pf53dad2894)" style="fill: none; stroke: #28c23f"/>
    <path d="M 689.652058 1497.475493 
L 687.981986 1499.581095 
L 686.235484 1501.017309 
L 686.088311 1501.080323 
" clip-path="url(#pf53dad2894)" style="fill: none; stroke: #28c23f"/>
    <path d="M 690.210271 1496.560654 
L 689.952144 1497.097147 
L 689.652058 1497.475493 
" clip-path="url(#pf53dad2894)" style="fill: none; stroke: #28c23f"/>
    <path d="M 657.483179 1544.30098 
L 655.601203 1546.293028 
" clip-path="url(#pf53dad2894)" style="fill: none; stroke: #28c23f"/>
    <path d="M 643.916262 1567.544252 
L 643.66096 1567.876169 
" clip-path="url(#pf53dad2894)" style="fill: none; stroke: #28c23f"/>
    <path d="M 643.66096 1567.876169 
L 643.219879 1568.449618 
L 641.007396 1574.068136 
L 640.935321 1574.414007 
L 641.041142 1574.657459 
L 641.087324 1575.034186 
L 640.887214 1575.383072 
L 641.101854 1576.087356 
L 640.987467 1577.327239 
L 640.317844 1578.612268 
L 640.123229 1578.554975 
L 639.680389 1579.228046 
" clip-path="url(#pf53dad2894)" style="fill: none; stroke: #28c23f"/>
    <path d="M 639.162575 1580.233477 
L 637.969159 1581.550243 
" clip-path="url(#pf53dad2894)" style="fill: none; stroke: #28c23f"/>
    <path d="M 637.969159 1581.550243 
L 636.353606 1583.332765 
L 633.830862 1585.344335 
L 632.234993 1586.101718 
" clip-path="url(#pf53dad2894)" style="fill: none; stroke: #28c23f"/>
    <path d="M 631.284954 1586.552597 
L 631.157662 1586.613019 
" clip-path="url(#pf53dad2894)" style="fill: none; stroke: #28c23f"/>
    <path d="M 631.157662 1586.613019 
L 631.053462 1586.66248 
" clip-path="url(#pf53dad2894)" style="fill: none; stroke: #28c23f"/>
    <path d="M 631.053462 1586.66248 
L 627.264051 1588.461189 
" clip-path="url(#pf53dad2894)" style="fill: none; stroke: #28c23f"/>
    <path d="M 619.647879 1592.415547 
L 619.592265 1592.444231 
" clip-path="url(#pf53dad2894)" style="fill: none; stroke: #28c23f"/>
    <path d="M 611.313812 1594.215073 
L 608.848583 1594.596298 
L 606.88917 1594.488282 
L 606.782459 1594.494233 
" clip-path="url(#pf53dad2894)" style="fill: none; stroke: #28c23f"/>
    <path d="M 141.995015 742.088553 
L 143.397751 738.644587 
L 145.184999 734.001614 
L 146.449494 730.272649 
L 149.445505 727.816828 
L 154.052281 722.945766 
L 159.393619 718.953488 
L 163.22425 715.122158 
L 163.30435 714.992593 
" clip-path="url(#pf53dad2894)" style="fill: none; stroke: #28c23f"/>
    <path d="M 189.088984 1123.948946 
L 189.791238 1123.336527 
L 190.444719 1122.418273 
L 191.908322 1121.269459 
L 193.768194 1118.394806 
L 195.495107 1116.701469 
L 198.202397 1114.554152 
L 202.459708 1112.189012 
L 205.085299 1111.163587 
L 207.045939 1110.506771 
L 211.890788 1106.045842 
L 214.34821 1103.416906 
" clip-path="url(#pf53dad2894)" style="fill: none; stroke: #28c23f"/>
    <path d="M 147.966739 1156.428191 
L 148.815953 1154.525983 
L 150.641353 1150.885933 
L 153.224588 1148.465727 
" clip-path="url(#pf53dad2894)" style="fill: none; stroke: #28c23f"/>
    <path d="M 147.986188 1163.382291 
L 148.089404 1162.853716 
L 146.519088 1162.770522 
L 146.528351 1161.650807 
L 147.700774 1161.584256 
L 148.116396 1159.722515 
" clip-path="url(#pf53dad2894)" style="fill: none; stroke: #28c23f"/>
    <path d="M 157.786036 1198.42961 
L 157.11028 1196.232383 
L 157.058755 1195.669095 
" clip-path="url(#pf53dad2894)" style="fill: none; stroke: #28c23f"/>
    <path d="M 181.12954 1236.455732 
L 180.900152 1235.872536 
L 170.770043 1217.483293 
L 168.577403 1214.461872 
L 165.90215 1211.53423 
L 161.670137 1208.000931 
L 159.16217 1205.071074 
L 158.653086 1202.033839 
L 158.569535 1201.644056 
" clip-path="url(#pf53dad2894)" style="fill: none; stroke: #28c23f"/>
    <path d="M 191.498474 1256.371717 
L 189.444517 1254.018791 
L 184.88181 1245.995359 
L 183.202098 1241.724961 
" clip-path="url(#pf53dad2894)" style="fill: none; stroke: #28c23f"/>
    <path d="M 340.105162 1379.676955 
L 340.067168 1379.682099 
L 337.987176 1378.993874 
L 335.669883 1377.665293 
L 335.033414 1377.176466 
L 333.624737 1375.813262 
L 332.571604 1375.187542 
L 330.217415 1373.074719 
L 327.346487 1369.847933 
L 324.774858 1365.763705 
L 320.460973 1360.578087 
L 316.98642 1357.291387 
" clip-path="url(#pf53dad2894)" style="fill: none; stroke: #28c23f"/>
    <path d="M 428.663792 1452.305225 
L 424.817198 1449.775784 
L 421.402707 1447.321443 
L 415.801517 1441.281586 
L 406.903898 1433.424199 
L 402.831385 1429.509147 
L 392.888253 1424.885715 
L 385.731106 1420.674598 
L 379.519122 1415.197435 
L 373.294168 1409.381763 
L 370.510669 1406.272695 
L 368.42279 1401.88101 
L 367.724796 1400.243454 
L 367.279114 1397.814055 
L 367.107358 1396.206937 
L 364.849316 1393.128296 
L 362.965308 1389.932181 
L 360.781274 1386.70384 
L 358.124249 1384.678885 
L 352.837158 1382.577879 
L 351.209088 1381.663733 
L 349.508276 1380.863014 
L 348.553615 1379.751179 
L 347.851868 1379.344228 
" clip-path="url(#pf53dad2894)" style="fill: none; stroke: #28c23f"/>
    <path d="M 448.053529 1460.679054 
L 446.290982 1461.173086 
L 445.26151 1461.621834 
L 441.414513 1459.390857 
L 434.880573 1456.054026 
L 429.932018 1453.122219 
" clip-path="url(#pf53dad2894)" style="fill: none; stroke: #28c23f"/>
    <path d="M 470.607347 1477.103946 
L 469.174382 1475.866922 
L 464.599647 1472.232691 
L 463.699452 1471.358989 
" clip-path="url(#pf53dad2894)" style="fill: none; stroke: #28c23f"/>
    <path d="M 543.650224 1530.621374 
L 543.40021 1529.04314 
L 542.642354 1525.756499 
" clip-path="url(#pf53dad2894)" style="fill: none; stroke: #28c23f"/>
    <path d="M 558.783801 1558.043404 
L 558.631524 1557.598246 
" clip-path="url(#pf53dad2894)" style="fill: none; stroke: #28c23f"/>
    <path d="M 561.264809 1560.865393 
L 560.527082 1560.606463 
" clip-path="url(#pf53dad2894)" style="fill: none; stroke: #28c23f"/>
    <path d="M 549.81429 357.323161 
L 549.909727 357.54318 
L 547.653666 371.608641 
" clip-path="url(#pf53dad2894)" style="fill: none; stroke: #28c23f"/>
    <path d="M 171.132672 122.702156 
L 170.711844 122.447675 
L 170.788683 121.875612 
L 171.582108 119.880879 
L 172.730707 118.404196 
" clip-path="url(#pf53dad2894)" style="fill: none; stroke: #28c23f"/>
    <path d="M 86.835949 160.696478 
L 86.923718 160.641643 
L 87.232572 161.788482 
L 87.424044 162.819388 
L 87.861327 163.489722 
L 87.986196 164.18161 
L 87.93303 165.073244 
L 88.421703 165.632947 
L 88.959555 165.780902 
L 89.489559 165.784009 
L 90.114989 165.65592 
L 90.821313 165.261869 
L 91.194722 164.623482 
L 91.253421 164.026674 
L 91.046298 163.430824 
L 90.55573 163.118562 
L 89.80538 163.009608 
L 89.404033 162.678691 
L 89.203776 162.086499 
L 89.110067 161.235511 
L 89.154555 160.135311 
L 89.38597 159.716196 
L 89.806194 159.40209 
L 93.018077 157.679655 
L 92.936445 157.364575 
L 92.699157 157.135241 
L 93.330447 156.672188 
L 94.062032 156.32154 
L 94.132352 156.553045 
L 94.311997 156.739394 
L 94.683584 156.682078 
L 95.880525 155.819299 
L 96.345357 155.79076 
L 96.545349 155.641958 
L 96.688579 155.321454 
L 97.392663 154.887439 
L 98.207136 154.555702 
L 99.281034 154.910349 
L 100.176228 155.019906 
L 100.968054 154.912133 
L 101.587849 154.482959 
L 101.97033 153.888183 
L 101.919738 153.405258 
L 101.521717 153.068057 
L 100.759918 152.864298 
L 100.693226 152.519035 
L 101.060164 152.235604 
L 102.199879 151.755927 
L 103.99004 150.060693 
L 107.514401 147.870528 
L 110.478547 146.62857 
L 112.536071 145.184741 
L 114.506478 142.287541 
L 114.510607 142.277491 
L 114.739647 141.547255 
L 114.74517 141.513444 
L 114.576862 140.432261 
L 114.582401 140.3997 
L 114.601076 139.740932 
L 114.598358 139.728472 
L 115.181682 135.915923 
L 115.193413 135.900776 
L 116.081834 135.558055 
L 116.104818 135.556505 
L 116.682392 135.027902 
L 116.690043 135.026553 
L 117.168348 134.660439 
L 117.165711 134.654225 
L 117.271673 134.351697 
L 117.272541 134.352935 
L 117.23673 133.89356 
L 116.82301 132.287009 
L 116.479434 130.963196 
L 116.477307 130.930735 
L 116.311069 129.289717 
L 116.323011 129.29081 
L 112.4605 122.719692 
L 113.310592 122.117563 
L 113.685104 121.894006 
L 116.020044 125.266144 
L 119.097996 128.577349 
L 125.553127 134.227394 
L 128.369203 136.07248 
L 127.665995 137.092566 
L 128.791331 137.863851 
L 129.494538 136.843764 
L 139.457875 142.53138 
" clip-path="url(#pf53dad2894)" style="fill: none; stroke: #28c23f"/>
    <path d="M 54.889095 189.330612 
L 57.18843 186.131254 
L 58.520192 184.114633 
" clip-path="url(#pf53dad2894)" style="fill: none; stroke: #28c23f"/>
    <path d="M 347.851868 1379.344228 
L 347.228823 1378.982916 
L 346.328096 1379.032437 
L 345.095564 1379.611199 
L 343.865261 1380.484822 
L 342.533706 1380.29643 
L 342.526382 1380.228824 
" clip-path="url(#pf53dad2894)" style="fill: none; stroke: #28c23f"/>
    <path d="M 518.909957 462.914801 
L 518.754083 463.161719 
L 519.169657 464.506841 
L 518.768012 468.534955 
" clip-path="url(#pf53dad2894)" style="fill: none; stroke: #28c23f"/>
    <path d="M 512.129978 486.499379 
L 510.033112 486.766297 
L 508.909834 486.034354 
L 506.700034 484.764895 
L 504.107151 488.667625 
L 503.787083 490.203957 
L 505.276004 492.559122 
L 505.814129 493.890087 
L 506.465624 496.096706 
L 506.623063 496.703103 
L 505.149821 500.509366 
L 504.667278 500.380982 
L 503.580466 501.201751 
L 503.185168 502.096827 
L 502.435001 501.847127 
L 502.284921 502.470207 
L 503.003825 502.740326 
L 502.933598 503.655968 
L 503.063958 504.527644 
L 504.343771 507.788599 
" clip-path="url(#pf53dad2894)" style="fill: none; stroke: #28c23f"/>
    <path d="M 515.880188 486.333934 
L 515.677536 487.026544 
" clip-path="url(#pf53dad2894)" style="fill: none; stroke: #28c23f"/>
    <path d="M 492.017061 672.410352 
L 491.134901 674.546415 
" clip-path="url(#pf53dad2894)" style="fill: none; stroke: #28c23f"/>
    <path d="M 439.435239 756.107419 
L 438.353532 758.962442 
L 438.010162 759.634388 
" clip-path="url(#pf53dad2894)" style="fill: none; stroke: #28c23f"/>
    <path d="M 560.713158 1117.129133 
L 560.937489 1117.822315 
" clip-path="url(#pf53dad2894)" style="fill: none; stroke: #28c23f"/>
    <path d="M 587.043164 1157.979635 
L 587.442156 1158.933751 
" clip-path="url(#pf53dad2894)" style="fill: none; stroke: #28c23f"/>
    <path d="M 632.325579 1212.123221 
L 632.416893 1212.864629 
" clip-path="url(#pf53dad2894)" style="fill: none; stroke: #28c23f"/>
    <path d="M 632.692275 1215.100533 
L 632.771718 1215.745549 
" clip-path="url(#pf53dad2894)" style="fill: none; stroke: #28c23f"/>
    <path d="M 632.905744 1216.833742 
L 634.59257 1230.529204 
L 640.359226 1237.549551 
" clip-path="url(#pf53dad2894)" style="fill: none; stroke: #28c23f"/>
    <path d="M 673.293917 1519.623333 
L 673.202586 1520.047393 
L 671.602014 1524.630418 
L 670.677211 1527.106048 
" clip-path="url(#pf53dad2894)" style="fill: none; stroke: #28c23f"/>
    <path d="M 650.765095 1553.697566 
L 650.595209 1554.289519 
" clip-path="url(#pf53dad2894)" style="fill: none; stroke: #28c23f"/>
    <path d="M 594.486633 1592.850644 
L 594.296813 1592.785671 
L 593.335475 1592.702034 
" clip-path="url(#pf53dad2894)" style="fill: none; stroke: #28c23f"/>
    <path d="M 224.884477 1091.703579 
L 225.038879 1090.688084 
L 225.656985 1089.034276 
L 229.916225 1083.27765 
L 230.418491 1082.791829 
" clip-path="url(#pf53dad2894)" style="fill: none; stroke: #28c23f"/>
    <path d="M 116.458089 622.07416 
L 115.158958 621.527138 
L 114.68886 621.271393 
" clip-path="url(#pf53dad2894)" style="fill: none; stroke: #28c23f"/>
   </g>
   <g id="LineCollection_2">
    <path d="M 96.698903 327.505454 
L 96.322602 326.581984 
L 91.943845 319.373949 
L 89.009973 314.87616 
L 86.763091 310.907996 
L 84.776195 300.67864 
" clip-path="url(#pf53dad2894)" style="fill: none; stroke: #dbffe4"/>
    <path d="M 102.945467 356.041765 
L 102.353973 355.268505 
L 99.777451 349.758964 
L 99.294222 345.501734 
L 98.881975 341.197347 
L 98.627782 335.022802 
L 98.097374 330.937375 
L 96.698903 327.505454 
" clip-path="url(#pf53dad2894)" style="fill: none; stroke: #dbffe4"/>
    <path d="M 98.8566 383.606727 
L 99.330575 382.097268 
L 102.115665 382.012294 
L 106.306701 380.983077 
L 109.132646 379.585499 
L 110.293036 378.3733 
L 110.402998 377.458436 
L 109.659027 376.614675 
L 109.027413 375.039703 
L 109.377973 373.816811 
L 110.893188 372.822412 
L 111.809252 372.810477 
L 112.861522 373.832656 
L 113.950477 373.026241 
L 113.802422 371.01762 
L 112.999492 370.358317 
L 111.806721 370.653761 
L 111.262688 371.221904 
L 109.682524 369.061998 
L 108.460815 364.387044 
L 106.829603 361.119432 
L 102.945467 356.041765 
" clip-path="url(#pf53dad2894)" style="fill: none; stroke: #dbffe4"/>
    <path d="M 122.948385 410.632602 
L 122.137934 410.096539 
L 117.330022 407.493915 
L 113.374955 404.40406 
L 109.742564 402.330873 
L 104.515461 398.619007 
L 101.56659 394.703768 
L 100.823315 393.717537 
L 99.401879 388.232951 
L 98.46225 384.862604 
L 98.8566 383.606727 
" clip-path="url(#pf53dad2894)" style="fill: none; stroke: #dbffe4"/>
    <path d="M 117.048025 437.519971 
L 116.787652 435.000139 
L 117.673034 432.628171 
L 120.289113 429.828776 
L 126.179327 427.176586 
L 126.516029 423.650921 
L 127.631584 421.350909 
L 130.943684 419.118435 
L 132.750585 418.523789 
L 135.416899 418.012878 
L 136.069781 417.554506 
L 136.506958 416.113045 
L 136.158065 414.786817 
L 135.36587 413.976202 
L 134.613038 413.829841 
L 134.20776 413.928852 
L 133.989294 414.626463 
L 133.703772 415.214989 
L 132.638661 415.240146 
L 130.794813 415.028055 
L 128.205315 414.109693 
L 122.948385 410.632602 
" clip-path="url(#pf53dad2894)" style="fill: none; stroke: #dbffe4"/>
    <path d="M 104.79907 487.642518 
L 106.125503 486.414844 
L 110.38202 484.996145 
L 115.47964 483.297802 
L 119.611063 481.440827 
L 121.317798 481.126174 
L 123.719942 481.582172 
L 125.133487 481.271333 
L 126.683117 480.283952 
L 127.748867 479.385353 
L 127.835434 478.50703 
L 127.028855 476.664455 
L 126.050649 476.628487 
L 124.738305 477.181672 
L 122.786123 477.499536 
L 121.15962 476.448625 
L 119.52528 474.861749 
L 118.744802 473.05756 
L 118.480377 469.70968 
L 118.631087 464.597003 
L 118.736396 450.510555 
L 118.532515 445.791114 
L 117.487042 441.768654 
L 117.048025 437.519971 
" clip-path="url(#pf53dad2894)" style="fill: none; stroke: #dbffe4"/>
    <path d="M 102.754298 489.259961 
L 103.304654 489.025659 
L 104.79907 487.642518 
" clip-path="url(#pf53dad2894)" style="fill: none; stroke: #dbffe4"/>
    <path d="M 95.357929 518.18097 
L 96.535154 517.654957 
L 97.599898 516.540248 
L 97.488791 515.469569 
L 96.786626 514.11418 
L 96.265074 511.635584 
L 96.981599 506.556797 
L 98.776067 501.708901 
L 99.524863 492.953479 
L 99.868962 492.431477 
" clip-path="url(#pf53dad2894)" style="fill: none; stroke: #dbffe4"/>
    <path d="M 88.201648 522.450397 
L 88.335777 522.297433 
L 91.448711 520.958692 
L 94.351845 518.630512 
L 95.357929 518.18097 
" clip-path="url(#pf53dad2894)" style="fill: none; stroke: #dbffe4"/>
    <path d="M 90.64786 551.871755 
L 91.038347 550.52113 
L 94.233337 544.008131 
L 94.279815 542.992884 
L 93.790195 542.315739 
L 92.016391 541.484095 
L 89.218078 538.765176 
L 85.313792 535.629511 
L 84.628905 532.715683 
L 84.511921 530.477585 
" clip-path="url(#pf53dad2894)" style="fill: none; stroke: #dbffe4"/>
    <path d="M 88.209057 577.200108 
L 88.125912 576.953421 
L 88.317253 572.25634 
L 88.364838 571.951019 
" clip-path="url(#pf53dad2894)" style="fill: none; stroke: #dbffe4"/>
    <path d="M 176.753735 686.446802 
L 177.744307 681.369897 
L 178.989309 679.219571 
" clip-path="url(#pf53dad2894)" style="fill: none; stroke: #dbffe4"/>
    <path d="M 181.952075 904.921451 
L 179.9576 901.266572 
L 177.940848 897.665574 
L 174.203062 890.048581 
L 174.395041 887.906827 
L 174.931162 885.53564 
L 174.149291 884.061422 
L 173.318127 883.576247 
L 171.936199 883.502299 
" clip-path="url(#pf53dad2894)" style="fill: none; stroke: #dbffe4"/>
    <path d="M 144.712259 774.51691 
L 144.638773 773.438515 
L 144.590621 766.948949 
L 143.129144 762.202241 
L 142.599484 756.453706 
L 142.97653 752.677617 
L 143.024748 752.190909 
L 143.02837 751.801602 
" clip-path="url(#pf53dad2894)" style="fill: none; stroke: #dbffe4"/>
    <path d="M 198.726609 103.034788 
L 199.898709 102.496968 
L 210.915386 99.010467 
L 228.851491 105.135359 
L 234.379694 102.609396 
L 236.020749 96.566002 
L 233.717668 89.842494 
L 233.032546 82.803946 
L 233.049759 82.803177 
" clip-path="url(#pf53dad2894)" style="fill: none; stroke: #dbffe4"/>
    <path d="M 234.427457 83.274171 
L 234.604976 86.653096 
L 235.472618 90.547798 
L 238.203833 93.503169 
L 247.705825 89.081408 
L 253.873259 91.86501 
L 256.00595 98.636943 
L 255.727523 99.922265 
" clip-path="url(#pf53dad2894)" style="fill: none; stroke: #dbffe4"/>
    <path d="M 234.407279 82.890106 
L 234.427457 83.274171 
" clip-path="url(#pf53dad2894)" style="fill: none; stroke: #dbffe4"/>
    <path d="M 255.727523 99.922265 
L 254.938056 103.566711 
" clip-path="url(#pf53dad2894)" style="fill: none; stroke: #dbffe4"/>
    <path d="M 251.135528 130.165869 
L 253.155956 146.475926 
L 254.114806 146.308278 
L 254.60093 138.819389 
L 261.309975 139.32796 
" clip-path="url(#pf53dad2894)" style="fill: none; stroke: #dbffe4"/>
    <path d="M 261.309975 139.32796 
L 261.616561 139.351199 
L 262.454162 138.628104 
" clip-path="url(#pf53dad2894)" style="fill: none; stroke: #dbffe4"/>
    <path d="M 272.670393 141.842993 
L 273.902476 143.459245 
L 275.528729 143.954976 
L 276.879429 143.196652 
" clip-path="url(#pf53dad2894)" style="fill: none; stroke: #dbffe4"/>
    <path d="M 282.084659 146.438141 
L 282.498079 147.025069 
L 282.592003 150.117768 
L 281.913301 158.287758 
L 278.992769 159.779814 
L 276.949907 163.395725 
L 277.438617 166.640626 
L 278.536674 168.099289 
L 279.291191 168.775283 
L 280.763323 169.401756 
L 284.186464 169.117598 
L 285.95859 167.698267 
L 287.210752 165.429887 
L 287.413033 162.252029 
L 286.842907 158.20599 
L 288.728296 155.631788 
L 289.055402 155.476554 
" clip-path="url(#pf53dad2894)" style="fill: none; stroke: #dbffe4"/>
    <path d="M 297.214519 150.434283 
L 304.233948 149.399958 
L 314.401528 148.154423 
" clip-path="url(#pf53dad2894)" style="fill: none; stroke: #dbffe4"/>
    <path d="M 368.755505 146.172344 
L 372.103308 147.942565 
L 376.01226 148.314939 
L 375.589475 149.396051 
" clip-path="url(#pf53dad2894)" style="fill: none; stroke: #dbffe4"/>
    <path d="M 374.756931 150.753945 
L 373.048594 152.160943 
L 369.122987 148.771047 
L 367.366703 148.369756 
L 369.179937 153.015095 
L 373.235703 157.276697 
L 374.604976 156.773478 
L 377.469889 156.216192 
" clip-path="url(#pf53dad2894)" style="fill: none; stroke: #dbffe4"/>
    <path d="M 375.589475 149.396051 
L 375.201704 150.387625 
L 374.756931 150.753945 
" clip-path="url(#pf53dad2894)" style="fill: none; stroke: #dbffe4"/>
    <path d="M 461.889187 186.222602 
L 462.101669 186.488771 
L 468.160387 195.63224 
L 468.79034 196.279722 
L 468.800108 196.288821 
" clip-path="url(#pf53dad2894)" style="fill: none; stroke: #dbffe4"/>
    <path d="M 412.729203 811.749003 
L 405.484459 819.499644 
L 404.993441 821.038216 
L 406.507878 824.882725 
L 406.973523 826.844516 
L 407.922653 832.156119 
L 409.772684 839.131252 
L 410.439738 840.146051 
" clip-path="url(#pf53dad2894)" style="fill: none; stroke: #dbffe4"/>
    <path d="M 417.722894 806.406453 
L 412.729203 811.749003 
" clip-path="url(#pf53dad2894)" style="fill: none; stroke: #dbffe4"/>
    <path d="M 432.964146 774.069398 
L 431.871781 775.794129 
L 431.884648 779.716334 
L 432.372703 785.166587 
L 432.483363 787.573811 
" clip-path="url(#pf53dad2894)" style="fill: none; stroke: #dbffe4"/>
    <path d="M 281.539599 1318.617566 
L 278.97727 1316.842935 
" clip-path="url(#pf53dad2894)" style="fill: none; stroke: #dbffe4"/>
    <path d="M 233.049759 82.803177 
L 233.120873 82.8 
" clip-path="url(#pf53dad2894)" style="fill: none; stroke: #dbffe4"/>
    <path d="M 271.806138 1309.640644 
L 270.92967 1308.141612 
L 267.273116 1303.745408 
L 262.885861 1296.950979 
L 261.409987 1294.936251 
L 259.732397 1293.99505 
L 255.782133 1292.61158 
L 250.872982 1290.096178 
L 248.927477 1289.158492 
L 245.858841 1288.610504 
L 243.069598 1288.861021 
L 238.061834 1287.856281 
L 226.126307 1283.470372 
L 217.459514 1281.275403 
L 214.00491 1279.928894 
L 210.268581 1277.212823 
L 210.159303 1277.104932 
" clip-path="url(#pf53dad2894)" style="fill: none; stroke: #dbffe4"/>
    <path d="M 52.59507 193.332402 
L 53.280565 191.568742 
L 54.889095 189.330612 
" clip-path="url(#pf53dad2894)" style="fill: none; stroke: #dbffe4"/>
    <path d="M 81.714512 163.896136 
L 86.835949 160.696478 
" clip-path="url(#pf53dad2894)" style="fill: none; stroke: #dbffe4"/>
   </g>
   <g id="LineCollection_3">
    <path d="M 46.042779 251.394002 
L 45.923813 251.124585 
L 45.482434 249.215958 
L 45.451252 249.04517 
L 44.171704 243.273725 
L 43.797746 241.904483 
" clip-path="url(#pf53dad2894)" style="fill: none; stroke: #e9a23d"/>
    <path d="M 684.649904 1501.696198 
L 683.931215 1502.003913 
L 683.888516 1501.997483 
" clip-path="url(#pf53dad2894)" style="fill: none; stroke: #e9a23d"/>
    <path d="M 686.088311 1501.080323 
L 686.02243 1501.108531 
" clip-path="url(#pf53dad2894)" style="fill: none; stroke: #e9a23d"/>
    <path d="M 172.730707 118.404196 
L 173.168973 117.840742 
L 173.168628 117.814505 
L 177.113613 119.916975 
L 179.353187 119.117825 
L 181.574294 116.524523 
L 182.622148 115.157467 
L 179.627678 111.865447 
L 180.104122 111.649574 
" clip-path="url(#pf53dad2894)" style="fill: none; stroke: #e9a23d"/>
    <path d="M 623.907677 1198.088689 
L 628.975903 1203.283075 
" clip-path="url(#pf53dad2894)" style="fill: none; stroke: #e9a23d"/>
    <path d="M 683.888516 1501.997483 
L 679.691152 1501.365424 
L 678.518359 1501.692812 
L 677.250733 1502.412272 
" clip-path="url(#pf53dad2894)" style="fill: none; stroke: #e9a23d"/>
   </g>
   <g id="LineCollection_4">
    <path d="M 48.547975 203.744669 
L 50.073029 199.821089 
" clip-path="url(#pf53dad2894)" style="fill: none; stroke: #ec4243"/>
    <path d="M 46.994073 207.742412 
L 48.547975 203.744669 
" clip-path="url(#pf53dad2894)" style="fill: none; stroke: #ec4243"/>
    <path d="M 43.797746 241.904483 
L 40.789741 230.890507 
L 40.125105 225.617179 
L 40.259134 220.889584 
L 42.308425 216.868228 
L 44.004315 213.699284 
" clip-path="url(#pf53dad2894)" style="fill: none; stroke: #ec4243"/>
    <path d="M 51.862579 264.626372 
L 51.17104 263.551116 
L 48.858496 257.770555 
L 46.042779 251.394002 
" clip-path="url(#pf53dad2894)" style="fill: none; stroke: #ec4243"/>
    <path d="M 67.49663 279.963073 
L 66.335294 279.339163 
L 66.204543 279.268858 
" clip-path="url(#pf53dad2894)" style="fill: none; stroke: #ec4243"/>
    <path d="M 84.776195 300.67864 
L 84.716393 300.370755 
L 83.746021 299.146289 
L 82.909674 293.542851 
L 81.591443 290.729703 
L 79.307514 288.165258 
L 75.064187 284.794021 
L 70.055397 281.337719 
L 67.49663 279.963073 
" clip-path="url(#pf53dad2894)" style="fill: none; stroke: #ec4243"/>
    <path d="M 84.511921 530.477585 
L 84.470104 529.677564 
L 87.027194 524.409304 
" clip-path="url(#pf53dad2894)" style="fill: none; stroke: #ec4243"/>
    <path d="M 88.364838 571.951019 
L 90.430188 558.698656 
L 89.752281 557.900248 
L 89.852905 554.621345 
L 90.64786 551.871755 
" clip-path="url(#pf53dad2894)" style="fill: none; stroke: #ec4243"/>
    <path d="M 138.551844 625.773464 
L 133.105785 624.47694 
L 128.157162 624.082943 
L 118.878011 623.093101 
L 116.458089 622.07416 
" clip-path="url(#pf53dad2894)" style="fill: none; stroke: #ec4243"/>
    <path d="M 165.94983 626.429081 
L 165.294479 630.249975 
L 162.094301 636.738382 
L 159.237416 639.104979 
L 155.765013 638.874288 
L 147.259935 633.852372 
L 138.594108 625.783525 
L 138.551844 625.773464 
" clip-path="url(#pf53dad2894)" style="fill: none; stroke: #ec4243"/>
    <path d="M 190.197109 607.407056 
L 187.479949 611.04803 
L 185.602956 613.613045 
L 181.495494 615.786238 
L 179.195871 618.179345 
L 175.802056 620.681766 
L 170.183314 623.152118 
L 166.141237 625.313112 
L 165.94983 626.429081 
" clip-path="url(#pf53dad2894)" style="fill: none; stroke: #ec4243"/>
    <path d="M 216.008359 624.207022 
L 216.175215 623.147296 
L 215.401867 619.587492 
L 212.608632 609.61656 
L 211.594028 606.121158 
L 210.919815 604.711787 
L 209.770139 604.359559 
L 208.775241 604.49512 
L 207.380747 604.780889 
L 199.37277 603.519267 
L 194.583802 603.977114 
L 190.920151 606.438178 
L 190.197109 607.407056 
" clip-path="url(#pf53dad2894)" style="fill: none; stroke: #ec4243"/>
    <path d="M 201.766343 653.067032 
L 206.451039 647.753044 
L 208.409446 643.34005 
L 209.777365 637.664024 
L 211.190066 631.700004 
L 212.213251 629.048702 
L 213.593387 627.928405 
L 215.75823 625.795615 
L 216.008359 624.207022 
" clip-path="url(#pf53dad2894)" style="fill: none; stroke: #ec4243"/>
    <path d="M 180.033026 677.416886 
L 181.273714 675.273981 
" clip-path="url(#pf53dad2894)" style="fill: none; stroke: #ec4243"/>
    <path d="M 235.223876 938.56633 
L 235.182864 938.568651 
L 232.072893 936.511701 
L 228.228359 935.737724 
L 225.607141 936.522032 
L 218.872917 933.313237 
L 215.155811 930.813121 
L 213.91281 927.75684 
L 213.792511 924.775738 
L 214.414191 923.597967 
L 214.588677 923.11584 
L 213.867163 923.125343 
L 211.091029 922.442159 
L 205.84899 920.575084 
" clip-path="url(#pf53dad2894)" style="fill: none; stroke: #ec4243"/>
    <path d="M 205.84899 920.575084 
L 202.812251 919.493454 
L 195.117463 915.217444 
L 185.908031 908.874479 
L 182.36108 905.670949 
L 181.952075 904.921451 
" clip-path="url(#pf53dad2894)" style="fill: none; stroke: #ec4243"/>
    <path d="M 147.819415 812.055249 
L 147.021003 810.58166 
L 146.284209 806.020418 
L 146.521505 801.077823 
L 146.370596 798.863084 
L 146.001517 795.029274 
L 144.811547 792.203338 
L 142.631237 787.794659 
L 143.572387 784.242369 
L 145.091458 780.081486 
L 144.712259 774.51691 
" clip-path="url(#pf53dad2894)" style="fill: none; stroke: #ec4243"/>
    <path d="M 146.984947 838.145051 
L 147.037286 837.335671 
L 149.342404 830.338015 
L 149.345213 830.313806 
" clip-path="url(#pf53dad2894)" style="fill: none; stroke: #ec4243"/>
    <path d="M 149.345213 830.313806 
L 149.383795 829.98135 
L 151.569584 821.428299 
L 150.692112 817.656122 
L 149.86797 817.439481 
L 147.973604 812.339826 
L 147.819415 812.055249 
" clip-path="url(#pf53dad2894)" style="fill: none; stroke: #ec4243"/>
    <path d="M 244.011587 1052.605636 
L 246.040907 1049.509273 
L 246.77852 1048.383674 
L 247.408415 1047.564388 
L 246.611915 1047.010118 
L 247.384144 1045.599163 
L 249.656411 1044.267089 
L 250.528396 1043.174696 
L 249.432424 1042.23203 
L 250.293417 1041.14728 
L 250.31258 1041.140188 
" clip-path="url(#pf53dad2894)" style="fill: none; stroke: #ec4243"/>
    <path d="M 236.680994 1075.887113 
L 237.823328 1075.621005 
L 239.526044 1075.7947 
L 240.190778 1075.737189 
L 240.677146 1075.288423 
L 241.00999 1074.326871 
L 241.023688 1073.49074 
L 241.290209 1073.192325 
L 243.525405 1072.597999 
L 243.790306 1072.177149 
L 243.931275 1071.610489 
L 244.295773 1071.237055 
L 245.413138 1070.954885 
L 246.380581 1070.497259 
L 246.807175 1068.496086 
L 246.464136 1067.523471 
L 244.727153 1066.563029 
L 243.872797 1063.504169 
L 243.918804 1063.026949 
" clip-path="url(#pf53dad2894)" style="fill: none; stroke: #ec4243"/>
    <path d="M 50.770377 198.026972 
L 52.59507 193.332402 
" clip-path="url(#pf53dad2894)" style="fill: none; stroke: #ec4243"/>
    <path d="M 485.002306 628.083004 
L 486.022774 632.539116 
L 489.348527 634.956829 
L 490.108568 635.931293 
" clip-path="url(#pf53dad2894)" style="fill: none; stroke: #ec4243"/>
    <path d="M 487.224162 615.655416 
L 487.222494 615.661145 
L 486.762754 616.970953 
" clip-path="url(#pf53dad2894)" style="fill: none; stroke: #ec4243"/>
    <path d="M 486.762754 616.970953 
L 486.305639 618.27328 
" clip-path="url(#pf53dad2894)" style="fill: none; stroke: #ec4243"/>
    <path d="M 499.087777 519.209655 
L 497.636473 519.961229 
L 493.294846 521.35107 
L 487.636789 524.925527 
L 488.303253 527.734252 
L 490.333453 529.894657 
L 494.399943 534.221615 
L 493.73425 537.915764 
" clip-path="url(#pf53dad2894)" style="fill: none; stroke: #ec4243"/>
    <path d="M 515.677536 487.026544 
L 515.525868 487.544905 
L 514.370348 486.949614 
L 513.221441 487.527579 
L 512.583498 486.441647 
L 512.129978 486.499379 
" clip-path="url(#pf53dad2894)" style="fill: none; stroke: #ec4243"/>
    <path d="M 530.85585 447.196471 
L 528.138879 449.646004 
" clip-path="url(#pf53dad2894)" style="fill: none; stroke: #ec4243"/>
    <path d="M 538.290195 433.677419 
L 538.097251 435.248436 
" clip-path="url(#pf53dad2894)" style="fill: none; stroke: #ec4243"/>
    <path d="M 535.731256 400.705122 
L 535.629286 400.876295 
L 532.68886 403.884204 
L 530.56346 407.968099 
L 527.910807 411.580598 
L 535.194595 421.760713 
" clip-path="url(#pf53dad2894)" style="fill: none; stroke: #ec4243"/>
    <path d="M 543.115971 388.308385 
L 535.731256 400.705122 
" clip-path="url(#pf53dad2894)" style="fill: none; stroke: #ec4243"/>
    <path d="M 562.493471 284.76303 
L 562.410121 285.020214 
L 563.10014 285.311905 
L 560.389621 291.693651 
" clip-path="url(#pf53dad2894)" style="fill: none; stroke: #ec4243"/>
    <path d="M 560.389621 291.693651 
L 560.329606 291.834951 
" clip-path="url(#pf53dad2894)" style="fill: none; stroke: #ec4243"/>
    <path d="M 560.329606 291.834951 
L 560.214631 292.105652 
" clip-path="url(#pf53dad2894)" style="fill: none; stroke: #ec4243"/>
    <path d="M 565.996716 1566.878202 
L 565.600693 1566.503581 
L 566.758335 1565.119483 
L 566.206204 1564.143254 
" clip-path="url(#pf53dad2894)" style="fill: none; stroke: #ec4243"/>
    <path d="M 566.206204 1564.143254 
L 565.824065 1563.467588 
" clip-path="url(#pf53dad2894)" style="fill: none; stroke: #ec4243"/>
    <path d="M 565.313505 1562.564309 
L 565.209571 1562.380423 
L 562.281316 1561.222168 
L 561.264809 1560.865393 
" clip-path="url(#pf53dad2894)" style="fill: none; stroke: #ec4243"/>
    <path d="M 558.631524 1557.598246 
L 557.952569 1555.613413 
L 557.940871 1555.591507 
" clip-path="url(#pf53dad2894)" style="fill: none; stroke: #ec4243"/>
    <path d="M 555.438696 1550.444986 
L 555.315387 1549.011862 
L 555.02767 1548.138611 
L 554.362896 1547.414212 
L 553.224349 1547.133629 
L 552.984337 1546.93948 
L 552.571246 1546.604782 
" clip-path="url(#pf53dad2894)" style="fill: none; stroke: #ec4243"/>
    <path d="M 532.642428 1506.747648 
L 530.926831 1505.715533 
L 526.243036 1504.581055 
L 518.913612 1504.827423 
" clip-path="url(#pf53dad2894)" style="fill: none; stroke: #ec4243"/>
    <path d="M 542.055681 1523.212217 
L 541.667499 1521.528741 
" clip-path="url(#pf53dad2894)" style="fill: none; stroke: #ec4243"/>
    <path d="M 180.104122 111.649574 
L 182.013464 110.784462 
L 187.658091 108.154893 
L 188.733833 107.679656 
L 191.797257 106.237345 
L 196.001546 104.285175 
L 198.726609 103.034788 
" clip-path="url(#pf53dad2894)" style="fill: none; stroke: #ec4243"/>
    <path d="M 289.055402 155.476554 
L 291.063442 154.523597 
L 294.301048 152.340002 
L 297.102058 150.450854 
L 297.214519 150.434283 
" clip-path="url(#pf53dad2894)" style="fill: none; stroke: #ec4243"/>
    <path d="M 416.415422 163.395304 
L 417.947197 164.054964 
L 419.498579 166.440718 
L 421.3201 169.964937 
L 419.958151 176.12499 
L 420.12465 178.486943 
L 420.977907 179.27016 
L 421.628604 179.060196 
L 422.271188 178.249294 
L 422.750312 176.438437 
L 424.426557 177.719117 
L 428.136163 176.816812 
L 430.381211 175.483176 
L 436.716749 175.010559 
" clip-path="url(#pf53dad2894)" style="fill: none; stroke: #ec4243"/>
    <path d="M 436.716749 175.010559 
L 437.766201 174.932266 
L 442.396766 175.220771 
L 446.919188 176.235759 
" clip-path="url(#pf53dad2894)" style="fill: none; stroke: #ec4243"/>
    <path d="M 477.679028 204.190806 
L 477.975853 204.439742 
L 477.646588 205.16647 
L 483.883989 208.18069 
L 484.554592 206.989475 
L 484.582341 207.008309 
" clip-path="url(#pf53dad2894)" style="fill: none; stroke: #ec4243"/>
    <path d="M 472.085735 199.349351 
L 473.70769 200.860171 
L 475.016238 201.957614 
" clip-path="url(#pf53dad2894)" style="fill: none; stroke: #ec4243"/>
    <path d="M 498.346717 216.835608 
L 498.391281 216.904127 
L 498.007978 217.227987 
L 499.946449 219.788228 
L 502.849371 223.901052 
L 502.928363 224.00744 
L 503.194689 222.226913 
L 503.727418 222.300881 
L 503.990213 220.574133 
L 503.487866 220.478509 
L 503.709767 218.752318 
L 503.730252 218.754443 
" clip-path="url(#pf53dad2894)" style="fill: none; stroke: #ec4243"/>
    <path d="M 503.730252 218.754443 
L 503.976003 218.779932 
L 504.059345 218.787541 
" clip-path="url(#pf53dad2894)" style="fill: none; stroke: #ec4243"/>
    <path d="M 511.464811 220.727815 
L 511.367072 219.142824 
L 511.125121 218.64629 
L 511.123165 218.548392 
" clip-path="url(#pf53dad2894)" style="fill: none; stroke: #ec4243"/>
    <path d="M 554.335042 312.642022 
L 554.262379 313.473504 
L 554.663947 313.4855 
L 552.818599 324.360844 
L 550.81004 337.015313 
L 551.537898 340.379207 
L 550.669141 344.965798 
L 548.03568 353.380245 
L 549.206562 355.922106 
L 549.81429 357.323161 
" clip-path="url(#pf53dad2894)" style="fill: none; stroke: #ec4243"/>
    <path d="M 438.010162 759.634388 
L 435.541133 764.466023 
L 434.513398 768.815888 
L 434.010264 772.417676 
L 432.964146 774.069398 
" clip-path="url(#pf53dad2894)" style="fill: none; stroke: #ec4243"/>
    <path d="M 444.312033 743.235429 
L 439.435239 756.107419 
" clip-path="url(#pf53dad2894)" style="fill: none; stroke: #ec4243"/>
    <path d="M 462.616473 725.357027 
L 462.240247 725.390884 
L 460.606847 727.063685 
L 458.20206 728.512008 
L 456.581492 728.866333 
L 453.774785 729.161735 
L 445.939634 738.939357 
L 444.312033 743.235429 
" clip-path="url(#pf53dad2894)" style="fill: none; stroke: #ec4243"/>
    <path d="M 448.322435 921.156255 
L 448.344478 921.582856 
L 448.712294 924.119808 
" clip-path="url(#pf53dad2894)" style="fill: none; stroke: #ec4243"/>
    <path d="M 448.712294 924.119808 
L 448.984189 925.99515 
L 452.732028 934.152552 
" clip-path="url(#pf53dad2894)" style="fill: none; stroke: #ec4243"/>
    <path d="M 460.70334 954.618241 
L 463.763629 962.316686 
" clip-path="url(#pf53dad2894)" style="fill: none; stroke: #ec4243"/>
    <path d="M 466.01032 967.968334 
L 466.330585 968.773965 
L 467.368768 969.815708 
" clip-path="url(#pf53dad2894)" style="fill: none; stroke: #ec4243"/>
    <path d="M 467.368768 969.815708 
L 467.390167 969.837181 
" clip-path="url(#pf53dad2894)" style="fill: none; stroke: #ec4243"/>
    <path d="M 467.390167 969.837181 
L 467.471266 969.918558 
" clip-path="url(#pf53dad2894)" style="fill: none; stroke: #ec4243"/>
    <path d="M 474.076437 991.702011 
L 474.915862 994.006533 
" clip-path="url(#pf53dad2894)" style="fill: none; stroke: #ec4243"/>
    <path d="M 480.381907 1005.916705 
L 479.203416 1008.265461 
L 483.128843 1015.322187 
L 485.314854 1017.229332 
L 486.238373 1017.386735 
L 487.598959 1017.06087 
L 488.742462 1016.957873 
L 488.975278 1017.03177 
" clip-path="url(#pf53dad2894)" style="fill: none; stroke: #ec4243"/>
    <path d="M 501.403544 1024.402535 
L 503.101868 1027.207782 
L 501.609651 1027.579202 
L 503.160753 1033.356061 
L 508.389798 1035.869007 
L 512.637099 1036.57967 
L 517.757234 1036.729859 
L 517.965575 1036.767888 
" clip-path="url(#pf53dad2894)" style="fill: none; stroke: #ec4243"/>
    <path d="M 522.274308 1039.743032 
L 523.226049 1042.305842 
L 523.362347 1043.205507 
" clip-path="url(#pf53dad2894)" style="fill: none; stroke: #ec4243"/>
    <path d="M 523.362347 1043.205507 
L 524.174962 1048.569307 
" clip-path="url(#pf53dad2894)" style="fill: none; stroke: #ec4243"/>
    <path d="M 695.854593 1483.054521 
L 695.30587 1484.046248 
L 694.673248 1485.214614 
L 694.512163 1485.700042 
" clip-path="url(#pf53dad2894)" style="fill: none; stroke: #ec4243"/>
    <path d="M 696.739119 1481.455877 
L 695.854593 1483.054521 
" clip-path="url(#pf53dad2894)" style="fill: none; stroke: #ec4243"/>
    <path d="M 698.512919 1449.936346 
L 698.354416 1452.738829 
L 696.463182 1457.944489 
L 696.340899 1459.098276 
L 696.61603 1460.591423 
L 697.981527 1463.266332 
" clip-path="url(#pf53dad2894)" style="fill: none; stroke: #ec4243"/>
    <path d="M 669.170301 1377.635167 
L 670.44954 1382.119744 
L 670.847385 1383.382774 
" clip-path="url(#pf53dad2894)" style="fill: none; stroke: #ec4243"/>
    <path d="M 674.993903 1396.546327 
L 675.802869 1399.114415 
" clip-path="url(#pf53dad2894)" style="fill: none; stroke: #ec4243"/>
    <path d="M 655.542445 1340.307646 
L 656.968847 1346.732387 
" clip-path="url(#pf53dad2894)" style="fill: none; stroke: #ec4243"/>
    <path d="M 653.289237 1309.092996 
L 651.781627 1309.685016 
L 647.71785 1311.090678 
L 647.329617 1311.593364 
L 648.160123 1315.36555 
L 649.863109 1319.564806 
" clip-path="url(#pf53dad2894)" style="fill: none; stroke: #ec4243"/>
    <path d="M 640.359226 1237.549551 
L 641.621646 1239.0864 
" clip-path="url(#pf53dad2894)" style="fill: none; stroke: #ec4243"/>
    <path d="M 641.621646 1239.0864 
L 641.770026 1239.267035 
L 644.076384 1240.409778 
L 647.651138 1240.480747 
" clip-path="url(#pf53dad2894)" style="fill: none; stroke: #ec4243"/>
    <path d="M 619.176836 1188.603617 
L 619.189477 1188.643884 
L 617.303718 1191.320165 
L 620.145504 1194.23279 
" clip-path="url(#pf53dad2894)" style="fill: none; stroke: #ec4243"/>
    <path d="M 621.861171 1195.991207 
L 623.907677 1198.088689 
" clip-path="url(#pf53dad2894)" style="fill: none; stroke: #ec4243"/>
    <path d="M 609.14977 1172.56499 
L 609.38745 1174.596315 
L 615.878215 1180.032661 
" clip-path="url(#pf53dad2894)" style="fill: none; stroke: #ec4243"/>
    <path d="M 594.260726 1165.762398 
L 595.007916 1166.812484 
" clip-path="url(#pf53dad2894)" style="fill: none; stroke: #ec4243"/>
    <path d="M 551.612164 1100.778028 
L 556.816609 1105.088574 
L 560.713158 1117.129133 
" clip-path="url(#pf53dad2894)" style="fill: none; stroke: #ec4243"/>
    <path d="M 561.127942 1118.144854 
L 563.958804 1122.328458 
L 573.555745 1129.502274 
" clip-path="url(#pf53dad2894)" style="fill: none; stroke: #ec4243"/>
    <path d="M 524.174962 1048.569307 
L 524.254517 1049.094423 
L 523.392155 1050.423214 
L 525.38921 1055.662881 
L 526.786727 1061.294331 
L 527.884137 1061.059444 
L 530.611902 1066.134184 
L 531.792483 1069.180746 
L 531.394976 1072.313816 
L 532.315734 1075.263957 
L 535.524209 1076.482227 
L 536.718276 1079.263691 
L 539.170697 1081.534396 
L 541.800402 1084.53991 
L 545.607469 1093.407253 
L 547.23629 1097.153665 
L 551.612164 1100.778028 
" clip-path="url(#pf53dad2894)" style="fill: none; stroke: #ec4243"/>
    <path d="M 675.624601 1502.711684 
L 675.562312 1502.715907 
L 673.766989 1503.526738 
L 673.145063 1507.13656 
L 673.113303 1508.049174 
L 673.524819 1509.529194 
L 673.830053 1510.670808 
L 674.966023 1514.084107 
" clip-path="url(#pf53dad2894)" style="fill: none; stroke: #ec4243"/>
    <path d="M 674.966023 1514.084107 
L 674.996157 1514.17465 
L 674.418835 1514.408814 
L 673.712177 1516.60115 
" clip-path="url(#pf53dad2894)" style="fill: none; stroke: #ec4243"/>
    <path d="M 673.712177 1516.60115 
L 673.438143 1517.451309 
L 673.876024 1517.648156 
" clip-path="url(#pf53dad2894)" style="fill: none; stroke: #ec4243"/>
    <path d="M 673.876024 1517.648156 
L 673.904647 1517.661023 
L 673.88534 1517.707682 
" clip-path="url(#pf53dad2894)" style="fill: none; stroke: #ec4243"/>
    <path d="M 673.88534 1517.707682 
L 673.51306 1518.607358 
L 673.255384 1518.495967 
L 673.228029 1518.572085 
" clip-path="url(#pf53dad2894)" style="fill: none; stroke: #ec4243"/>
    <path d="M 673.228029 1518.572085 
L 673.034238 1519.111309 
L 673.374258 1519.2503 
L 673.293917 1519.623333 
" clip-path="url(#pf53dad2894)" style="fill: none; stroke: #ec4243"/>
    <path d="M 670.677211 1527.106048 
L 669.901113 1529.183589 
L 663.586679 1537.840382 
L 657.483179 1544.30098 
" clip-path="url(#pf53dad2894)" style="fill: none; stroke: #ec4243"/>
    <path d="M 655.601203 1546.293028 
L 655.131355 1546.790354 
L 652.982508 1548.040855 
L 652.397688 1548.847397 
L 652.02581 1549.369848 
L 652.65957 1549.757202 
L 651.166352 1552.299422 
L 650.765095 1553.697566 
" clip-path="url(#pf53dad2894)" style="fill: none; stroke: #ec4243"/>
    <path d="M 639.680389 1579.228046 
L 639.602203 1579.34688 
L 639.728081 1579.558816 
L 639.186291 1580.207309 
L 639.162575 1580.233477 
" clip-path="url(#pf53dad2894)" style="fill: none; stroke: #ec4243"/>
    <path d="M 632.234993 1586.101718 
L 631.319857 1586.536029 
L 631.284954 1586.552597 
" clip-path="url(#pf53dad2894)" style="fill: none; stroke: #ec4243"/>
    <path d="M 627.264051 1588.461189 
L 622.215705 1590.857426 
L 620.694841 1591.556794 
" clip-path="url(#pf53dad2894)" style="fill: none; stroke: #ec4243"/>
    <path d="M 620.694841 1591.556794 
L 620.523803 1591.635446 
L 620.637715 1591.908779 
L 620.406201 1592.024425 
L 619.647879 1592.415547 
" clip-path="url(#pf53dad2894)" style="fill: none; stroke: #ec4243"/>
    <path d="M 604.763859 1594.606814 
L 601.29974 1594.8 
L 601.302416 1594.248912 
L 599.055971 1594.13107 
L 597.199525 1594.121576 
L 595.258519 1593.114847 
L 594.486633 1592.850644 
" clip-path="url(#pf53dad2894)" style="fill: none; stroke: #ec4243"/>
    <path d="M 142.946617 744.522632 
L 141.217279 743.999941 
L 140.533173 743.267892 
L 141.075118 742.061237 
L 141.93693 742.231162 
L 141.995015 742.088553 
" clip-path="url(#pf53dad2894)" style="fill: none; stroke: #ec4243"/>
    <path d="M 143.02837 751.801602 
L 143.095678 744.567686 
L 142.946617 744.522632 
" clip-path="url(#pf53dad2894)" style="fill: none; stroke: #ec4243"/>
    <path d="M 171.936199 883.502299 
L 171.855144 883.497961 
L 170.199202 884.055726 
L 168.792045 883.627262 
" clip-path="url(#pf53dad2894)" style="fill: none; stroke: #ec4243"/>
    <path d="M 230.418491 1082.791829 
L 235.441856 1077.932877 
L 235.71895 1076.754641 
L 236.595088 1075.907125 
L 236.680994 1075.887113 
" clip-path="url(#pf53dad2894)" style="fill: none; stroke: #ec4243"/>
    <path d="M 224.315583 1094.016808 
L 224.653376 1093.223507 
L 224.884477 1091.703579 
" clip-path="url(#pf53dad2894)" style="fill: none; stroke: #ec4243"/>
    <path d="M 214.34821 1103.416906 
L 214.588259 1103.160101 
L 217.589181 1100.836398 
L 222.082636 1097.755777 
L 223.749639 1095.345913 
L 224.315583 1094.016808 
" clip-path="url(#pf53dad2894)" style="fill: none; stroke: #ec4243"/>
    <path d="M 169.034233 1138.983944 
L 171.452279 1137.147185 
L 175.545772 1134.504469 
L 180.324733 1130.585694 
L 183.32729 1128.433316 
L 186.502042 1126.20494 
L 189.088984 1123.948946 
" clip-path="url(#pf53dad2894)" style="fill: none; stroke: #ec4243"/>
    <path d="M 161.871765 1145.361027 
L 163.462039 1144.497967 
L 165.407075 1142.313282 
L 168.688719 1139.246396 
L 169.034233 1138.983944 
" clip-path="url(#pf53dad2894)" style="fill: none; stroke: #ec4243"/>
    <path d="M 153.224588 1148.465727 
L 153.778017 1147.947221 
L 154.093576 1148.326706 
L 155.207924 1147.736091 
L 155.054289 1147.210791 
L 156.127046 1146.898118 
L 156.549569 1147.105014 
L 158.531682 1146.578015 
L 161.742093 1145.431402 
L 161.871765 1145.361027 
" clip-path="url(#pf53dad2894)" style="fill: none; stroke: #ec4243"/>
    <path d="M 148.116396 1159.722515 
L 148.556867 1157.749453 
L 147.510232 1157.450744 
L 147.966739 1156.428191 
" clip-path="url(#pf53dad2894)" style="fill: none; stroke: #ec4243"/>
    <path d="M 157.058755 1195.669095 
L 156.239014 1186.707237 
L 153.495386 1181.540003 
L 150.455875 1176.97391 
L 148.636592 1175.145859 
L 147.651546 1172.248536 
L 147.227815 1170.513453 
L 147.020883 1168.129522 
L 147.040515 1166.758512 
L 147.392856 1166.752659 
L 147.739098 1164.647645 
L 147.986188 1163.382291 
" clip-path="url(#pf53dad2894)" style="fill: none; stroke: #ec4243"/>
    <path d="M 158.569535 1201.644056 
L 158.097796 1199.443296 
L 157.786036 1198.42961 
" clip-path="url(#pf53dad2894)" style="fill: none; stroke: #ec4243"/>
    <path d="M 183.202098 1241.724961 
L 181.12954 1236.455732 
" clip-path="url(#pf53dad2894)" style="fill: none; stroke: #ec4243"/>
    <path d="M 210.159303 1277.104932 
L 196.49785 1263.61639 
L 197.022618 1262.699826 
L 191.498474 1256.371717 
" clip-path="url(#pf53dad2894)" style="fill: none; stroke: #ec4243"/>
    <path d="M 272.811444 1311.360022 
L 271.806138 1309.640644 
" clip-path="url(#pf53dad2894)" style="fill: none; stroke: #ec4243"/>
    <path d="M 278.97727 1316.842935 
L 278.658715 1316.622308 
L 273.072719 1311.806878 
L 272.811444 1311.360022 
" clip-path="url(#pf53dad2894)" style="fill: none; stroke: #ec4243"/>
    <path d="M 313.52782 1343.876594 
L 312.46561 1344.094313 
L 310.931579 1344.52708 
L 307.265677 1342.927702 
L 304.085666 1341.023202 
L 303.813995 1340.427032 
L 303.389716 1336.762753 
L 303.03784 1335.719061 
L 301.961595 1333.861549 
L 299.384039 1332.135199 
L 297.793072 1331.107972 
L 296.145798 1328.733228 
L 281.539599 1318.617566 
" clip-path="url(#pf53dad2894)" style="fill: none; stroke: #ec4243"/>
    <path d="M 316.98642 1357.291387 
L 316.009912 1356.367666 
L 315.376711 1353.941978 
L 315.199756 1349.113585 
L 314.848308 1345.036039 
" clip-path="url(#pf53dad2894)" style="fill: none; stroke: #ec4243"/>
    <path d="M 342.526382 1380.228824 
L 342.432453 1379.361871 
L 340.105162 1379.676955 
" clip-path="url(#pf53dad2894)" style="fill: none; stroke: #ec4243"/>
    <path d="M 429.932018 1453.122219 
L 429.671583 1452.967921 
L 428.663792 1452.305225 
" clip-path="url(#pf53dad2894)" style="fill: none; stroke: #ec4243"/>
    <path d="M 463.699452 1471.358989 
L 462.609981 1470.301576 
L 461.650669 1467.922921 
L 460.36667 1465.712348 
L 457.597797 1462.595942 
L 453.537509 1460.694051 
L 449.550852 1460.259359 
L 448.053529 1460.679054 
" clip-path="url(#pf53dad2894)" style="fill: none; stroke: #ec4243"/>
    <path d="M 472.17951 1478.461125 
L 470.607347 1477.103946 
" clip-path="url(#pf53dad2894)" style="fill: none; stroke: #ec4243"/>
    <path d="M 481.699921 1483.019503 
L 480.507193 1483.214401 
L 479.688747 1483.171767 
L 477.882786 1482.706425 
L 474.692461 1480.630427 
L 472.17951 1478.461125 
" clip-path="url(#pf53dad2894)" style="fill: none; stroke: #ec4243"/>
    <path d="M 507.411733 1499.9883 
L 507.176839 1499.357565 
L 505.779089 1495.1381 
L 504.414287 1492.838741 
L 502.309295 1490.475717 
L 499.238912 1488.501916 
L 495.714318 1486.650479 
L 489.018919 1483.535034 
L 484.860081 1482.503105 
L 481.699921 1483.019503 
" clip-path="url(#pf53dad2894)" style="fill: none; stroke: #ec4243"/>
    <path d="M 542.642354 1525.756499 
L 542.055681 1523.212217 
" clip-path="url(#pf53dad2894)" style="fill: none; stroke: #ec4243"/>
    <path d="M 544.547926 1535.139951 
L 544.522893 1535.043142 
L 544.112128 1532.159792 
L 543.718807 1531.054313 
L 543.650224 1530.621374 
" clip-path="url(#pf53dad2894)" style="fill: none; stroke: #ec4243"/>
    <path d="M 565.633681 1563.130779 
L 565.313505 1562.564309 
" clip-path="url(#pf53dad2894)" style="fill: none; stroke: #ec4243"/>
    <path d="M 566.890313 1567.723503 
L 565.996716 1566.878202 
" clip-path="url(#pf53dad2894)" style="fill: none; stroke: #ec4243"/>
    <path d="M 139.457875 142.53138 
L 140.277815 142.999435 
L 150.601691 148.411205 
L 160.28253 152.722875 
L 161.634696 152.59394 
L 162.427611 151.855046 
L 161.955635 149.258375 
L 162.03337 148.753779 
L 162.415466 148.328914 
L 164.58253 146.604833 
L 165.573379 146.406903 
L 166.138607 146.563184 
L 166.789687 149.432409 
L 166.356725 149.551798 
L 166.48857 150.054896 
L 165.382518 150.564232 
L 165.797249 151.458485 
L 166.903285 150.947899 
L 167.992791 150.541242 
L 167.436564 149.252733 
L 166.740351 146.710239 
L 166.473986 138.549029 
L 169.53558 136.498306 
L 172.078766 129.809712 
L 171.479669 127.850747 
L 172.215036 125.197001 
L 172.057554 124.623015 
L 172.637264 123.612 
L 171.132672 122.702156 
" clip-path="url(#pf53dad2894)" style="fill: none; stroke: #ec4243"/>
    <path d="M 58.520192 184.114633 
L 60.727458 180.772246 
L 63.633026 176.3736 
L 68.375154 172.928634 
" clip-path="url(#pf53dad2894)" style="fill: none; stroke: #ec4243"/>
    <path d="M 68.375154 172.928634 
L 75.244281 167.938364 
L 80.527671 164.637614 
" clip-path="url(#pf53dad2894)" style="fill: none; stroke: #ec4243"/>
    <path d="M 250.31258 1041.140188 
L 251.330194 1040.763591 
" clip-path="url(#pf53dad2894)" style="fill: none; stroke: #ec4243"/>
    <path d="M 168.792045 883.627262 
L 167.842479 883.338127 
L 163.841525 878.797179 
L 158.903007 874.889508 
L 156.222147 871.103458 
L 153.704279 865.887024 
L 149.708081 855.824149 
L 146.902472 848.292279 
L 146.556263 844.774311 
L 146.984947 838.145051 
" clip-path="url(#pf53dad2894)" style="fill: none; stroke: #ec4243"/>
    <path d="M 66.204543 279.268858 
L 65.423074 278.848662 
L 59.656657 274.526156 
L 53.852199 267.719956 
L 52.637637 265.831483 
" clip-path="url(#pf53dad2894)" style="fill: none; stroke: #ec4243"/>
    <path d="M 50.073029 199.821089 
L 50.770377 198.026972 
" clip-path="url(#pf53dad2894)" style="fill: none; stroke: #ec4243"/>
    <path d="M 520.329445 460.666197 
L 518.909957 462.914801 
" clip-path="url(#pf53dad2894)" style="fill: none; stroke: #ec4243"/>
    <path d="M 492.431198 671.594381 
L 492.028069 672.383698 
L 492.017061 672.410352 
" clip-path="url(#pf53dad2894)" style="fill: none; stroke: #ec4243"/>
    <path d="M 560.937489 1117.822315 
L 560.962968 1117.901044 
L 561.127942 1118.144854 
" clip-path="url(#pf53dad2894)" style="fill: none; stroke: #ec4243"/>
    <path d="M 573.555745 1129.502274 
L 574.708507 1130.363956 
" clip-path="url(#pf53dad2894)" style="fill: none; stroke: #ec4243"/>
    <path d="M 580.128752 1140.721953 
L 583.530348 1149.579261 
L 587.043164 1157.979635 
" clip-path="url(#pf53dad2894)" style="fill: none; stroke: #ec4243"/>
    <path d="M 587.442156 1158.933751 
L 587.794316 1159.775875 
L 590.06318 1161.375776 
" clip-path="url(#pf53dad2894)" style="fill: none; stroke: #ec4243"/>
    <path d="M 596.012756 1168.224661 
L 598.634327 1171.908915 
L 601.97955 1171.54805 
L 603.071137 1170.704965 
" clip-path="url(#pf53dad2894)" style="fill: none; stroke: #ec4243"/>
    <path d="M 632.110303 1210.375322 
L 632.325579 1212.123221 
" clip-path="url(#pf53dad2894)" style="fill: none; stroke: #ec4243"/>
    <path d="M 632.416893 1212.864629 
L 632.692275 1215.100533 
" clip-path="url(#pf53dad2894)" style="fill: none; stroke: #ec4243"/>
    <path d="M 632.771718 1215.745549 
L 632.905744 1216.833742 
" clip-path="url(#pf53dad2894)" style="fill: none; stroke: #ec4243"/>
    <path d="M 649.588672 1241.349392 
L 656.076788 1245.942727 
" clip-path="url(#pf53dad2894)" style="fill: none; stroke: #ec4243"/>
    <path d="M 697.819975 1474.918149 
L 696.849121 1481.257065 
L 696.739119 1481.455877 
" clip-path="url(#pf53dad2894)" style="fill: none; stroke: #ec4243"/>
    <path d="M 686.02243 1501.108531 
L 684.649904 1501.696198 
" clip-path="url(#pf53dad2894)" style="fill: none; stroke: #ec4243"/>
    <path d="M 650.595209 1554.289519 
L 648.575841 1561.325718 
L 645.76308 1565.143193 
L 643.916262 1567.544252 
" clip-path="url(#pf53dad2894)" style="fill: none; stroke: #ec4243"/>
    <path d="M 593.335475 1592.702034 
L 593.180327 1592.688536 
L 591.066223 1593.067422 
L 590.857126 1593.261472 
L 586.897805 1593.515714 
L 585.241698 1593.980766 
L 583.599032 1594.180725 
L 582.601524 1594.110333 
" clip-path="url(#pf53dad2894)" style="fill: none; stroke: #ec4243"/>
    <path d="M 239.314795 937.087593 
L 239.149821 937.242968 
L 236.910649 938.470864 
L 235.223876 938.56633 
" clip-path="url(#pf53dad2894)" style="fill: none; stroke: #ec4243"/>
    <path d="M 181.273714 675.273981 
L 182.112514 673.825204 
L 185.452738 672.676733 
L 188.43635 668.528989 
L 195.310201 660.390229 
L 201.766343 653.067032 
" clip-path="url(#pf53dad2894)" style="fill: none; stroke: #ec4243"/>
    <path d="M 178.989309 679.219571 
L 180.033026 677.416886 
" clip-path="url(#pf53dad2894)" style="fill: none; stroke: #ec4243"/>
   </g>
   <g id="LineCollection_5">
    <path d="M 486.305639 618.27328 
L 485.137123 621.602369 
" clip-path="url(#pf53dad2894)" style="fill: none; stroke: #ecffc5"/>
    <path d="M 485.081588 621.760586 
L 484.732253 622.75583 
" clip-path="url(#pf53dad2894)" style="fill: none; stroke: #ecffc5"/>
    <path d="M 485.137123 621.602369 
L 485.081588 621.760586 
" clip-path="url(#pf53dad2894)" style="fill: none; stroke: #ecffc5"/>
    <path d="M 557.940871 1555.591507 
L 556.691241 1553.251178 
" clip-path="url(#pf53dad2894)" style="fill: none; stroke: #ecffc5"/>
    <path d="M 556.691241 1553.251178 
L 555.485919 1550.993814 
L 555.438696 1550.444986 
" clip-path="url(#pf53dad2894)" style="fill: none; stroke: #ecffc5"/>
    <path d="M 541.667499 1521.528741 
L 541.631486 1521.372559 
L 541.403515 1520.571116 
" clip-path="url(#pf53dad2894)" style="fill: none; stroke: #ecffc5"/>
    <path d="M 488.975278 1017.03177 
L 490.73201 1017.589369 
L 492.174314 1017.689734 
L 493.062212 1017.927055 
" clip-path="url(#pf53dad2894)" style="fill: none; stroke: #ecffc5"/>
    <path d="M 517.965575 1036.767888 
L 519.846694 1037.111247 
L 521.969285 1038.921672 
L 522.274308 1039.743032 
" clip-path="url(#pf53dad2894)" style="fill: none; stroke: #ecffc5"/>
    <path d="M 697.981527 1463.266332 
L 698.482627 1464.247946 
L 698.573607 1465.451253 
L 698.011538 1473.667379 
L 697.819975 1474.918149 
" clip-path="url(#pf53dad2894)" style="fill: none; stroke: #ecffc5"/>
    <path d="M 696.041469 1438.793901 
L 696.098796 1438.890089 
L 697.326924 1441.327165 
L 698.157391 1443.774759 
L 698.627214 1447.915509 
L 698.512919 1449.936346 
" clip-path="url(#pf53dad2894)" style="fill: none; stroke: #ecffc5"/>
    <path d="M 679.662831 1407.001796 
L 684.493819 1410.86737 
L 686.289257 1414.384904 
" clip-path="url(#pf53dad2894)" style="fill: none; stroke: #ecffc5"/>
    <path d="M 674.01532 1393.439763 
L 674.993903 1396.546327 
" clip-path="url(#pf53dad2894)" style="fill: none; stroke: #ecffc5"/>
    <path d="M 675.802869 1399.114415 
L 677.155007 1403.406772 
L 677.637332 1404.127021 
" clip-path="url(#pf53dad2894)" style="fill: none; stroke: #ecffc5"/>
    <path d="M 670.847385 1383.382774 
L 674.01532 1393.439763 
" clip-path="url(#pf53dad2894)" style="fill: none; stroke: #ecffc5"/>
    <path d="M 658.377342 1353.076358 
L 659.397003 1357.668919 
L 662.686948 1363.736244 
L 667.129264 1370.479859 
L 669.170301 1377.635167 
" clip-path="url(#pf53dad2894)" style="fill: none; stroke: #ecffc5"/>
    <path d="M 656.968847 1346.732387 
L 658.377342 1353.076358 
" clip-path="url(#pf53dad2894)" style="fill: none; stroke: #ecffc5"/>
    <path d="M 649.863109 1319.564806 
L 650.905533 1322.135207 
L 653.493245 1331.077511 
L 655.542445 1340.307646 
" clip-path="url(#pf53dad2894)" style="fill: none; stroke: #ecffc5"/>
    <path d="M 653.034621 1287.13509 
L 653.132463 1287.309277 
L 654.182209 1290.641082 
L 653.863032 1295.212625 
L 653.690445 1302.609888 
L 653.648365 1308.95197 
L 653.289237 1309.092996 
" clip-path="url(#pf53dad2894)" style="fill: none; stroke: #ecffc5"/>
    <path d="M 653.093773 1277.416437 
L 651.554605 1280.593469 
L 651.234574 1283.93046 
L 653.034621 1287.13509 
" clip-path="url(#pf53dad2894)" style="fill: none; stroke: #ecffc5"/>
    <path d="M 658.063534 1254.805671 
L 658.590884 1257.468104 
L 657.029256 1260.628588 
L 654.347704 1274.828146 
L 653.093773 1277.416437 
" clip-path="url(#pf53dad2894)" style="fill: none; stroke: #ecffc5"/>
    <path d="M 656.076788 1245.942727 
L 656.34579 1246.133168 
L 658.063534 1254.805671 
" clip-path="url(#pf53dad2894)" style="fill: none; stroke: #ecffc5"/>
    <path d="M 620.145504 1194.23279 
L 621.861171 1195.991207 
" clip-path="url(#pf53dad2894)" style="fill: none; stroke: #ecffc5"/>
    <path d="M 576.88663 1132.279663 
L 580.128752 1140.721953 
" clip-path="url(#pf53dad2894)" style="fill: none; stroke: #ecffc5"/>
    <path d="M 647.651138 1240.480747 
L 648.382223 1240.495258 
L 649.588672 1241.349392 
" clip-path="url(#pf53dad2894)" style="fill: none; stroke: #ecffc5"/>
   </g>
   <g id="legend_1">
    <g id="patch_2">
     <path d="M 679.855444 88.590625 
L 724.552319 88.590625 
Q 726.552319 88.590625 726.552319 86.590625 
L 726.552319 14.2 
Q 726.552319 12.2 724.552319 12.2 
L 679.855444 12.2 
Q 677.855444 12.2 677.855444 14.2 
L 677.855444 86.590625 
Q 677.855444 88.590625 679.855444 88.590625 
z
" style="fill: #ffffff; opacity: 0.8; stroke: #cccccc; stroke-linejoin: miter"/>
    </g>
    <g id="line2d_1">
     <path d="M 681.855444 20.298438 
L 701.855444 20.298438 
" style="fill: none; stroke: #28c23f"/>
    </g>
    <g id="text_1">
     <!-- fa -->
     <g transform="translate(709.855444 23.798438) scale(0.1 -0.1)">
      <defs>
       <path id="DejaVuSans-66" d="M 2375 4863 
L 2375 4384 
L 1825 4384 
Q 1516 4384 1395 4259 
Q 1275 4134 1275 3809 
L 1275 3500 
L 2222 3500 
L 2222 3053 
L 1275 3053 
L 1275 0 
L 697 0 
L 697 3053 
L 147 3053 
L 147 3500 
L 697 3500 
L 697 3744 
Q 697 4328 969 4595 
Q 1241 4863 1831 4863 
L 2375 4863 
z
" transform="scale(0.015625)"/>
       <path id="DejaVuSans-61" d="M 2194 1759 
Q 1497 1759 1228 1600 
Q 959 1441 959 1056 
Q 959 750 1161 570 
Q 1363 391 1709 391 
Q 2188 391 2477 730 
Q 2766 1069 2766 1631 
L 2766 1759 
L 2194 1759 
z
M 3341 1997 
L 3341 0 
L 2766 0 
L 2766 531 
Q 2569 213 2275 61 
Q 1981 -91 1556 -91 
Q 1019 -91 701 211 
Q 384 513 384 1019 
Q 384 1609 779 1909 
Q 1175 2209 1959 2209 
L 2766 2209 
L 2766 2266 
Q 2766 2663 2505 2880 
Q 2244 3097 1772 3097 
Q 1472 3097 1187 3025 
Q 903 2953 641 2809 
L 641 3341 
Q 956 3463 1253 3523 
Q 1550 3584 1831 3584 
Q 2591 3584 2966 3190 
Q 3341 2797 3341 1997 
z
" transform="scale(0.015625)"/>
      </defs>
      <use xlink:href="#DejaVuSans-66"/>
      <use xlink:href="#DejaVuSans-61" x="35.205078"/>
     </g>
    </g>
    <g id="line2d_2">
     <path d="M 681.855444 34.976562 
L 701.855444 34.976562 
" style="fill: none; stroke: #dbffe4"/>
    </g>
    <g id="text_2">
     <!-- ff -->
     <g transform="translate(709.855444 38.476562) scale(0.1 -0.1)">
      <use xlink:href="#DejaVuSans-66"/>
      <use xlink:href="#DejaVuSans-66" x="35.205078"/>
     </g>
    </g>
    <g id="line2d_3">
     <path d="M 681.855444 49.654688 
L 701.855444 49.654688 
" style="fill: none; stroke: #e9a23d"/>
    </g>
    <g id="text_3">
     <!-- pa -->
     <g transform="translate(709.855444 53.154688) scale(0.1 -0.1)">
      <defs>
       <path id="DejaVuSans-70" d="M 1159 525 
L 1159 -1331 
L 581 -1331 
L 581 3500 
L 1159 3500 
L 1159 2969 
Q 1341 3281 1617 3432 
Q 1894 3584 2278 3584 
Q 2916 3584 3314 3078 
Q 3713 2572 3713 1747 
Q 3713 922 3314 415 
Q 2916 -91 2278 -91 
Q 1894 -91 1617 61 
Q 1341 213 1159 525 
z
M 3116 1747 
Q 3116 2381 2855 2742 
Q 2594 3103 2138 3103 
Q 1681 3103 1420 2742 
Q 1159 2381 1159 1747 
Q 1159 1113 1420 752 
Q 1681 391 2138 391 
Q 2594 391 2855 752 
Q 3116 1113 3116 1747 
z
" transform="scale(0.015625)"/>
      </defs>
      <use xlink:href="#DejaVuSans-70"/>
      <use xlink:href="#DejaVuSans-61" x="63.476562"/>
     </g>
    </g>
    <g id="line2d_4">
     <path d="M 681.855444 64.332813 
L 701.855444 64.332813 
" style="fill: none; stroke: #ec4243"/>
    </g>
    <g id="text_4">
     <!-- pp -->
     <g transform="translate(709.855444 67.832813) scale(0.1 -0.1)">
      <use xlink:href="#DejaVuSans-70"/>
      <use xlink:href="#DejaVuSans-70" x="63.476562"/>
     </g>
    </g>
    <g id="line2d_5">
     <path d="M 681.855444 79.010938 
L 701.855444 79.010938 
" style="fill: none; stroke: #ecffc5"/>
    </g>
    <g id="text_5">
     <!-- ps -->
     <g transform="translate(709.855444 82.510938) scale(0.1 -0.1)">
      <defs>
       <path id="DejaVuSans-73" d="M 2834 3397 
L 2834 2853 
Q 2591 2978 2328 3040 
Q 2066 3103 1784 3103 
Q 1356 3103 1142 2972 
Q 928 2841 928 2578 
Q 928 2378 1081 2264 
Q 1234 2150 1697 2047 
L 1894 2003 
Q 2506 1872 2764 1633 
Q 3022 1394 3022 966 
Q 3022 478 2636 193 
Q 2250 -91 1575 -91 
Q 1294 -91 989 -36 
Q 684 19 347 128 
L 347 722 
Q 666 556 975 473 
Q 1284 391 1588 391 
Q 1994 391 2212 530 
Q 2431 669 2431 922 
Q 2431 1156 2273 1281 
Q 2116 1406 1581 1522 
L 1381 1569 
Q 847 1681 609 1914 
Q 372 2147 372 2553 
Q 372 3047 722 3315 
Q 1072 3584 1716 3584 
Q 2034 3584 2315 3537 
Q 2597 3491 2834 3397 
z
" transform="scale(0.015625)"/>
      </defs>
      <use xlink:href="#DejaVuSans-70"/>
      <use xlink:href="#DejaVuSans-73" x="63.476562"/>
     </g>
    </g>
   </g>
  </g>
 </g>
 <defs>
  <clipPath id="pf53dad2894">
   <rect x="7.2" y="7.2" width="724.352319" height="1663.2"/>
  </clipPath>
 </defs>
</svg>
