<?xml version="1.0" encoding="utf-8" standalone="no"?>
<!DOCTYPE svg PUBLIC "-//W3C//DTD SVG 1.1//EN"
  "http://www.w3.org/Graphics/SVG/1.1/DTD/svg11.dtd">
<svg xmlns:xlink="http://www.w3.org/1999/xlink" width="1453.972421pt" height="1677.6pt" viewBox="0 0 1453.972421 1677.6" xmlns="http://www.w3.org/2000/svg" version="1.1">
 <metadata>
  <rdf:RDF xmlns:dc="http://purl.org/dc/elements/1.1/" xmlns:cc="http://creativecommons.org/ns#" xmlns:rdf="http://www.w3.org/1999/02/22-rdf-syntax-ns#">
   <cc:Work>
    <dc:type rdf:resource="http://purl.org/dc/dcmitype/StillImage"/>
    <dc:date>2023-12-08T14:21:24.892505</dc:date>
    <dc:format>image/svg+xml</dc:format>
    <dc:creator>
     <cc:Agent>
      <dc:title>Matplotlib v3.8.2, https://matplotlib.org/</dc:title>
     </cc:Agent>
    </dc:creator>
   </cc:Work>
  </rdf:RDF>
 </metadata>
 <defs>
  <style type="text/css">*{stroke-linejoin: round; stroke-linecap: butt}</style>
 </defs>
 <g id="figure_1">
  <g id="patch_1">
   <path d="M 0 1677.6 
L 1453.972421 1677.6 
L 1453.972421 0 
L 0 0 
z
" style="fill: #ffffff"/>
  </g>
  <g id="axes_1">
   <g id="LineCollection_1">
    <path d="M 106.253045 181.46907 
L 106.820133 181.388076 
L 113.658127 184.563891 
L 120.766452 188.542113 
L 126.98306 192.954966 
L 132.587832 198.003934 
L 134.756387 201.514126 
L 135.671197 204.350115 
L 136.782175 206.083223 
L 138.351852 206.414793 
L 140.001075 205.242101 
L 148.687097 194.143555 
L 150.815559 189.896991 
L 150.549508 186.829659 
L 148.375243 184.15153 
L 144.64547 180.638713 
L 137.198802 175.290513 
L 133.903835 171.031599 
L 129.344565 164.461773 
L 124.261301 159.666532 
L 119.188802 156.948435 
L 111.683312 155.45605 
L 104.47195 151.122504 
L 100.571764 145.906298 
L 95.686668 143.618793 
L 89.03407 141.053036 
L 87.02894 138.781746 
" clip-path="url(#pd961a936b2)" style="fill: none; stroke: #28c23f"/>
    <path d="M 74.831556 126.151038 
L 73.167005 123.189273 
L 72.63511 118.955104 
L 74.45902 113.362716 
L 77.432755 107.382382 
L 78.94331 105.835754 
L 86.98534 99.14783 
L 87.906679 99.134362 
L 90.78159 99.266999 
L 92.487742 99.317378 
L 96.497234 97.313913 
L 98.609968 95.51459 
L 103.892325 90.441212 
L 105.746395 88.959531 
L 108.561766 87.795726 
L 108.861026 87.670762 
L 108.635528 86.900556 
L 108.814132 86.780709 
" clip-path="url(#pd961a936b2)" style="fill: none; stroke: #28c23f"/>
    <path d="M 78.023267 130.931559 
L 77.084158 130.15911 
L 76.493964 129.108976 
" clip-path="url(#pd961a936b2)" style="fill: none; stroke: #28c23f"/>
    <path d="M 82.185553 134.355166 
L 80.589409 133.042293 
" clip-path="url(#pd961a936b2)" style="fill: none; stroke: #28c23f"/>
    <path d="M 86.187384 137.828479 
L 85.601644 137.164984 
L 84.666246 136.395599 
" clip-path="url(#pd961a936b2)" style="fill: none; stroke: #28c23f"/>
    <path d="M 281.624577 152.655558 
L 286.417916 156.247172 
L 290.331011 159.49155 
L 290.348444 159.610998 
" clip-path="url(#pd961a936b2)" style="fill: none; stroke: #28c23f"/>
    <path d="M 293.81654 187.378361 
L 292.958216 189.419954 
L 292.767469 190.4929 
L 293.05944 191.218985 
L 293.414592 191.542111 
L 295.528361 192.801282 
L 296.446231 193.048751 
" clip-path="url(#pd961a936b2)" style="fill: none; stroke: #28c23f"/>
    <path d="M 521.160461 378.850066 
L 545.88232 410.709859 
" clip-path="url(#pd961a936b2)" style="fill: none; stroke: #28c23f"/>
    <path d="M 791.896604 641.261116 
L 795.195947 643.255428 
L 804.024656 647.701189 
L 821.708149 657.995275 
L 826.549008 661.607597 
L 832.212443 666.120436 
L 839.982531 669.784539 
L 843.722892 672.440473 
" clip-path="url(#pd961a936b2)" style="fill: none; stroke: #28c23f"/>
    <path d="M 843.722892 672.440473 
L 849.352495 676.437873 
" clip-path="url(#pd961a936b2)" style="fill: none; stroke: #28c23f"/>
    <path d="M 1015.592186 808.523191 
L 1017.982662 810.847017 
L 1018.424023 813.748563 
" clip-path="url(#pd961a936b2)" style="fill: none; stroke: #28c23f"/>
    <path d="M 1302.711359 1097.495068 
L 1312.173081 1107.193961 
L 1318.330197 1109.829587 
L 1319.024912 1130.494891 
L 1323.281182 1141.902324 
" clip-path="url(#pd961a936b2)" style="fill: none; stroke: #28c23f"/>
    <path d="M 1323.281182 1141.902324 
L 1324.16616 1144.274173 
L 1325.522451 1146.020347 
L 1326.100932 1145.980357 
" clip-path="url(#pd961a936b2)" style="fill: none; stroke: #28c23f"/>
    <path d="M 1337.996608 1160.080738 
L 1340.882207 1168.005418 
L 1343.372741 1174.846848 
L 1349.863253 1188.235192 
L 1353.592151 1195.923922 
L 1362.179188 1224.180918 
L 1364.56944 1234.090211 
L 1367.669076 1250.441969 
L 1368.685133 1254.03751 
L 1374.961779 1263.061208 
L 1377.100386 1264.133694 
L 1378.351477 1264.760634 
L 1379.609558 1268.049326 
L 1381.337311 1275.613084 
L 1381.316907 1286.246963 
L 1380.122503 1295.975833 
L 1378.322893 1302.776799 
L 1378.091917 1303.651787 
L 1378.023272 1303.911405 
" clip-path="url(#pd961a936b2)" style="fill: none; stroke: #28c23f"/>
    <path d="M 1277.394115 1453.942841 
L 1278.533278 1455.187951 
L 1279.437429 1456.786213 
L 1281.389251 1460.242385 
L 1283.914362 1468.160262 
L 1283.416389 1481.922694 
L 1280.810106 1490.419651 
L 1278.448901 1496.863257 
" clip-path="url(#pd961a936b2)" style="fill: none; stroke: #28c23f"/>
    <path d="M 1249.521735 1533.723977 
L 1241.547608 1545.465009 
L 1240.332287 1547.25472 
L 1237.463968 1555.754081 
L 1234.248717 1558.992924 
L 1227.156392 1566.140284 
L 1218.963132 1572.278459 
L 1215.703135 1574.721045 
L 1215.350606 1574.839385 
" clip-path="url(#pd961a936b2)" style="fill: none; stroke: #28c23f"/>
    <path d="M 924.414158 1436.632684 
L 923.829933 1435.293343 
L 925.020346 1434.787452 
L 924.343689 1433.26299 
L 923.366861 1433.58745 
L 922.765681 1432.0713 
" clip-path="url(#pd961a936b2)" style="fill: none; stroke: #28c23f"/>
    <path d="M 835.190956 1384.190094 
L 818.79328 1377.18277 
L 811.267536 1372.241126 
L 800.873829 1361.945116 
L 791.399131 1351.885285 
L 786.188938 1345.271852 
L 785.717081 1340.569763 
L 786.568718 1333.288867 
L 785.191716 1330.24547 
L 782.124815 1330.091478 
L 780.82733 1330.451416 
L 774.358353 1332.240042 
L 765.831701 1331.828892 
L 755.992897 1328.558559 
L 748.066431 1326.613778 
L 737.943194 1325.912576 
L 737.915946 1325.901223 
" clip-path="url(#pd961a936b2)" style="fill: none; stroke: #28c23f"/>
    <path d="M 426.561427 1068.730064 
L 426.082522 1068.282565 
L 420.348746 1061.740484 
L 416.525546 1057.438 
L 414.021299 1054.363543 
L 411.858833 1051.581391 
" clip-path="url(#pd961a936b2)" style="fill: none; stroke: #28c23f"/>
    <path d="M 404.906777 1042.645336 
L 398.129641 1034.045677 
L 398.125364 1031.903217 
L 396.985283 1026.804567 
L 393.922 1024.06677 
L 390.363135 1020.884767 
L 380.248438 1014.009102 
L 363.804773 998.268981 
L 361.925403 993.883798 
L 362.400035 991.557628 
L 363.52825 990.753667 
L 364.239758 988.153498 
L 362.922543 984.396818 
L 359.849389 980.949403 
L 351.480499 969.030747 
L 349.62544 967.997743 
L 346.288424 967.62501 
L 344.413073 968.900531 
L 342.899357 969.536612 
L 338.817949 965.769124 
L 339.114045 964.43423 
L 338.319122 963.495112 
L 337.956889 961.143757 
L 337.901834 960.793507 
L 337.040125 957.138794 
L 335.090345 953.792824 
L 334.41497 952.945085 
L 332.680184 950.765027 
" clip-path="url(#pd961a936b2)" style="fill: none; stroke: #28c23f"/>
    <path d="M 279.242561 891.471446 
L 277.125133 889.397998 
L 276.247516 888.538426 
L 271.588963 883.976773 
" clip-path="url(#pd961a936b2)" style="fill: none; stroke: #28c23f"/>
    <path d="M 1278.448901 1496.863257 
L 1276.582887 1501.95547 
L 1267.740317 1512.738573 
L 1263.72445 1517.638201 
L 1255.262613 1527.104369 
L 1254.875141 1527.537641 
L 1253.987143 1528.530905 
" clip-path="url(#pd961a936b2)" style="fill: none; stroke: #28c23f"/>
    <path d="M 511.671032 366.620276 
L 521.160461 378.850066 
" clip-path="url(#pd961a936b2)" style="fill: none; stroke: #28c23f"/>
    <path d="M 1299.301607 1387.286417 
L 1297.755543 1390.210322 
L 1295.797537 1389.407888 
L 1294.534443 1388.634575 
" clip-path="url(#pd961a936b2)" style="fill: none; stroke: #28c23f"/>
   </g>
   <g id="LineCollection_2">
    <path d="M 146.302025 88.618579 
L 149.70134 90.625284 
L 150.031724 90.922453 
" clip-path="url(#pd961a936b2)" style="fill: none; stroke: #dbffe4"/>
    <path d="M 146.080513 88.227541 
L 146.302025 88.618579 
" clip-path="url(#pd961a936b2)" style="fill: none; stroke: #dbffe4"/>
    <path d="M 179.28267 160.50716 
L 183.040457 158.191799 
L 195.28596 151.126495 
L 199.713612 147.547534 
L 201.205176 144.905219 
L 201.260584 144.621317 
" clip-path="url(#pd961a936b2)" style="fill: none; stroke: #dbffe4"/>
    <path d="M 230.012204 125.099551 
L 229.408737 130.069906 
L 229.903055 132.512582 
L 231.79475 135.307276 
L 232.236095 139.732513 
L 232.747471 140.32345 
L 233.500029 140.300502 
L 238.897913 138.058733 
L 242.895659 133.262632 
L 246.306995 131.141679 
L 250.580478 131.33235 
L 253.967009 135.782224 
" clip-path="url(#pd961a936b2)" style="fill: none; stroke: #dbffe4"/>
    <path d="M 290.348444 159.610998 
L 290.536295 160.898135 
L 289.081033 166.577259 
L 289.116711 168.512818 
L 291.242238 173.197736 
L 293.309006 180.039278 
L 293.880693 187.225769 
L 293.81654 187.378361 
" clip-path="url(#pd961a936b2)" style="fill: none; stroke: #dbffe4"/>
    <path d="M 545.88232 410.709859 
L 565.49811 435.988018 
L 571.281389 439.163341 
" clip-path="url(#pd961a936b2)" style="fill: none; stroke: #dbffe4"/>
    <path d="M 963.907685 764.431668 
L 979.977782 775.200679 
L 990.358041 785.090857 
" clip-path="url(#pd961a936b2)" style="fill: none; stroke: #dbffe4"/>
    <path d="M 1026.060408 1541.691887 
L 1020.767944 1538.576029 
L 1013.242378 1530.639188 
L 1011.373855 1529.542604 
" clip-path="url(#pd961a936b2)" style="fill: none; stroke: #dbffe4"/>
    <path d="M 692.623354 1294.597426 
L 691.41646 1293.270493 
L 683.798932 1284.662854 
" clip-path="url(#pd961a936b2)" style="fill: none; stroke: #dbffe4"/>
    <path d="M 650.963171 1250.450918 
L 649.375151 1247.815449 
L 641.931006 1231.504452 
L 636.696743 1222.324059 
L 629.468178 1216.032923 
L 618.963662 1206.960134 
L 599.07967 1197.852654 
L 592.737856 1195.40599 
L 579.268531 1190.207015 
L 569.165788 1184.678405 
L 558.061017 1177.076095 
L 547.068003 1168.069738 
L 537.119981 1159.298576 
L 527.648441 1149.239729 
L 520.556076 1141.497652 
L 518.420766 1136.166078 
L 507.405223 1127.687094 
L 505.648252 1122.743619 
L 504.368348 1120.713236 
L 495.772694 1115.572959 
L 489.1045 1111.845458 
L 486.013653 1108.345343 
" clip-path="url(#pd961a936b2)" style="fill: none; stroke: #dbffe4"/>
    <path d="M 332.680184 950.765027 
L 332.550163 950.601633 
L 328.520441 945.542177 
L 302.088087 913.223092 
L 301.430801 912.419335 
" clip-path="url(#pd961a936b2)" style="fill: none; stroke: #dbffe4"/>
    <path d="M 271.588963 883.976773 
L 271.429075 883.82021 
L 269.52959 880.8897 
L 266.570851 877.954951 
L 261.103495 873.688335 
L 256.478778 869.049927 
L 250.838751 865.809824 
L 246.854867 862.31311 
L 243.423381 857.297082 
L 234.780939 844.670534 
L 233.379267 840.960702 
L 230.876026 834.335028 
L 229.59269 833.106512 
L 223.359397 827.141746 
L 219.821726 822.898768 
L 219.82094 822.897825 
" clip-path="url(#pd961a936b2)" style="fill: none; stroke: #dbffe4"/>
    <path d="M 82.918103 324.612962 
L 83.123229 322.815372 
L 85.004608 318.046314 
L 83.761192 312.181567 
L 83.703277 310.372737 
" clip-path="url(#pd961a936b2)" style="fill: none; stroke: #dbffe4"/>
    <path d="M 89.414963 286.140525 
L 89.572337 285.715446 
" clip-path="url(#pd961a936b2)" style="fill: none; stroke: #dbffe4"/>
    <path d="M 150.031724 90.922453 
L 153.048274 93.635723 
L 152.535893 96.522271 
L 154.566482 99.321286 
L 163.488364 104.425356 
L 169.756161 108.146973 
L 173.340999 114.806793 
L 172.741625 118.129139 
L 170.330856 121.032349 
L 155.255598 128.878104 
L 152.814776 131.531406 
L 151.62558 134.834439 
L 151.50513 140.98026 
L 153.644334 146.646788 
L 157.994945 152.038354 
L 166.125728 158.864982 
L 171.380799 161.671038 
L 173.616689 162.057456 
" clip-path="url(#pd961a936b2)" style="fill: none; stroke: #dbffe4"/>
    <path d="M 1042.443135 826.367881 
L 1049.03843 830.632793 
L 1057.704001 833.49886 
L 1064.669602 838.84689 
L 1072.405389 844.622683 
L 1078.34592 848.43117 
" clip-path="url(#pd961a936b2)" style="fill: none; stroke: #dbffe4"/>
    <path d="M 219.82094 822.897825 
L 214.774949 816.85011 
L 212.236028 804.256716 
L 206.287121 797.914166 
L 190.182753 778.074431 
L 183.3046 767.066145 
L 177.989767 756.430196 
L 176.999113 755.990268 
L 173.202573 757.092102 
L 171.255927 755.72253 
L 161.275553 741.832109 
L 156.342256 740.420713 
L 147.445647 732.921015 
L 139.259429 724.985461 
L 135.251495 717.179183 
L 132.824548 708.809851 
L 127.43153 703.381111 
L 114.844385 686.549541 
L 114.049586 667.320197 
L 104.624977 640.04206 
L 100.338984 633.268576 
L 96.086077 616.032423 
L 94.158386 611.062747 
L 90.594863 600.558028 
L 90.002296 594.279789 
L 92.166276 588.273887 
L 107.314659 568.666213 
L 108.918961 564.633661 
L 109.07035 555.842097 
L 112.449721 543.76238 
L 111.801694 539.850084 
L 106.913666 531.640847 
L 104.333518 524.365799 
L 98.941922 499.87192 
L 98.221045 492.490919 
L 103.430095 481.822688 
L 107.291663 474.649126 
L 104.552658 459.996328 
L 103.913039 456.828935 
L 93.712262 444.155315 
L 90.844764 438.568471 
L 89.917788 429.661229 
L 82.344605 412.676897 
L 77.391699 406.107628 
L 72.802791 400.87288 
L 72.98198 400.073816 
" clip-path="url(#pd961a936b2)" style="fill: none; stroke: #dbffe4"/>
    <path d="M 89.572337 285.715446 
L 92.965007 276.551501 
L 97.069294 267.926649 
L 98.345762 265.248256 
L 98.623029 264.935881 
L 105.292299 257.446888 
L 109.43394 254.390019 
L 110.309303 251.222993 
L 109.745661 245.705788 
L 109.332291 242.533699 
L 111.130058 236.492877 
L 113.563728 232.991409 
L 116.292857 231.050735 
L 116.82202 228.797566 
L 108.771058 214.139479 
L 102.396607 205.877934 
L 95.400321 196.678319 
L 91.786103 192.797305 
L 92.866687 188.712222 
L 96.984817 185.53052 
L 104.427565 181.72979 
L 106.253045 181.46907 
" clip-path="url(#pd961a936b2)" style="fill: none; stroke: #dbffe4"/>
    <path d="M 1149.228812 910.02991 
L 1153.162068 913.249152 
L 1164.337488 920.74024 
L 1185.274589 934.299952 
L 1184.88751 944.363624 
L 1184.820479 946.101649 
L 1198.687325 955.464805 
L 1210.222473 962.487199 
L 1216.893574 972.684016 
" clip-path="url(#pd961a936b2)" style="fill: none; stroke: #dbffe4"/>
    <path d="M 459.64531 300.79845 
L 460.46498 304.169 
L 463.492961 308.084273 
L 468.476103 311.870514 
L 469.544152 314.561031 
" clip-path="url(#pd961a936b2)" style="fill: none; stroke: #dbffe4"/>
    <path d="M 583.448567 444.259734 
L 585.25473 444.686519 
L 595.089681 453.961391 
L 599.208384 453.534367 
" clip-path="url(#pd961a936b2)" style="fill: none; stroke: #dbffe4"/>
    <path d="M 1216.893574 972.684016 
L 1222.329481 980.992705 
" clip-path="url(#pd961a936b2)" style="fill: none; stroke: #dbffe4"/>
    <path d="M 1237.246717 998.284579 
L 1238.55941 1002.246175 
L 1248.721501 1013.286282 
L 1248.951565 1020.116741 
L 1254.145936 1027.302388 
L 1260.603717 1036.235134 
L 1266.641888 1050.582497 
L 1277.856288 1063.35521 
L 1286.319247 1072.991967 
L 1291.243404 1077.637655 
" clip-path="url(#pd961a936b2)" style="fill: none; stroke: #dbffe4"/>
    <path d="M 1133.528163 1589.637608 
L 1130.551783 1586.26565 
L 1128.0921 1585.617257 
L 1127.193015 1585.715334 
" clip-path="url(#pd961a936b2)" style="fill: none; stroke: #dbffe4"/>
   </g>
   <g id="LineCollection_3">
    <path d="M 108.814132 86.780709 
L 111.345061 85.082409 
L 117.400739 82.8 
L 119.295559 84.074934 
L 120.855997 84.63771 
L 120.814091 85.570667 
L 121.820865 85.575464 
L 121.849484 84.607277 
L 122.956367 84.611197 
L 122.948143 85.155054 
L 123.745523 85.172555 
L 123.774307 84.859627 
L 128.799025 85.109343 
L 129.762759 86.128669 
L 132.416561 85.996702 
L 133.378367 85.947505 
L 137.756946 86.512799 
L 137.997452 86.485477 
" clip-path="url(#pd961a936b2)" style="fill: none; stroke: #e9a23d"/>
    <path d="M 325.256262 210.839631 
L 325.233442 210.92321 
L 326.894819 212.596911 
L 323.919981 216.274838 
L 322.702126 219.2384 
L 322.34354 221.24543 
L 323.090917 222.513971 
L 324.381278 223.12243 
L 326.163013 222.687897 
L 327.0941 222.301699 
L 332.780366 219.942829 
L 334.17441 219.465359 
" clip-path="url(#pd961a936b2)" style="fill: none; stroke: #e9a23d"/>
    <path d="M 1369.215092 1331.666493 
L 1369.073525 1332.080271 
L 1368.096802 1334.914589 
L 1366.888986 1338.419976 
L 1363.005144 1344.811311 
L 1356.223392 1356.502377 
L 1355.912131 1356.747342 
L 1348.830556 1362.331843 
L 1348.176719 1362.84654 
L 1339.453781 1371.054148 
L 1331.687198 1379.34228 
L 1330.891256 1379.890727 
" clip-path="url(#pd961a936b2)" style="fill: none; stroke: #e9a23d"/>
    <path d="M 1330.891256 1379.890727 
L 1324.880793 1384.032226 
L 1320.778224 1385.626653 
L 1318.490485 1386.439715 
L 1316.538943 1386.703062 
L 1310.934802 1385.546669 
L 1302.704727 1384.377253 
L 1301.328296 1384.624214 
L 1300.014014 1385.939114 
L 1299.301607 1387.286417 
" clip-path="url(#pd961a936b2)" style="fill: none; stroke: #e9a23d"/>
    <path d="M 864.865169 686.458787 
L 866.469543 688.316704 
L 869.806674 688.152611 
L 874.698471 692.234677 
L 877.773687 698.440704 
L 876.987859 708.728219 
L 884.614442 722.263131 
" clip-path="url(#pd961a936b2)" style="fill: none; stroke: #e9a23d"/>
    <path d="M 1294.534443 1388.634575 
L 1293.921596 1388.259367 
L 1292.579015 1388.359176 
L 1292.110386 1389.228259 
L 1289.537265 1398.649355 
L 1289.929154 1409.583802 
L 1285.991642 1420.524174 
L 1281.841001 1425.463208 
L 1275.40614 1429.649098 
L 1268.598158 1429.148389 
L 1266.236678 1430.997975 
L 1264.788829 1435.250537 
L 1265.06625 1439.636219 
L 1268.417486 1445.844222 
L 1274.360707 1450.627296 
L 1277.394115 1453.942841 
" clip-path="url(#pd961a936b2)" style="fill: none; stroke: #e9a23d"/>
   </g>
   <g id="LineCollection_4">
    <path d="M 76.493964 129.108976 
L 74.831556 126.151038 
" clip-path="url(#pd961a936b2)" style="fill: none; stroke: #ec4243"/>
    <path d="M 80.589409 133.042293 
L 78.023267 130.931559 
" clip-path="url(#pd961a936b2)" style="fill: none; stroke: #ec4243"/>
    <path d="M 84.666246 136.395599 
L 82.185553 134.355166 
" clip-path="url(#pd961a936b2)" style="fill: none; stroke: #ec4243"/>
    <path d="M 87.02894 138.781746 
L 86.187384 137.828479 
" clip-path="url(#pd961a936b2)" style="fill: none; stroke: #ec4243"/>
    <path d="M 137.997452 86.485477 
L 141.724313 86.062083 
L 145.23994 86.743664 
L 146.080513 88.227541 
" clip-path="url(#pd961a936b2)" style="fill: none; stroke: #ec4243"/>
    <path d="M 173.616689 162.057456 
L 174.240477 162.165262 
L 177.919282 161.347207 
L 179.28267 160.50716 
" clip-path="url(#pd961a936b2)" style="fill: none; stroke: #ec4243"/>
    <path d="M 201.260584 144.621317 
L 202.42934 138.632773 
L 200.195552 134.459836 
L 200.908442 133.088667 
L 200.660021 131.826552 
L 199.487228 130.656852 
L 199.58485 129.318283 
L 200.756101 127.782668 
L 203.356049 125.946281 
L 205.40751 126.254507 
L 208.749594 128.691168 
L 211.742409 131.468042 
L 214.440283 132.121308 
L 216.392825 131.932827 
L 217.632813 130.624982 
L 218.358126 127.92958 
L 217.604029 123.776266 
L 215.786184 120.309329 
L 215.74693 118.167162 
L 216.86506 116.286698 
L 218.923805 114.686156 
L 221.144723 114.65844 
L 223.43019 116.696535 
L 228.325184 119.883489 
L 229.924886 121.946649 
L 230.015475 125.072614 
L 230.012204 125.099551 
" clip-path="url(#pd961a936b2)" style="fill: none; stroke: #ec4243"/>
    <path d="M 253.967009 135.782224 
L 254.03766 135.875059 
L 257.564124 138.812982 
L 262.53953 140.171993 
L 270.144935 144.357172 
L 272.770171 148.531979 
L 275.856687 151.612413 
L 281.443726 152.520047 
L 281.624577 152.655558 
" clip-path="url(#pd961a936b2)" style="fill: none; stroke: #ec4243"/>
    <path d="M 296.446231 193.048751 
L 299.228833 193.79897 
L 302.726779 196.840356 
L 306.91088 198.219825 
L 308.759241 200.283413 
L 312.53222 201.508814 
L 317.094301 201.392212 
L 319.9254 202.82987 
L 325.698551 209.219753 
L 325.256262 210.839631 
" clip-path="url(#pd961a936b2)" style="fill: none; stroke: #ec4243"/>
    <path d="M 334.17441 219.465359 
L 341.834645 216.841641 
L 343.350441 216.319726 
L 345.250731 216.707949 
L 346.757566 218.097514 
L 351.186036 224.00713 
L 357.4925 230.710257 
L 358.448785 230.655524 
L 361.839591 226.846033 
L 367.304014 220.818455 
L 370.779173 220.238273 
L 376.084949 223.045861 
L 382.792532 221.903926 
L 389.697196 225.602606 
L 397.884134 227.957533 
L 400.522665 229.410348 
L 406.542454 236.374123 
L 410.888928 243.863986 
L 411.388048 255.934268 
L 412.949205 259.862755 
L 416.923358 263.236757 
L 417.493995 261.317532 
L 419.594583 260.042605 
L 424.543048 264.751021 
L 425.236299 268.040155 
L 423.690575 272.681593 
L 422.783678 274.943693 
L 423.078729 276.626787 
L 424.944555 277.711259 
L 429.206272 276.949891 
L 437.538316 278.903616 
L 443.476782 282.336083 
L 447.987036 283.236415 
L 450.45838 284.845618 
L 452.171798 287.28816 
" clip-path="url(#pd961a936b2)" style="fill: none; stroke: #ec4243"/>
    <path d="M 452.171798 287.28816 
L 458.582017 296.426082 
L 459.64531 300.79845 
" clip-path="url(#pd961a936b2)" style="fill: none; stroke: #ec4243"/>
    <path d="M 990.358041 785.090857 
L 1006.932278 800.882144 
L 1011.106904 804.162935 
L 1015.592186 808.523191 
" clip-path="url(#pd961a936b2)" style="fill: none; stroke: #ec4243"/>
    <path d="M 963.569972 764.205353 
L 963.907685 764.431668 
" clip-path="url(#pd961a936b2)" style="fill: none; stroke: #ec4243"/>
    <path d="M 1018.424023 813.748563 
L 1018.646758 815.212832 
L 1031.511519 823.197573 
L 1041.715086 825.897078 
L 1042.443135 826.367881 
" clip-path="url(#pd961a936b2)" style="fill: none; stroke: #ec4243"/>
    <path d="M 1222.329481 980.992705 
L 1225.581602 985.963461 
L 1228.875708 985.49716 
L 1234.036611 988.596658 
L 1237.246717 998.284579 
" clip-path="url(#pd961a936b2)" style="fill: none; stroke: #ec4243"/>
    <path d="M 1291.243404 1077.637655 
L 1298.173761 1084.17601 
L 1301.517732 1088.913083 
L 1302.488175 1090.285031 
L 1301.910928 1096.674564 
L 1302.711359 1097.495068 
" clip-path="url(#pd961a936b2)" style="fill: none; stroke: #ec4243"/>
    <path d="M 1326.100932 1145.980357 
L 1330.99968 1145.641701 
L 1332.936979 1149.160485 
L 1332.120248 1151.063383 
L 1333.133448 1154.37621 
L 1336.632946 1156.335699 
L 1337.996608 1160.080738 
" clip-path="url(#pd961a936b2)" style="fill: none; stroke: #ec4243"/>
    <path d="M 1378.023272 1303.911405 
L 1377.286136 1306.699267 
L 1372.76908 1321.348616 
L 1370.266782 1328.612944 
" clip-path="url(#pd961a936b2)" style="fill: none; stroke: #ec4243"/>
    <path d="M 1253.987143 1528.530905 
L 1250.082246 1532.898677 
L 1249.521735 1533.723977 
" clip-path="url(#pd961a936b2)" style="fill: none; stroke: #ec4243"/>
    <path d="M 1215.350606 1574.839385 
L 1207.751585 1577.390259 
L 1206.310387 1578.265809 
L 1202.835628 1580.375976 
L 1200.195935 1585.414643 
L 1194.264212 1591.090792 
L 1190.018736 1591.389276 
L 1186.546983 1591.076828 
L 1185.661522 1589.097686 
L 1186.071003 1586.671267 
L 1185.273591 1584.778296 
L 1181.341422 1581.702346 
L 1178.726525 1580.343154 
L 1175.61327 1581.237204 
L 1169.773014 1587.173402 
L 1165.447457 1588.424188 
L 1159.034202 1588.917069 
L 1151.582805 1592.486646 
L 1145.929633 1594.070733 
L 1144.365482 1594.509638 
L 1139.524146 1594.8 
L 1134.457594 1590.690561 
L 1133.528163 1589.637608 
" clip-path="url(#pd961a936b2)" style="fill: none; stroke: #ec4243"/>
    <path d="M 1011.373855 1529.542604 
L 1004.732923 1525.645195 
L 994.645077 1515.774571 
L 983.787511 1508.72512 
L 974.447444 1500.008357 
L 969.671366 1494.122917 
L 960.403343 1479.967585 
L 959.372379 1478.117962 
" clip-path="url(#pd961a936b2)" style="fill: none; stroke: #ec4243"/>
    <path d="M 922.765681 1432.0713 
L 920.478511 1426.303121 
L 916.086184 1422.126855 
L 915.268694 1422.022963 
L 909.824931 1421.328473 
L 906.546203 1418.365359 
L 883.57624 1407.574717 
L 864.455514 1397.202203 
L 863.302905 1396.576631 
L 852.957587 1391.780887 
L 850.731252 1390.830794 
L 835.190956 1384.190094 
" clip-path="url(#pd961a936b2)" style="fill: none; stroke: #ec4243"/>
    <path d="M 737.915946 1325.901223 
L 728.033548 1321.783529 
L 715.159641 1315.117585 
L 701.45006 1304.301953 
L 692.623354 1294.597426 
" clip-path="url(#pd961a936b2)" style="fill: none; stroke: #ec4243"/>
    <path d="M 683.798932 1284.662854 
L 678.594137 1278.781468 
L 660.659498 1262.598777 
L 659.933004 1261.879443 
L 655.162682 1257.420349 
L 650.963171 1250.450918 
" clip-path="url(#pd961a936b2)" style="fill: none; stroke: #ec4243"/>
    <path d="M 486.013653 1108.345343 
L 479.535713 1101.009567 
L 469.341962 1096.185282 
L 467.204097 1096.95216 
L 463.262557 1093.961372 
L 460.598667 1089.86068 
L 459.468239 1086.281861 
L 461.593628 1082.676568 
L 460.497092 1080.394363 
L 453.698343 1079.25355 
L 443.277596 1078.680766 
L 437.193791 1075.537798 
L 432.242179 1072.444491 
L 427.932857 1070.011555 
L 426.561427 1068.730064 
" clip-path="url(#pd961a936b2)" style="fill: none; stroke: #ec4243"/>
    <path d="M 411.858833 1051.581391 
L 405.376664 1043.241581 
L 404.906777 1042.645336 
" clip-path="url(#pd961a936b2)" style="fill: none; stroke: #ec4243"/>
    <path d="M 296.660141 907.496246 
L 291.859029 903.090299 
" clip-path="url(#pd961a936b2)" style="fill: none; stroke: #ec4243"/>
    <path d="M 291.859029 903.090299 
L 289.778812 901.181286 
L 279.926397 892.141076 
L 279.242561 891.471446 
" clip-path="url(#pd961a936b2)" style="fill: none; stroke: #ec4243"/>
    <path d="M 75.484276 394.868703 
L 75.432424 394.244231 
" clip-path="url(#pd961a936b2)" style="fill: none; stroke: #ec4243"/>
    <path d="M 87.336281 344.091296 
L 85.950939 333.22866 
L 82.685636 326.650139 
L 82.918103 324.612962 
" clip-path="url(#pd961a936b2)" style="fill: none; stroke: #ec4243"/>
    <path d="M 75.432424 394.244231 
L 75.171084 391.096797 
L 81.012053 383.384033 
L 83.043883 377.142737 
L 81.651115 370.52887 
L 84.408325 363.049584 
L 88.383135 352.2997 
L 87.336281 344.091296 
" clip-path="url(#pd961a936b2)" style="fill: none; stroke: #ec4243"/>
    <path d="M 83.703277 310.372737 
L 83.638915 308.362553 
L 86.816574 301.695269 
L 86.838558 293.791183 
L 88.666045 288.16341 
L 89.414963 286.140525 
" clip-path="url(#pd961a936b2)" style="fill: none; stroke: #ec4243"/>
    <path d="M 884.614442 722.263131 
L 889.836048 731.529758 
L 890.388593 732.508889 
L 895.234646 736.436331 
L 894.610964 741.192065 
L 910.807075 755.117742 
L 932.18621 769.253383 
L 942.980739 761.561807 
L 946.724851 762.059891 
L 947.270069 758.457686 
L 956.383386 756.687146 
L 960.645758 762.245719 
L 963.569972 764.205353 
" clip-path="url(#pd961a936b2)" style="fill: none; stroke: #ec4243"/>
    <path d="M 490.54566 340.869167 
L 495.3986 343.377471 
L 504.713913 355.012213 
L 509.516517 363.843542 
L 511.671032 366.620276 
" clip-path="url(#pd961a936b2)" style="fill: none; stroke: #ec4243"/>
    <path d="M 959.372379 1478.117962 
L 957.285484 1474.373906 
L 950.971109 1467.890964 
L 939.233352 1458.524706 
L 931.500345 1451.138592 
L 927.22074 1445.92269 
L 926.442781 1441.283305 
L 924.414158 1436.632684 
" clip-path="url(#pd961a936b2)" style="fill: none; stroke: #ec4243"/>
    <path d="M 1078.34592 848.43117 
L 1081.717974 850.59298 
L 1093.726188 859.346519 
L 1101.497173 864.896157 
L 1106.739595 868.650597 
L 1111.663265 873.617938 
L 1116.963506 876.414737 
L 1121.509007 879.237659 
L 1129.794627 886.421808 
L 1132.749589 893.487613 
L 1137.536519 900.460002 
L 1149.228812 910.02991 
" clip-path="url(#pd961a936b2)" style="fill: none; stroke: #ec4243"/>
    <path d="M 599.208384 453.534367 
L 599.313969 453.52342 
L 613.825094 467.99513 
L 623.157359 480.69206 
L 635.474869 493.715257 
L 643.475023 502.033106 
L 653.619265 506.28836 
L 658.127091 512.329549 
L 662.491062 517.436725 
L 663.199447 522.112257 
L 670.332663 528.472075 
L 679.290755 539.089362 
L 680.40271 545.710671 
L 678.388782 548.578468 
L 677.511757 551.245571 
L 678.477798 555.695793 
L 692.192235 567.620922 
L 703.644733 575.137467 
L 716.700388 583.125949 
L 723.865285 588.025156 
L 728.628497 592.932719 
L 744.740496 606.534733 
L 757.550784 615.014505 
L 768.109938 625.350105 
L 775.238569 629.692014 
L 781.584628 633.43748 
L 786.383304 637.928535 
L 791.896604 641.261116 
" clip-path="url(#pd961a936b2)" style="fill: none; stroke: #ec4243"/>
    <path d="M 469.544152 314.561031 
L 474.38599 326.757938 
L 490.24364 340.713063 
L 490.54566 340.869167 
" clip-path="url(#pd961a936b2)" style="fill: none; stroke: #ec4243"/>
    <path d="M 571.281389 439.163341 
L 578.383995 443.062992 
L 583.448567 444.259734 
" clip-path="url(#pd961a936b2)" style="fill: none; stroke: #ec4243"/>
    <path d="M 849.352495 676.437873 
L 849.82549 676.77373 
L 860.751175 681.694622 
L 864.865169 686.458787 
" clip-path="url(#pd961a936b2)" style="fill: none; stroke: #ec4243"/>
    <path d="M 1127.193015 1585.715334 
L 1126.564362 1585.783909 
L 1120.128954 1586.486184 
L 1114.657841 1585.132018 
L 1111.263433 1582.779485 
L 1107.479161 1578.046132 
L 1103.220114 1568.61081 
L 1101.844815 1567.58098 
" clip-path="url(#pd961a936b2)" style="fill: none; stroke: #ec4243"/>
    <path d="M 1101.844815 1567.58098 
L 1098.465145 1565.050255 
L 1096.716387 1561.643593 
L 1091.204592 1555.947631 
L 1082.453768 1551.383225 
L 1067.892308 1548.219145 
L 1057.465746 1548.012399 
L 1046.868048 1549.150321 
L 1042.348466 1548.705962 
L 1041.7726 1548.648819 
L 1031.496566 1544.892308 
L 1026.060408 1541.691887 
" clip-path="url(#pd961a936b2)" style="fill: none; stroke: #ec4243"/>
    <path d="M 301.430801 912.419335 
L 299.644454 910.234907 
L 296.660141 907.496246 
" clip-path="url(#pd961a936b2)" style="fill: none; stroke: #ec4243"/>
   </g>
   <g id="legend_1">
    <g id="patch_2">
     <path d="M 1395.075546 73.9125 
L 1439.772421 73.9125 
Q 1441.772421 73.9125 1441.772421 71.9125 
L 1441.772421 14.2 
Q 1441.772421 12.2 1439.772421 12.2 
L 1395.075546 12.2 
Q 1393.075546 12.2 1393.075546 14.2 
L 1393.075546 71.9125 
Q 1393.075546 73.9125 1395.075546 73.9125 
z
" style="fill: #ffffff; opacity: 0.8; stroke: #cccccc; stroke-linejoin: miter"/>
    </g>
    <g id="line2d_1">
     <path d="M 1397.075546 20.298438 
L 1417.075546 20.298438 
" style="fill: none; stroke: #28c23f"/>
    </g>
    <g id="text_1">
     <!-- fa -->
     <g transform="translate(1425.075546 23.798438) scale(0.1 -0.1)">
      <defs>
       <path id="DejaVuSans-66" d="M 2375 4863 
L 2375 4384 
L 1825 4384 
Q 1516 4384 1395 4259 
Q 1275 4134 1275 3809 
L 1275 3500 
L 2222 3500 
L 2222 3053 
L 1275 3053 
L 1275 0 
L 697 0 
L 697 3053 
L 147 3053 
L 147 3500 
L 697 3500 
L 697 3744 
Q 697 4328 969 4595 
Q 1241 4863 1831 4863 
L 2375 4863 
z
" transform="scale(0.015625)"/>
       <path id="DejaVuSans-61" d="M 2194 1759 
Q 1497 1759 1228 1600 
Q 959 1441 959 1056 
Q 959 750 1161 570 
Q 1363 391 1709 391 
Q 2188 391 2477 730 
Q 2766 1069 2766 1631 
L 2766 1759 
L 2194 1759 
z
M 3341 1997 
L 3341 0 
L 2766 0 
L 2766 531 
Q 2569 213 2275 61 
Q 1981 -91 1556 -91 
Q 1019 -91 701 211 
Q 384 513 384 1019 
Q 384 1609 779 1909 
Q 1175 2209 1959 2209 
L 2766 2209 
L 2766 2266 
Q 2766 2663 2505 2880 
Q 2244 3097 1772 3097 
Q 1472 3097 1187 3025 
Q 903 2953 641 2809 
L 641 3341 
Q 956 3463 1253 3523 
Q 1550 3584 1831 3584 
Q 2591 3584 2966 3190 
Q 3341 2797 3341 1997 
z
" transform="scale(0.015625)"/>
      </defs>
      <use xlink:href="#DejaVuSans-66"/>
      <use xlink:href="#DejaVuSans-61" x="35.205078"/>
     </g>
    </g>
    <g id="line2d_2">
     <path d="M 1397.075546 34.976562 
L 1417.075546 34.976562 
" style="fill: none; stroke: #dbffe4"/>
    </g>
    <g id="text_2">
     <!-- ff -->
     <g transform="translate(1425.075546 38.476562) scale(0.1 -0.1)">
      <use xlink:href="#DejaVuSans-66"/>
      <use xlink:href="#DejaVuSans-66" x="35.205078"/>
     </g>
    </g>
    <g id="line2d_3">
     <path d="M 1397.075546 49.654688 
L 1417.075546 49.654688 
" style="fill: none; stroke: #e9a23d"/>
    </g>
    <g id="text_3">
     <!-- pa -->
     <g transform="translate(1425.075546 53.154688) scale(0.1 -0.1)">
      <defs>
       <path id="DejaVuSans-70" d="M 1159 525 
L 1159 -1331 
L 581 -1331 
L 581 3500 
L 1159 3500 
L 1159 2969 
Q 1341 3281 1617 3432 
Q 1894 3584 2278 3584 
Q 2916 3584 3314 3078 
Q 3713 2572 3713 1747 
Q 3713 922 3314 415 
Q 2916 -91 2278 -91 
Q 1894 -91 1617 61 
Q 1341 213 1159 525 
z
M 3116 1747 
Q 3116 2381 2855 2742 
Q 2594 3103 2138 3103 
Q 1681 3103 1420 2742 
Q 1159 2381 1159 1747 
Q 1159 1113 1420 752 
Q 1681 391 2138 391 
Q 2594 391 2855 752 
Q 3116 1113 3116 1747 
z
" transform="scale(0.015625)"/>
      </defs>
      <use xlink:href="#DejaVuSans-70"/>
      <use xlink:href="#DejaVuSans-61" x="63.476562"/>
     </g>
    </g>
    <g id="line2d_4">
     <path d="M 1397.075546 64.332813 
L 1417.075546 64.332813 
" style="fill: none; stroke: #ec4243"/>
    </g>
    <g id="text_4">
     <!-- pp -->
     <g transform="translate(1425.075546 67.832813) scale(0.1 -0.1)">
      <use xlink:href="#DejaVuSans-70"/>
      <use xlink:href="#DejaVuSans-70" x="63.476562"/>
     </g>
    </g>
   </g>
  </g>
 </g>
 <defs>
  <clipPath id="pd961a936b2">
   <rect x="7.2" y="7.2" width="1439.572421" height="1663.2"/>
  </clipPath>
 </defs>
</svg>
