<?xml version="1.0" encoding="utf-8" standalone="no"?>
<!DOCTYPE svg PUBLIC "-//W3C//DTD SVG 1.1//EN"
  "http://www.w3.org/Graphics/SVG/1.1/DTD/svg11.dtd">
<svg xmlns:xlink="http://www.w3.org/1999/xlink" width="558.206016pt" height="1677.6pt" viewBox="0 0 558.206016 1677.6" xmlns="http://www.w3.org/2000/svg" version="1.1">
 <metadata>
  <rdf:RDF xmlns:dc="http://purl.org/dc/elements/1.1/" xmlns:cc="http://creativecommons.org/ns#" xmlns:rdf="http://www.w3.org/1999/02/22-rdf-syntax-ns#">
   <cc:Work>
    <dc:type rdf:resource="http://purl.org/dc/dcmitype/StillImage"/>
    <dc:date>2023-12-08T14:21:23.823940</dc:date>
    <dc:format>image/svg+xml</dc:format>
    <dc:creator>
     <cc:Agent>
      <dc:title>Matplotlib v3.8.2, https://matplotlib.org/</dc:title>
     </cc:Agent>
    </dc:creator>
   </cc:Work>
  </rdf:RDF>
 </metadata>
 <defs>
  <style type="text/css">*{stroke-linejoin: round; stroke-linecap: butt}</style>
 </defs>
 <g id="figure_1">
  <g id="patch_1">
   <path d="M 0 1677.6 
L 558.206016 1677.6 
L 558.206016 0 
L 0 0 
z
" style="fill: #ffffff"/>
  </g>
  <g id="axes_1">
   <g id="LineCollection_1">
    <path d="M 87.987747 82.979666 
L 88.891913 83.345335 
L 90.79555 84.84819 
L 92.734522 85.820986 
L 93.572644 87.872132 
L 95.69639 89.323559 
L 99.791309 89.891409 
L 103.882374 89.490197 
L 104.368418 87.645842 
L 106.42403 87.835228 
L 112.291818 88.375484 
L 116.583344 91.778802 
L 121.077763 96.512614 
L 123.456897 96.230694 
L 132.225003 102.669957 
L 137.338462 105.303445 
L 143.131559 109.901283 
L 146.325603 113.136595 
L 149.77001 113.989851 
L 153.950705 118.457637 
L 157.282144 119.463908 
L 162.216028 119.715337 
L 166.724815 120.042771 
L 171.42415 119.725683 
L 176.976287 122.08367 
L 182.69802 125.501441 
L 184.968321 129.772281 
L 187.128879 132.442655 
" clip-path="url(#p6bef87e12b)" style="fill: none; stroke: #28c23f"/>
    <path d="M 187.889309 133.382516 
L 189.329016 135.161929 
" clip-path="url(#p6bef87e12b)" style="fill: none; stroke: #28c23f"/>
    <path d="M 189.906037 135.846241 
L 194.48931 141.23033 
" clip-path="url(#p6bef87e12b)" style="fill: none; stroke: #28c23f"/>
    <path d="M 195.140534 141.995335 
L 195.686523 142.636716 
L 209.335298 158.15362 
L 215.034368 165.248829 
" clip-path="url(#p6bef87e12b)" style="fill: none; stroke: #28c23f"/>
    <path d="M 215.793735 166.218413 
L 224.401819 178.218474 
L 226.463115 180.267582 
" clip-path="url(#p6bef87e12b)" style="fill: none; stroke: #28c23f"/>
    <path d="M 227.252172 181.05197 
L 230.410295 184.191391 
L 231.619021 187.684192 
L 236.217528 193.316707 
" clip-path="url(#p6bef87e12b)" style="fill: none; stroke: #28c23f"/>
    <path d="M 237.464525 194.844087 
L 237.81811 195.277173 
L 240.462138 197.848367 
" clip-path="url(#p6bef87e12b)" style="fill: none; stroke: #28c23f"/>
    <path d="M 335.879437 533.239068 
L 336.426867 536.160323 
L 337.955007 544.308385 
L 337.472756 545.253523 
L 337.804731 546.174347 
" clip-path="url(#p6bef87e12b)" style="fill: none; stroke: #28c23f"/>
    <path d="M 342.27789 554.906291 
L 342.749474 555.608337 
L 343.09362 556.08329 
L 344.283347 558.855495 
L 345.01458 560.470189 
L 345.411828 561.269124 
" clip-path="url(#p6bef87e12b)" style="fill: none; stroke: #28c23f"/>
    <path d="M 346.341317 563.907724 
L 346.395504 564.907634 
L 345.950912 566.969306 
L 345.034224 569.17324 
L 334.989049 575.543529 
L 330.015591 579.389259 
L 327.864805 579.839756 
L 324.2854 580.181264 
L 322.639441 580.971659 
L 322.182087 582.035623 
L 322.715664 583.159544 
L 323.109536 583.297295 
L 324.163628 583.6687 
L 326.676765 585.101439 
L 328.834115 587.416453 
L 329.322432 589.606398 
L 329.618997 597.374566 
L 329.799889 599.130251 
L 330.19701 600.015308 
L 331.13936 600.104485 
L 331.411706 599.539217 
L 331.25151 596.073065 
L 332.646833 596.202903 
L 332.978896 600.236063 
L 333.214543 602.15956 
L 334.320909 604.413159 
L 336.277025 606.713736 
L 337.935578 608.02766 
L 339.48954 608.656875 
L 341.410728 608.990887 
L 344.471283 608.718139 
L 347.631567 609.201995 
L 351.049717 611.032183 
L 354.693221 614.028347 
L 356.644048 617.753816 
L 358.964719 628.868933 
L 362.013645 638.067364 
L 363.59612 649.249374 
L 365.935486 655.085678 
L 367.346894 663.957558 
L 369.069589 675.043713 
L 373.119869 685.595395 
L 377.147971 696.576387 
L 382.489813 718.651686 
L 384.252535 721.42017 
L 385.627666 725.802182 
L 385.849472 728.565535 
L 386.497767 729.692383 
L 389.2648 735.09936 
L 394.734994 749.016213 
L 397.227299 759.768168 
L 398.844393 761.615738 
" clip-path="url(#p6bef87e12b)" style="fill: none; stroke: #28c23f"/>
    <path d="M 405.260601 784.225196 
L 405.453367 784.912653 
L 408.918662 800.311336 
L 409.298793 801.997255 
L 409.462814 802.412548 
" clip-path="url(#p6bef87e12b)" style="fill: none; stroke: #28c23f"/>
    <path d="M 415.766927 812.530819 
L 423.89925 831.142037 
" clip-path="url(#p6bef87e12b)" style="fill: none; stroke: #28c23f"/>
    <path d="M 425.952765 838.604594 
L 426.056126 838.826684 
L 429.975472 847.913522 
L 432.741325 858.720129 
L 434.480931 865.274734 
L 440.54623 883.096584 
L 446.111635 903.988743 
L 449.007253 910.578926 
L 448.150214 916.502605 
L 449.424344 923.211595 
" clip-path="url(#p6bef87e12b)" style="fill: none; stroke: #28c23f"/>
    <path d="M 454.812503 1008.432762 
L 455.073695 1009.881091 
L 450.020239 1023.581084 
L 451.574103 1025.432001 
" clip-path="url(#p6bef87e12b)" style="fill: none; stroke: #28c23f"/>
    <path d="M 501.281928 1305.747187 
L 500.829097 1306.521242 
L 498.754355 1310.071499 
L 495.677074 1313.449141 
L 490.174496 1322.074372 
L 485.33584 1327.101977 
L 484.895318 1327.911241 
L 484.662048 1328.342694 
L 484.304142 1328.444623 
" clip-path="url(#p6bef87e12b)" style="fill: none; stroke: #28c23f"/>
    <path d="M 453.160732 1467.581865 
L 449.647769 1469.781113 
L 448.767403 1471.623389 
L 449.102831 1472.7287 
L 450.36777 1473.543395 
L 454.992091 1472.106798 
" clip-path="url(#p6bef87e12b)" style="fill: none; stroke: #28c23f"/>
    <path d="M 460.906029 1571.201875 
L 458.638965 1572.902747 
L 457.529909 1577.453326 
L 456.479885 1580.923375 
L 455.161721 1584.562419 
L 451.496279 1586.822776 
L 445.119705 1590.036304 
L 436.912784 1591.697535 
L 421.582509 1594.193869 
L 417.027981 1594.8 
L 414.47874 1594.330733 
L 411.858926 1593.096358 
L 410.517629 1592.485641 
L 408.529662 1590.542768 
L 408.28513 1589.159367 
L 408.736304 1588.001003 
L 408.497299 1587.309445 
L 406.984207 1586.575203 
L 404.585081 1584.059514 
L 402.871988 1583.317003 
L 402.606081 1580.215362 
L 402.46177 1577.529285 
L 399.783042 1575.839017 
" clip-path="url(#p6bef87e12b)" style="fill: none; stroke: #28c23f"/>
    <path d="M 388.048282 1544.617411 
L 385.685807 1538.856245 
L 381.514811 1533.327812 
L 380.638159 1528.977811 
L 378.683182 1526.987341 
" clip-path="url(#p6bef87e12b)" style="fill: none; stroke: #28c23f"/>
    <path d="M 225.389429 1115.995744 
L 223.988587 1112.555779 
L 224.06778 1112.534646 
" clip-path="url(#p6bef87e12b)" style="fill: none; stroke: #28c23f"/>
    <path d="M 215.564835 1104.967448 
L 214.11244 1101.884358 
L 212.983871 1099.528212 
L 209.304495 1091.725584 
L 205.112311 1088.046542 
L 199.3671 1080.902702 
L 200.601731 1078.839507 
L 196.94169 1072.847499 
L 192.119113 1066.29407 
L 189.766974 1056.156267 
L 190.234581 1049.838333 
L 189.993385 1042.348864 
L 188.497955 1034.779313 
L 186.886714 1032.35191 
L 184.24406 1023.071041 
L 182.386147 1013.299984 
L 183.167978 1009.668557 
L 181.680712 1005.771948 
L 180.625168 1003.008533 
L 177.134806 999.037117 
L 171.740897 993.312499 
L 167.906144 988.41231 
L 166.253419 984.591214 
L 163.415955 976.363397 
L 162.106662 973.64967 
L 161.341692 972.441711 
L 160.354188 969.626282 
L 159.377235 968.459405 
L 158.591671 968.144753 
L 157.771037 967.816073 
L 157.68081 967.020344 
L 157.526377 965.660636 
L 156.578314 963.875484 
L 156.015218 961.591763 
L 155.448859 960.402387 
L 153.405501 952.349501 
L 151.832342 947.938358 
L 151.003019 944.433576 
L 151.983118 941.92534 
L 152.481389 939.15491 
L 151.145475 935.997956 
L 149.417325 929.451023 
L 149.769978 925.649297 
L 148.62419 922.786129 
L 146.481266 918.971847 
L 148.085468 915.9894 
L 145.664419 904.018723 
L 144.708436 900.987392 
L 144.907598 897.205645 
L 146.965935 892.373 
L 147.866382 889.867598 
L 148.095411 888.284453 
L 148.073238 886.874173 
L 146.871116 885.532918 
L 145.177418 880.927894 
L 142.939996 873.868538 
L 140.475867 866.05379 
L 138.936688 862.958345 
L 132.737888 856.130656 
L 132.135991 853.726165 
L 132.241864 851.008715 
" clip-path="url(#p6bef87e12b)" style="fill: none; stroke: #28c23f"/>
    <path d="M 108.250257 750.286699 
L 107.580424 749.537514 
L 106.213224 748.008935 
L 106.239924 747.02112 
L 105.167856 745.816112 
L 104.270668 744.063267 
L 103.628087 741.915795 
L 103.434379 740.737342 
" clip-path="url(#p6bef87e12b)" style="fill: none; stroke: #28c23f"/>
    <path d="M 100.848685 729.724974 
L 100.644805 729.075842 
L 100.526385 727.387271 
L 99.726292 722.403907 
L 100.789684 716.981509 
L 100.376518 714.433493 
L 97.245503 707.932972 
L 96.496437 704.17072 
L 93.70426 683.818539 
L 93.377153 682.216175 
L 93.326636 681.733681 
" clip-path="url(#p6bef87e12b)" style="fill: none; stroke: #28c23f"/>
    <path d="M 99.933533 667.438677 
L 99.843685 666.448853 
L 101.102085 666.713773 
L 101.243227 666.002016 
L 101.415055 665.142135 
L 101.378689 664.849854 
" clip-path="url(#p6bef87e12b)" style="fill: none; stroke: #28c23f"/>
    <path d="M 86.762348 637.916077 
L 86.691478 637.828904 
L 85.422105 633.414699 
L 85.993749 628.707473 
L 84.813827 620.561859 
L 84.86609 616.455091 
L 85.578359 608.39784 
L 84.972076 604.369334 
L 84.227892 596.788197 
L 84.125513 589.70589 
L 84.232939 578.630256 
L 84.110846 577.278429 
L 83.899483 574.933755 
L 81.71991 569.269821 
L 80.596282 565.613849 
L 79.366777 561.123281 
L 79.006726 557.706262 
L 80.624824 550.299261 
L 80.358187 548.445821 
L 79.172673 545.605541 
L 76.636459 541.897591 
L 75.350429 538.054303 
L 73.680392 532.206779 
L 73.734586 527.14528 
L 72.676428 523.176587 
L 73.0682 518.214466 
L 73.297718 514.666476 
L 73.071563 512.664815 
L 73.024201 512.246435 
L 70.005956 504.771545 
L 68.216769 494.699819 
L 66.515496 488.214061 
L 66.493458 483.929384 
L 66.83327 480.807375 
L 65.465761 475.609796 
L 62.709803 463.052883 
L 61.303369 458.013766 
L 57.938233 450.749571 
L 58.623763 447.279501 
" clip-path="url(#p6bef87e12b)" style="fill: none; stroke: #28c23f"/>
    <path d="M 37.858522 386.851273 
L 36.245431 381.591667 
" clip-path="url(#p6bef87e12b)" style="fill: none; stroke: #28c23f"/>
    <path d="M 253.063401 217.871831 
L 253.807148 219.356963 
" clip-path="url(#p6bef87e12b)" style="fill: none; stroke: #28c23f"/>
    <path d="M 378.683182 1526.987341 
L 377.415134 1525.696266 
L 375.436433 1523.683435 
L 371.548131 1522.798333 
L 369.317951 1519.818931 
L 366.975184 1515.081132 
L 359.036749 1499.02692 
L 358.499618 1491.700612 
L 355.387063 1478.581444 
L 346.526763 1463.825676 
L 345.2107 1459.410213 
L 344.531121 1457.130189 
" clip-path="url(#p6bef87e12b)" style="fill: none; stroke: #28c23f"/>
    <path d="M 344.531121 1457.130189 
L 342.277796 1449.57009 
L 341.452032 1446.800445 
L 338.980496 1438.505822 
L 336.83125 1434.64271 
L 334.381704 1430.240558 
L 330.427999 1416.831976 
L 325.415413 1407.704373 
L 323.430819 1398.031342 
L 317.117533 1382.059221 
L 316.602813 1377.943732 
L 319.571812 1373.01963 
L 320.039158 1369.126392 
L 318.877809 1365.48954 
L 315.163496 1357.287269 
L 313.160686 1349.423189 
L 312.673613 1348.653999 
L 311.641227 1347.021752 
L 305.490015 1344.668312 
L 303.765209 1343.122996 
L 296.350387 1328.350426 
L 291.179855 1317.037661 
L 290.544019 1310.418557 
L 288.782882 1305.338114 
L 287.368779 1301.14323 
L 284.969029 1297.627418 
L 276.131289 1282.792827 
L 270.545754 1274.417969 
L 268.969195 1269.048232 
L 267.937483 1261.106713 
L 263.905554 1256.756995 
L 260.051428 1248.896731 
L 258.296654 1242.738288 
L 254.983503 1237.001745 
L 254.651319 1230.11066 
L 255.231383 1227.567281 
L 246.949147 1210.435688 
L 241.598526 1197.194528 
L 239.861455 1187.143168 
L 236.923306 1180.575466 
L 237.080594 1175.122888 
L 235.796675 1172.047653 
L 235.16632 1169.772852 
L 235.590145 1163.286982 
L 233.636931 1159.797451 
L 232.993901 1154.816763 
L 230.673748 1146.563502 
L 229.668372 1137.426763 
L 228.371605 1127.223217 
L 229.834507 1126.911105 
L 229.029215 1124.933642 
" clip-path="url(#p6bef87e12b)" style="fill: none; stroke: #28c23f"/>
    <path d="M 132.241864 851.008715 
L 132.478961 844.923123 
L 132.618507 841.328792 
L 130.953971 839.125616 
L 130.193685 836.667235 
L 129.436114 819.315456 
L 128.801451 815.841603 
L 126.670249 810.337442 
L 125.508494 808.110872 
L 123.937141 804.855575 
L 122.569516 800.571725 
L 121.136345 789.710297 
L 117.196063 776.614875 
L 117.433244 774.146758 
L 118.97534 771.113623 
L 120.271614 766.941346 
L 119.723854 764.064098 
L 113.662274 756.339797 
L 108.250257 750.286699 
" clip-path="url(#p6bef87e12b)" style="fill: none; stroke: #28c23f"/>
    <path d="M 241.980098 199.50648 
L 247.983329 207.727711 
L 249.503639 210.763558 
" clip-path="url(#p6bef87e12b)" style="fill: none; stroke: #28c23f"/>
    <path d="M 250.112772 211.979906 
L 253.063401 217.871831 
" clip-path="url(#p6bef87e12b)" style="fill: none; stroke: #28c23f"/>
    <path d="M 254.679071 221.098032 
L 255.199513 222.137256 
L 259.151512 233.33095 
L 264.320765 242.077562 
L 266.822541 247.388938 
L 269.964374 256.560046 
L 278.238305 276.475766 
L 280.366473 282.823541 
L 282.593075 288.392196 
L 285.759146 297.448039 
L 287.615783 301.893173 
L 291.278821 314.163403 
L 293.623351 322.036543 
L 297.329978 333.478902 
L 299.488704 342.181288 
L 299.170918 351.111502 
L 299.31912 353.099526 
L 299.414032 354.361266 
L 300.341836 354.694936 
L 300.564937 355.082819 
L 301.077952 355.977005 
L 302.513252 358.477861 
L 304.54338 360.687424 
L 306.062547 363.89783 
L 306.597256 366.41378 
L 306.641186 366.618658 
L 306.943375 372.721701 
L 306.465386 377.185869 
L 306.195012 381.040246 
L 305.018068 384.45193 
L 304.856092 384.876485 
L 304.048861 386.98486 
L 301.790123 392.000514 
L 301.207365 393.227915 
L 299.827088 396.136538 
L 298.935168 398.015797 
L 298.10521 398.820649 
L 297.389811 403.853833 
L 297.915324 407.273258 
L 297.658419 410.940662 
L 296.42985 411.687871 
L 297.521986 415.20844 
L 296.654338 416.157384 
L 296.327494 418.68804 
L 298.550756 421.914056 
L 300.558448 423.540757 
L 303.69001 424.70461 
L 305.884008 425.963993 
L 308.694984 428.034396 
L 314.115951 433.168843 
L 315.42754 435.716079 
L 318.40264 444.740863 
L 319.289882 451.384218 
L 320.283889 455.419023 
L 321.22466 462.527906 
L 322.462803 471.871752 
L 324.915086 486.032507 
L 328.76006 500.345706 
L 329.978568 509.671257 
L 332.009917 518.849106 
L 334.134595 523.927959 
L 335.149941 529.346231 
" clip-path="url(#p6bef87e12b)" style="fill: none; stroke: #28c23f"/>
    <path d="M 57.907999 440.796661 
L 56.727151 437.04843 
L 52.508163 422.80568 
L 48.701675 413.792356 
L 44.147932 403.466091 
L 43.004991 396.200849 
L 41.105508 393.256808 
" clip-path="url(#p6bef87e12b)" style="fill: none; stroke: #28c23f"/>
   </g>
   <g id="LineCollection_2">
    <path d="M 82.668859 83.165657 
L 87.543498 82.8 
L 87.987747 82.979666 
" clip-path="url(#p6bef87e12b)" style="fill: none; stroke: #dbffe4"/>
    <path d="M 449.424344 923.211595 
L 450.61993 929.506932 
L 450.781346 930.073424 
" clip-path="url(#p6bef87e12b)" style="fill: none; stroke: #dbffe4"/>
    <path d="M 514.512062 1165.434895 
L 514.740793 1166.339358 
L 516.416451 1172.972481 
L 520.788224 1183.491584 
L 522.703937 1191.159865 
" clip-path="url(#p6bef87e12b)" style="fill: none; stroke: #dbffe4"/>
    <path d="M 524.159862 1231.975313 
L 523.396904 1243.798234 
L 525.068424 1251.131457 
" clip-path="url(#p6bef87e12b)" style="fill: none; stroke: #dbffe4"/>
    <path d="M 503.462567 1292.083271 
L 503.65266 1292.556158 
L 504.042326 1298.754696 
L 501.490001 1305.391513 
L 501.281928 1305.747187 
" clip-path="url(#p6bef87e12b)" style="fill: none; stroke: #dbffe4"/>
    <path d="M 478.116543 1344.75416 
L 478.087732 1345.065895 
L 477.999453 1346.015325 
L 477.790383 1349.959417 
L 477.70808 1351.502137 
L 477.886638 1357.848577 
L 478.320025 1360.550426 
" clip-path="url(#p6bef87e12b)" style="fill: none; stroke: #dbffe4"/>
    <path d="M 476.884298 1368.921218 
L 476.810229 1369.077652 
L 475.253994 1372.36189 
L 470.910695 1377.887449 
L 468.114064 1381.956136 
L 466.811916 1384.796383 
L 465.750802 1394.503929 
L 464.55768 1396.651176 
L 464.528199 1398.166672 
L 464.483611 1400.542576 
L 464.405009 1404.261559 
L 464.364159 1406.175474 
L 463.046074 1407.574589 
L 461.586156 1414.190042 
L 461.580399 1419.871069 
L 460.10386 1419.55537 
L 458.72686 1421.353376 
L 459.295228 1426.022603 
L 460.273592 1427.654625 
" clip-path="url(#p6bef87e12b)" style="fill: none; stroke: #dbffe4"/>
    <path d="M 476.129297 1480.123158 
L 476.843006 1480.713415 
L 478.66149 1482.214401 
L 480.403592 1485.984844 
L 482.302154 1492.240028 
L 481.533167 1500.415063 
L 481.672368 1501.837073 
" clip-path="url(#p6bef87e12b)" style="fill: none; stroke: #dbffe4"/>
    <path d="M 480.219468 1515.855402 
L 480.205933 1515.900697 
L 480.325055 1518.149709 
L 482.076216 1521.842039 
L 478.758173 1533.442706 
L 479.18524 1537.394752 
L 478.762089 1541.464177 
L 478.654882 1541.785542 
L 477.772824 1544.432677 
L 476.499435 1545.70406 
L 474.804999 1547.876266 
" clip-path="url(#p6bef87e12b)" style="fill: none; stroke: #dbffe4"/>
    <path d="M 463.334411 1559.326315 
L 463.128771 1559.625359 
" clip-path="url(#p6bef87e12b)" style="fill: none; stroke: #dbffe4"/>
    <path d="M 95.784498 650.45146 
L 95.11659 647.64919 
L 93.834055 644.327388 
L 89.09774 640.788701 
L 86.762348 637.916077 
" clip-path="url(#p6bef87e12b)" style="fill: none; stroke: #dbffe4"/>
    <path d="M 34.692101 371.820526 
L 35.670683 368.833756 
L 38.64508 365.495304 
L 41.225922 362.618504 
L 43.4814 360.178062 
L 44.57652 356.167942 
L 42.93148 348.388117 
L 38.509358 343.113319 
L 36.020401 338.16677 
L 35.011334 326.8309 
L 35.984756 318.183926 
L 32.265684 308.629715 
L 32.219503 296.93138 
L 31.918455 290.930916 
L 32.688315 284.626488 
L 33.504643 280.959894 
L 34.552073 279.385264 
L 36.346956 277.561126 
L 37.26743 273.836032 
L 38.609907 272.01627 
L 42.750472 267.859623 
L 44.643407 265.781984 
L 47.078586 257.122881 
L 47.715586 250.088809 
L 47.500621 243.613235 
L 49.106604 237.723634 
L 48.311009 228.393662 
L 48.538128 220.708607 
L 50.173472 212.810746 
L 54.094218 206.748811 
L 59.545128 202.829868 
L 61.49306 201.254683 
L 62.003414 200.319657 
L 57.964306 198.636265 
L 51.812064 193.441946 
L 49.19421 190.295222 
L 48.146772 185.519502 
L 49.481319 182.894969 
L 51.677555 180.865702 
L 51.94741 179.896056 
L 50.933563 176.85697 
L 49.650041 169.188608 
L 50.170234 165.668585 
L 52.083975 160.428887 
L 56.465681 155.415731 
L 58.024688 154.337513 
" clip-path="url(#p6bef87e12b)" style="fill: none; stroke: #dbffe4"/>
    <path d="M 80.323269 107.958869 
L 80.025078 107.490339 
L 77.429058 103.704939 
L 75.221479 95.495338 
L 75.64375 92.255477 
L 77.27261 88.472123 
L 79.628759 85.396191 
L 82.668859 83.165657 
" clip-path="url(#p6bef87e12b)" style="fill: none; stroke: #dbffe4"/>
    <path d="M 450.781346 930.073424 
L 454.291554 942.392401 
L 457.171814 956.747645 
L 459.209898 967.941324 
L 459.369575 977.839897 
L 456.695631 987.615045 
L 456.170292 994.705669 
L 455.429667 999.147872 
L 454.354473 1005.89294 
L 454.812503 1008.432762 
" clip-path="url(#p6bef87e12b)" style="fill: none; stroke: #dbffe4"/>
    <path d="M 463.128771 1559.625359 
L 462.636918 1560.340614 
L 458.938006 1561.209325 
L 458.075442 1563.02063 
L 458.947884 1565.38936 
L 461.353936 1566.360922 
L 461.315576 1568.246064 
L 461.260146 1570.936197 
L 460.906029 1571.201875 
" clip-path="url(#p6bef87e12b)" style="fill: none; stroke: #dbffe4"/>
    <path d="M 58.024688 154.337513 
L 58.967735 153.685294 
L 65.397621 152.117931 
L 69.916743 150.768246 
L 76.238194 143.075291 
L 81.790701 139.307175 
L 88.378979 138.388981 
L 91.069773 135.402162 
L 92.903811 132.470899 
L 95.239816 124.165772 
L 96.025709 116.978272 
L 93.355877 115.084576 
L 89.45991 113.449183 
L 83.191843 112.534918 
L 82.687842 111.724143 
" clip-path="url(#p6bef87e12b)" style="fill: none; stroke: #dbffe4"/>
   </g>
   <g id="LineCollection_3">
    <path d="M 398.844393 761.615738 
L 398.957048 761.744449 
L 405.260601 784.225196 
" clip-path="url(#p6bef87e12b)" style="fill: none; stroke: #e9a23d"/>
   </g>
   <g id="LineCollection_4">
    <path d="M 187.128879 132.442655 
L 187.889309 133.382516 
" clip-path="url(#p6bef87e12b)" style="fill: none; stroke: #ec4243"/>
    <path d="M 189.329016 135.161929 
L 189.434616 135.292446 
L 189.906037 135.846241 
" clip-path="url(#p6bef87e12b)" style="fill: none; stroke: #ec4243"/>
    <path d="M 194.48931 141.23033 
L 195.140534 141.995335 
" clip-path="url(#p6bef87e12b)" style="fill: none; stroke: #ec4243"/>
    <path d="M 215.034368 165.248829 
L 215.63143 165.99215 
L 215.793735 166.218413 
" clip-path="url(#p6bef87e12b)" style="fill: none; stroke: #ec4243"/>
    <path d="M 226.463115 180.267582 
L 227.252172 181.05197 
" clip-path="url(#p6bef87e12b)" style="fill: none; stroke: #ec4243"/>
    <path d="M 236.217528 193.316707 
L 237.464525 194.844087 
" clip-path="url(#p6bef87e12b)" style="fill: none; stroke: #ec4243"/>
    <path d="M 335.149941 529.346231 
L 335.879437 533.239068 
" clip-path="url(#p6bef87e12b)" style="fill: none; stroke: #ec4243"/>
    <path d="M 337.804731 546.174347 
L 339.215607 550.087789 
" clip-path="url(#p6bef87e12b)" style="fill: none; stroke: #ec4243"/>
    <path d="M 339.215607 550.087789 
L 339.417677 550.648283 
L 342.27789 554.906291 
" clip-path="url(#p6bef87e12b)" style="fill: none; stroke: #ec4243"/>
    <path d="M 345.411828 561.269124 
L 346.294532 563.044391 
L 346.341317 563.907724 
" clip-path="url(#p6bef87e12b)" style="fill: none; stroke: #ec4243"/>
    <path d="M 409.462814 802.412548 
L 413.600605 812.88913 
L 415.74812 812.487778 
L 415.766927 812.530819 
" clip-path="url(#p6bef87e12b)" style="fill: none; stroke: #ec4243"/>
    <path d="M 423.89925 831.142037 
L 423.977346 831.32076 
L 423.415984 833.159836 
L 425.52637 837.688405 
L 425.952765 838.604594 
" clip-path="url(#p6bef87e12b)" style="fill: none; stroke: #ec4243"/>
    <path d="M 451.574103 1025.432001 
L 452.995952 1027.125658 
L 455.199108 1030.069044 
" clip-path="url(#p6bef87e12b)" style="fill: none; stroke: #ec4243"/>
    <path d="M 522.703937 1191.159865 
L 523.624166 1194.843352 
L 524.793764 1199.520849 
L 526.287561 1205.29759 
L 524.703116 1224.816229 
L 524.304272 1229.737491 
L 524.159862 1231.975313 
" clip-path="url(#p6bef87e12b)" style="fill: none; stroke: #ec4243"/>
    <path d="M 525.068424 1251.131457 
L 526.057352 1255.469998 
L 524.967181 1263.344482 
L 521.184911 1270.100556 
L 510.080429 1276.616504 
L 499.934748 1280.927874 
L 498.193332 1283.986123 
L 498.588654 1284.932727 
L 499.185904 1286.359775 
L 502.346531 1289.306941 
L 503.462567 1292.083271 
" clip-path="url(#p6bef87e12b)" style="fill: none; stroke: #ec4243"/>
    <path d="M 484.304142 1328.444623 
L 481.65013 1329.20046 
L 479.147704 1333.596766 
L 478.116543 1344.75416 
" clip-path="url(#p6bef87e12b)" style="fill: none; stroke: #ec4243"/>
    <path d="M 478.320025 1360.550426 
L 478.690548 1362.860349 
L 477.918868 1366.736196 
L 476.884298 1368.921218 
" clip-path="url(#p6bef87e12b)" style="fill: none; stroke: #ec4243"/>
    <path d="M 460.273592 1427.654625 
L 462.356243 1431.128707 
L 464.681612 1432.029213 
L 465.56356 1433.406191 
L 465.521353 1434.907443 
L 464.725521 1435.420517 
L 461.903308 1437.24128 
L 459.477344 1438.43185 
L 457.476348 1440.874648 
L 457.373111 1442.146564 
L 457.221005 1450.514535 
L 452.951611 1454.532284 
L 448.024904 1455.741801 
L 447.748841 1456.927168 
L 449.268484 1457.07615 
L 451.176773 1457.783776 
L 453.340441 1460.950517 
L 455.751612 1461.063837 
L 455.922061 1464.113051 
L 454.097374 1466.995488 
L 453.160732 1467.581865 
" clip-path="url(#p6bef87e12b)" style="fill: none; stroke: #ec4243"/>
    <path d="M 454.992091 1472.106798 
L 455.121319 1472.066651 
L 459.852411 1472.528252 
L 462.425692 1474.85729 
L 465.041876 1477.003164 
L 466.366946 1479.623975 
L 467.665046 1479.703301 
L 470.199764 1478.337105 
L 473.3057 1478.305834 
L 475.636304 1479.715437 
L 476.129297 1480.123158 
" clip-path="url(#p6bef87e12b)" style="fill: none; stroke: #ec4243"/>
    <path d="M 481.672368 1501.837073 
L 481.833939 1503.487596 
L 482.845798 1507.066241 
L 480.219468 1515.855402 
" clip-path="url(#p6bef87e12b)" style="fill: none; stroke: #ec4243"/>
    <path d="M 474.804999 1547.876266 
L 472.186232 1551.233408 
L 467.10954 1553.834472 
L 463.576646 1558.974054 
L 463.334411 1559.326315 
" clip-path="url(#p6bef87e12b)" style="fill: none; stroke: #ec4243"/>
    <path d="M 399.783042 1575.839017 
L 399.172307 1575.453643 
L 398.758977 1574.944499 
L 397.589791 1573.506696 
L 395.568976 1568.552216 
L 391.308705 1552.568223 
L 388.048282 1544.617411 
" clip-path="url(#p6bef87e12b)" style="fill: none; stroke: #ec4243"/>
    <path d="M 229.029215 1124.933642 
L 225.389429 1115.995744 
" clip-path="url(#p6bef87e12b)" style="fill: none; stroke: #ec4243"/>
    <path d="M 224.06778 1112.534646 
L 227.527488 1111.611401 
L 228.985199 1108.930041 
L 227.774418 1107.453455 
L 226.673458 1108.614044 
L 224.863108 1107.84142 
L 224.598289 1107.634517 
" clip-path="url(#p6bef87e12b)" style="fill: none; stroke: #ec4243"/>
    <path d="M 224.598289 1107.634517 
L 223.98855 1107.158129 
L 218.209559 1106.687359 
L 216.967216 1106.262268 
L 216.101451 1105.619947 
L 215.58253 1105.00501 
L 215.564835 1104.967448 
" clip-path="url(#p6bef87e12b)" style="fill: none; stroke: #ec4243"/>
    <path d="M 93.326636 681.733681 
L 93.215449 680.671742 
L 94.010607 677.257864 
L 95.308201 675.233171 
L 96.84039 671.764896 
L 98.340968 670.072883 
L 100.022066 668.414014 
L 99.933533 667.438677 
" clip-path="url(#p6bef87e12b)" style="fill: none; stroke: #ec4243"/>
    <path d="M 101.378689 664.849854 
L 100.961918 661.500189 
L 98.300695 657.612833 
L 96.057394 651.596415 
L 95.784498 650.45146 
" clip-path="url(#p6bef87e12b)" style="fill: none; stroke: #ec4243"/>
    <path d="M 36.245431 381.591667 
L 34.830602 376.978468 
L 34.593658 372.120987 
L 34.692101 371.820526 
" clip-path="url(#p6bef87e12b)" style="fill: none; stroke: #ec4243"/>
    <path d="M 41.105508 393.256808 
L 38.623867 389.410442 
L 37.987274 387.271078 
L 37.977365 387.238769 
" clip-path="url(#p6bef87e12b)" style="fill: none; stroke: #ec4243"/>
    <path d="M 455.199108 1030.069044 
L 455.951998 1031.074889 
L 462.566965 1044.519957 
L 465.146861 1051.074258 
L 470.832003 1068.883312 
L 474.159794 1075.592255 
L 480.22912 1081.994333 
L 487.03047 1093.630622 
L 498.279909 1116.733838 
L 503.582806 1131.61882 
L 504.508509 1136.653995 
L 504.180621 1140.303654 
L 505.434033 1141.670692 
L 506.248408 1142.877914 
L 506.275017 1145.511803 
L 507.781184 1147.134978 
L 508.349123 1149.124876 
L 509.120687 1158.403356 
L 514.394323 1164.969322 
L 514.512062 1165.434895 
" clip-path="url(#p6bef87e12b)" style="fill: none; stroke: #ec4243"/>
    <path d="M 37.977365 387.238769 
L 37.858522 386.851273 
" clip-path="url(#p6bef87e12b)" style="fill: none; stroke: #ec4243"/>
    <path d="M 240.462138 197.848367 
L 241.521764 198.878799 
L 241.980098 199.50648 
" clip-path="url(#p6bef87e12b)" style="fill: none; stroke: #ec4243"/>
    <path d="M 249.503639 210.763558 
L 250.112772 211.979906 
" clip-path="url(#p6bef87e12b)" style="fill: none; stroke: #ec4243"/>
    <path d="M 253.807148 219.356963 
L 254.679071 221.098032 
" clip-path="url(#p6bef87e12b)" style="fill: none; stroke: #ec4243"/>
    <path d="M 103.434379 740.737342 
L 102.475745 734.905321 
L 100.848685 729.724974 
" clip-path="url(#p6bef87e12b)" style="fill: none; stroke: #ec4243"/>
    <path d="M 58.623763 447.279501 
L 59.135037 444.69148 
L 57.907999 440.796661 
" clip-path="url(#p6bef87e12b)" style="fill: none; stroke: #ec4243"/>
   </g>
   <g id="legend_1">
    <g id="patch_2">
     <path d="M 499.309141 73.9125 
L 544.006016 73.9125 
Q 546.006016 73.9125 546.006016 71.9125 
L 546.006016 14.2 
Q 546.006016 12.2 544.006016 12.2 
L 499.309141 12.2 
Q 497.309141 12.2 497.309141 14.2 
L 497.309141 71.9125 
Q 497.309141 73.9125 499.309141 73.9125 
z
" style="fill: #ffffff; opacity: 0.8; stroke: #cccccc; stroke-linejoin: miter"/>
    </g>
    <g id="line2d_1">
     <path d="M 501.309141 20.298438 
L 521.309141 20.298438 
" style="fill: none; stroke: #28c23f"/>
    </g>
    <g id="text_1">
     <!-- fa -->
     <g transform="translate(529.309141 23.798438) scale(0.1 -0.1)">
      <defs>
       <path id="DejaVuSans-66" d="M 2375 4863 
L 2375 4384 
L 1825 4384 
Q 1516 4384 1395 4259 
Q 1275 4134 1275 3809 
L 1275 3500 
L 2222 3500 
L 2222 3053 
L 1275 3053 
L 1275 0 
L 697 0 
L 697 3053 
L 147 3053 
L 147 3500 
L 697 3500 
L 697 3744 
Q 697 4328 969 4595 
Q 1241 4863 1831 4863 
L 2375 4863 
z
" transform="scale(0.015625)"/>
       <path id="DejaVuSans-61" d="M 2194 1759 
Q 1497 1759 1228 1600 
Q 959 1441 959 1056 
Q 959 750 1161 570 
Q 1363 391 1709 391 
Q 2188 391 2477 730 
Q 2766 1069 2766 1631 
L 2766 1759 
L 2194 1759 
z
M 3341 1997 
L 3341 0 
L 2766 0 
L 2766 531 
Q 2569 213 2275 61 
Q 1981 -91 1556 -91 
Q 1019 -91 701 211 
Q 384 513 384 1019 
Q 384 1609 779 1909 
Q 1175 2209 1959 2209 
L 2766 2209 
L 2766 2266 
Q 2766 2663 2505 2880 
Q 2244 3097 1772 3097 
Q 1472 3097 1187 3025 
Q 903 2953 641 2809 
L 641 3341 
Q 956 3463 1253 3523 
Q 1550 3584 1831 3584 
Q 2591 3584 2966 3190 
Q 3341 2797 3341 1997 
z
" transform="scale(0.015625)"/>
      </defs>
      <use xlink:href="#DejaVuSans-66"/>
      <use xlink:href="#DejaVuSans-61" x="35.205078"/>
     </g>
    </g>
    <g id="line2d_2">
     <path d="M 501.309141 34.976562 
L 521.309141 34.976562 
" style="fill: none; stroke: #dbffe4"/>
    </g>
    <g id="text_2">
     <!-- ff -->
     <g transform="translate(529.309141 38.476562) scale(0.1 -0.1)">
      <use xlink:href="#DejaVuSans-66"/>
      <use xlink:href="#DejaVuSans-66" x="35.205078"/>
     </g>
    </g>
    <g id="line2d_3">
     <path d="M 501.309141 49.654688 
L 521.309141 49.654688 
" style="fill: none; stroke: #e9a23d"/>
    </g>
    <g id="text_3">
     <!-- pa -->
     <g transform="translate(529.309141 53.154688) scale(0.1 -0.1)">
      <defs>
       <path id="DejaVuSans-70" d="M 1159 525 
L 1159 -1331 
L 581 -1331 
L 581 3500 
L 1159 3500 
L 1159 2969 
Q 1341 3281 1617 3432 
Q 1894 3584 2278 3584 
Q 2916 3584 3314 3078 
Q 3713 2572 3713 1747 
Q 3713 922 3314 415 
Q 2916 -91 2278 -91 
Q 1894 -91 1617 61 
Q 1341 213 1159 525 
z
M 3116 1747 
Q 3116 2381 2855 2742 
Q 2594 3103 2138 3103 
Q 1681 3103 1420 2742 
Q 1159 2381 1159 1747 
Q 1159 1113 1420 752 
Q 1681 391 2138 391 
Q 2594 391 2855 752 
Q 3116 1113 3116 1747 
z
" transform="scale(0.015625)"/>
      </defs>
      <use xlink:href="#DejaVuSans-70"/>
      <use xlink:href="#DejaVuSans-61" x="63.476562"/>
     </g>
    </g>
    <g id="line2d_4">
     <path d="M 501.309141 64.332813 
L 521.309141 64.332813 
" style="fill: none; stroke: #ec4243"/>
    </g>
    <g id="text_4">
     <!-- pp -->
     <g transform="translate(529.309141 67.832813) scale(0.1 -0.1)">
      <use xlink:href="#DejaVuSans-70"/>
      <use xlink:href="#DejaVuSans-70" x="63.476562"/>
     </g>
    </g>
   </g>
  </g>
 </g>
 <defs>
  <clipPath id="p6bef87e12b">
   <rect x="7.2" y="7.2" width="543.806016" height="1663.2"/>
  </clipPath>
 </defs>
</svg>
